<svg width="646" height="406" viewBox="0 0 646 406" fill="none" xmlns="http://www.w3.org/2000/svg">
<path d="M78.4198 320.594C78.3539 321.088 78.2661 321.637 78.1563 322.274C78.0246 323.032 77.8489 323.888 77.6184 324.866C74.6542 337.693 85.5119 343.129 51.9615 336.715" stroke="black" stroke-width="1.4173" stroke-miterlimit="10"/>
<path d="M78.4198 320.594C78.332 320.539 78.2332 320.473 78.1124 320.418C75.5544 319.144 79.2322 313.84 78.4198 320.594Z" stroke="black" stroke-width="1.4173" stroke-miterlimit="10"/>
<path d="M64.2245 320.934C64.8723 322.065 65.9043 323.196 68.7367 323.383C73.1172 323.68 76.6303 323.109 78.1563 322.274C79.1115 321.769 79.2981 321.154 78.4198 320.594" stroke="black" stroke-width="1.4173" stroke-miterlimit="10"/>
<path d="M64.2245 320.934C62.5777 324.306 60.6785 327.062 58.373 327.831C53.9376 329.302 49.4913 322.889 57.8789 319.43C63.0498 317.299 63.1596 319.111 64.2245 320.934Z" stroke="black" stroke-width="1.4173" stroke-miterlimit="10"/>
<path d="M124.958 247.158C124.047 246.839 122.707 246.411 121.061 246.005C118.623 245.401 115.538 244.819 112.289 244.676C107.678 244.478 102.737 245.148 98.8399 247.861C87.4881 255.756 91.4404 264.147 96.8638 264.641C99.9048 264.915 102.638 262.565 104.977 261.478C106.81 260.621 108.391 260.556 109.698 263.158C110.356 264.487 110.181 265.179 109.39 265.563C109.138 265.695 108.819 265.794 108.435 265.882C107.985 265.981 107.458 266.057 106.865 266.123C102.671 266.618 95.228 266.925 89.4642 274.514C80.0885 286.857 70.7129 304.626 68.2427 311.039C67.057 314.125 65.7506 317.804 64.2245 320.934" stroke="black" stroke-width="1.4173" stroke-miterlimit="10"/>
<path d="M126.253 247.652H126.242L126.231 247.641C126.231 247.641 126.231 247.652 126.22 247.641C126.111 247.575 125.682 247.41 125.013 247.18" stroke="black" stroke-width="1.4173" stroke-miterlimit="10"/>
<path d="M125.013 247.18C125.166 247.235 125.32 247.3 125.485 247.366C125.913 247.542 126.155 247.63 126.22 247.641" stroke="black" stroke-width="1.4173" stroke-miterlimit="10"/>
<path d="M125.013 247.18C124.991 247.169 124.98 247.169 124.958 247.158" stroke="black" stroke-width="1.4173" stroke-miterlimit="10"/>
<path d="M100.465 307.69C108.062 306.318 117.525 301.672 120.555 294.754C121.675 292.184 121.807 290.031 121.313 287.978C120.731 285.617 119.315 283.387 117.602 280.796C116.219 278.698 114.638 276.359 113.145 273.526C111.366 270.132 109.654 267.398 108.435 265.882C107.096 264.202 106.371 264.015 106.865 266.124C107.162 267.387 107.908 269.462 109.204 272.537C112.168 279.544 116.01 281.85 117.602 280.796C118.931 279.928 118.7 276.754 115.121 272.043C113.09 269.375 111.125 267.266 109.39 265.564C107.634 263.84 106.108 262.533 104.977 261.479C102.858 259.513 102.101 258.437 103.769 257.24C106.36 255.384 106.733 257.701 108.633 259.809C109.259 260.512 110.06 261.182 111.18 261.676C115.615 263.653 107.722 258.228 110.192 257.24C112.651 256.251 114.627 259.711 117.591 261.182C119.842 262.313 124.958 264.301 125.309 262.785C125.419 262.324 125.068 261.501 124.003 260.205C119.567 254.769 112.168 250.332 118.085 252.792C124.003 255.263 124.003 261.182 125.979 257.24C127.955 253.286 124.497 251.32 122.027 248.355C120.753 246.818 120.402 246.071 121.061 246.005C121.609 245.928 122.894 246.346 124.958 247.158" stroke="black" stroke-width="1.4173" stroke-miterlimit="10"/>
<path d="M100.465 307.69C93.6471 315.619 87.8065 322.955 85.5119 323.878C80.5826 325.854 89.4642 308.58 97.3578 308.086C98.3349 308.02 99.3779 307.888 100.465 307.69Z" stroke="black" stroke-width="1.4173" stroke-miterlimit="10"/>
<path d="M242.428 325.261C243.395 325.953 244.075 327.194 243.921 329.303C243.427 336.221 231.088 336.715 222.206 330.291C213.324 323.878 215.3 322.395 215.3 316.97C215.3 311.534 211.348 308.086 215.794 301.661C220.23 295.248 218.254 286.363 218.254 286.363C218.254 286.363 206.913 303.638 174.833 299.684C146.322 296.181 133.411 296.577 129.503 284.925C129.02 283.464 128.669 281.817 128.449 279.95C127.527 272.131 127.252 266.025 127.867 262.928C128.57 259.381 130.447 259.798 133.872 266.124C139.219 275.975 137.375 281.389 129.503 284.925C127.922 285.639 126.078 286.276 124.003 286.858C123.146 287.099 122.246 287.473 121.313 287.978C115.066 291.261 107.271 299.772 100.465 307.69" stroke="black" stroke-width="1.4173" stroke-miterlimit="10"/>
<path d="M242.428 325.261C240.76 325.162 238.882 324.865 237.993 324.865C236.632 324.865 240.255 323.679 242.428 325.261Z" stroke="black" stroke-width="1.4173" stroke-miterlimit="10"/>
<path d="M254.274 283.068C252.913 285.858 250.684 290.163 247.369 295.247C239.969 306.603 237.005 316.475 226.652 314.498C216.288 312.522 220.23 313.51 220.23 313.51C220.23 313.51 224.182 317.464 233.064 316.969C241.945 316.475 243.921 321.406 245.404 323.877C246.216 325.239 244.481 325.403 242.428 325.261" stroke="black" stroke-width="1.4173" stroke-miterlimit="10"/>
<path d="M254.274 283.069C255.065 282.465 255.581 281.751 255.767 280.927C256.305 278.478 255.954 279.631 254.274 283.069Z" stroke="black" stroke-width="1.4173" stroke-miterlimit="10"/>
<path d="M217.474 231.004C217.749 230.631 218.034 230.279 218.319 229.972C220.746 227.402 223.721 226.941 225.17 231.575C227.629 239.471 223.688 242.919 232.57 241.931C241.451 240.954 249.345 235.518 251.815 246.379C254.285 257.24 249.839 260.205 255.767 266.124C261.685 272.043 251.815 278.468 237.499 278.468C223.194 278.468 220.23 279.95 232.076 283.399C241.737 286.221 250.75 285.749 254.274 283.069" stroke="black" stroke-width="1.4173" stroke-miterlimit="10"/>
<path d="M215.498 249.618C215.169 246.181 214.279 241.195 214.806 237.494C215.136 235.133 216.168 232.783 217.463 231.015" stroke="black" stroke-width="1.4173" stroke-miterlimit="10"/>
<path d="M215.498 249.618C213.105 250.672 211.82 252.045 213.818 253.286C215.652 254.428 215.783 252.605 215.498 249.618Z" stroke="black" stroke-width="1.4173" stroke-miterlimit="10"/>
<path d="M151.186 185.473C151.811 185.374 152.756 185.275 154.106 185.166C160.517 184.671 174.339 188.131 185.691 187.142C187.832 186.956 189.709 186.659 191.334 186.341C198.35 184.979 200.798 183.145 199.996 187.142C199.689 188.669 198.723 190.679 197.471 192.875C197.01 193.688 196.516 194.522 195.989 195.368C194.661 197.564 193.19 199.837 191.927 201.957C190.719 203.978 189.698 205.855 189.139 207.382C188.644 208.744 187.623 210.72 186.262 212.884C185.68 213.817 185.022 214.795 184.308 215.772C180.169 221.516 174.328 227.226 169.893 225.645C165.611 224.118 159.442 239.065 159.474 251.013C159.485 254.56 160.034 257.833 161.341 260.337C162.746 263.038 165.019 264.839 168.422 265.136C179.005 266.047 192.355 264.356 202.488 261.896C208.889 260.337 213.994 258.47 216.288 256.746C222.206 252.298 228.617 247.861 223.688 247.861C221.24 247.861 217.836 248.586 215.498 249.618" stroke="black" stroke-width="1.4173" stroke-miterlimit="10"/>
<path d="M151.175 185.473C150.318 185.89 149.253 185.747 151.175 185.473V185.473Z" stroke="black" stroke-width="1.4173" stroke-miterlimit="10"/>
<path d="M151.175 185.473C151.185 185.473 151.185 185.473 151.175 185.473" stroke="black" stroke-width="1.4173" stroke-miterlimit="10"/>
<path d="M254.889 215.168C254.461 212.807 254.033 210.544 253.627 208.403C253.165 205.921 252.726 203.593 252.309 201.462C251.233 195.873 250.86 191.03 250.992 186.802C251.552 167.858 262.135 161.291 264.155 156.041C264.386 155.448 264.517 154.822 264.572 154.153C265.088 147.629 257.765 137.943 253.297 129.883C248.357 120.998 226.652 107.183 219.736 107.183C212.83 107.183 210.854 100.759 211.842 112.608C212.83 124.458 225.664 119.516 209.372 126.917C193.091 134.33 187.173 140.249 184.209 143.215C181.245 146.169 183.221 143.709 177.798 132.354C175.404 127.346 173.395 121.855 170.749 117.407C168.422 113.498 165.611 110.401 161.615 109.149C159.859 108.6 157.861 108.402 155.588 108.655C142.26 110.137 120.061 131.859 116.603 140.249C115.901 141.963 115.11 143.138 114.331 144.093C111.279 147.816 108.325 148.134 110.686 163.454C113.639 182.705 121.544 190.601 119.567 198.003C117.591 205.405 124.991 204.417 127.955 201.957C127.966 201.946 127.988 201.935 127.999 201.913C130.952 199.277 134.366 178.203 134.366 166.902C134.366 160.236 132.84 156.975 131.973 158.721C131.369 159.94 131.084 163.641 131.896 170.362C133.06 179.938 129.953 191.557 127.999 201.913C127.889 202.517 127.779 203.121 127.67 203.714C127.593 204.153 127.516 204.581 127.45 205.01C126.451 211.061 126.067 216.53 127.461 220.714C131.413 232.552 137.331 239.965 136.343 242.425C135.86 243.644 127.527 244.028 119.117 243.798C117.262 243.743 115.396 243.666 113.617 243.556C113.2 243.534 112.783 243.501 112.365 243.479C106.448 243.073 101.672 242.359 101.31 241.447C100.476 239.372 97.8957 229.258 107.381 231.97C109.171 232.486 111.388 233.453 114.133 235.023C131.413 244.896 129.931 244.402 126.967 232.552C124.003 220.714 124.003 215.772 123.015 211.335C122.499 208.996 124.431 206.942 127.45 205.01C130.184 203.263 133.818 201.627 137.331 199.98C144.73 196.521 149.177 194.544 150.659 198.497C151.68 201.254 155.368 208.096 159.507 211.807C161.297 213.422 163.174 214.443 164.964 214.289C166.127 214.19 167.588 214.081 169.223 213.96C172.846 213.685 177.315 213.367 181.157 213.136C183.078 213.026 184.835 212.939 186.262 212.884C187.239 212.84 188.063 212.818 188.655 212.818C190.05 212.818 187.865 214.179 184.308 215.772C182.804 216.453 181.058 217.178 179.236 217.847C176.008 219.055 172.539 220.132 169.739 220.615C167.247 221.054 165.282 221.021 164.47 220.22C162.944 218.682 161.11 215.311 159.507 211.807C157.509 207.415 155.863 202.835 155.588 201.462C155.105 199.035 164.612 205.174 170.091 202.121C170.19 202.077 170.288 202.023 170.387 201.957C174.23 199.508 172.638 197.07 171.375 197.07C170.848 197.07 170.387 197.487 170.387 198.497C170.387 199.156 170.266 200.452 170.091 202.121C169.772 205.317 169.289 209.886 169.223 213.96C169.179 216.541 169.3 218.924 169.739 220.615C170.135 222.196 170.804 223.174 171.869 223.174C174.658 223.174 177.293 221.285 179.236 217.847C179.993 216.508 180.641 214.926 181.157 213.136C181.651 211.412 182.024 209.49 182.233 207.382C183.221 197.509 188.161 204.417 192.597 197.509C193.025 196.85 193.497 196.235 194.013 195.686C195.078 194.511 196.297 193.577 197.471 192.875C201.533 190.448 205.145 190.799 200.984 193.566C199.755 194.379 198.042 194.961 195.989 195.368C195.363 195.488 194.705 195.598 194.013 195.686C187.711 196.532 179.093 196.07 171.485 195.488C169.553 195.335 167.697 195.181 165.952 195.038C154.106 194.05 149.671 186.648 147.694 188.625C145.718 190.601 145.224 190.107 145.224 184.671C145.224 181.827 144.269 179.927 144.653 178.983C144.994 178.126 146.432 178.049 150.659 178.752C151.23 178.851 151.768 178.95 152.273 179.07C159.771 180.729 161.835 184.188 173.845 184.188C181.552 184.188 187.656 185.077 190.983 184.506C193.19 184.122 194.178 183.09 193.585 180.729C192.103 174.798 191.609 159.995 172.363 162.96C157.158 165.299 154.271 174.722 152.273 179.07C151.746 180.224 151.284 181.014 150.659 181.223C147.694 182.211 144.73 182.705 148.188 183.2C151.636 183.694 152.624 184.188 151.636 185.165C151.504 185.297 151.35 185.396 151.186 185.473" stroke="black" stroke-width="1.4173" stroke-miterlimit="10"/>
<path d="M266.625 312.127C271.489 313.346 274.914 315.191 271.555 320.418C267.108 327.337 244.91 328.314 245.898 314.993C246.875 301.661 253.791 299.685 262.179 300.673C269.469 301.529 261.092 249.047 254.9 215.212" stroke="black" stroke-width="1.4173" stroke-miterlimit="10"/>
<path d="M266.625 312.127C260.291 319.1 254.944 317.794 252.309 316.476C249.345 314.993 254.779 309.557 261.685 311.04C263.365 311.402 265.066 311.732 266.625 312.127Z" stroke="black" stroke-width="1.4173" stroke-miterlimit="10"/>
<path d="M254.9 215.212C256.097 218.671 257.052 222.185 257.238 225.151C257.524 229.587 263.562 252.276 267.492 273.13C270.555 289.384 272.323 304.527 269.084 309.063C268.25 310.227 267.427 311.248 266.625 312.127" stroke="black" stroke-width="1.4173" stroke-miterlimit="10"/>
<path d="M254.9 215.212C254.9 215.201 254.9 215.19 254.889 215.168" stroke="black" stroke-width="1.4173" stroke-miterlimit="10"/>
<path d="M173.34 89.4254C167.181 87.5146 160.034 83.8027 160.034 86.9435C160.034 88.5249 160.43 91.6877 161.385 95.1689C161.846 96.8821 162.439 98.6612 163.185 100.363C163.416 100.858 163.635 101.341 163.877 101.824C164.031 102.12 164.195 102.417 164.349 102.713C165.776 105.25 167.599 107.436 169.893 108.655C171.463 109.489 173.637 110.038 176.14 110.357C181.223 111.005 187.656 110.697 193.036 109.918C194.211 109.742 195.33 109.555 196.373 109.347C199.382 108.732 201.775 107.974 202.961 107.183C206.1 105.086 210.481 102 211.71 98.9796C212.237 97.7277 212.215 96.4868 211.348 95.3337C209.899 93.4008 209.284 94.4112 208.68 95.147C208.066 95.8937 207.484 96.366 206.1 93.2581C206.045 93.1263 205.98 92.9945 205.925 92.8627C202.961 85.9551 209.372 82.99 201.972 85.9551C198.723 87.251 195.287 88.8434 192.234 89.8317C191.126 90.1941 190.061 90.4797 189.084 90.6444C186.646 91.0507 184.703 90.6883 183.715 88.9093C181.245 84.4726 175.328 79.0366 168.422 78.0592C161.506 77.0708 175.822 67.6923 178.292 68.6806C180.751 69.658 180.257 78.5534 182.233 81.5075C183.463 83.3524 186.613 88.459 188.809 88.459C190.138 88.459 191.115 86.5921 191.115 81.0133C191.115 66.2097 196.055 66.2097 202.466 70.6464C208.878 75.0941 200.49 75.0941 197.043 78.5533C193.585 82.0017 202.466 84.9668 204.937 82.99C207.407 81.0133 210.854 73.1173 211.348 77.565C211.721 80.8705 206.88 89.3815 208.68 95.147C209.152 96.6625 210.086 97.9913 211.71 98.9796C212.183 99.2761 212.72 99.5397 213.324 99.7703C223.688 103.724 239.969 110.137 244.416 113.597C248.851 117.056 257.238 125.94 259.709 132.354C262.179 138.767 267.108 148.145 267.108 152.593C267.108 153.142 267.075 153.768 267.02 154.427C266.592 159.061 264.715 165.98 261.685 169.868C258.303 174.227 253.506 181.41 250.992 186.802C250.926 186.912 250.882 187.032 250.827 187.142C248.357 192.578 247.863 197.509 249.345 201.463C249.905 202.934 251.058 205.482 252.331 208.524C253.187 210.577 254.099 212.862 254.889 215.168" stroke="black" stroke-width="1.4173" stroke-miterlimit="10"/>
<path d="M173.34 89.4253C173.505 89.4033 173.67 89.4033 173.845 89.4033C180.257 89.4033 184.209 90.8859 177.798 90.3917C176.469 90.2928 174.943 89.9195 173.34 89.4253Z" stroke="black" stroke-width="1.4173" stroke-miterlimit="10"/>
<path d="M195.572 130.047C195.484 130.08 195.407 130.113 195.319 130.146C193.464 130.794 191.323 131.112 189.226 130.552C186.624 129.871 184.088 127.85 182.233 123.469C179.796 117.714 177.864 113.442 176.14 110.356C174.054 106.557 172.297 104.536 170.387 103.723C168.883 103.075 166.523 102.812 164.349 102.713C163.822 102.68 163.295 102.669 162.801 102.669C160.693 102.636 159.046 102.735 159.046 102.735C159.046 102.735 160.594 102.427 162.922 101.999C163.229 101.944 163.548 101.889 163.877 101.823C168.773 100.956 176.228 99.7368 180.586 99.627C181.695 99.594 182.606 99.6379 183.221 99.7697C187.667 100.758 189.633 103.723 189.633 106.194C189.633 107.765 191.444 109.95 193.014 109.774C193.903 109.675 194.705 108.83 195.067 106.688C196.055 100.758 195.067 98.7814 198.031 97.3098C198.503 97.0792 199.019 96.7936 199.546 96.4862C201.522 95.355 203.674 93.9713 204.069 93.9713C204.223 93.9713 204.069 94.2239 203.455 94.8389C202.928 95.366 201.511 95.9371 199.546 96.4862C194.781 97.815 186.811 99.012 180.575 99.1328C177.282 99.1877 174.471 98.9571 172.857 98.2872C167.094 95.8931 167.412 89.7433 173.34 89.4248" stroke="black" stroke-width="1.4173" stroke-miterlimit="10"/>
<path d="M195.572 130.047C195.923 129.63 196.538 128.235 197.537 125.446C202.466 111.619 204.443 108.16 204.443 108.16C204.443 108.16 201.972 124.951 200.49 126.917C199.941 127.653 198.031 129.136 195.572 130.047Z" stroke="black" stroke-width="1.4173" stroke-miterlimit="10"/>
<path d="M186.855 120.031C187.569 120.866 188.754 121.097 190.621 120.009C194.76 117.604 196.253 112.311 196.769 111.345C196.999 110.916 197.043 111.312 197.043 113.102C197.043 117.44 194.65 129.487 195.319 130.146C195.385 130.212 195.473 130.179 195.572 130.047" stroke="black" stroke-width="1.4173" stroke-miterlimit="10"/>
<path d="M186.855 120.032C185.691 114.915 185.691 113.597 185.691 113.597C185.691 113.597 185.23 118.22 186.855 120.032Z" stroke="black" stroke-width="1.4173" stroke-miterlimit="10"/>
<path d="M143.995 251.683C145.532 253.912 153.458 266.047 147.2 270.078C140.295 274.514 142.754 277.973 143.742 262.665C144.039 258.096 143.545 254.582 142.513 251.924C140.097 245.698 134.773 244.204 129.931 244.896C126.253 245.423 122.312 244.83 119.117 243.798C116.296 242.875 114.078 241.612 113.145 240.459C112.201 239.273 109.445 235.935 107.381 231.97C105.12 227.655 103.67 222.592 106.239 218.737C111.18 211.335 116.603 212.324 122.027 206.888C123.992 204.922 125.968 204.186 127.67 203.714C130.678 202.89 132.884 202.901 132.884 198.498C132.884 191.59 135.849 186.154 141.272 178.752C141.514 178.434 141.744 178.093 141.975 177.742C147.036 170.12 150.461 156.81 146.212 152.099C141.766 147.157 137.331 156.042 129.931 157.03C129.701 157.052 129.481 157.074 129.261 157.096C122.872 157.513 115.648 151.956 114.331 144.093C114.144 143.017 114.078 141.897 114.133 140.744C114.627 130.871 133.378 107.667 144.73 102.736C152.503 99.3642 158.421 95.5206 161.385 95.1692C162.746 95.0154 163.482 95.5975 163.482 97.3106C163.482 98.0903 163.372 99.1336 163.185 100.364C163.108 100.88 163.021 101.429 162.922 102C162.889 102.22 162.845 102.439 162.801 102.67C162.461 104.658 162.021 106.898 161.615 109.149C160.452 115.453 159.54 121.855 161.505 122.975C164.964 124.952 172.363 124.458 170.881 118.033C170.826 117.803 170.782 117.594 170.749 117.407C169.805 112.477 174.976 123.59 178.786 126.918C182.277 129.982 189.655 136.922 189.226 130.553C189.171 129.74 188.985 128.697 188.655 127.412C187.854 124.337 187.272 121.921 186.855 120.032" stroke="black" stroke-width="1.4173" stroke-miterlimit="10"/>
<path d="M143.742 251.32C143.742 251.32 143.742 251.331 143.753 251.342C143.775 251.364 143.808 251.408 143.863 251.485" stroke="black" stroke-width="1.4173" stroke-miterlimit="10"/>
<path d="M143.863 251.485C143.841 251.452 143.819 251.43 143.797 251.408C143.786 251.375 143.764 251.353 143.753 251.342" stroke="black" stroke-width="1.4173" stroke-miterlimit="10"/>
<path d="M143.863 251.484C143.896 251.539 143.94 251.605 143.995 251.682" stroke="black" stroke-width="1.4173" stroke-miterlimit="10"/>
<path d="M217.463 231.015C217.134 232.904 216.782 234.035 216.782 234.035C216.782 234.035 215.3 242.919 223.194 240.953C228.101 239.723 223.479 234.683 218.319 229.971C218.122 229.785 217.913 229.598 217.705 229.422C214.762 226.754 211.754 224.25 210.36 222.68C209.032 221.186 206.43 219.692 203.059 218.847C197.175 217.342 188.974 217.793 181.256 223.602C180.257 224.36 179.269 225.205 178.292 226.139C170.321 233.804 162.362 243.743 159.474 251.013C157.707 255.449 157.828 258.898 161.011 260.205C161.121 260.249 161.22 260.292 161.341 260.336C170.036 263.642 194.65 263.137 200.49 261.182C203.422 260.216 203.334 260.918 202.488 261.896C201.643 262.884 199.996 264.147 199.996 264.147C199.996 264.147 180.257 280.433 164.47 269.583C150.714 260.117 145.191 253.286 143.995 251.683" stroke="black" stroke-width="1.4173" stroke-miterlimit="10"/>
<path d="M217.463 231.014C217.463 231.004 217.473 231.004 217.473 231.004" stroke="black" stroke-width="1.4173" stroke-miterlimit="10"/>
<path d="M248.642 155.448C247.193 155.173 245.623 154.734 243.921 154.075C228.617 148.145 237.993 153.087 235.04 162.959C232.076 172.832 226.652 198.003 212.83 201.956C207.22 203.559 203.169 203.856 200.315 203.647C196.143 203.351 194.573 201.956 194.573 201.956C194.573 201.956 197.274 202.615 200.315 203.647C205.189 205.295 210.931 207.908 207.901 210.346C202.961 214.289 203.455 217.254 203.455 217.254C203.455 217.254 215.3 208.37 217.277 217.254C218.188 221.383 218.144 225.293 217.836 228.302C217.793 228.697 217.749 229.07 217.705 229.422C217.628 229.993 217.551 230.52 217.474 231.003" stroke="black" stroke-width="1.4173" stroke-miterlimit="10"/>
<path d="M248.642 155.448C251.683 151.253 254.878 148.64 257.733 148.64C263.881 148.64 260.269 157.612 248.642 155.448Z" stroke="black" stroke-width="1.4173" stroke-miterlimit="10"/>
<path d="M334.747 189.316C334.725 190.986 334.33 192.413 333.682 193.566C332.31 195.993 329.807 197.146 327.315 196.52C323.362 195.532 321.397 195.038 319.915 197.015C318.433 198.991 317.445 198.991 315.963 198.991C314.481 198.991 309.057 195.038 308.069 193.072C307.959 192.852 307.828 192.589 307.696 192.292C306.576 189.953 304.721 185.659 305.599 185.659C306.587 185.659 312.021 182.705 313.987 182.705C314.887 182.705 316.314 183.54 317.697 184.1C319.311 184.77 320.859 185.066 321.397 183.199C322.385 179.74 326.327 178.258 327.315 175.292C328.303 172.338 329.291 168.385 330.279 167.891C330.74 167.66 331.728 166.803 332.958 165.727C334.363 164.519 336.086 163.026 337.678 161.971C339.073 161.038 341.664 158.798 344.232 156.481C347.109 153.878 349.963 151.165 351.006 150.122C352.971 148.145 356.43 145.685 356.924 149.134C356.946 149.254 356.957 149.375 356.99 149.496C357.593 152.835 359.943 156.184 361.37 159.995C362.841 163.948 374.193 162.96 364.323 166.408C354.454 169.867 340.148 174.315 337.184 172.833C335.098 171.789 332.771 168.791 332.958 165.727C332.979 165.244 333.067 164.761 333.243 164.289C333.506 163.487 333.979 162.707 334.714 161.971C338.666 158.018 336.196 156.041 334.22 151.11C332.255 146.169 330.773 129.882 338.172 119.516C343.069 112.663 346.889 106.886 350.622 107.908C352.532 108.424 354.432 110.73 356.43 115.573C356.616 116.023 356.792 116.452 356.957 116.869C361.699 129.037 358.131 130.497 361.502 137.614C361.743 138.13 362.018 138.679 362.347 139.261C363.258 140.897 363.127 142.523 362.292 144.126C361.721 145.235 360.799 146.311 359.646 147.366C358.867 148.101 357.967 148.804 356.99 149.496C353.147 152.22 348.152 154.647 344.232 156.481C341.356 157.831 339.051 158.875 338.172 159.501C337.107 160.269 335.296 162.048 333.243 164.289C328.566 169.329 322.605 176.665 320.903 179.74C320.178 181.058 319.103 182.541 317.697 184.1C315.282 186.801 311.901 189.712 307.696 192.292C306.126 193.27 304.435 194.192 302.646 195.038C293.27 199.486 256.744 208.37 254.285 208.37C254.088 208.37 253.868 208.381 253.627 208.403C253.231 208.425 252.792 208.469 252.331 208.524C249.806 208.765 246.655 208.974 245.898 205.899C244.91 201.956 240.957 216.76 239.969 205.899C238.981 195.038 231.088 200.474 233.558 204.911C236.028 209.358 227.629 211.335 227.629 206.393C227.629 201.462 221.218 213.301 223.688 202.451C226.158 191.59 234.052 195.532 237.993 179.74C240.31 170.482 244.328 161.378 248.642 155.448" stroke="black" stroke-width="1.4173" stroke-miterlimit="10"/>
<path d="M334.747 189.316C336.064 189.481 337.733 189.173 339.654 188.13C345.078 185.165 334.22 182.211 334.714 188.13C334.747 188.536 334.758 188.943 334.747 189.316Z" stroke="black" stroke-width="1.4173" stroke-miterlimit="10"/>
<path d="M379.726 121.591C374.226 125.445 370.526 129.256 367.782 132.353C366.168 134.165 363.741 135.966 361.502 137.613C361.063 137.932 360.634 138.25 360.217 138.558C357.528 140.535 355.431 142.204 355.936 143.214C356.221 143.785 357.703 145.345 359.646 147.365C364.444 152.351 372.074 160.148 371.723 162.96C371.229 166.902 371.723 168.385 373.699 172.338C375.675 176.281 382.087 185.165 385.051 188.13C386.895 189.975 390.847 194.115 392.604 196.981C393.68 198.717 393.943 199.979 392.45 199.979C390.474 199.979 388.004 199.112 385.336 197.366C383.031 195.861 380.572 193.698 378.178 190.865C377.838 190.469 377.498 190.041 377.157 189.613C371.723 182.705 370.252 173.326 365.805 173.821C361.37 174.315 354.454 171.844 358.406 176.775C362.347 181.717 365.805 180.728 367.287 186.647C368.77 192.578 376.169 191.589 376.169 191.589C376.169 191.589 370.746 195.532 366.793 196.026C364.938 196.257 361.128 195.62 357.099 194.873C352.543 194.038 347.702 193.072 345.078 193.072C341.169 193.072 335.384 192.764 334.89 194.104C334.758 194.456 334.989 194.917 335.702 195.532C339.16 198.497 348.536 199.979 351.006 198.497C352.104 197.838 354.86 196.685 357.099 194.873C359.91 192.622 361.908 189.327 358.9 184.671C353.465 176.281 342.608 181.222 339.16 181.717C335.702 182.211 332.749 182.211 331.761 185.165C331.124 187.087 332.343 188.998 334.747 189.316" stroke="black" stroke-width="1.4173" stroke-miterlimit="10"/>
<path d="M379.726 121.591C388.224 120.746 400.904 119.944 401.332 119.516C401.826 119.022 398.379 111.126 388.015 116.562C384.864 118.209 382.119 119.911 379.726 121.591Z" stroke="black" stroke-width="1.4173" stroke-miterlimit="10"/>
<path d="M332.749 89.4036C332.749 89.4036 332.749 89.4036 332.76 89.4146C333.001 89.8319 339.874 101.308 348.437 104.69C350.842 105.635 353.378 105.953 355.936 105.207C365.816 102.318 369.856 95.3119 370.921 90.7764C371.13 89.8758 371.229 89.0742 371.229 88.4262C371.229 84.4728 367.782 61.268 357.912 56.3372C348.042 51.3953 330.279 54.3605 327.809 64.2332C325.338 74.1059 331.761 81.0135 329.785 84.4728C328.841 86.12 330.367 87.2072 332.903 87.4159C335.713 87.6355 339.742 86.8009 343.102 84.4728C349.524 80.0251 360.382 72.1291 362.347 77.5652C364.323 82.9902 366.793 86.4495 367.781 86.9437C368.374 87.2402 369.834 88.591 370.921 90.7764C371.657 92.2589 372.217 94.1258 372.217 96.3222C372.217 101.747 377.651 105.701 371.229 110.137C364.817 114.585 359.394 114.585 359.394 116.068C359.394 116.123 359.405 116.177 359.427 116.243C360.042 117.924 368.385 122.668 371.229 114.585C374.193 106.195 374.193 110.137 372.711 116.562C371.229 122.975 368.276 122.975 376.169 121.987C377.223 121.855 378.42 121.723 379.726 121.591" stroke="black" stroke-width="1.4173" stroke-miterlimit="10"/>
<path d="M389.332 141.249C390.145 143.203 390.244 145.422 388.509 147.157C383.569 152.099 372.711 161.477 368.276 155.558C367.716 154.811 367.156 153.955 366.596 153.01C365.103 150.506 363.61 147.365 362.292 144.126C361.535 142.27 360.832 140.381 360.217 138.558C359.087 135.23 358.252 132.134 357.912 129.882C356.924 123.469 356.43 121.986 352.477 111.619C352.016 110.4 351.38 109.149 350.622 107.908C349.974 106.831 349.239 105.755 348.437 104.69C342.465 96.7609 333.133 89.6886 332.76 89.4141" stroke="black" stroke-width="1.4173" stroke-miterlimit="10"/>
<path d="M389.332 141.248C387.005 142.149 385.413 141.622 384.557 137.778C383.92 134.901 387.839 137.624 389.332 141.248Z" stroke="black" stroke-width="1.4173" stroke-miterlimit="10"/>
<path d="M407.238 92.5225C411.52 99.9023 412.629 108.446 407.754 115.573C401.332 124.952 399.85 124.952 396.897 127.906C393.932 130.871 393.438 139.261 390.474 140.744C390.079 140.942 389.695 141.117 389.332 141.249" stroke="black" stroke-width="1.4173" stroke-miterlimit="10"/>
<path d="M407.238 92.5224C394.822 85.5929 377.157 83.4844 377.157 83.4844C377.157 83.4844 394.426 77.5651 402.32 85.9553C404.219 87.9759 405.888 90.1943 407.238 92.5224Z" stroke="black" stroke-width="1.4173" stroke-miterlimit="10"/>
<path d="M358.801 327.82C356.77 331.071 354.926 335.145 355.936 338.187C357.912 344.117 365.311 342.635 365.311 342.635C365.311 342.635 359.394 339.175 358.9 335.727C358.406 332.268 365.311 336.715 368.276 337.21C371.229 337.693 367.782 330.291 365.311 324.372C365.048 323.746 364.73 322.922 364.356 321.945C361.26 313.687 355.003 294.303 355.442 286.364C355.936 277.479 367.782 213.301 371.229 204.911C374.687 196.521 374.687 195.038 374.687 195.038C374.687 195.038 378.156 197.147 385.336 197.366C387.433 197.443 389.859 197.344 392.604 196.982C392.681 196.971 392.769 196.96 392.846 196.949C397.643 196.301 403.429 194.852 410.214 192.084C432.127 183.134 439.45 171.757 440.635 169.703C440.756 169.483 440.811 169.374 440.811 169.374C440.811 169.374 442.787 162.466 437.858 150.122C432.917 137.779 422.554 102.736 410.214 94.3455C409.269 93.6975 408.27 93.0935 407.238 92.5225" stroke="black" stroke-width="1.4173" stroke-miterlimit="10"/>
<path d="M362.841 322.395C362.841 322.395 362.841 322.395 362.83 322.405C362.819 322.416 362.808 322.438 362.797 322.449C362.479 322.801 360.58 324.986 358.823 327.798" stroke="black" stroke-width="1.4173" stroke-miterlimit="10"/>
<path d="M358.823 327.797C360.92 324.931 362.512 322.823 362.797 322.449" stroke="black" stroke-width="1.4173" stroke-miterlimit="10"/>
<path d="M358.822 327.798C358.812 327.808 358.812 327.819 358.801 327.819" stroke="black" stroke-width="1.4173" stroke-miterlimit="10"/>
<path d="M389.662 312.632C393.065 313.412 396.095 317.376 395.415 320.418C394.426 324.866 387.027 330.785 377.651 337.209C368.276 343.623 365.805 354.978 359.888 355.966C353.96 356.944 345.078 353.001 346.066 348.059C346.725 344.754 354.058 334.321 358.801 327.82" stroke="black" stroke-width="1.4173" stroke-miterlimit="10"/>
<path d="M389.662 312.632C389.695 314.455 389.497 315.97 389.003 316.969C386.039 322.889 381.593 326.842 376.169 326.842C370.746 326.842 380.615 318.452 385.051 314.004C386.456 312.599 388.092 312.28 389.662 312.632Z" stroke="black" stroke-width="1.4173" stroke-miterlimit="10"/>
<path d="M403.374 243.566C402.309 246.125 400.849 248.893 398.873 251.803C387.521 268.594 384.063 286.857 384.063 286.857C384.063 286.857 389.519 303.593 389.662 312.631" stroke="black" stroke-width="1.4173" stroke-miterlimit="10"/>
<path d="M403.374 243.567C402.474 237.615 401.804 232.135 402.814 229.104C404.45 224.206 408.435 231.443 403.374 243.567Z" stroke="black" stroke-width="1.4173" stroke-miterlimit="10"/>
<path d="M432.917 311.039C432.917 311.039 432.917 311.028 432.906 311.017C432.742 310.83 431.644 309.513 429.81 308.217C426.078 305.559 419.271 302.956 411.202 310.051C398.873 320.912 408.743 309.557 407.754 297.718C406.766 285.869 405.284 270.077 405.284 260.204C405.284 255.372 404.219 249.255 403.374 243.566" stroke="black" stroke-width="1.4173" stroke-miterlimit="10"/>
<path d="M437.495 180.882C440.712 179.96 443.556 179.861 445.257 181.223C450.834 185.681 448.573 207.491 442.688 231.069C440.756 238.801 438.44 246.718 435.882 254.274C434.476 258.403 433.4 262.456 432.599 266.376C430.315 277.369 430.085 287.297 430.568 294.984C431.15 304.483 432.786 310.567 432.906 311.017" stroke="black" stroke-width="1.4173" stroke-miterlimit="10"/>
<path d="M437.495 180.883C433.861 186.593 428.625 192.589 422.059 194.05C411.806 196.334 426.714 183.969 437.495 180.883Z" stroke="black" stroke-width="1.4173" stroke-miterlimit="10"/>
<path d="M405.734 342.041C405.987 342.7 406.327 343.238 406.766 343.622C410.708 347.082 415.154 348.553 421.565 353.495C424.617 355.834 427.11 357.515 428.723 357.515C430.513 357.515 431.227 355.472 430.447 350.036C428.965 339.669 428.482 331.279 428.965 323.383C429.108 321.143 429.404 315.432 429.81 308.217C430.03 304.176 430.293 299.64 430.568 294.984C431.172 284.935 431.885 274.25 432.599 266.376C433.038 261.467 433.488 257.656 433.905 255.756C434.762 251.913 438.747 242.271 442.688 231.069C447.848 216.365 452.92 198.991 450.681 188.624C446.739 170.361 443.281 169.373 443.281 169.373C443.281 169.373 443.215 169.56 443.072 169.911C442.469 171.449 440.558 176.061 437.495 180.882" stroke="black" stroke-width="1.4173" stroke-miterlimit="10"/>
<path d="M405.734 342.041C406.788 335.727 407.996 329.05 407.754 327.337C407.315 324.262 403.747 336.792 405.734 342.041Z" stroke="black" stroke-width="1.4173" stroke-miterlimit="10"/>
<path d="M398.939 365.729C398.5 364.488 398.368 362.874 400.344 362.874C404.296 362.874 404.79 363.862 405.778 363.368C406.766 362.874 403.308 358.92 403.308 358.92C403.308 358.92 420.083 359.414 422.059 359.909C424.036 360.403 406.766 354.484 404.79 354.484C403.791 354.484 404.68 348.454 405.734 342.041" stroke="black" stroke-width="1.4173" stroke-miterlimit="10"/>
<path d="M398.939 365.729C399.103 365.883 399.246 366.081 399.367 366.333C400.102 367.805 399.367 366.959 398.939 365.729Z" stroke="black" stroke-width="1.4173" stroke-miterlimit="10"/>
<path d="M553.154 261.226C553.045 263.477 551.65 266.102 549.707 267.617C545.898 270.593 536.149 269.748 534.875 273.13C533.602 276.523 539.113 298.147 536.577 297.729C536.258 297.675 535.929 297.356 535.611 296.829C533.316 293.117 530.956 279.071 530.209 273.13C529.364 266.354 525.126 261.687 523.435 265.498C521.877 269.001 527.432 286.715 534.579 297.488C535.226 298.476 535.896 299.41 536.577 300.266C544.624 310.447 560.312 315.531 567.942 318.507C572.027 320.1 573.684 321.077 574.266 322.68C574.782 324.075 574.497 325.953 574.299 329.105C574.167 331.169 573.915 331.971 573.64 332.015C573.531 332.026 573.41 331.927 573.3 331.729C572.74 330.818 572.18 327.842 572.18 326.129C572.18 324.954 572.982 323.636 574.266 322.68C576.209 321.209 579.283 320.528 582.346 322.318C587.44 325.283 584.048 342.667 581.501 340.976C579.437 339.603 576.001 334.068 573.64 332.015C573.52 331.905 573.41 331.806 573.3 331.729C572.872 331.411 572.499 331.224 572.18 331.224C570.369 331.224 510.206 342.514 488.15 347.752C484.44 348.641 481.805 349.355 480.707 349.817C478.522 350.728 478.467 354.857 479.368 360.403C481.64 374.262 489.907 397.017 486.075 400.849C480.707 406.219 11.747 407.109 5.47829 400.849C-0.779482 394.579 -0.779482 10.5205 5.47829 4.26079C11.747 -2.00986 470.859 1.57023 483.254 4.26079C494.265 6.64386 499.261 284.595 488.15 347.752C486.778 355.593 485.153 360.128 483.254 360.403H479.368H428.723H427.494C427.494 360.403 430.447 370.276 427.494 375.712C424.53 381.137 385.545 381.137 381.593 379.16C377.651 377.183 375.181 373.241 384.557 370.276C393.142 367.563 397.182 364.027 398.939 365.729" stroke="black" stroke-width="1.4173" stroke-miterlimit="10"/>
<path d="M553.154 261.226C550.069 257.854 542.824 262.302 537.422 263.378C531.066 264.652 528.09 264.235 529.364 261.259C530.637 258.294 543.351 256.602 549.29 257.02C552.188 257.228 553.264 259.062 553.154 261.226Z" stroke="black" stroke-width="1.4173" stroke-miterlimit="10"/>
<path d="M599.879 239.965C599.165 240.668 598.551 241.579 598.035 242.611C595.916 246.85 596.761 263.378 598.035 273.558C599.308 283.739 600.999 298.147 593.797 302.386C589.296 305.043 582.467 303.55 576.122 300.717C572.312 299.014 568.678 296.829 565.824 294.753C558.194 289.252 556.075 271.439 554.373 263.807C554.121 262.664 553.703 261.819 553.154 261.226" stroke="black" stroke-width="1.4173" stroke-miterlimit="10"/>
<path d="M599.879 239.965C603.151 242.952 606.411 246.631 609.903 251.09C619.223 262.961 614.14 274.833 609.474 284.156C604.819 293.491 602.701 295.182 605.665 294.754C608.629 294.336 619.223 286.276 621.77 270.594C624.317 254.9 614.986 246.422 609.474 241.338C605.303 237.483 602.108 237.758 599.879 239.965Z" stroke="black" stroke-width="1.4173" stroke-miterlimit="10"/>
<path d="M618.795 175.655C618.641 173.096 617.62 169.867 616.259 166.287C612.867 157.381 603.546 151.451 598.035 148.903C595.081 147.541 591.272 147.388 587.331 148.145C583.916 148.782 580.414 150.1 577.263 151.868C575.704 152.747 574.585 154.592 573.827 157.085C571.28 165.409 572.663 180.948 574.299 191.721C575.627 200.54 575.287 204.296 574.211 205.251C573.586 205.811 572.696 205.394 571.752 204.449C569.205 201.902 559.456 186.22 562.003 172.646C563.233 166.079 568.546 160.698 573.827 157.085C579.47 153.252 585.08 151.418 585.739 152.296C587.012 153.988 589.131 198.508 586.167 206.986C585.772 208.128 585.289 208.952 584.762 209.534C581.325 213.323 575.803 206.756 577.263 205.295C578.734 203.823 583.093 205.24 584.762 209.534C585.014 210.171 585.212 210.885 585.322 211.654C586.167 217.595 582.346 224.371 573.026 225.644C571.291 225.886 569.403 225.798 567.405 225.414C558.677 223.767 548.06 216.497 540.814 206.141C531.911 193.424 535.303 178.159 537.422 163.74C539.541 149.331 557.337 142.545 570.061 134.912C575.649 131.552 575.584 130.41 572.817 130.651C569.293 130.959 561.399 133.517 555.218 136.603C544.207 142.116 528.09 156.964 525.971 170.526C523.853 184.1 528.09 215.047 546.743 221.834C555.734 225.106 561.882 226.589 567.009 227.544C572.521 228.588 576.868 228.994 582.346 230.312C588.966 231.904 594.434 234.979 599.879 239.965" stroke="black" stroke-width="1.4173" stroke-miterlimit="10"/>
<path d="M618.795 175.655C616.742 172.701 614.909 169.285 613.712 166.716C611.176 161.203 604.391 154.416 595.916 151.451C587.44 148.475 595.07 152.714 598.452 159.5C601.844 166.287 603.118 181.124 612.021 181.552C617.357 181.805 619.037 179.476 618.795 175.655Z" stroke="black" stroke-width="1.4173" stroke-miterlimit="10"/>
<path d="M598.869 318.386C599.275 318.43 599.703 318.474 600.154 318.507C611.593 319.353 623.889 310.875 631.519 304.505C639.149 298.147 646.351 283.31 645.078 265.08C643.815 246.85 637.448 241.337 629.829 230.312C622.199 219.286 600.582 214.618 597.607 209.962C594.642 205.295 598.88 186.637 597.607 171.372C596.333 156.107 595.07 158.226 590.833 153.987C588.966 152.121 587.912 150.407 587.331 148.145C586.584 145.279 586.584 141.501 586.584 135.34C586.584 127.565 585.739 122.316 583.916 119.603C583.137 118.472 582.193 117.78 581.073 117.528C577.263 116.682 572.18 119.647 571.324 124.732C571.006 126.676 571.609 127.51 572.784 127.51C574.694 127.51 578.098 125.336 581.501 122.195C582.467 121.294 583.258 120.427 583.916 119.603C587.034 115.738 587.484 112.86 591.678 112.86C596.761 112.86 599.725 120.493 600.582 125.16C601.427 129.827 605.237 132.364 617.104 136.603C628.972 140.842 634.484 147.629 637.031 161.203C639.578 174.765 630.246 182.398 626.008 181.969C623.757 181.75 621.145 179.004 618.795 175.655" stroke="black" stroke-width="1.4173" stroke-miterlimit="10"/>
<path d="M598.869 318.387C598.397 315.949 597.716 314.192 596.761 313.84C593.501 312.621 589.065 317.256 598.869 318.387Z" stroke="black" stroke-width="1.4173" stroke-miterlimit="10"/>
<path d="M598.924 339.757C599.078 339.362 599.209 338.912 599.308 338.429C599.912 335.376 600.088 324.635 598.869 318.387" stroke="black" stroke-width="1.4173" stroke-miterlimit="10"/>
<path d="M598.924 339.757C596.871 340.031 595.564 340.427 595.488 340.976C595.114 343.6 597.727 342.898 598.924 339.757Z" stroke="black" stroke-width="1.4173" stroke-miterlimit="10"/>
<path d="M631.179 339.703C631.179 339.703 607.872 338.583 598.924 339.758" stroke="black" stroke-width="1.4173" stroke-miterlimit="10"/>
<path d="M569.633 296.873C563.957 293.469 560.73 287.121 565.824 288.823C570.907 290.514 573.026 292.217 573.871 287.978C574.716 283.739 572.597 239.218 574.716 235.825C576.835 232.431 581.073 231.586 582.346 238.362C583.62 245.148 583.62 277.369 583.62 285.43C583.62 293.491 581.929 300.266 580.656 300.695C579.382 301.123 573.871 299.421 569.633 296.873Z" stroke="black" stroke-width="1.4173" stroke-miterlimit="10"/>
</svg>
