<svg width="673" height="370" viewBox="0 0 673 370" fill="none" xmlns="http://www.w3.org/2000/svg">
<path d="M575.688 214.916L575.697 214.925C575.771 215.091 576.758 217.316 575.365 217.842C573.908 218.386 570.486 216.826 570.403 218.515C570.403 218.534 570.403 218.543 570.413 218.571C571.27 221.293 630.696 290.677 630.926 293.178C631.157 295.698 606.761 307.658 606.761 307.658L621.362 313.796L635.354 308.563" stroke="black" stroke-width="1.4173" stroke-miterlimit="10"/>
<path d="M231.116 350.638C233.099 352.225 234.363 354.56 234.972 357.836C236.724 367.176 246.049 366.004 255.964 367.758C265.879 369.502 466.992 368.92 466.992 368.92C487.357 367.721 597.759 322.619 597.759 322.619L605.249 308.424C605.249 308.424 589.071 312.799 582.698 314.192C576.334 315.595 561.964 314.562 552.621 313.519C543.278 312.485 524.988 302.776 524.988 302.776C524.988 302.776 566.898 225.742 568.669 221.238C569.278 219.687 569.398 218.912 569.25 218.598C568.946 217.971 567.618 219.004 566.613 219.447C565.091 220.112 565.847 218.451 565.552 218.709C565.257 218.967 526.63 293.196 522.535 299.648C518.449 306.108 519.057 302.721 515.534 301.189C512.002 299.648 504.337 292.569 496.091 285.499C487.846 278.439 479.785 261.855 479.785 261.855C479.785 261.855 563.301 219.798 562.453 218.838C561.604 217.869 559.409 215.442 556.089 217.076C552.759 218.718 549.937 220.656 547.751 220.592C545.556 220.518 544.052 216.753 544.052 216.753L458.627 259.52C458.627 259.52 453.766 248.334 451.497 240.416C449.228 232.497 446.59 217.528 451.774 191.059C456.957 164.599 484.433 140.641 484.433 140.641C484.433 140.641 538.011 207.68 543.702 214.224C544.246 214.851 544.753 215.377 545.233 215.811C549.706 219.909 551.219 215.996 552.971 214.002C554.908 211.806 558.459 209.194 560.525 212.36C562.591 215.534 562.564 216.236 563.873 215.248C565.137 214.298 568.282 208.483 568.476 208.123C568.485 208.114 568.485 208.105 568.485 208.105L508.589 133.378C508.589 133.378 513.616 129.428 522.747 124.342C531.869 119.257 540.898 115.492 564.565 112.455C588.241 109.419 614.546 123.715 614.546 123.715C614.546 123.715 573.189 200.934 569.859 207.302C569.712 207.588 569.573 207.865 569.444 208.133C566.788 213.689 569.453 213.855 569.453 213.855L570.33 212.24L615.118 129.206C615.118 129.206 625.605 135.934 630.244 139.118C634.874 142.311 646.117 154.761 646.117 154.761C646.117 154.761 577.118 208.031 573.087 211.215C572.119 211.981 571.621 212.489 571.427 212.83C570.837 213.892 573.318 213.264 573.881 213.578H573.89C575.144 213.578 650.867 154.586 650.867 154.586C650.867 154.586 670.549 175.628 671.721 218.035C672.883 260.452 634.772 288.896 634.772 288.896L575.697 214.925" stroke="black" stroke-width="1.4173" stroke-miterlimit="10"/>
<path d="M231.116 350.638C224.983 351.708 219.2 351.708 214.57 352.004C205.236 352.585 198.245 350.25 212.236 348.506C221.321 347.371 227.455 347.703 231.116 350.638Z" stroke="black" stroke-width="1.4173" stroke-miterlimit="10"/>
<path d="M270.186 309.292C266.349 320.874 258.832 336.038 250.135 342.664C243.964 347.371 237.351 349.558 231.116 350.638" stroke="black" stroke-width="1.4173" stroke-miterlimit="10"/>
<path d="M270.186 309.292C273.479 303.062 275.637 297.516 276.375 294.83C278.118 288.407 273.46 288.407 272.87 297.746C272.704 300.451 271.754 304.567 270.186 309.292Z" stroke="black" stroke-width="1.4173" stroke-miterlimit="10"/>
<path d="M207.819 340.126C209.22 341.058 210.539 341.769 211.655 342.083C215.732 343.255 236.724 342.664 250.716 333.334C258.851 327.907 265.602 317.949 270.186 309.292" stroke="black" stroke-width="1.4173" stroke-miterlimit="10"/>
<path d="M207.819 340.126C202.008 340.754 198.457 339.148 195.33 335.669C190.082 329.836 194.74 327.501 197.654 330.999C199.785 333.546 204.074 337.644 207.819 340.126Z" stroke="black" stroke-width="1.4173" stroke-miterlimit="10"/>
<path d="M272.492 272.727C263.315 290.031 238.67 329.623 223.314 335.668C216.728 338.253 211.748 339.711 207.819 340.126" stroke="black" stroke-width="1.4173" stroke-miterlimit="10"/>
<path d="M272.492 272.727C272.022 266.691 273.903 259.871 275.794 255.736C278.708 249.322 281.623 254.574 274.042 269.737C273.59 270.632 273.073 271.638 272.492 272.727Z" stroke="black" stroke-width="1.4173" stroke-miterlimit="10"/>
<path d="M343.373 261.19C342.976 261.873 342.423 262.418 341.676 262.741C337.599 264.485 325.932 262.741 321.855 262.15C321.707 262.132 321.56 262.123 321.412 262.113C317.585 261.993 315.113 267.485 306.692 269.737C297.948 272.071 293.281 272.071 290.948 274.988C289.998 276.178 288.762 276.206 287.701 275.449C286.161 274.388 285.008 271.684 285.7 268.574C286.023 267.143 286.382 266.488 286.714 266.488C287.498 266.488 288.116 270.023 287.701 275.449C287.637 276.234 287.554 277.046 287.452 277.904C286.281 287.244 281.623 287.825 275.794 281.411C273.719 279.132 272.75 276.049 272.492 272.727" stroke="black" stroke-width="1.4173" stroke-miterlimit="10"/>
<path d="M343.373 261.19C342.524 260.553 341.759 259.898 341.095 259.233C337.009 255.154 340.514 246.987 342.257 249.903C343.686 252.284 345.116 258.154 343.373 261.19Z" stroke="black" stroke-width="1.4173" stroke-miterlimit="10"/>
<path d="M329.067 207.625C330.359 206.407 331.29 204.866 331.761 203.232C332.932 199.144 326.513 193.311 321.855 190.976C317.188 188.641 313.102 193.893 302.615 193.893C300.383 193.893 298.511 193.948 296.952 194.068C291.178 194.52 289.537 195.932 288.614 199.144C287.452 203.232 299.11 209.647 303.196 215.479C304.202 216.919 303.962 218.442 302.92 219.992C299.728 224.708 289.066 229.757 283.366 234.15C275.794 239.982 282.204 253.401 285.7 261.569C286.428 263.258 287.305 264.55 288.236 265.501C291.824 269.155 296.316 267.854 296.777 265.076C297.367 261.569 295.034 254.573 295.034 249.904C295.034 245.234 303.196 244.071 312.521 245.234C314.781 245.52 316.764 246.489 318.415 247.799C323.598 251.897 325.526 259.373 322.436 259.825C322.085 259.871 321.763 259.889 321.486 259.862C318.442 259.594 318.885 255.229 318.35 249.904C318.267 249.073 318.276 248.381 318.415 247.799C319.235 244.357 324.53 245.068 340.514 244.071C341.602 244.006 342.644 243.951 343.659 243.914C359.91 243.379 365.822 247.292 369.659 252.239C373.745 257.49 367.335 265.076 360.334 266.239C354.468 267.217 347.781 264.504 343.373 261.191" stroke="black" stroke-width="1.4173" stroke-miterlimit="10"/>
<path d="M329.067 207.625C329.602 205.124 329.695 202.78 329.427 201.479C328.846 198.562 327.684 195.065 321.265 193.892C314.854 192.73 311.359 194.474 310.778 197.39C310.187 200.307 316.026 209.646 321.265 210.228C324.41 210.579 327.14 209.462 329.067 207.625Z" stroke="black" stroke-width="1.4173" stroke-miterlimit="10"/>
<path d="M256.01 220.841C257.947 217.87 259.266 214.916 259.46 212.563C260.05 205.558 260.05 29.9485 260.05 25.8693C260.05 21.7809 259.46 17.111 261.793 14.1946C264.126 11.2782 344.009 14.1946 354.505 14.1946C365.001 14.1946 365.582 13.6132 365.582 20.618C365.582 27.6136 366.744 224.819 363.83 225.982C360.915 227.145 307.273 226.563 307.273 226.563C307.273 226.563 320.684 219.568 324.769 216.061C327.029 214.123 328.403 210.745 329.067 207.625" stroke="black" stroke-width="1.4173" stroke-miterlimit="10"/>
<path d="M256.01 220.841C250.873 223.573 245.615 226.231 241.972 228.316C233.81 232.986 234.391 236.484 241.391 234.149C246.03 232.599 252.21 226.692 256.01 220.841Z" stroke="black" stroke-width="1.4173" stroke-miterlimit="10"/>
<path d="M0 368.339C0 368.339 53.0614 367.758 95.0365 368.339C137.021 368.921 146.345 354.339 156.842 343.836C167.338 333.334 174.338 302.998 178.996 287.244C183.663 271.49 196.492 236.484 201.159 228.317C205.817 220.149 207.569 212.563 209.903 201.479C212.236 190.395 211.655 189.223 218.647 179.892C225.647 170.552 233.81 144.886 239.639 129.133C245.468 113.379 252.468 114.551 252.468 114.551L255.383 205.558C255.383 205.558 255.383 25.8691 255.964 13.613C256.545 1.35684 262.964 1.9475 269.956 1.35685C276.956 0.775417 349.257 0.775419 357.42 1.9475C365.582 3.11036 370.249 5.4453 370.249 14.1944C370.249 22.9435 370.249 177.557 370.249 177.557L373.745 158.305C373.745 158.305 377.831 160.64 385.403 162.385C392.985 164.138 392.404 167.636 390.07 174.641C387.737 181.646 370.249 181.055 370.249 181.055V209.646L373.745 190.976C373.745 190.976 385.993 193.893 387.737 196.809C389.489 199.725 390.07 204.977 384.241 210.228C378.412 215.479 370.249 214.316 370.249 214.316C370.249 214.316 371.411 218.396 371.411 227.145C371.411 235.903 369.078 237.647 361.496 241.154C359.375 242.133 352.476 242.603 343.631 242.788C320.84 243.249 285.119 241.736 285.119 241.736C285.119 241.736 279.29 238.238 289.786 232.987C297.653 229.046 302.578 225.105 305.53 220.675C306.507 219.198 307.273 217.666 307.854 216.061C310.187 209.646 307.854 211.4 298.529 196.227C298.013 195.388 297.487 194.668 296.952 194.068C287.747 183.833 275.536 206.988 271.127 211.4C268.544 213.984 262.383 217.463 256.01 220.841" stroke="black" stroke-width="1.4173" stroke-miterlimit="10"/>
</svg>
