<svg width="698" height="378" viewBox="0 0 698 378" fill="none" xmlns="http://www.w3.org/2000/svg">
<path d="M179.841 95.96C179.947 96.0573 180.886 96.9157 183.951 100.19C187.22 103.676 198.248 123.375 207.407 136.294C212.845 143.967 218.24 149.037 221.721 151.887C224.104 153.842 225.592 154.754 225.592 154.754L227.222 152.559L231.146 153.603L232.838 147.241L242.635 149.842L240.819 156.692L246.204 158.125L248.552 149.311C248.552 149.311 256.098 146.595 261.449 142.25C266.799 137.905 268.367 132.029 269.341 124.419C270.306 116.817 260.182 111.508 260.182 111.508L258.357 118.366C258.357 118.366 261.564 126.029 261.502 130.206C261.44 134.383 251.519 140.135 251.519 140.135L256.851 120.056L251.129 115.924L244.362 141.383L235.052 138.914L242.599 110.508L251.546 115.11L257.374 118.101L259.199 111.251L259.332 110.756L254.982 108.074L239.942 98.8006L239.844 97.1989L237.656 95.5706C237.656 95.5706 236.248 91.0045 236.664 87.4383C237.089 83.8809 244.043 79.4386 244.043 79.4386L240.004 94.6238L240.686 96.96L240.827 97.4555L244.619 98.9864L249.827 79.4033L259.624 82.0049L253.636 104.526L255.567 107.136L259.358 108.667L265.222 86.633C265.222 86.633 266.56 87.5091 267.738 90.9691C268.916 94.4291 267.879 98.3493 267.879 98.3493L275.745 98.3404C275.745 98.3404 275.94 93.6681 275.541 87.279C275.143 80.8811 268.216 75.368 268.216 75.368L269.908 69.0055L264.026 67.4392L262.334 73.8106L252.529 71.209L254.61 63.3686L248.242 61.6784L246.16 69.5188C246.16 69.5188 229.472 75.0495 227.585 86.0844C225.698 97.1104 235.15 106.959 235.15 106.959L227.86 134.383C227.86 134.383 227.86 134.383 226.318 130.304C224.777 126.224 225.388 118.003 225.388 118.003L217.549 115.924C217.549 115.924 216.477 121.923 217.859 128.578C219.232 135.241 227.116 143.099 227.116 143.099L224.281 151.78C224.281 151.78 224.175 151.568 223.909 151.126C222.793 149.196 218.86 142.931 208.842 130.905C196.512 116.101 173.242 67.4658 173.242 67.4658C173.242 67.4658 171.71 79.1201 170.292 92.3672C168.866 105.623 188.238 143.268 197.459 152.002C206.68 160.736 220.41 172.248 206.441 185.319C192.472 198.38 145.907 219.574 129.103 241.325C112.3 263.076 114.612 323.454 114.612 323.454L257.737 361.443C257.737 361.443 284.116 315.498 285.303 285.402C286.481 255.315 258.508 216.432 246.904 202.867C235.291 189.301 236.106 184.274 240.739 178.691C245.372 173.107 276.852 165.213 296.747 159.479C316.633 153.754 330.558 127.038 331.86 122.145C333.162 117.251 339.495 71.7487 339.495 71.7487L189.018 31.8126L177.237 46.511L182.702 25.9367L372.889 76.4122L377.575 58.7848L158.963 0.769775L154.41 17.9017L162.737 20.114L86.0451 308.534L75.7522 305.8L69.7555 328.33L0.159203 309.853" stroke="black" stroke-width="1.4173" stroke-miterlimit="10"/>
<path d="M219.525 190.168C219.525 190.168 219.533 190.177 219.542 190.186C219.56 190.212 219.604 190.265 219.657 190.345C219.719 190.416 219.79 190.522 219.879 190.637C221.084 192.274 225.025 197.884 225.991 202.566C227.142 208.105 237.347 224.972 237.063 228.042C236.771 231.113 233.697 230.821 227.027 224.326C222.191 219.627 220.428 203.787 219.817 195.433C219.666 193.283 219.587 191.628 219.551 190.787C219.533 190.389 219.525 190.168 219.525 190.168ZM219.525 190.168C219.525 190.168 219.746 192.478 219.817 195.433C219.914 198.929 219.781 203.318 218.807 205.902C217.018 210.663 214.715 233.122 211.136 242.652C207.549 252.183 199.151 246.289 197.743 241.723C196.335 237.148 206.087 226.113 210.392 217.822C214.697 209.521 218.763 190.823 218.763 190.823C218.763 190.823 207.956 199.345 203.456 204.442C198.948 209.539 189.78 222.308 184.855 223.096C179.921 223.883 177.37 221.636 179.549 215.397C181.737 209.167 189.939 201.3 201.827 196.062C212.226 191.487 223.28 186.009 226.292 179.204C226.717 178.231 226.983 177.231 227.063 176.204C227.674 167.974 214.219 150.161 199.568 134.215C185.103 118.463 179.956 96.4998 179.841 95.96C179.832 95.9512 179.832 95.9512 179.832 95.9512" stroke="black" stroke-width="1.4173" stroke-miterlimit="10"/>
<path d="M121.521 281.695C121.326 281.978 121.176 282.42 121.06 282.995C119.67 289.739 123.222 314.729 123.222 314.729L241.35 346.081C241.35 346.081 244.327 344.771 251.307 338.241C258.295 331.71 268.473 317.109 271.104 297.358C273.726 277.615 257.658 249.236 251.209 235.989C245.212 223.689 222.997 194.672 219.879 190.637" stroke="black" stroke-width="1.4173" stroke-miterlimit="10"/>
<path d="M121.521 281.695C123.922 275.447 129.396 268.262 141.868 268.306C163.888 268.386 155.075 273.907 175.891 280.482C196.707 287.048 195.936 272.173 228.577 277.686C261.219 283.208 265.187 297.889 265.187 297.889C265.187 297.889 258.225 294.473 245.381 289.491C232.537 284.509 214.343 283.872 199.585 292.013C184.828 300.154 163.064 299.092 150.097 294.606C137.12 290.11 124.046 278.137 121.539 281.668C121.53 281.677 121.53 281.686 121.521 281.695Z" stroke="black" stroke-width="1.4173" stroke-miterlimit="10"/>
<path d="M396.212 171.001C396.212 171.001 386.07 175.098 386.478 180.761C386.885 186.425 388.099 233.759 390.526 256.413C392.953 279.066 396.195 296.464 399.029 304.959C401.864 313.454 409.561 321.542 418.472 322.763C427.374 323.976 428.588 323.976 428.588 323.976C428.588 323.976 426.32 357.78 413.609 357.549C359.993 356.603 325.606 367.841 307.164 376.557C300.795 379.575 293.815 373.752 295.622 366.947L296.712 362.868L289.36 360.921L364.625 77.89L346.98 73.2088L333.826 122.667L268.066 369.947L99.9433 325.33L171.037 57.9706L180.355 60.4395L196.769 40.1572L329.105 75.2795C329.105 75.2795 332.152 85.5268 327.148 108.313C322.134 131.1 317.758 127.835 308.52 136.914C299.281 146.002 249.934 163.833 240.757 168.735C234.654 172.001 228.816 174.912 226.815 179.452C225.814 181.735 225.778 184.425 227.169 187.77C231.332 197.787 254.106 223.131 267.206 252.82C280.298 282.5 277.889 295.499 272.557 315.569C267.215 335.648 247.763 353.55 247.763 353.55L118.855 319.339L119.643 290.712C119.643 290.712 119.679 287.216 121.06 282.995C121.202 282.571 121.353 282.137 121.521 281.695" stroke="black" stroke-width="1.4173" stroke-miterlimit="10"/>
<path d="M396.212 171.001L392.953 164.983C392.953 164.983 398.223 154.869 406.319 150.426C414.415 145.975 421.705 143.144 421.705 143.144L420.492 139.498C420.492 139.498 406.727 142.737 397.408 150.825C388.099 158.922 387.691 164.585 387.691 164.585L396.212 171.001Z" stroke="black" stroke-width="1.4173" stroke-miterlimit="10"/>
<path d="M535.653 143.099C536.937 147.294 537.929 152.444 537.929 152.444C537.929 152.444 549.268 152.851 554.122 157.701C558.985 162.559 560.198 166.196 554.937 164.178C549.675 162.152 536.716 152.037 532.659 164.178C528.611 176.31 532.659 181.974 542.385 183.195C552.102 184.407 555.344 171.054 555.344 171.054L560.606 169.434C560.606 169.434 558.577 187.637 546.84 189.257C535.095 190.876 528.611 184 526.591 179.549C524.563 175.098 522.136 164.983 528.212 160.134C534.28 155.276 537.318 152.692 537.318 152.692C537.318 152.692 537.123 152.621 536.76 152.506C534.891 151.913 528.7 150.152 522.942 150.825C516.059 151.639 525.777 144.356 520.922 140.312C516.059 136.259 509.983 140.312 511.604 145.161C513.225 150.019 515.652 147.595 514.04 154.064C512.419 160.532 512.419 163.771 503.1 165.797C493.791 167.815 492.17 166.603 492.17 166.603C492.17 166.603 499.858 163.364 501.887 158.108C503.915 152.851 501.081 148.4 501.081 148.4L498.246 149.612C498.246 149.612 498.645 163.364 489.743 162.152C480.832 160.939 476.376 151.232 482.851 146.374C489.335 141.524 497.715 149.506 497.715 149.506L497.918 149.294L500.797 146.321C500.797 146.321 492.976 135.861 485.287 140.312C477.59 144.754 471.115 151.639 477.182 158.515C483.259 165.39 487.307 166.196 487.307 166.196C487.307 166.196 478.803 172.673 472.328 170.647C465.844 168.629 467.058 167.01 467.058 167.01C467.058 167.01 473.134 162.152 469.494 158.515C465.844 154.869 457.341 158.515 459.776 163.364C462.204 168.222 461.796 166.196 462.611 169.842C463.417 173.479 463.01 175.098 465.446 175.912C467.873 176.717 478.803 173.886 486.908 179.142C495.004 184.407 497.431 189.257 497.431 189.257L492.48 190.805L490.956 191.283C490.956 191.283 490.398 190.097 489.211 188.54C486.58 185.115 480.858 179.903 471.115 181.575C456.942 184 453.293 196.539 453.7 203.017C454.107 209.486 460.175 218.795 467.465 221.22C474.755 223.644 477.997 222.025 477.997 222.025L477.917 221.671L477.182 218.388L473.134 219.193L470.3 209.893L460.583 212.724L456.942 200.99L465.038 198.159L462.204 188.044L475.163 183.593L477.59 192.902L488.122 189.664L491.762 201.398L482.453 205.442L486.093 215.556L478.688 217.308L478.803 221.476C478.803 221.476 490.549 215.963 493.383 205.035C496.218 194.115 492.657 191.371 492.657 191.371L499.584 190.717C499.584 190.717 501.081 217.176 487.714 223.237C474.348 229.308 460.99 230.122 450.865 215.149C440.741 200.185 458.554 180.761 458.554 180.761C458.554 180.761 447.623 184 445.595 188.044C443.575 192.088 437.499 206.247 414.415 203.017C391.341 199.778 400.243 190.071 403.485 188.858C406.727 187.637 407.94 194.115 416.444 196.132C424.947 198.159 439.527 195.734 443.575 184C447.623 172.266 443.983 164.585 437.499 158.922C431.024 153.258 416.594 155.656 416.594 155.656L416.816 158.108L417.002 160.107C417.002 160.107 431.422 158.515 434.664 163.364C437.906 168.222 439.12 169.842 439.12 169.842L433.451 172.266C433.451 172.266 429.403 162.966 420.492 166.603C411.581 170.249 414.017 181.168 419.278 184.407C424.54 187.637 432.237 184.805 433.858 180.761C435.479 176.717 435.072 175.505 435.072 175.505L440.741 173.479C440.741 173.479 442.362 183.593 434.257 189.257C426.161 194.92 414.415 192.902 410.367 184.407C406.319 175.912 409.154 167.417 413.202 163.771C415.7 161.532 416.346 159.444 416.196 158.161C416.098 157.373 415.691 156.895 415.23 156.895C414.017 156.895 406.319 160.532 405.106 168.222C403.892 175.912 403.485 181.168 403.485 181.168L401.058 179.956L396.212 171.001" stroke="black" stroke-width="1.4173" stroke-miterlimit="10"/>
<path d="M535.653 143.099C536.043 143.099 546.876 143.055 548.86 138.286C550.889 133.427 547.239 122.508 539.55 125.339C531.853 128.171 531.853 135.454 533.881 138.693C534.493 139.666 535.095 141.294 535.653 143.099Z" stroke="black" stroke-width="1.4173" stroke-miterlimit="10"/>
<path d="M440.75 318.295C441.104 317.189 455.959 271.27 475.969 261.669C496.218 251.962 541.978 234.564 554.122 234.564C566.275 234.564 597.047 243.068 613.248 247.112C629.449 251.156 638.351 251.563 642.807 237.396C647.262 223.237 620.131 156.895 607.171 139.905C597.047 126.631 592.113 119.03 585.425 111.331C583.547 109.172 581.537 107.013 579.234 104.712C568.702 94.1902 563.033 90.9515 555.743 89.7391C550.428 88.8542 538.239 90.5444 530.285 92.4735C527.335 93.1903 524.962 93.9425 523.757 94.5973C519.301 97.022 514.846 102.278 509.584 111.986C504.314 121.702 463.825 134.649 452.885 137.878C441.954 141.117 425.753 140.312 425.753 140.312C425.753 140.312 441.547 145.161 448.43 143.542C455.321 141.923 492.976 128.171 502.693 122.1C512.419 116.039 515.253 111.588 518.486 105.11C519.248 103.597 520.045 102.234 520.967 101.031C523.217 98.0396 526.166 95.9601 530.817 94.7212C532.322 94.323 534.005 94.0133 535.901 93.7832C546.026 92.5709 557.364 91.7656 560.198 92.9779C563.033 94.1902 567.081 94.1902 553.316 95.4026C539.55 96.6149 521.782 99.8095 520.967 101.031C520.161 102.243 524.97 112.8 534.28 117.658C543.598 122.508 546.84 123.72 550.889 122.1C554.937 120.49 558.179 118.871 551.695 118.463C545.22 118.056 541.57 111.986 544.405 106.322C547.239 100.659 552.102 99.0484 557.771 103.898C563.44 108.756 558.985 109.968 559.791 112.8C560.606 115.632 562.9 122.366 564.919 123.578C565.15 123.72 565.353 123.755 565.539 123.711C567.019 123.384 567.444 118.003 570.323 114.419C572.9 111.207 579.561 109.526 582.998 112.004C583.893 112.65 584.566 113.57 584.903 114.818C586.524 120.888 587.33 125.746 579.234 127.366C571.129 128.985 570.73 124.127 570.73 124.127C570.73 124.127 568.259 123.817 565.787 124.543C564.264 124.985 562.749 125.817 561.819 127.366C559.392 131.41 559.791 137.48 560.198 139.091C560.606 140.71 570.73 131.817 574.778 139.091C578.826 146.374 575.584 153.258 568.294 153.258C561.013 153.258 558.577 145.161 558.577 145.161C558.577 145.161 555.743 141.524 547.647 143.144C539.719 144.719 535.812 143.17 535.653 143.099" stroke="black" stroke-width="1.4173" stroke-miterlimit="10"/>
<path d="M697.681 350.063C697.681 350.063 647.058 380 625.596 364.222C604.133 348.453 579.03 328.622 556.761 335.506C534.484 342.382 492.577 343.798 506.342 314.667C520.107 285.544 537.115 285.544 552.509 289.995C567.896 294.437 590.164 298.49 610.006 280.686C629.848 262.89 628.634 257.625 628.634 257.625C628.634 257.625 589.358 251.563 574.371 243.873C559.392 236.184 526.184 249.944 510.39 256.413C494.597 262.89 482.453 262.076 467.058 280.279C451.911 298.207 441.086 317.693 440.75 318.295C440.741 318.304 440.741 318.312 440.741 318.312" stroke="black" stroke-width="1.4173" stroke-miterlimit="10"/>
</svg>
