<svg width="671" height="331" viewBox="0 0 671 331" fill="none" xmlns="http://www.w3.org/2000/svg">
<path d="M571.33 23.3404C572.91 24.5504 574.15 25.6504 574.9 26.5704C576.09 28.0104 579.25 31.5204 579.21 33.5504C579.2 33.8304 579.18 34.1204 579.16 34.4204C578.98 36.2404 578.53 38.3104 579.88 40.2504C581.45 42.5104 582.74 48.4104 586.36 49.7104C587.43 50.0904 588.56 50.3204 589.74 50.3704C592.51 50.5104 595.53 49.7304 598.56 47.9404C602.86 45.4004 619.05 27.7204 622.39 23.1304C625.73 18.5404 637.21 12.1004 644.92 11.4504C652.63 10.8104 665.41 10.2704 670.88 10.1904" stroke="black" stroke-width="1.4173" stroke-miterlimit="10"/>
<path d="M571.33 23.3406C571.38 22.7906 571.11 22.0606 570.36 21.2006C568.18 18.7206 565.34 19.0706 568.33 21.1606C569.42 21.9206 570.43 22.6506 571.33 23.3406Z" stroke="black" stroke-width="1.4173" stroke-miterlimit="10"/>
<path d="M493.48 58.3702C492.74 58.9902 491.5 59.4002 490.75 58.4002C489.37 56.5402 490.47 52.5102 490.95 49.2802C491.42 46.0502 491.27 43.6202 492.11 42.2202C492.95 40.8202 495.65 38.0402 498.49 37.6902C501.33 37.3502 505.38 37.4402 504.44 34.3802C503.49 31.3202 500.84 32.0702 499.46 30.2202C498.08 28.3702 496.53 25.0902 499.74 26.5802C502.95 28.0602 504.74 29.7202 503.79 26.6602C502.84 23.6102 500.86 21.5402 499.65 21.1102C498.45 20.6702 494.96 22.8302 495.6 21.0202C496.25 19.2102 498.88 19.4702 500.15 16.8602C501.42 14.2602 503.3 11.8602 500.45 12.2102C497.61 12.5502 495.35 14.1302 495.78 12.9202C496.21 11.7102 496.66 9.49022 492.4 10.0102C488.57 10.4802 482.43 12.8402 481.96 11.8802C481.9 11.7702 481.92 11.6202 482.03 11.4102C482.41 10.6902 483 10.1402 483.27 10.0102C483.59 9.85022 483.46 10.3202 481.96 11.8802C481.24 12.6402 480.19 13.6502 478.72 14.9802C471.69 21.3202 466.56 24.2502 467.15 25.4702C467.73 26.7002 469.77 25.7302 470.36 26.9602C470.94 28.1902 470.1 29.5902 471.93 29.2202C473.76 28.8602 475.33 31.1202 477.94 32.3902C480.54 33.6602 482.59 32.6902 480.26 37.3002C477.94 41.9102 475.18 47.7302 475.74 49.9702C476.3 52.2102 480.97 51.5002 478.9 53.4802C476.84 55.4602 473.52 59.0402 473.19 55.1802C472.87 51.3302 472.08 50.7002 469.58 53.8902C467.08 57.0802 462.12 61.4302 462.19 58.3902C462.25 55.3502 464.95 43.0502 467.01 41.0702C469.08 39.0902 471.22 34.0702 467.94 35.6202C464.67 37.1702 463.85 37.5602 463.8 39.5802C463.76 41.6102 461.76 50.0802 460.14 49.8402C458.52 49.6002 457.73 48.9802 458.78 46.9702C459.84 44.9702 461.54 41.1602 459.9 41.9302C458.27 42.7102 456 44.2802 455.21 43.6502C454.49 43.0902 452.94 44.1402 452.3 45.9602C452.22 46.1702 452.16 46.4002 452.11 46.6302C451.65 48.8502 449.78 51.2402 450.98 51.6702C452.19 52.1002 453.42 51.5202 455.44 51.5602C457.47 51.6002 457.79 55.4602 457.14 57.2702C456.5 59.0802 455.42 71.6202 453.98 72.8002C452.53 73.9902 452.14 73.1702 451.58 70.9302C451.02 68.6902 450.66 66.8602 449.78 70.2802C448.89 73.7102 448.46 74.9102 447.06 74.0702C445.66 73.2302 444.69 80.7102 443.85 82.1102C443.01 83.5102 441.95 75.9902 443.77 67.1102C444.9 61.5702 446.24 53.5702 449.73 45.1402C451.82 40.0902 454.68 34.8802 458.74 29.9502C465.68 21.5202 474 14.7102 483.26 9.99021C488.44 7.35021 493.91 5.35021 499.61 4.09021C515.49 0.58021 523.18 0.940212 534.06 3.81021C544.94 6.68021 541.47 7.82022 543.28 8.47022C545.09 9.11022 548.54 8.98022 547.96 7.76022C547.37 6.53022 550.17 8.21022 553.99 9.91022C557.8 11.6102 561.38 14.9302 563.16 16.5902C564.95 18.2502 567.06 23.7702 568.87 24.4102C570.05 24.8302 571.25 24.3902 571.33 23.3402" stroke="black" stroke-width="1.4173" stroke-miterlimit="10"/>
<path d="M493.48 58.3703C492.96 57.5603 492.67 56.9003 493.62 57.0403C494.36 57.1503 494.1 57.8403 493.48 58.3703Z" stroke="black" stroke-width="1.4173" stroke-miterlimit="10"/>
<path d="M483.94 69.9101C483.11 70.5601 482.12 70.8001 481.38 70.3501C479.98 69.5101 481.85 67.1201 482.72 64.7101C483.58 62.2901 481.79 60.6301 483.62 60.2701C485.45 59.9001 487.89 59.7501 487.84 61.7801C487.8 63.8001 490.17 66.6901 491.18 66.7101C492.19 66.7301 495.15 61.3301 494.56 60.1001C494.32 59.5901 493.84 58.9401 493.48 58.3701" stroke="black" stroke-width="1.4173" stroke-miterlimit="10"/>
<path d="M483.94 69.9107C483.96 69.8107 483.99 69.7107 484.03 69.6007C484.68 67.7907 485.95 65.1807 485.49 67.4007C485.28 68.4407 484.67 69.3307 483.94 69.9107Z" stroke="black" stroke-width="1.4173" stroke-miterlimit="10"/>
<path d="M489.91 89.8399C488.54 89.9699 487.28 89.7399 486.65 88.8999C485.28 87.0499 483.75 82.76 485.19 81.58C486.63 80.39 489.26 80.6499 489.91 78.8399C490.56 77.0299 490.19 75.2 488.98 74.77C487.78 74.34 485.15 74.0799 487 72.6999C488.85 71.3199 489.31 69.1 487.26 70.07C485.34 70.98 483.61 71.36 483.94 69.91" stroke="black" stroke-width="1.4173" stroke-miterlimit="10"/>
<path d="M510.39 75.5699C512.53 76.4499 514.29 76.9899 515.48 76.7499C517.31 76.3899 520.16 76.0399 517.96 74.5799C515.76 73.1099 515.03 69.4499 517.01 71.5199C518.99 73.5899 519.77 75.2199 521 74.6399C522.22 74.0599 523.09 71.6499 523.88 72.2699C524.68 72.8999 527.29 74.1699 527.33 72.1499C527.37 70.1199 528.26 66.6999 528.62 68.5299C528.99 70.3599 532.35 74.2799 528.26 76.2199C524.16 78.1599 518.86 79.6599 518.43 80.8699C518 82.0799 518.34 84.9199 513.26 85.8199C508.18 86.7299 508.39 86.1199 507.01 84.2699C505.63 82.4199 502.21 81.5299 501.37 82.9299C500.53 84.3299 496.22 86.8799 494.37 88.2499C493.36 88.9999 491.57 89.6799 489.92 89.8399" stroke="black" stroke-width="1.4173" stroke-miterlimit="10"/>
<path d="M510.39 75.5702C509.54 74.0102 508.77 73.3402 506.45 72.5102C503.44 71.4302 502.81 72.2302 506.63 73.9302C507.97 74.5302 509.23 75.1002 510.39 75.5702Z" stroke="black" stroke-width="1.4173" stroke-miterlimit="10"/>
<path d="M489.92 89.8399C490.23 89.6399 490.55 89.4899 490.9 89.3999C493.14 88.8399 493.83 84.9999 494.48 83.1899C495.12 81.3799 494.54 80.1499 495.38 78.7499C496.22 77.3499 498.1 74.9599 499.09 75.9999C500.08 77.0299 502.62 81.3399 502.06 79.0999C501.5 76.8599 501.35 74.4299 503.16 75.0699C504.97 75.7199 506.37 76.5599 507.34 78.6099C508.31 80.6499 512.57 80.1399 511.22 77.2699C510.9 76.5999 510.64 76.0399 510.39 75.5699" stroke="black" stroke-width="1.4173" stroke-miterlimit="10"/>
<path d="M489.92 89.8403C489.92 89.8403 489.92 89.8403 489.91 89.8403" stroke="black" stroke-width="1.4173" stroke-miterlimit="10"/>
<path d="M569.68 110.66C568.94 111.37 568.42 112.22 568.17 113.94C567.7 117.18 566.62 120.19 566.98 122.02C567.35 123.85 564.72 133.12 561.23 135.27C557.74 137.43 552.59 141.37 547.36 139.84C542.12 138.31 539.92 136.84 538.95 134.79C537.99 132.75 538.46 129.52 534.45 127.4C530.45 125.29 526.59 125.62 525.43 123.16C524.26 120.7 521.25 119.63 520.82 120.83C520.39 122.04 518.55 122.4 516.34 121.95C514.12 121.5 504.44 128.58 502.03 127.72C499.62 126.86 487.4 120.12 486.46 117.06C485.51 114 485.32 104.07 486.8 100.86C488.29 97.6503 488.29 97.6503 487.73 95.4103C487.26 93.5203 488.25 90.9403 489.91 89.8403" stroke="black" stroke-width="1.4173" stroke-miterlimit="10"/>
<path d="M569.68 110.66C571.05 110.33 572.91 109.38 573.49 111.43C574.24 114.08 574.55 118.94 576.44 115.54C578.34 112.14 578.27 105.65 576.87 104.81C575.47 103.97 574.2 106.58 572.13 108.56C571.16 109.49 570.34 110.02 569.68 110.66Z" stroke="black" stroke-width="1.4173" stroke-miterlimit="10"/>
<path d="M552.96 62.0106C554.84 61.3806 556.66 60.9906 557.75 61.2506C560.57 61.9206 559.62 68.3806 559.58 70.4006C559.54 72.4306 558.29 83.5506 555.85 83.7006C553.42 83.8506 549.82 81.5406 545.58 81.0506C541.33 80.5506 538.32 79.4706 536.7 79.2306C535.08 79.0006 534.39 82.8306 537.82 83.7206C541.25 84.6006 550.29 87.8306 553.55 87.2906C556.8 86.7606 559.32 82.5606 561.58 80.9806C563.84 79.4106 563.63 80.0106 564.12 85.2906C564.62 90.5706 562.2 99.2306 562.96 101.881C563.71 104.531 567.44 110.281 568.64 110.711C568.91 110.811 569.27 110.761 569.68 110.661" stroke="black" stroke-width="1.4173" stroke-miterlimit="10"/>
<path d="M552.96 62.0098C552.4 62.6598 551.72 63.5398 550.79 64.5398C549.13 66.3298 545.08 66.2498 546.12 65.2498C546.76 64.6398 549.94 63.0098 552.96 62.0098Z" stroke="black" stroke-width="1.4173" stroke-miterlimit="10"/>
<path d="M574.35 34.7005C573.35 34.6405 571.9 34.2105 571.28 34.8005C570.25 35.7905 572.49 44.7505 573.87 46.6005C575.25 48.4505 579.64 51.3905 581.02 53.2405C582.4 55.0905 583.58 56.5305 578.93 56.2305C574.27 55.9305 568.5 51.1505 565.44 52.0905C562.38 53.0405 560.12 54.6105 558.68 55.8005C557.23 56.9805 554.93 60.5805 554.11 60.9705C553.75 61.1505 553.39 61.5005 552.96 62.0105" stroke="black" stroke-width="1.4173" stroke-miterlimit="10"/>
<path d="M574.35 34.7001C574.3 33.6201 575.08 32.5001 575.36 33.8701C575.51 34.6101 575.04 34.7401 574.35 34.7001Z" stroke="black" stroke-width="1.4173" stroke-miterlimit="10"/>
<path d="M472.26 138.04C474.93 139.84 477.75 141.61 480.03 142.87C481.43 143.66 482.62 144.25 483.44 144.55C487.66 146.05 504.87 155.94 526.22 152.35C547.57 148.76 563.51 142.21 577.26 124.67C591.01 107.14 597.73 86.42 593.3 66.47C591.48 58.28 590.44 53.35 589.74 50.37C588.73 46.08 588.42 45.82 587.46 45.68C585.84 45.44 583.02 44.77 583.86 43.37C584.7 41.97 586.94 41.41 585.54 40.57C584.14 39.73 580.09 39.64 580.52 38.44C580.96 37.23 582.98 37.28 581.41 35.01C580.88 34.25 580.06 34.19 579.16 34.42C577.4 34.85 575.37 36.36 574.71 35.68C574.46 35.42 574.35 35.06 574.35 34.7" stroke="black" stroke-width="1.4173" stroke-miterlimit="10"/>
<path d="M472.26 138.04C465.06 130.15 462.1 129.12 463.66 131.36C464.43 132.46 468.15 135.28 472.26 138.04Z" stroke="black" stroke-width="1.4173" stroke-miterlimit="10"/>
<path d="M454.73 117.84C455.81 119.39 456.91 120.65 458 121.51C462.78 125.26 463.53 127.91 465.54 128.97C467.54 130.02 480.78 136.94 481.11 139.63C481.26 140.9 481.01 142.36 480.03 142.87C478.82 143.52 476.49 142.7 472.43 138.23C472.37 138.16 472.31 138.1 472.26 138.04" stroke="black" stroke-width="1.4173" stroke-miterlimit="10"/>
<path d="M454.73 117.84C456.21 116.77 456.41 116.04 455.91 114.98C454.94 112.94 451.36 109.62 450.63 105.96C449.9 102.29 448.91 91.7404 445.72 89.2404C442.53 86.7404 444.11 89.0004 446.15 97.5504C447.73 104.16 451.09 112.61 454.73 117.84Z" stroke="black" stroke-width="1.4173" stroke-miterlimit="10"/>
<path d="M245.54 235.601C245.54 235.601 245.54 235.611 245.53 235.621L226.45 259.041L228.18 221.021L225.23 227.091L195.89 222.411L201.28 137.171L303.01 161.121L300.92 189.591L307.76 189.971L310.47 190.121L312.9 152.961L190.17 122.061L183.93 231.261L223.5 238.721L222.28 258.171L93.81 235.951L107.18 30.7507L382.34 110.781L374.18 284.031L318.98 276.221L318.11 278.831L376.44 288.031L376.65 284.161L386.16 108.351L104.23 26.4107L90 240.291L221.41 263.031L220.89 274.311L272.63 284.731L74.02 253.651L92.6 9.2207L397.8 100.011L386.68 301.921L314.12 290.631C314.12 290.631 311.69 299.831 311.51 305.391C311.34 310.941 313.78 319.531 312.56 322.051C309.42 328.491 293.05 328.801 294.33 329.351C295.49 329.841 418.17 329.351 418.17 329.351L423.25 329.461C495.99 329.461 438.44 126.771 446.84 122.291C450.88 120.141 453.35 118.841 454.73 117.841" stroke="black" stroke-width="1.4173" stroke-miterlimit="10"/>
<path d="M240.27 214.85C240.27 214.85 240.27 214.84 240.29 214.83V214.82C240.3 214.81 240.32 214.79 240.34 214.77C241.04 213.91 247.9 206.14 257.7 203.65C268.63 200.88 299.01 197.58 316.37 201.05C333.74 204.52 343.28 206.78 349.01 210.25C354.74 213.73 360.47 217.54 362.03 219.63C363.6 221.71 367.24 217.72 367.07 215.98C366.89 214.25 366.03 207.52 350.92 202.46C337.86 198.09 321.81 193.47 307.61 192.64C305.39 192.51 303.21 192.48 301.1 192.55C285.47 193.07 270.72 190.64 252.49 197.58C234.26 204.52 234.09 211.64 233.74 213.38C233.39 215.11 233.91 217.37 236.86 217.89C239.82 218.41 245.54 221.88 249.88 227.61C254.22 233.34 266.38 249.14 268.81 255.04C271.24 260.95 278.18 277.26 278.53 284.38C278.88 291.5 278.36 301.74 277.49 304.52C276.62 307.3 273.67 313.37 272.63 314.59C271.59 315.8 277.49 301.92 275.06 285.6C275 285.18 274.94 284.78 274.88 284.39C272.71 269.45 274.11 272.56 270.89 271.88C267.59 271.19 227.66 263.9 226.97 263.72C226.28 263.55 244.95 236.45 245.53 235.62" stroke="black" stroke-width="1.4173" stroke-miterlimit="10"/>
<path d="M282.78 328.54C279.28 328.43 271.7 327.57 270.37 322.4C268.63 315.63 288.77 317.19 298.32 317.02C307.87 316.85 309.08 319.8 308.39 315.11C307.69 310.42 308.39 289.42 316.9 273.44C325.4 257.47 358.21 224.49 358.56 223.1C358.91 221.71 345.71 211.29 331.83 208.86C317.94 206.43 293.11 201.92 272.63 204.35C252.14 206.78 241.2 213.73 240.34 214.77" stroke="black" stroke-width="1.4173" stroke-miterlimit="10"/>
<path d="M282.78 328.54H284.55C284.55 328.54 283.86 328.58 282.78 328.54Z" stroke="black" stroke-width="1.4173" stroke-miterlimit="10"/>
<path d="M0.779999 328.54H282.78" stroke="black" stroke-width="1.4173" stroke-miterlimit="10"/>
</svg>
