<svg width="692" height="329" viewBox="0 0 692 329" fill="none" xmlns="http://www.w3.org/2000/svg">
<path d="M357.826 315.666C360.208 315.173 362.174 313.295 362.69 310.75L388.271 184.788L434.243 194.255C437.64 194.957 440.955 192.75 441.652 189.33L451.807 139.414C452.142 137.773 451.807 136.067 450.892 134.662C449.977 133.267 448.546 132.291 446.915 131.954L400.917 122.487L406.85 93.2741C409.703 79.2378 414.468 72.7988 432.63 76.5382L458.981 81.9466C462.378 82.6489 465.693 80.4417 466.382 77.0216L475.794 30.6717C476.491 27.2607 474.308 23.9226 470.911 23.2204L431.815 15.1032C387.882 6.05579 353.532 29.5408 344.32 74.9421L337.318 109.39L308.756 103.516L304.254 72.507C297.651 27.1239 255.611 -4.39618 210.527 2.25258L72.0235 22.664C26.9397 29.3128 -4.3571 71.6405 2.23743 117.024L22.5192 256.484C29.1138 301.876 71.163 333.387 116.238 326.747L254.75 306.327C273.619 303.545 290.078 294.506 302.352 281.61L299.091 297.662C298.393 301.082 300.586 304.42 303.983 305.114L355.28 315.675C356.15 315.857 357.011 315.848 357.826 315.666Z" stroke="black" stroke-width="1.4173" stroke-miterlimit="10"/>
<path d="M172.88 229.816C137.108 235.087 103.746 210.079 98.5103 174.063C93.2746 138.046 118.113 104.456 153.884 99.1841C189.656 93.9034 223.018 118.921 228.254 154.937C233.49 190.954 208.652 224.544 172.88 229.816Z" stroke="black" stroke-width="1.4173" stroke-miterlimit="10"/>
<path d="M237.412 79.6572C228.798 80.934 220.763 74.9055 219.504 66.232C218.245 57.5585 224.223 49.4687 232.838 48.1918C241.452 46.9241 249.487 52.9527 250.755 61.6262C252.014 70.2997 246.027 78.3894 237.412 79.6572Z" stroke="black" stroke-width="1.4173" stroke-miterlimit="10"/>
<path d="M318.485 170.423L324.672 171.7L321.175 188.901L318.485 170.423Z" stroke="black" stroke-width="1.4173" stroke-miterlimit="10"/>
<path d="M632.894 270.1C632.713 269.133 632.559 268.048 632.441 266.826C630.539 247.646 632.441 190.871 626.725 188.573C621.009 186.265 614.152 179.361 617.585 222.328C619.46 245.84 621.227 261.545 620.556 270.127C620.013 277.223 617.802 279.449 612.63 277.187C611.543 276.712 610.529 274.305 609.577 270.346C600.564 232.743 597.693 54.4758 597.004 45.1C596.243 34.7392 579.476 33.5901 579.476 37.4297C579.476 41.0505 590.682 242.292 591.615 270.912C591.669 272.617 591.687 273.703 591.669 274.113C591.288 281.4 583.29 290.229 578.715 276.038C578.29 274.706 577.982 273.165 577.764 271.468C575.708 255.161 582.393 224.526 573.769 223.477C564.24 222.328 556.622 218.497 559.666 236.136C562.102 250.227 565.264 264.573 564.303 272.116C564.068 274.022 563.561 275.499 562.718 276.421C559.484 279.959 556.486 279.868 554.928 272.617C554.466 270.465 554.122 267.665 553.95 264.145C553.189 248.795 557.002 182.818 555.861 175.148C554.72 167.468 534.519 157.5 535.28 181.669C535.951 202.682 541.223 254.714 533.061 273.995C531.838 276.895 530.316 279.047 528.423 280.251C521.747 284.501 519.935 282.376 519.917 274.98C519.899 266.343 522.327 250.519 522.327 229.232C522.327 189.722 528.043 120.672 518.903 120.289C509.754 119.905 487.66 115.683 489.943 121.438C492.235 127.193 497.561 134.097 499.853 156.351C501.755 174.892 512.127 247.007 512.444 275.609C512.507 281.327 512.172 285.304 511.284 286.772C509.056 290.457 504.491 296.102 490.323 301.438C470.775 308.78 432.965 315.52 357.826 315.666C356.983 315.675 356.132 315.675 355.28 315.675" stroke="black" stroke-width="1.4173" stroke-miterlimit="10"/>
<path d="M632.894 270.1C637.287 270.164 639.978 270.355 640.44 270.666C643.655 272.818 635.503 284.392 632.894 270.1Z" stroke="black" stroke-width="1.4173" stroke-miterlimit="10"/>
<path d="M691.873 310.558C691.873 310.558 543.288 323.983 493.756 302.888C492.579 302.386 491.437 301.903 490.323 301.438C444.406 282.021 448.41 286.608 479.281 279.868C486.383 278.318 498.258 276.886 512.444 275.609C514.872 275.399 517.372 275.189 519.917 274.98C524.166 274.633 528.568 274.305 533.061 273.995C540.19 273.493 547.554 273.037 554.928 272.617C558.062 272.444 561.187 272.28 564.303 272.116C568.842 271.888 573.344 271.669 577.764 271.468C582.502 271.258 587.14 271.076 591.615 270.912C598.001 270.675 604.052 270.483 609.577 270.346C613.527 270.246 617.205 270.173 620.556 270.127C625.457 270.055 629.642 270.045 632.894 270.1" stroke="black" stroke-width="1.4173" stroke-miterlimit="10"/>
</svg>
