<svg width="662" height="414" viewBox="0 0 662 414" fill="none" xmlns="http://www.w3.org/2000/svg">
<path d="M622.4 271.645L644.184 304.159L499.864 401.209L477.925 368.462C454.899 334.079 468.577 284.539 508.471 257.8C548.372 231.069 599.373 237.262 622.4 271.645ZM593.321 338.241L549.244 272.44C540.977 260.101 524.28 256.797 511.944 265.066C499.609 273.328 496.313 290.037 504.572 302.376L548.65 368.177L593.321 338.241Z" fill="#F99A02"/>
<path d="M549.244 272.44L504.572 302.376C496.313 290.037 499.609 273.328 511.944 265.066C524.28 256.797 540.977 260.101 549.244 272.44Z" fill="#DA3812"/>
<path d="M497.285 190.663C505.545 203.002 502.249 219.711 489.914 227.973C477.578 236.242 460.874 232.937 452.614 220.599L497.285 190.663Z" fill="#F99A02"/>
<path d="M497.285 190.663L452.614 220.599C444.346 208.26 447.65 191.559 459.986 183.289C472.321 175.028 489.018 178.325 497.285 190.663Z" fill="#F99A02"/>
<path d="M469.82 43.8267C492.839 78.202 479.168 127.742 439.275 154.481C399.374 181.212 348.365 175.02 325.338 140.637L303.6 108.184L354.463 74.102L398.501 139.841C406.761 152.18 423.466 155.485 435.793 147.215C448.129 138.953 451.433 122.252 443.165 109.914L399.134 44.1664L448.083 11.3662L469.82 43.8267Z" fill="#DA3812"/>
<path d="M217.383 317.301L272.098 333.793C272.098 333.793 96.0359 346.773 89.3664 347.823C82.7047 348.873 76.7454 349.576 72.8857 347.823C69.0261 346.07 25.1881 321.864 25.1881 321.864L200.138 310.992L200.2 312.042L216.334 316.953L213.879 319.408L199.143 313.795L43.0738 323.269L68.6787 336.596L167.578 328.883L168.636 330.983L150.048 332.735L154.957 340.102L192.481 336.951L184.769 329.933L170.033 330.635L169.686 328.527L227.905 323.964L215.276 319.408L217.383 317.301Z" fill="#DA3812"/>
<path d="M183.009 197.326L190.312 296.538L189.324 296.607L30.8001 304.676L24.4857 197.674H88.3166V200.484H56.405C56.405 200.484 56.405 200.484 57.4548 201.534C58.5047 202.584 63.0668 209.603 63.0668 209.603C63.0668 209.603 64.9657 209.603 67.9762 209.603V211.008L64.4717 211.356C64.4717 211.356 69.0261 218.019 70.431 226.088C71.8359 234.157 67.9762 238.72 67.9762 238.72L70.7784 241.523L65.8689 241.176C65.8689 241.176 64.1166 246.434 63.7692 250.65C63.584 252.827 64.3405 255.854 65.1124 259.382C65.838 262.672 66.5713 266.401 66.5713 270.293C66.5713 271.466 66.5096 272.493 66.4092 273.397C65.8148 278.74 63.7692 279.767 63.7692 279.767L66.5713 282.925C66.5713 282.925 63.0668 282.222 61.6619 282.57C60.2569 282.925 60.9594 284.678 62.7117 289.233C64.4717 293.796 70.0836 297.657 70.0836 297.657L74.638 293.796L81.2998 297.657L87.2668 292.746L95.3335 297.302L100.59 290.994L110.409 296.607L117.781 289.936L126.898 296.607L135.312 290.291L141.279 296.607L148.99 289.936L153.197 294.847L159.164 288.538L163.719 293.796L166.876 290.291L172.141 293.094C172.141 293.094 172.488 292.391 172.488 290.994C172.488 289.588 170.736 287.48 167.578 284.322C164.421 281.164 164.421 278.014 164.421 278.014L160.917 277.659C160.917 277.659 166.181 272.401 167.231 270.995C168.281 269.59 173.19 259.421 170.033 251.7C166.876 243.978 168.636 236.612 168.636 235.215C168.636 233.809 166.181 234.157 166.181 234.157C166.181 234.157 168.636 233.107 169.686 232.759C170.736 232.404 173.545 229.949 171.785 221.177C170.033 212.406 159.512 200.484 159.512 200.484H144.783H89.7215V197.674L108.657 197.326H110.764V197.674L183.009 197.326Z" fill="#F99A02"/>
<path d="M0.285645 329.229H24.1383V325.021L21.6836 323.268C21.6836 323.268 15.3692 195.921 15.7165 192.763C16.0716 189.605 15.0141 186.802 21.6836 186.802C28.3453 186.802 108.657 186.802 108.657 186.802V197.326L89.7215 197.673V200.484H144.783H159.512C159.512 200.484 170.033 212.406 171.785 221.177C173.545 229.949 170.736 232.404 169.686 232.759C168.636 233.107 166.181 234.157 166.181 234.157C166.181 234.157 168.636 233.809 168.636 235.214C168.636 236.612 166.876 243.978 170.033 251.7C173.19 259.421 168.281 269.59 167.231 270.995C166.181 272.4 160.917 277.659 160.917 277.659L164.421 278.014C164.421 278.014 164.421 281.164 167.578 284.322C170.736 287.48 172.488 289.588 172.488 290.993C172.488 292.391 172.141 293.094 172.141 293.094L166.876 290.291L163.719 293.796L159.164 288.538L153.197 294.846L148.99 289.936L141.279 296.607L135.312 290.291L126.898 296.607L117.781 289.936L110.409 296.607L100.59 290.993L95.3335 297.302L87.2668 292.746L81.2998 297.657L74.638 293.796L70.0836 297.657C70.0836 297.657 64.4717 293.796 62.7117 289.233C60.9594 284.677 60.2569 282.925 61.6618 282.569C63.0668 282.222 66.5713 282.925 66.5713 282.925L63.7692 279.767C63.7692 279.767 65.8148 278.74 66.4092 273.396C66.5096 272.493 66.5713 271.466 66.5713 270.292C66.5713 266.401 65.838 262.672 65.1124 259.382C64.3404 255.854 63.584 252.827 63.7692 250.649C64.1166 246.434 65.8689 241.175 65.8689 241.175L70.7784 241.523L67.9762 238.72C67.9762 238.72 71.8359 234.157 70.431 226.088C69.0261 218.019 64.4717 211.356 64.4717 211.356L67.9762 211.008C67.9762 211.008 67.6289 212.058 69.3812 212.761C71.1334 213.463 76.7454 213.108 76.7454 213.108L76.3903 215.919C76.3903 215.919 73.9355 214.861 73.2331 215.564C72.5384 216.266 72.1833 216.622 73.9355 217.316C75.6956 218.019 76.7454 217.672 76.7454 217.672V220.474C76.7454 220.474 73.5882 220.474 73.9355 221.88C74.2906 223.285 72.8857 223.285 80.605 223.285C88.3166 223.285 96.0359 223.285 96.0359 223.285V223.632V228.543H76.0429C76.0429 228.543 74.638 228.898 74.9931 230.304C75.3405 231.701 77.7952 231.701 79.2001 231.701C79.9026 231.701 80.0801 232.404 80.0801 233.107C80.0801 233.809 79.9026 234.512 79.9026 234.512C79.9026 234.512 75.6955 234.512 74.9931 234.859C74.2906 235.214 73.9355 236.967 75.6956 236.967C77.4478 236.967 79.5475 236.612 79.9026 237.315C79.9643 237.438 79.9875 237.546 79.9875 237.647C79.9875 238.149 79.3082 238.488 78.1503 239.067C76.7454 239.77 77.0927 241.878 78.845 241.878C80.605 241.878 87.6142 242.225 87.6142 242.225L87.2668 248.194C87.2668 248.194 70.431 247.491 69.7285 248.194C69.0261 248.897 68.3236 250.649 71.4808 250.997C74.638 251.352 74.9931 251.352 74.9931 251.352L74.638 256.965H67.9762C67.9762 256.965 66.224 257.66 66.5713 259.066C66.9264 260.471 66.9264 261.174 71.4808 261.174C76.0429 261.174 84.1096 260.818 84.1096 260.818V263.629V263.976C84.1096 263.976 70.0836 263.274 69.3812 263.976C68.6787 264.679 67.6289 267.134 70.431 267.134C73.2331 267.134 74.9931 267.49 74.638 267.49C74.2906 267.49 73.9355 271.698 73.9355 271.698C73.9355 271.698 68.6787 271.343 68.3236 273.095C68.285 273.265 68.2619 273.427 68.2464 273.589C68.0689 275.049 68.6324 275.906 71.4808 275.906C74.638 275.906 154.957 275.906 156.355 275.906C157.76 275.906 158.462 274.153 158.115 272.748C157.759 271.343 76.3903 271.343 76.3903 271.343V267.49C76.3903 267.49 159.512 267.49 161.264 267.49C163.024 267.49 164.776 263.976 162.322 263.976C159.867 263.976 86.217 263.629 86.217 263.629L86.5643 260.818C86.5643 260.818 164.074 261.521 165.124 261.174C166.181 260.818 168.636 257.313 166.181 256.965C163.719 256.61 77.4478 256.965 77.4478 256.965V250.997C77.4478 250.997 160.917 250.649 163.024 250.649C165.124 250.649 166.181 247.839 164.074 247.839C161.967 247.839 137.064 248.194 137.064 248.194L136.971 246.387L136.717 241.523H142.676V245.739H146.188L145.833 240.828C145.833 240.828 153.552 237.67 153.9 233.454C154.255 229.246 152.148 225.74 150.048 224.335C147.941 222.93 146.536 222.582 146.536 222.582L146.188 226.088C146.188 226.088 150.395 228.196 149.345 232.056C148.288 235.909 145.833 235.909 145.833 235.909L145.131 227.146L142.329 226.443L141.981 237.315L137.064 237.67L136.717 223.988L142.583 225.262L144.783 225.74V222.235C144.783 222.235 134.609 220.474 132.155 218.374C129.7 216.266 129.005 214.514 130.402 212.761C131.807 211.008 133.212 210.305 133.212 210.305V217.316L134.262 218.374H136.369L135.667 208.9L141.981 209.248V220.127L145.131 221.277L145.833 221.532L145.131 210.653C145.131 210.653 147.238 211.703 147.941 213.811C148.643 215.919 148.643 215.919 148.643 215.919L152.148 215.564C152.148 215.564 151.445 211.356 149.693 208.553C147.941 205.742 144.783 205.395 144.783 205.395V201.882H141.626V205.395H135.667V202.237H132.51V205.395C132.51 205.395 126.195 207.85 125.848 212.761C125.493 217.672 127.245 220.127 129.352 221.532C131.46 222.93 133.559 223.285 133.559 223.285V236.612C133.559 236.612 130.757 235.562 130.055 233.454C129.352 231.354 129.005 228.898 129.005 228.898C129.005 228.898 124.443 228.898 124.443 229.246C124.443 229.601 124.443 235.214 128.65 237.67C132.857 240.125 133.915 240.473 133.915 240.473V246.434H136.014V248.194H89.7215V242.225V241.878H115.674C115.674 241.878 117.426 242.225 117.781 240.828C118.129 239.423 117.426 238.72 114.624 238.72C111.814 238.72 82.0022 238.372 82.0022 238.372V237.647V236.967C82.0022 236.967 110.409 237.315 111.467 236.967C112.517 236.612 113.219 234.512 111.112 234.512C109.012 234.512 82.3573 234.512 82.3573 234.512V233.107V231.354C82.3573 231.354 111.112 231.354 113.219 231.354C115.326 231.354 115.674 229.246 114.269 228.898C112.872 228.543 97.4331 228.898 97.4331 228.898V223.632C97.4331 223.632 114.269 223.632 115.674 223.632C117.079 223.632 117.079 220.83 116.021 220.474C114.971 220.127 79.2001 220.474 79.2001 220.474V217.316C79.2001 217.316 99.8879 217.316 101.648 217.316C103.4 217.316 104.103 215.919 102.698 215.564C101.293 215.216 79.2001 215.564 79.2001 215.564V213.108C79.2001 213.108 107.26 213.108 109.012 213.108C110.764 213.108 110.409 209.603 107.607 209.603C105.399 209.603 79.092 209.603 67.9762 209.603C64.9657 209.603 63.0668 209.603 63.0668 209.603C63.0668 209.603 58.5047 202.584 57.4548 201.534C56.405 200.484 56.405 200.484 56.405 200.484H88.3166V197.673H24.4857L30.8001 304.676L189.324 296.607V299.757L30.8001 307.826V309.934L190.729 302.22L190.312 296.537L183.009 197.326L110.764 197.673V197.326V186.802C110.764 186.802 177.05 187.852 183.364 187.852C189.679 187.852 192.134 190.655 192.836 196.971C193.531 203.287 200.2 310.984 200.2 310.984L200.138 310.992L25.1881 321.863C25.1881 321.863 69.0261 346.07 72.8857 347.822C76.7454 349.575 82.7047 348.872 89.3664 347.822C96.0359 346.772 272.098 333.793 272.098 333.793L217.383 317.3L215.276 319.408L227.905 323.963L169.686 328.527L170.033 330.635L184.769 329.932L192.481 336.951L154.957 340.101L150.048 332.735L168.636 330.982L167.578 328.882L68.6787 336.595L43.0738 323.268L199.143 313.794L213.879 319.408L216.334 316.952L200.2 312.042L201.953 311.339L272.337 333.005L274.9 333.793V342.209C274.9 342.209 85.1594 357.999 80.2499 358.694C75.3405 359.397 74.9931 358.694 70.0836 355.891C65.1664 353.088 26.593 330.635 26.593 330.635L24.8408 331.685L76.3903 362.207C76.3903 362.207 9.36353 389.425 322.559 408.357C477.408 417.716 484.857 411.268 484.857 411.268" stroke="black" stroke-miterlimit="10"/>
<path d="M484.857 411.269L386.722 264.749L288.594 118.237L303.6 108.184L354.463 74.1016L399.134 44.166L448.083 11.3658L465.042 0L563.17 146.512L661.305 293.032L499.864 401.208L484.857 411.269Z" stroke="black" stroke-miterlimit="10"/>
<path d="M303.6 108.183L325.338 140.636C348.365 175.019 399.374 181.212 439.275 154.48C479.168 127.742 492.839 78.2015 469.82 43.8261L448.083 11.3657L447.882 11.0723L303.562 108.122L303.6 108.183Z" stroke="black" stroke-miterlimit="10"/>
<path d="M398.501 139.841L354.463 74.1018L354.424 74.0401L399.096 44.1045L399.134 44.1663L443.165 109.913" stroke="black" stroke-miterlimit="10"/>
<path d="M395.761 62.1338L383.101 70.6195L370.45 79.0975" stroke="black" stroke-miterlimit="10"/>
<path d="M385.603 74.3563L383.101 70.6191" stroke="black" stroke-miterlimit="10"/>
<path d="M392.951 84.6485C390.049 86.5943 386.127 85.8144 384.182 82.9189C382.237 80.0157 383.017 76.0933 385.911 74.1475C388.814 72.2017 392.735 72.9816 394.68 75.8771C396.626 78.7803 395.846 82.7027 392.951 84.6485Z" stroke="black" stroke-miterlimit="10"/>
<path d="M398.501 139.841C406.761 152.18 423.466 155.484 435.793 147.215C448.129 138.953 451.433 122.252 443.165 109.913L398.501 139.841Z" stroke="black" stroke-miterlimit="10"/>
<path d="M622.4 271.644C599.373 237.261 548.372 231.068 508.471 257.799C468.577 284.538 454.899 334.078 477.925 368.462L499.864 401.208L644.184 304.158L622.4 271.644Z" stroke="black" stroke-miterlimit="10"/>
<path d="M549.244 272.439L593.321 338.241L548.65 368.176L504.573 302.375" stroke="black" stroke-miterlimit="10"/>
<path d="M551.984 350.146L564.644 341.661L577.296 333.183" stroke="black" stroke-miterlimit="10"/>
<path d="M562.135 337.924L564.644 341.661" stroke="black" stroke-miterlimit="10"/>
<path d="M554.794 327.631C557.697 325.693 561.618 326.465 563.563 329.368C565.501 332.264 564.729 336.194 561.827 338.132C558.932 340.078 555.003 339.298 553.065 336.402C551.12 333.499 551.899 329.577 554.794 327.631Z" stroke="black" stroke-miterlimit="10"/>
<path d="M549.244 272.439C540.977 260.1 524.28 256.796 511.944 265.065C499.609 273.327 496.313 290.036 504.572 302.375L549.244 272.439Z" stroke="black" stroke-miterlimit="10"/>
<path d="M497.285 190.662C505.545 203.001 502.249 219.71 489.913 227.972C477.578 236.241 460.873 232.937 452.614 220.598C444.346 208.259 447.65 191.558 459.986 183.288C472.321 175.027 489.018 178.324 497.285 190.662Z" stroke="black" stroke-miterlimit="10"/>
<path d="M563.17 146.512L497.285 190.662L452.614 220.598L386.722 264.748" stroke="black" stroke-miterlimit="10"/>
</svg>
