<svg width="674" height="309" viewBox="0 0 674 309" fill="none" xmlns="http://www.w3.org/2000/svg">
<path d="M62.4647 281.474C74.6693 281.772 88.4035 282.32 102.82 283.057C105.448 283.191 108.099 283.332 110.773 283.473C118.06 283.865 125.48 284.304 132.939 284.774C134.704 284.884 136.469 285.002 138.234 285.119C180.778 287.887 223.533 291.673 247.527 294.943C259.52 296.573 266.83 298.079 267.089 299.255C267.3 300.242 261.975 301.011 252.688 301.607C197.186 305.174 0.272789 302.469 0.272789 302.469" stroke="black" stroke-miterlimit="10"/>
<path d="M62.4647 281.473C61.0921 288.082 58.8253 292.535 55.2251 293.609C40.134 298.101 5.1123 291.539 12.5245 283.982C15.0894 281.371 34.9101 280.791 62.4647 281.473Z" stroke="black" stroke-miterlimit="10"/>
<path d="M481.603 228.892C481.933 231.612 480.733 235.454 477.03 239.969C469.336 249.338 442.401 276.738 439.514 281.309C439.044 282.054 438.487 282.916 437.852 283.865C434.612 288.726 429.506 295.68 424.972 299.098C423.012 300.58 421.921 302.336 421.027 303.919C419.443 306.726 418.494 309 414.501 308.231C408.854 307.149 402.634 308.02 402.179 304.311C402.132 303.912 402.148 303.457 402.242 302.939C403.152 297.906 415.191 286.546 422.368 284.03C422.729 283.896 423.074 283.794 423.404 283.716C429.169 282.32 434.44 280.11 437.852 283.865C438.573 284.649 439.209 285.699 439.75 287.079C442.879 295.013 443.844 302.939 435.663 302.939C430.479 302.939 424.619 304.006 421.027 303.919C418.949 303.88 417.631 303.449 417.631 302.218C417.631 299.749 413.215 303.12 402.179 304.311C398.202 304.743 393.371 304.892 387.566 304.382C365.683 302.461 284.533 304.382 284.533 304.382C262.939 305.95 273.175 307.651 257.261 303.959C255.613 303.574 254.092 302.775 252.688 301.607C250.758 300.015 249.048 297.734 247.527 294.943C234.467 271.102 234.663 209.605 226.004 210.805C213.587 212.53 226.004 288.475 201.924 286.554C177.852 284.625 173.036 239.366 162.118 211.448C151.207 183.538 149.293 174.53 145.426 174.553C124.413 174.671 142.948 269.487 138.234 285.119C137.63 287.111 136.649 287.816 135.159 286.875C134.351 286.358 133.614 285.652 132.939 284.774C122.719 271.415 127.896 218.347 122.782 200.276C117.323 181.021 114.609 180.645 113.009 197.971C111.66 212.506 114.829 267.456 110.773 283.473C109.997 286.554 108.946 288.193 107.55 287.832C106.028 287.44 104.436 285.739 102.82 283.057C95.2196 270.49 87.0073 236.355 82.5051 214.662C77.0538 188.352 85.0778 161.398 76.089 156.263C67.1003 151.128 63.8922 160.434 62.9275 192.844C62.1902 217.508 66.8571 260.408 62.4647 281.474" stroke="black" stroke-miterlimit="10"/>
<path d="M481.603 228.891C480.199 229.424 478.968 229.691 477.987 229.628C470.771 229.15 471.493 225.065 476.544 224.579C479.164 224.328 481.266 225.959 481.603 228.891Z" stroke="black" stroke-miterlimit="10"/>
<path d="M543.301 174.874C537.073 184.564 521.409 198.3 514.303 200.307C510.93 201.255 507.581 200.965 504.114 200.714C497.941 200.267 491.368 199.954 483.517 207.033C471.257 218.095 427.529 279.051 423.443 282.414C422.917 282.845 422.47 283.151 422.125 283.323C419.741 284.476 421.6 279.294 430.612 263.998C440.958 246.452 461.877 222.18 465.485 212.325C468.74 203.427 472.591 196.481 477.909 194.866C478.481 194.693 479.07 194.584 479.674 194.536C484.419 194.176 498.192 196.442 504.114 200.714C505.989 202.071 507.079 203.623 506.844 205.356C506.02 211.573 490.466 225.528 481.603 228.891" stroke="black" stroke-miterlimit="10"/>
<path d="M543.301 174.874C542.391 172.216 541.819 170.053 541.717 168.814C541.238 163.052 543.638 160.072 545.803 167.332C546.329 169.088 545.301 171.777 543.301 174.874Z" stroke="black" stroke-miterlimit="10"/>
<path d="M560.635 147.756C564.785 148.861 568.597 150.225 571.773 151.84C575.35 153.644 578.127 155.776 579.711 158.238C582.229 162.15 587.672 170.374 591.79 176.897C594.755 181.593 597.03 185.419 597.03 186.124C597.03 186.422 596.151 187.151 594.661 188.155C592.386 189.684 588.684 191.832 584.496 193.988C577.593 197.539 569.381 201.106 564.102 201.93C562.761 202.141 561.608 202.173 560.714 201.984C554.486 200.667 546.627 184.541 543.301 174.874" stroke="black" stroke-miterlimit="10"/>
<path d="M560.635 147.756C557.569 148.806 554.753 149.543 552.776 149.825C546.046 150.79 534.328 143.287 548.211 145.263C552.494 145.874 556.714 146.697 560.635 147.756Z" stroke="black" stroke-miterlimit="10"/>
<path d="M578.385 136.89C576.425 141.045 567.859 145.278 560.635 147.756" stroke="black" stroke-miterlimit="10"/>
<path d="M601.587 94.1942C601.391 98.7805 602.026 103.469 602.512 107.867C602.803 110.438 603.038 112.916 603.038 115.213C603.038 125.068 596.787 125.311 589.335 123.868C583.319 122.708 579.021 122.794 575.695 123.123C574.895 123.202 574.158 123.296 573.46 123.39C572.001 123.586 570.534 123.186 569.107 122.002C567.004 120.27 564.981 116.844 563.122 111.128C562.832 110.235 562.534 109.325 562.228 108.4C559.255 99.3921 555.772 89.2864 554.463 84.9275C553.231 80.835 563.302 96.0523 568.722 107.224C569.671 109.168 570.471 110.995 571.052 112.571C572.087 115.385 573.264 117.98 574.393 120.379C574.84 121.32 575.279 122.238 575.695 123.123C578.221 128.478 580.033 132.814 578.511 136.608C578.472 136.702 578.433 136.788 578.386 136.882" stroke="black" stroke-miterlimit="10"/>
<path d="M616.458 54.2422C615.956 60.6395 613.666 66.5587 610.654 72.2975C608.929 75.5902 606.96 78.8202 604.96 82.0424C602.661 85.7507 601.775 89.851 601.587 94.0296C601.587 94.0845 601.587 94.1394 601.587 94.1864" stroke="black" stroke-miterlimit="10"/>
<path d="M616.458 54.2419C614.066 52.3682 612.756 50.0946 612.662 47.1938C612.419 40.2242 615.784 37.5743 616.505 49.5928C616.6 51.1687 616.584 52.721 616.458 54.2419Z" stroke="black" stroke-miterlimit="10"/>
<path d="M638.891 61.353C637.244 61.2667 635.15 60.9923 632.616 60.4122C625.314 58.7266 619.815 56.8764 616.458 54.2422" stroke="black" stroke-miterlimit="10"/>
<path d="M638.891 61.3524C644.931 59.7139 644.703 61.6581 638.891 61.3524V61.3524Z" stroke="black" stroke-miterlimit="10"/>
<path d="M601.587 94.1865C601.618 94.1473 601.642 94.1159 601.657 94.0846C604.834 89.8118 607.799 84.7551 609.25 81.2664C609.454 80.7646 609.634 80.3021 609.776 79.8787C610.348 78.1618 610.607 75.4962 610.654 72.2975C610.78 63.4228 609.344 50.4477 608.811 42.1453C608.089 30.848 615.305 13.7806 625.408 7.53217C635.503 1.28378 644.162 -0.401802 654.264 6.56786C664.359 13.5375 667.967 20.7502 665.567 29.8837C663.159 39.0172 662.194 49.5932 652.1 57.5272C641.997 65.4611 640.797 66.6606 629.973 69.0675C619.149 71.4665 616.003 71.4822 610.709 80.6156C608.779 83.9476 608.74 83.5007 609.658 81.4388C611.258 77.8482 615.745 69.3732 618.192 67.3819C622.035 64.2538 625.886 65.6963 636.467 62.0978C637.362 61.7921 638.169 61.5412 638.891 61.353" stroke="black" stroke-miterlimit="10"/>
<path d="M601.587 94.1865C601.579 94.1951 601.587 94.1951 601.587 94.1865" stroke="black" stroke-miterlimit="10"/>
<path d="M581.868 94.845C584.982 96.4287 586.77 98.5768 588.363 100.153C589.719 101.485 590.935 102.411 592.7 102.238C594.959 102.011 598.371 98.5141 601.587 94.1943" stroke="black" stroke-miterlimit="10"/>
<path d="M581.868 94.8442C580.652 96.0202 578.864 96.6709 576.589 96.9453C570.573 97.6666 566.008 91.1751 576.589 93.1037C578.707 93.4879 580.433 94.1073 581.868 94.8442Z" stroke="black" stroke-miterlimit="10"/>
<path d="M579.233 77.2285C580.707 78.2634 581.641 79.9176 582.841 84.206C584.331 89.5842 583.876 92.924 581.868 94.8447" stroke="black" stroke-miterlimit="10"/>
<path d="M579.233 77.2285C577.554 81.2738 574.221 83.0143 569.616 81.3209C562.4 78.6788 565.467 70.102 572.26 73.873C575.679 75.7702 577.734 76.1779 579.233 77.2285Z" stroke="black" stroke-miterlimit="10"/>
<path d="M554.831 45.9238C556.157 41.0788 559.388 39.7068 563.357 44.3088C569.373 51.2785 579.954 58.4912 580.433 68.3459C580.605 71.9052 580.182 74.9393 579.233 77.2285" stroke="black" stroke-miterlimit="10"/>
<path d="M554.831 45.9238C558.612 46.2688 560.275 47.9544 559.992 52.9562C559.514 61.3763 555.906 67.6246 554.463 55.8413C553.968 51.8351 554.149 48.4169 554.831 45.9238Z" stroke="black" stroke-miterlimit="10"/>
<path d="M519.221 42.8037C519.762 43.0546 520.366 43.3211 521.033 43.5877C525.386 45.3203 528.179 46.2768 530.877 46.7158C534.391 47.296 537.724 47.0137 544.125 46.4728C548.705 46.0808 552.258 45.6888 554.831 45.924" stroke="black" stroke-miterlimit="10"/>
<path d="M519.221 42.8038C519.605 41.2985 519.543 40.1225 518.868 39.5032C515.958 36.8141 511.636 39.2131 519.221 42.8038Z" stroke="black" stroke-miterlimit="10"/>
<path d="M519.605 93.4648C517.935 97.1417 515.488 101.36 512.664 103.774C510.844 105.334 508.868 106.15 506.844 105.601C500.593 103.915 493.377 96.4675 494.82 81.8069C495.251 77.4558 495.212 74.1865 495.228 71.6621C495.275 65.6959 495.628 63.9555 503.244 62.0974C503.612 62.0033 503.981 61.9328 504.334 61.8779C514.342 60.208 518.405 70.6194 525.606 67.1385C532.045 64.0182 532.563 53.9047 530.877 46.7156C530.61 45.5866 530.296 44.5361 529.935 43.5874C527.284 36.6178 522.241 39.738 521.519 34.2109C521.127 31.1847 521.59 27.8763 521.386 25.8536C521.221 24.1759 520.594 23.3762 518.633 24.3562C514.303 26.52 508.773 24.3562 504.679 20.0286C500.906 16.038 496.93 14.2976 489.353 16.6966C488.717 16.8926 488.059 17.1278 487.368 17.3865C478.474 20.7498 487.125 14.2584 484.725 10.1738C482.317 6.08923 484.239 7.53177 490.255 6.33227C496.263 5.12492 490.976 0.319068 497.228 1.76161C503.479 3.20415 507.087 5.12492 509.495 2.96111C511.895 0.7973 513.338 4.64669 517.911 5.84619C522.476 7.04569 522.476 2.96111 525.606 5.84619C528.728 8.73127 526.327 12.3376 529.692 14.5014C533.057 16.6652 535.708 15.7009 533.3 20.7498C530.892 25.7987 524.994 34.454 522.829 29.162C522.413 28.1428 522.225 26.9982 522.139 25.8066C521.778 20.8517 523.198 15.0032 517.19 13.0589C509.73 10.652 494.2 8.08056 491.941 12.3376C491.22 13.6939 490.231 15.0345 489.353 16.6966C487.462 20.2481 486.098 25.2578 489.055 34.9322C493.18 48.4795 497.643 61.8701 504.114 60.5294C504.412 60.4667 504.718 60.3726 505.032 60.2394C510.507 57.9736 517.833 48.2678 519.221 42.8034" stroke="black" stroke-miterlimit="10"/>
<path d="M519.606 93.4644C516.35 89.372 514.201 85.6245 515.746 84.9268C518.39 83.7273 523.198 83.9703 521.033 89.9757C520.657 91.0106 520.178 92.2101 519.606 93.4644Z" stroke="black" stroke-miterlimit="10"/>
<path d="M538.689 113.276C536.556 109.348 531.096 105.256 527.284 101.752C524.79 99.4545 521.919 96.3734 519.606 93.4648" stroke="black" stroke-miterlimit="10"/>
<path d="M538.689 113.276C538.258 113.512 537.905 113.755 537.63 114.013C533.3 118.098 532.822 125.311 538.109 119.783C540.046 117.761 539.92 115.55 538.689 113.276Z" stroke="black" stroke-miterlimit="10"/>
<path d="M598.363 210.436C598.661 209.754 598.873 208.876 598.951 207.755C599.289 202.8 596.59 194.678 594.661 188.155C593.877 185.505 593.218 183.122 592.943 181.319C592.802 180.401 592.386 178.865 591.79 176.897C588.315 165.459 578.511 139.477 578.511 136.608C578.511 136.137 578.495 136.286 578.385 136.882V136.89C578.032 138.952 576.691 146.212 571.773 151.841C567.867 156.302 561.726 159.728 552.054 158.724C532.438 156.686 519.951 152.601 515.009 148.932C513.786 148.023 513.033 147.145 512.742 146.321C512.68 146.149 512.632 145.976 512.617 145.812C512.154 141.79 515.291 137.831 516.146 141.076C516.178 141.178 516.201 141.296 516.225 141.414C516.272 141.657 516.201 141.97 516.029 142.331C515.582 143.303 514.397 144.675 512.742 146.321C505.322 153.707 488.349 166.572 484.482 173.385C480.293 180.762 469.65 196.622 477.697 194.254C479.344 193.768 481.776 192.514 485.219 190.264C499.777 180.738 511.197 167.074 515.009 148.932C515.456 146.792 515.801 144.597 516.029 142.331C516.068 141.915 516.107 141.5 516.146 141.076C516.546 136.263 516.437 131.167 515.746 125.789C515.464 123.601 515.19 121.469 514.915 119.399C514.154 113.731 513.409 108.51 512.664 103.774C509.927 86.4246 507.095 75.6212 503.244 73.8729C501.126 72.9086 498.114 71.8267 495.228 71.6621C490.898 71.3955 486.835 73.1595 486.404 80.3643C485.839 89.7173 499.84 108.086 514.915 119.399C519.221 122.629 523.606 125.287 527.771 126.996C546.525 134.687 548.454 129.16 557.592 125.789C560.549 124.707 564.667 123.39 569.106 122.002C570.832 121.469 572.613 120.92 574.393 120.379C582.166 117.988 589.955 115.605 593.657 114.013C597.038 112.571 600.23 110.336 602.512 107.867C604.787 105.405 606.16 102.708 605.924 100.309C605.72 98.2393 603.909 95.856 601.657 94.0842C601.634 94.0606 601.61 94.045 601.587 94.0293C598.63 91.7165 594.943 90.4778 593.178 92.3829C590.888 94.8525 592.606 97.0633 588.362 100.152C586.825 101.273 584.503 102.512 580.919 103.915C577.46 105.28 573.201 106.338 568.722 107.224C566.589 107.647 564.4 108.031 562.228 108.4C552.282 110.054 542.517 111.222 538.689 113.276" stroke="black" stroke-miterlimit="10"/>
<path d="M598.363 210.436C596.104 209.15 594.512 208.648 594.143 209.44C592.935 212.059 596.81 214.003 598.363 210.436Z" stroke="black" stroke-miterlimit="10"/>
<path d="M634.036 292.481C632.538 293.249 631.244 294.402 630.451 295.97C627.808 301.262 630.694 308.231 637.667 308.231C643.244 308.231 652.06 305.621 654.249 300.141C654.798 298.769 654.931 297.224 654.5 295.492C652.335 286.836 648.586 270.129 642.719 268.326C641.699 268.013 640.515 267.809 639.275 267.699C638.726 267.652 638.169 267.621 637.605 267.613C632.122 267.495 626.247 269.055 627.33 271.211C628.506 273.563 637.338 274.473 639.009 269.659C639.213 269.095 639.307 268.444 639.275 267.699C639.252 267.025 639.126 266.272 638.867 265.441C635.989 256.073 625.886 233.956 621.078 228.672C617.478 224.721 605.038 214.2 598.363 210.437" stroke="black" stroke-miterlimit="10"/>
<path d="M634.036 292.481C634.122 292.528 634.216 292.575 634.302 292.606C639.111 294.527 645.848 295.013 643.683 292.606C642.162 290.913 637.558 290.654 634.036 292.481Z" stroke="black" stroke-miterlimit="10"/>
<path d="M648.303 300.14C648.609 293.022 646.068 280.117 640.554 271.932C640.068 271.211 639.55 270.451 639.009 269.659C638.562 269 638.091 268.318 637.605 267.612C629.196 255.437 616.09 237.609 609.054 232.27C601.116 226.265 589.092 219.052 586.684 207.277C585.515 201.561 585.147 197.202 584.496 193.988C583.798 190.57 582.794 188.437 580.197 187.324C575.146 185.16 564.322 187.802 562.879 193.816C562.479 195.485 562.949 198.402 564.102 201.93C567.075 211.071 574.574 224.274 583.076 230.349C594.865 238.762 619.392 262.321 623 268.812C626.545 275.178 629.385 290.121 634.036 292.481" stroke="black" stroke-miterlimit="10"/>
<path d="M648.303 300.141H634.255C634.255 300.141 642.256 305.291 646.264 305.291C647.488 305.291 648.17 303.277 648.303 300.141Z" stroke="black" stroke-miterlimit="10"/>
<path d="M673.411 300.141H654.249H648.303" stroke="black" stroke-miterlimit="10"/>
</svg>
