<svg width="696" height="347" viewBox="0 0 696 347" fill="none" xmlns="http://www.w3.org/2000/svg">
<path d="M672.832 329.468H654.225H645.567H617.869H607.479H578.482H570.69H536.065H522.213H482.393H469.839H428.721H414.002H372.451H359.031H311.86H302.205V338.725V345.655H696" stroke="black" stroke-miterlimit="10"/>
<path d="M686.151 329.468H672.832V338.725H686.151V329.468Z" stroke="black" stroke-miterlimit="10"/>
<path d="M181.402 166.026L183.86 164.811L184.324 148.284H170.355L168.732 158.06H167.101V149.444L164.302 148.98V143.156L172.218 142.228L171.522 129.885L189.442 130.349L190.377 140.132H199.684L200.38 129.189C200.38 129.189 201.315 128.021 208.992 121.965C216.676 115.909 224.128 107.526 225.287 94.9503C226.455 82.3826 217.14 77.255 213.182 73.999C209.231 70.7352 204.106 69.5752 202.475 73.7592C202.274 74.2774 202.181 74.7956 202.181 75.3292C202.181 79.1111 206.804 83.3262 209.463 88.4306C212.486 94.2543 212.718 98.214 210.391 104.038C208.064 109.854 200.38 112.885 200.38 112.885L200.852 83.3107L189.905 80.2867L188.978 117.077H172.682L172.218 75.3911C172.218 75.3911 182.167 77.3865 190.168 78.7708C195.007 79.6061 199.128 80.2248 199.916 80.0469C200.998 79.8072 201.269 77.6571 201.161 75.337C201.053 73.1482 200.604 70.8203 200.148 69.8072C199.947 69.3586 198.509 68.8017 196.337 68.1908C188.429 65.9556 170.819 63.0322 168.26 62.1196C165.006 60.9518 159.648 57.2317 155.922 53.2719C152.204 49.3121 153.835 43.2564 154.531 39.7684C155.227 36.2726 162.207 32.7769 162.207 32.7769C162.207 32.7769 161.28 53.0399 163.606 55.3678C165.933 57.6958 171.522 58.1598 171.522 58.1598L171.059 29.0491L189.905 28.3531C189.905 28.3531 188.978 63.0477 191.768 65.1436C192.99 66.0639 194.884 66.7136 196.623 67.1544C198.865 67.719 200.852 67.9433 200.852 67.9433L199.452 34.1767C199.452 34.1767 199.452 34.1767 202.947 36.7367C206.433 39.2966 210.391 50.712 210.391 50.712L222.265 45.5844C222.265 45.5844 218.539 31.6168 215.748 27.193C212.95 22.7691 199.916 17.4095 199.916 17.4095L200.148 7.62602H190.145L189.905 16.9455H172.914V7.394L162.447 6.92996L163.143 17.1775C163.143 17.1775 155.459 19.7374 149.174 24.6253C142.889 29.5209 137.076 40.0004 140.098 53.968C143.121 67.9433 162.207 73.2952 162.207 73.2952L161.743 114.045C161.743 114.045 158.721 111.718 154.067 107.758C149.406 103.806 148.71 91.2303 148.71 91.2303L134.277 91.4623C134.277 91.4623 130.791 90.2945 137.625 106.134C144.466 121.965 162.447 126.621 162.447 126.621L162.277 143.133L162.207 149.444C162.207 149.444 80.7442 150.372 78.8811 149.908C77.0181 149.444 77.4897 2.50613 78.8811 1.81007C80.2803 1.10628 279.988 1.10628 281.147 1.81007C282.315 2.50613 281.619 146.188 280.915 149.212C280.22 152.236 188.05 148.516 187.115 149.212C186.187 149.908 186.419 162.483 186.419 164.347C186.419 165.399 187.965 166.002 190.021 166.992C191.621 167.766 193.531 168.771 195.263 170.403C199.22 174.131 199.22 181.811 200.38 183.906C201.107 185.214 201.748 186.985 202.235 190.511C202.529 192.63 202.769 195.376 202.947 199.042C203.41 208.825 202.243 219.537 199.452 223.033C196.662 226.521 194.095 226.753 193.399 229.32C192.704 231.88 185.723 234.208 184.788 235.608C184.726 235.701 184.664 236.049 184.602 236.606C183.814 244.193 183.45 291.339 181.062 292.422C178.503 293.59 171.059 292.422 171.059 292.422L169.876 338.725H302.205H311.86V329.468V266.869C311.86 266.869 336.582 263.891 349.569 266.057C362.549 268.222 407.524 105.731 475.907 140.372C544.298 175.012 611.197 88.6317 611.197 88.6317L610.548 79.0261L669.06 65.8087L620.072 111.06C620.072 111.06 617.436 107.1 613.54 100.171C609.644 93.2488 538.686 198.57 486.266 161.331C433.846 124.092 359.031 275.531 359.031 275.531V329.468V338.725H372.451V329.468V261.432H414.002V329.468V338.725H428.721V329.468V223.543H469.839V329.468V338.725H482.393V329.468V180.364H522.213V329.468V338.725H536.066V329.468V170.009H570.69V329.468V338.725H578.482V329.468V146.876H607.479V329.468V338.725H617.869V329.468V131.014H645.567V329.468V338.725H654.225V329.468V116.118H672.832V329.468" stroke="black" stroke-miterlimit="10"/>
<path d="M181.402 166.025C180.188 166.064 180.08 166.675 180.08 166.675L181.402 166.025Z" stroke="black" stroke-miterlimit="10"/>
<path d="M176.617 288.864C178.758 287.789 180.598 285.925 180.598 282.53C180.598 278.462 181.386 261.409 182.19 248.609C182.5 243.543 182.817 239.15 183.087 236.482C183.157 235.856 183.211 235.322 183.273 234.904C184.208 228.153 190.957 232.924 191.073 229.204C191.189 225.477 192.704 224.897 194.683 222.445C196.662 220.001 199.8 219.305 199.452 215.113C199.105 210.921 201.199 208.013 200.852 202.77C200.496 197.534 198.989 202.77 200.148 195.322C200.442 193.45 200.457 191.911 200.28 190.635C199.738 186.814 197.473 185.244 195.726 183.674C193.399 181.579 195.726 180.883 194.567 174.827C193.771 170.712 192.016 169.398 189.441 168.4V168.392C188.22 167.913 186.821 167.503 185.252 166.907C183.365 166.188 182.159 165.987 181.402 166.026" stroke="black" stroke-miterlimit="10"/>
<path d="M176.609 288.864C176.192 290.805 175.766 291.942 175.364 291.958C174.537 291.996 172.914 292.043 171.066 292.004C169.165 291.965 167.031 291.826 165.292 291.486C163.483 291.13 162.099 290.558 161.859 289.63C161.164 286.954 162.563 245.5 160.112 241.772C158.821 239.808 155.752 238.098 152.892 236.242C150.341 234.579 147.96 232.793 147.195 230.596C145.571 225.941 149.29 229.668 154.531 232.576C159.764 235.484 162.447 227.92 162.207 223.961C162.091 221.927 162.401 221.091 162.81 221.091C163.197 221.091 163.676 221.842 163.954 223.033C164.542 225.476 164.07 235.252 163.027 236.304C161.975 237.348 150.805 232.808 151.74 234.44C151.941 234.796 152.521 235.183 153.317 235.585C156.178 237 161.906 238.586 163.722 239.676C166.049 241.076 164.302 278.338 163.143 286.134C162.617 289.653 163.699 290.968 165.33 291.3C167.309 291.702 170.092 290.651 171.754 290.326C173.084 290.071 174.939 289.707 176.609 288.864Z" stroke="black" stroke-miterlimit="10"/>
<path d="M176.609 288.864H176.617" stroke="black" stroke-miterlimit="10"/>
<path d="M0 338.725H113.452C113.452 338.725 125.55 290.914 128.928 277.054C132.298 263.203 135.908 228.036 135.792 215.577C135.676 203.118 133.582 209.405 133.582 202.77C133.582 196.134 140.678 183.326 142.309 178.903C143.94 174.479 151.972 165.863 156.278 163.063C159.432 161.022 164.65 160.349 168.763 160.271C170.27 160.24 171.623 160.295 172.682 160.387C176.64 160.735 177.459 161.671 174.429 163.063C171.406 164.463 168.028 165.863 166.281 164.115C164.542 162.367 170.007 161.555 168.848 161.555C167.68 161.555 164.302 162.599 163.027 164.579C161.743 166.559 163.259 166.791 168.028 166.791C172.798 166.791 176.408 163.063 177.104 162.599C177.807 162.135 178.735 163.999 176.64 167.023C174.545 170.055 169.196 171.563 165.817 173.311C162.447 175.059 159.533 173.195 160.468 173.899C161.396 174.595 162.447 174.363 162.795 176.575C163.143 178.787 163.259 180.882 163.259 183.906C163.259 186.938 165.354 184.61 168.028 183.79C170.703 182.978 185.368 179.135 188.978 179.367C192.588 179.599 190.493 181.811 186.303 181.811C182.113 181.811 160.584 188.33 158.141 190.194C155.691 192.058 156.858 194.85 159.533 197.062C162.207 199.274 168.26 197.418 174.081 195.902C179.902 194.386 186.767 195.902 191.652 197.062C196.546 198.23 190.261 198.114 182.577 198.114C174.893 198.114 164.658 199.978 159.764 201.609C154.879 203.234 156.858 207.077 158.721 209.405C160.584 211.733 176.872 210.457 182.461 210.341C188.05 210.225 193.052 209.869 191.536 211.617C190.029 213.365 183.041 211.733 171.29 211.849C159.533 211.965 158.837 211.849 153.596 214.061C148.362 216.273 144.056 215.461 144.056 215.461C144.056 215.461 143.592 216.273 150.457 217.325C157.322 218.369 156.742 211.385 160.236 216.397C161.11 217.642 162.408 218.547 163.939 219.22C168.523 221.231 175.156 221.169 178.387 222.213C182.693 223.613 184.092 223.961 181.765 226.405C179.438 228.849 186.303 229.204 183.976 229.436C181.649 229.668 181.178 230.364 181.178 238.748C181.178 240.566 181.023 244.1 180.76 248.524C179.995 261.223 178.294 281.238 176.617 288.864" stroke="black" stroke-miterlimit="10"/>
</svg>
