<svg width="635" height="357" viewBox="0 0 635 357" fill="none" xmlns="http://www.w3.org/2000/svg">
<path d="M445.75 201.2C445.87 201.07 445.99 200.99 446.12 200.97C448.07 200.64 447.53 203.39 444.38 205.81C442.18 207.51 438.72 209.04 433.96 209.26C432.51 209.33 431.08 209.15 429.7 208.78C423.1 207.07 417.51 201.35 414.94 199.74C413.75 198.99 413.2 199.13 413.51 200.97C414.61 207.6 428.43 210.36 430.64 220.31C431.89 225.95 430.48 237.82 428.82 248.76C428.41 251.48 427.98 254.15 427.57 256.65C427.12 259.42 426.7 261.98 426.35 264.19C426.05 266.07 425.82 267.7 425.67 268.96C424.96 275.01 421.95 274.64 416.66 273.46C413.73 272.81 410.1 271.91 405.77 271.72C393.61 271.17 396.92 260.66 403 254.58C407.7 249.88 421.02 252.79 427.57 256.65C428.08 256.95 428.56 257.26 428.98 257.58C429.18 257.73 429.37 257.87 429.55 258.03C430.39 258.73 430.97 259.43 431.19 260.11C432.85 265.09 430.09 296.59 428.98 304.33C428.75 305.95 428.42 308.26 427.89 310.84C426.79 316.17 424.81 322.66 421.01 326.72C417.88 330.05 413.53 331.73 407.42 329.76C390.29 324.23 394.71 292.72 391.95 272.27C389.9 257.11 395.74 214.93 400.71 194.11C402.44 186.84 404.07 182.17 405.21 182.17C406.04 182.17 408.85 182.17 412.91 182.18C428.59 182.22 462.92 182.43 473.7 183.43C475.02 183.55 475.98 183.68 476.52 183.83C482.6 185.49 480.94 261.77 480.94 261.77C480.94 261.77 473.2 259.56 459.94 259.01C446.67 258.45 447.78 260.11 448.88 267.3C449.99 274.48 469.33 267.3 478.73 267.3C488.13 267.3 481.49 269.51 482.05 278.35C482.6 287.2 492.55 325.34 489.79 329.21C489.39 329.77 488.85 330.25 488.18 330.66C484.24 333.11 475.86 333.32 465.46 334.73C454.74 336.19 456.05 344.53 460.68 351.03C461.3 351.91 461.98 352.74 462.7 353.53C468.78 360.16 504.16 352.42 511.34 353.53C518.53 354.63 525.16 352.42 542.85 351.32C560.54 350.21 578.78 357.95 584.86 355.19C590.94 352.42 615.26 351.87 634.61 351.32" stroke="black" stroke-miterlimit="10"/>
<path d="M425.93 333.51C426.65 334.96 427.34 336.45 428.19 337.93C428.93 339.19 429.8 340.44 430.92 341.63C434.03 344.96 439.1 347.9 448.88 349.66C452.99 350.4 456.94 350.85 460.68 351.03C482.06 352.1 496.31 344.7 492.55 335.29C491.58 332.87 490.06 331.46 488.18 330.66C481.45 327.82 470.16 332.85 463.25 328.1C454.41 322.02 446.67 288.85 442.25 254.58C439.5 233.23 441.68 216.17 444.38 205.81C444.83 204.09 445.29 202.56 445.74 201.22L445.75 201.2C446.96 197.67 448.13 195.49 448.88 194.89C449.8 194.16 452.3 193.55 455.41 193.24C458.26 192.95 461.63 192.92 464.77 193.3C468.53 193.73 471.95 194.73 473.76 196.54C478.73 201.52 476.52 239.11 473.2 246.85C469.89 254.58 453.3 252.93 447.78 245.74C443.45 240.11 442.85 216.2 444.38 205.81C444.73 203.46 445.19 201.8 445.74 201.22" stroke="black" stroke-miterlimit="10"/>
<path d="M428.61 260.31C428.01 261.59 427.25 262.89 426.35 264.19C425.23 265.81 423.89 267.42 422.35 268.96C420.48 270.83 418.56 272.26 416.66 273.46C409.59 277.92 402.86 279.26 400.24 288.85C396.92 301.02 402.45 318.15 416.82 324.23C418.53 324.95 419.89 325.79 421.01 326.72C423.4 328.68 424.71 331.04 425.92 333.51" stroke="black" stroke-miterlimit="10"/>
<path d="M477.07 79.1501C478.55 78.9001 479.85 79.2901 481.07 80.3601C484.91 83.7001 488 93.7001 493.65 111.42C496.28 119.67 497.64 126.42 498.15 131.94C498.52 135.92 498.45 139.26 498.11 142.07C497.53 146.95 496.14 150.24 494.79 152.5C494.6 152.83 494.4 153.14 494.21 153.43C491.37 157.69 482.04 156.68 477.69 159.08C476.96 159.48 476.37 159.98 475.97 160.62C474.45 163.05 474.76 169.82 474.43 176.43C474.32 178.86 474.12 181.26 473.7 183.43C473.19 186.1 472.36 188.4 470.99 189.91C469.29 191.77 467.18 192.81 464.77 193.3C461.98 193.87 458.79 193.69 455.41 193.24C452.24 192.81 448.91 192.13 445.57 191.57C440.14 190.66 430.42 189.76 421.82 189.21C414.66 188.76 408.28 188.56 405.77 188.81C404.56 188.93 403.57 191.08 402.74 194.49C399.81 206.66 399.13 234.77 399.13 242.98C399.13 253.48 417.93 244.63 425.67 246.85C427.02 247.23 428.07 247.89 428.82 248.76C429.27 249.26 429.62 249.85 429.87 250.49C430.68 252.52 430.53 255.16 429.55 258.03C429.3 258.77 428.99 259.53 428.61 260.3" stroke="black" stroke-miterlimit="10"/>
<path d="M420.82 57.3901C420.03 57.3101 419.07 57.0801 417.93 56.7001C412.95 55.0401 409.64 43.9801 415.72 38.4601C421.11 33.5601 426.06 39.0901 428.66 43.4901C429 44.0501 429.29 44.5901 429.54 45.0901C430.48 46.9701 429.72 50.1701 428.6 53.4701C427.13 57.9001 425.03 62.5401 425.67 64.4401C426.47 66.8501 430.79 69.2601 437.56 70.6101C440.09 71.1101 442.96 71.4701 446.12 71.6201C457.73 72.1701 469.89 71.6201 475.97 63.8801C477.89 61.4301 479.04 57.9201 479.58 54.0001C480.72 45.5701 478.99 35.2701 475.97 29.6101C471.54 21.3201 456.62 21.8701 443.91 23.5301C435.06 24.6901 430.23 34.9401 428.66 43.4901C427.98 47.2301 427.93 50.6401 428.43 52.8301C428.48 53.0401 428.54 53.2501 428.6 53.4701C430.25 58.9701 437.13 67.1901 437.56 70.6101C437.69 71.6001 437.27 72.1901 436.02 72.1901C435.9 72.1901 435.76 72.1801 435.62 72.1701C431.66 71.8401 426.32 69.5401 421.72 66.1001C418.61 63.7701 415.84 60.9201 414.06 57.8001C409.64 50.0601 409.08 34.0301 413.51 20.7701C417.93 7.50011 436.17 1.97011 452.75 1.42011C469.33 0.870107 478.18 15.2401 481.49 26.3001C483.91 34.3501 483.39 45.6301 482.29 54.3701C482.29 54.3701 482.29 54.3701 482.29 54.3801C481.88 57.6301 481.39 60.5301 480.94 62.7801C479.28 71.0701 467.68 77.7001 464.91 78.8101C464.82 78.8401 464.74 78.8901 464.66 78.9501C463.02 80.1201 462.85 85.9401 460.98 90.6001C460.38 92.0701 459.62 93.4201 458.59 94.4801C458.02 95.0701 457.37 95.5601 456.62 95.9401C455 96.7501 453.37 97.2001 451.85 97.4201C450.05 97.6701 448.38 97.5901 447.02 97.4101C446.56 97.3501 446.13 97.2701 445.75 97.1901C444.26 96.8801 443.35 96.5001 443.35 96.5001C443.35 96.5001 444.45 95.6601 446.17 94.7801C447.52 94.1001 449.25 93.4001 451.12 93.0701C452.33 92.8601 453.59 92.8001 454.86 92.9901C456.13 93.1901 457.39 93.6501 458.59 94.4801C458.93 94.7001 459.25 94.9601 459.57 95.2401C460.28 95.8701 460.96 96.6501 461.6 97.6001C465.7 103.75 461.98 114.14 457.1 120.9C456.49 121.75 455.87 122.53 455.23 123.25C452.75 126.08 450.18 127.79 448.33 127.45C446.18 127.06 445.14 125.5 444.3 123.45C442.75 119.69 441.89 114.28 436.17 111.42C427.32 107 413.51 114.18 414.61 123.03C415.72 131.87 430.64 131.87 437.83 134.64C439.72 135.37 441.15 136.09 442.51 136.91C442.97 137.18 443.42 137.47 443.88 137.77C444.58 138.22 445.3 138.71 446.09 139.24C449.08 141.26 453.09 143.92 461.04 147.9C463.3 149.03 465.44 149.95 467.46 150.65C479.32 154.81 487.19 151.82 491.44 142.37C496.42 131.32 486.47 125.79 476.52 124.13C466.57 122.48 464.91 115.29 464.91 99.8101C464.91 84.3301 467.12 83.7801 474.86 79.9101C475.64 79.5301 476.36 79.2701 477.05 79.1501" stroke="black" stroke-miterlimit="10"/>
<path d="M420.82 57.3901C420.46 55.3701 420.14 53.2701 420.14 51.1701C420.14 42.8801 422.35 47.3001 423.45 52.2801C424.31 56.1101 423.51 57.6501 420.82 57.3901Z" stroke="black" stroke-miterlimit="10"/>
<path d="M320.66 77.1001C320.83 76.9201 321.01 76.7601 321.19 76.6001C325.62 72.7301 389.18 77.7001 404.11 74.3901C419.03 71.0701 410.74 74.3901 417.93 71.0701C420.39 69.9301 421.43 68.2101 421.72 66.1001C422.07 63.6201 421.39 60.6101 420.82 57.3901" stroke="black" stroke-miterlimit="10"/>
<path d="M320.66 77.1001C321.96 79.8801 321.75 81.8601 321.75 85.9901C321.75 92.6301 320.09 91.5201 317.33 89.8601C314.67 88.2701 316.6 81.0901 320.66 77.1001Z" stroke="black" stroke-miterlimit="10"/>
<path d="M344.62 100.66C341.39 104.23 335.19 100.79 318.43 95.9401C315.21 95.0101 312.62 94.0501 310.57 93.0701C299.24 87.7001 304.1 81.8301 307.38 77.1501C307.99 76.2801 308.53 75.7801 309 75.5901C311.56 74.5301 312.26 82.2401 311.8 88.7601C311.66 90.7201 311.24 92.1201 310.57 93.0701C308.62 95.8701 304.59 94.8301 299.64 93.1801C293 90.9701 293 79.9101 297.43 74.9401C299.38 72.7501 302.07 71.8401 304.43 71.7001C307.43 71.5301 309.9 72.5901 309.59 73.8301C309.46 74.3601 309.07 74.6301 308.52 74.6301C307.51 74.6301 305.96 73.7001 304.43 71.7001C303.3 70.2401 302.19 68.2101 301.3 65.5401C298.53 57.2501 302.95 55.0401 305.72 56.1401C308.48 57.2501 310.14 62.7801 316.22 70.5201C318.52 73.4401 319.87 75.4201 320.66 77.1001" stroke="black" stroke-miterlimit="10"/>
<path d="M344.62 100.66C342.11 98.2401 342.14 87.57 344.41 82.12C347.17 75.49 349.39 87.1 346.62 96.5C346.06 98.4 345.44 99.7601 344.62 100.66Z" stroke="black" stroke-miterlimit="10"/>
<path d="M410.73 79.7903C410.44 80.9203 409.91 82.0203 409.08 82.6803C407.31 84.1003 388.04 82.5603 372.84 81.1303C364.33 80.3203 357.09 79.5603 354.91 79.3603C348.83 78.8103 351.04 98.7103 346.62 100.92C345.83 101.32 345.16 101.18 344.62 100.66" stroke="black" stroke-miterlimit="10"/>
<path d="M410.73 79.7904C409.41 78.9704 408.95 77.9804 409.64 76.6004C410.8 74.2704 411.42 77.1204 410.73 79.7904Z" stroke="black" stroke-miterlimit="10"/>
<path d="M420.33 82.61C415.98 81.67 412.54 80.9 410.73 79.79" stroke="black" stroke-miterlimit="10"/>
<path d="M442.96 105.16C443.41 105.11 443.88 105.1 444.38 105.14C444.77 105.17 445.16 105.24 445.57 105.34C448.89 106.17 447.22 113.57 447.36 119.07C447.38 119.95 447.45 120.79 447.6 121.54C447.75 122.33 447.98 123.02 448.33 123.58C449.68 125.74 450.37 123.93 450.79 121C450.79 120.98 450.79 120.96 450.79 120.94C451.22 117.89 451.36 113.66 451.65 111.42C452 108.63 452.35 102.51 451.85 97.4203C451.74 96.2503 451.59 95.1303 451.37 94.1203C451.3 93.7503 451.21 93.4004 451.12 93.0704C450.83 91.9904 450.46 91.0803 449.99 90.4203C447.22 86.5503 428.43 84.3303 420.69 82.6803C420.62 82.6603 420.54 82.6504 420.47 82.6304C420.42 82.6204 420.38 82.6104 420.34 82.6104" stroke="black" stroke-miterlimit="10"/>
<path d="M442.96 105.16C441.97 107.05 440.92 108.28 440.04 108.1C437.84 107.66 439.83 105.48 442.96 105.16Z" stroke="black" stroke-miterlimit="10"/>
<path d="M420.34 82.6101C420.35 82.6001 420.37 82.6001 420.39 82.5901C425.57 80.7301 432.59 79.0901 436.72 79.3601C441.74 79.6901 447.79 78.2001 453 77.3401C456.39 76.7901 459.42 76.5001 461.6 77.1501C463.85 77.8301 463.71 78.2301 461.97 78.2701C460.27 78.3301 457.03 78.0401 453 77.3401C451.05 77.0101 448.91 76.5701 446.67 76.0401C442.77 75.1101 439.18 74.4401 435.89 74.1801C429.37 73.6601 423.99 74.7701 419.59 78.8101C418.04 80.2301 418.6 81.4701 420.39 82.5901C420.41 82.6001 420.44 82.6201 420.47 82.6301C426.41 86.2601 445.27 88.5601 446.12 91.5201C446.34 92.2901 446.34 93.4401 446.17 94.7801C446.08 95.5301 445.94 96.3501 445.75 97.1901C445.15 99.9401 444.1 102.98 442.96 105.16" stroke="black" stroke-miterlimit="10"/>
<path d="M420.34 82.6104C420.33 82.6104 420.33 82.6104 420.33 82.6104" stroke="black" stroke-miterlimit="10"/>
<path d="M420.85 87.8604C418.57 87.5904 416.56 87.3304 415.16 87.1004C414.56 87.0004 414.18 86.8504 413.99 86.6604C413.1 85.8104 416.09 84.1404 420.33 82.6104" stroke="black" stroke-miterlimit="10"/>
<path d="M420.85 87.8604C429.97 89.6504 436.91 91.6404 438.93 90.9704C441.55 90.0904 429.37 88.8804 420.85 87.8604Z" stroke="black" stroke-miterlimit="10"/>
<path d="M477.05 79.1499C471.3 78.5499 466.02 82.5499 464.36 86.5499C463.58 88.4299 462.39 89.6899 460.98 90.5999C459.18 91.7699 457.02 92.3699 454.86 92.9899C453.67 93.3299 452.49 93.6799 451.37 94.1199C450.49 94.4699 449.65 94.8799 448.88 95.3899C448.17 95.8599 447.55 96.5599 447.02 97.4099C445.75 99.3999 444.92 102.26 444.38 105.14C443.5 109.73 443.35 114.39 443.35 115.84C443.35 116.42 444.91 117.61 447.36 119.07C448.34 119.67 449.47 120.3 450.7 120.95C450.73 120.97 450.76 120.99 450.79 121C452.17 121.74 453.67 122.5 455.23 123.25C465.28 128.12 477.87 132.81 476.52 129.11C474.55 123.68 462.42 121.34 457.1 120.9C456.46 120.85 455.92 120.82 455.51 120.82C454.34 120.82 452.61 120.77 450.79 120.94C450.76 120.94 450.73 120.95 450.7 120.95C449.66 121.05 448.6 121.24 447.6 121.54C446.33 121.94 445.18 122.53 444.3 123.45C443.12 124.68 442.47 126.48 442.8 129.11C443.08 131.37 442.97 134.1 442.51 136.91C441.22 145.1 437.1 153.98 431.75 153.98C424.56 153.98 351.04 151.22 348.83 144.59C346.62 137.95 352.15 90.9699 356.02 84.8899C357.89 81.9399 364.44 81.8499 372.7 82.5999C381.49 83.3999 392.23 85.1599 401.34 85.4399C405.68 85.5699 409.96 86.0399 413.99 86.6599C416.38 87.0199 418.68 87.4299 420.85 87.8599" stroke="black" stroke-miterlimit="10"/>
<path d="M477.05 79.1499C477.05 79.1499 477.06 79.1499 477.07 79.1499" stroke="black" stroke-miterlimit="10"/>
<path d="M507.54 137.48C508.58 147.28 508.49 158.45 504.16 160.62C499.74 162.83 490.34 162.83 492.55 166.14C494.76 169.46 502.5 166.7 505.82 170.57C509.13 174.43 500.29 181.07 489.23 183.83C485.2 184.84 483.16 184.37 481.98 182.74C481.2 181.67 480.79 180.11 480.44 178.13C479.84 174.81 479.39 170.32 477.63 165.04C476.78 162.5 476.91 160.57 477.69 159.08C480.2 154.22 489.57 153.97 494.79 152.5C496.37 152.05 497.56 151.5 498.08 150.67C499.14 148.97 499.14 141.41 498.27 131.93C496.88 116.7 493.24 96.4999 488.13 87.6499C485.99 83.9399 483.55 81.6299 481.07 80.3599C479.74 79.6699 478.39 79.2899 477.07 79.1499" stroke="black" stroke-miterlimit="10"/>
<path d="M507.54 137.48C505.69 138.01 504.15 137.95 503.6 136.85C501.95 133.53 503.6 107 503.6 107C503.6 107 506.37 126.9 507.47 136.85C507.49 137.06 507.52 137.27 507.54 137.48Z" stroke="black" stroke-miterlimit="10"/>
<path d="M405.04 176.48C418.05 177.92 460.85 176.19 474.43 176.43C476.25 176.47 477.55 176.54 478.18 176.65C479.15 176.83 479.88 177.35 480.44 178.13C481.24 179.25 481.69 180.88 481.98 182.74C482.77 187.68 482.44 194.18 484.81 196.54C488.68 200.41 500.84 189.91 515.21 186.04C529.58 182.17 524.61 165.04 525.71 136.29C526.82 107.55 518.53 60.01 515.77 57.25C513 54.49 486.47 52.28 485.36 54.49C485.31 54.58 485.28 54.67 485.26 54.77C484.75 57.01 490.54 60.7 495.31 63.88C500.29 67.2 497.52 81.57 498.63 84.33C499.74 87.1 510.79 82.12 513 84.33C515.21 86.55 517.98 127.45 516.87 130.77C516.13 132.98 511.22 136.42 507.54 137.48" stroke="black" stroke-miterlimit="10"/>
<path d="M405.03 176.48C403.27 175.2 401.59 173.97 400.11 172.85C396.81 170.34 394.46 168.31 394.16 167.25C393.05 163.38 399.69 157.3 406.32 157.3C412.95 157.3 461.6 160.06 464.36 157.3C467.12 154.54 441.14 156.19 438.93 153.43C437.55 151.7 441.13 143.06 443.88 137.77C445.53 134.6 446.88 132.63 446.67 134.08C446.48 135.38 446.24 137.24 446.09 139.24C445.81 143.2 445.94 147.73 447.78 149.56C450.19 151.98 462.35 150.58 466.83 152.42C467.47 152.69 467.95 153.02 468.23 153.43C470.44 156.75 473.76 161.72 471.54 162.83C469.33 163.93 409.64 165.59 404.66 164.48C400.74 163.61 399.22 168.93 400.11 172.85C400.35 173.9 400.76 174.84 401.34 175.54C401.68 175.94 402.98 176.25 405.03 176.48Z" stroke="black" stroke-miterlimit="10"/>
<path d="M405.03 176.48C405.04 176.48 405.04 176.48 405.04 176.48" stroke="black" stroke-miterlimit="10"/>
<path d="M428.61 260.3C428.73 259.42 428.85 258.51 428.98 257.58C429.27 255.33 429.57 252.94 429.87 250.49C431.69 235.26 433.24 217.44 432.3 213.68C431.95 212.26 431.01 210.57 429.7 208.78C428.54 207.19 427.08 205.52 425.47 203.89C420.4 198.77 413.82 194.11 410.19 193.78C406.54 193.45 410.26 196.7 415.02 199.6C418.18 201.52 421.8 203.29 424.01 203.73C424.57 203.84 425.06 203.89 425.47 203.89C429.2 203.82 427.66 199.24 425.67 193.78C425.24 192.6 423.83 191.02 421.82 189.21C419.46 187.09 416.28 184.65 412.91 182.18C410.3 180.25 407.58 178.31 405.04 176.48" stroke="black" stroke-miterlimit="10"/>
<path d="M428.61 260.3V260.31" stroke="black" stroke-miterlimit="10"/>
<path d="M425.92 333.51C421.99 332.8 414.79 333.61 403.56 332.52C386.42 330.86 385.87 338.05 388.63 346.34C391.39 354.63 421.8 349.66 424.56 348.55C426.19 347.9 427.44 343.17 428.19 337.93C428.35 336.85 428.48 335.74 428.59 334.64C428.85 332.09 428.98 329.6 428.98 327.55C428.98 325.15 428.49 318.6 427.89 310.84C426.7 295.41 425.12 275.22 426.22 273.38C426.72 272.54 427.63 267.34 428.61 260.31" stroke="black" stroke-miterlimit="10"/>
<path d="M425.92 333.51H425.93" stroke="black" stroke-miterlimit="10"/>
<path d="M0.460007 19.3299L47.44 37.0699C47.44 37.0699 47.6 36.6499 49.03 32.8699C50.45 29.0999 53.35 23.9599 58.24 18.6199C63.14 13.2699 71.69 12.1899 71.69 12.1899C71.69 12.1899 109.45 26.4499 121.62 31.0399C133.78 35.6299 131.73 37.2599 132.51 38.9899C133.3 40.7199 133.59 51.3799 133.59 51.3799L175.54 67.2199L171.02 70.3099L73.69 33.5599L72.74 36.0699L168.81 72.3499L166.25 74.7099L165.86 75.0699L64.76 36.8999L63.34 40.6699L59.56 39.2499L57.25 40.2899C57.25 40.2899 121.28 64.9399 141.41 72.5499C161.55 80.1499 163.23 80.7799 166.33 77.6399C166.72 77.2499 167.19 76.7999 167.72 76.3099C171.45 72.8699 178.25 67.5199 181.37 67.0199C184.94 66.4499 222.06 82.3899 230.19 84.9799C238.32 87.5699 236.79 90.3399 235.88 95.2799C234.98 100.21 186.34 211.26 183.49 218.81C180.64 226.36 175.6 224.46 172.93 223.93C170.25 223.4 78.12 188.13 78.12 188.13L78.75 186.45L86.72 189.46L90.84 178.55L105.52 184.1L102.04 193.33L111.27 196.81L115.39 185.9C115.39 185.9 110.24 186.84 122.27 184.19C134.29 181.54 141.5 175.15 143.86 172.69C146.23 170.23 152.58 160.4 148.01 150.29C143.44 140.18 136.18 137.19 136.18 137.19L132.53 146.84C132.53 146.84 139.97 152.53 136.17 162.6C132.37 172.66 120.14 173.32 120.14 173.32L129.96 147.31L121.1 141.57L109.07 173.45L94.38 167.91L108.16 131.41L122.1 139.93L130.75 145.21L134.08 136.4L134.24 135.98L128.31 131.69L105.26 114.98L105.21 112.56L101.44 111.14C101.44 111.14 98.46 103.78 101.52 98.2299C104.58 92.6699 113.45 90.7499 113.45 90.7499L106.27 111.04L106.61 112.11L107.15 113.77L112.71 116.83L122.37 91.2399L138.73 97.4199L127.33 127.62L129.05 130.67L134.87 134.31L145.22 105.62C145.22 105.62 145.64 105.78 148.41 111.14C151.18 116.5 148.96 122.37 148.96 122.37L160.62 121.98C160.62 121.98 162.84 112.27 160.6 104.24C158.36 96.1999 150.51 90.3599 150.51 90.3599L153.99 81.1299L145.18 77.7999L141.85 86.6099L127.17 81.0699L130.34 72.6799L121.53 69.3499L118.2 78.1599C118.2 78.1599 110.12 77.9899 102.61 81.3799C95.1 84.7799 88.15 91.7399 86.87 102.76C85.58 113.78 99.83 126.83 99.83 126.83L86.68 161.64C86.68 161.64 85.32 160.17 82.03 153.66C78.74 147.14 82.54 137.07 82.54 137.07L69.95 132.32C69.95 132.32 67.78 140.61 69.33 151.74C70.88 162.87 82.56 172.55 82.56 172.55L77.13 185.79L76.6 187.08C76.6 187.08 73.12 186.24 60.23 181.66C54.81 179.72 47.72 177.13 38.53 173.66C7.48 161.94 10.32 162.05 8.64999 157.58C6.97999 153.12 42.16 52.3299 45.43 44.9299C48.7 37.5399 54.73 39.3399 53.48 38.8599C52.73 38.5799 50.28 38.3299 47.97 38.8099C46.39 39.1399 44.88 39.8099 44.02 41.0499C41.92 44.0899 8.05 143.94 4.77 155.16C1.49 166.39 1.7 164.55 6.16 166.71C7.35 167.29 29.48 173.27 59.43 183.91C99.19 198.02 152.74 220.3 189.5 248.96C228.17 279.11 228.24 351.32 334.46 351.32C348.29 351.32 417.93 355.74 426.22 352.42C431.93 350.14 431.87 345.76 430.92 341.63C430.49 339.76 429.89 337.94 429.54 336.39C429.38 335.65 429.06 335.07 428.59 334.64C427.98 334.07 427.1 333.72 425.93 333.51" stroke="black" stroke-miterlimit="10"/>
</svg>
