<svg width="573" height="438" viewBox="0 0 573 438" fill="none" xmlns="http://www.w3.org/2000/svg">
<path d="M27.37 405.8H42.17H60.57H76.17H95.37H110.97H125.6H141.77H154.79" stroke="black" stroke-width="1.4173" stroke-miterlimit="10"/>
<path d="M27.37 405.8V431.08H1.26L0.93 405.8H27.37Z" stroke="black" stroke-width="1.4173" stroke-miterlimit="10"/>
<path d="M42.17 419.88V405.8V390.81H54.17L34.57 364.81L16.57 389.61H27.37V405.8" stroke="black" stroke-width="1.4173" stroke-miterlimit="10"/>
<path d="M42.17 419.88H37.37V425.48H42.17V419.88Z" stroke="black" stroke-width="1.4173" stroke-miterlimit="10"/>
<path d="M76.17 412.75V405.8V366.68H88.17L69.37 341.08L50.57 366.28H60.57V405.8V419.88H42.17" stroke="black" stroke-width="1.4173" stroke-miterlimit="10"/>
<path d="M76.17 412.75H70.97V418.35H76.17V412.75Z" stroke="black" stroke-width="1.4173" stroke-miterlimit="10"/>
<path d="M110.97 418.989V405.799V331.079H122.97L103.77 305.479L84.97 329.879H95.37V405.799V412.749H76.17" stroke="black" stroke-width="1.4173" stroke-miterlimit="10"/>
<path d="M110.97 418.99C107.79 419.03 105.37 419.08 105.37 419.08C105.37 419.08 104.57 424.28 105.37 424.28C106.17 424.28 110.97 424.28 110.97 424.28V418.99Z" stroke="black" stroke-width="1.4173" stroke-miterlimit="10"/>
<path d="M125.74 419.05C125.09 418.83 116.77 418.9 110.97 418.99" stroke="black" stroke-width="1.4173" stroke-miterlimit="10"/>
<path d="M125.75 419.05C125.75 419.08 125.76 419.09 125.77 419.08C125.78 419.07 125.78 419.06 125.75 419.05Z" stroke="black" stroke-width="1.4173" stroke-miterlimit="10"/>
<path d="M125.75 419.05H125.74" stroke="black" stroke-width="1.4173" stroke-miterlimit="10"/>
<path d="M141.77 430.7V405.8V383.08H151.77L134.17 357.08L114.97 381.08H125.77C125.77 381.08 125.62 394.84 125.6 405.8C125.58 412.77 125.61 418.61 125.74 419.05" stroke="black" stroke-width="1.4173" stroke-miterlimit="10"/>
<path d="M141.77 430.7C137.93 430.69 135.77 430.68 135.77 430.68V437.08H141.77V430.7Z" stroke="black" stroke-width="1.4173" stroke-miterlimit="10"/>
<path d="M327.17 426.1C326.3 429.23 322.18 432.45 315.72 432.05C304.87 431.37 171.81 430.82 141.77 430.7" stroke="black" stroke-width="1.4173" stroke-miterlimit="10"/>
<path d="M327.17 426.1C318.94 423.23 315.05 420.57 321.07 420.57C326.12 420.57 327.94 423.3 327.17 426.1Z" stroke="black" stroke-width="1.4173" stroke-miterlimit="10"/>
<path d="M339.71 406.86C341.78 403.4 344.82 396.34 342.5 388.44C340.99 383.33 341.38 379.28 342.83 375.78C345.05 370.38 349.79 366.3 353.97 361.66C360.86 354.01 357.8 341.77 357.8 341.77C357.8 341.77 360.74 341.94 364.68 342.75C372.61 344.38 384.58 348.62 384.58 359.36C384.58 375.43 370.04 390.73 370.04 404.5C370.04 418.28 372.33 435.11 351.68 432.05C342.63 430.71 333.58 428.34 327.17 426.1" stroke="black" stroke-width="1.4173" stroke-miterlimit="10"/>
<path d="M339.61 407.03C339.29 407.51 338.97 407.95 338.67 408.33C337.5 409.79 338.34 409.13 339.61 407.03Z" stroke="black" stroke-width="1.4173" stroke-miterlimit="10"/>
<path d="M339.61 407.029C339.65 406.979 339.68 406.919 339.71 406.859" stroke="black" stroke-width="1.4173" stroke-miterlimit="10"/>
<path d="M245.81 108.33C241.99 109.96 234.35 113.74 235.38 116.83C236.91 121.42 246.86 115.3 249.92 113.77C252.98 112.24 237.68 122.19 243.8 123.72C249.92 125.25 252.22 116.07 265.99 116.07C274.45 116.07 285.52 114.34 291.37 114.77C295.04 115.05 296.66 116.18 294.3 119.13C292.88 120.9 288.62 123.87 282.8 127.55C263.55 139.72 227.31 159.64 220.85 169.62C212.43 182.63 201.72 195.64 207.84 201.76C208.2 202.12 208.66 202.5 209.21 202.91C212.15 205.04 217.63 207.73 223.9 210.69C225.74 211.56 227.66 212.46 229.6 213.36C231.26 214.15 232.93 214.94 234.59 215.73C244.14 220.31 253.32 225.12 256.81 229.3C258.92 231.83 260.74 234.54 262.45 236.97C264.85 240.35 267.05 243.19 269.57 244.3C269.89 244.45 270.21 244.56 270.54 244.64C272.54 245.15 274.77 244.55 277.46 242.31C279.48 240.62 282.4 237.67 285.78 234.04C297.75 221.22 315.54 199.98 320.31 196.4C322.33 194.89 320.69 194.79 317.08 194.24C309.76 193.12 294.34 190.14 285.11 169.62C271.34 139.02 271.34 143.61 271.34 143.61C271.34 143.61 236.15 203.29 232.32 207.88C231.51 208.85 230.61 210.84 229.6 213.36C225.82 222.79 220.6 239.69 213.96 238.48C213.51 238.4 213.07 238.3 212.63 238.19C204.92 236.28 199.5 230.3 200.95 220.88C201.89 214.81 205.1 207.61 209.21 202.91C211.83 199.9 214.8 197.93 217.79 197.93C223.34 197.93 225.67 202.77 223.9 210.69C223.22 213.68 221.97 217.11 220.08 220.88C217.22 226.61 214.09 232.35 212.63 238.19C210.56 246.39 211.78 254.8 221.61 263.73C238.44 279.03 317.25 350.95 327.96 360.13C334.1 365.39 339.49 370.66 342.83 375.78C345.3 379.59 346.65 383.32 346.32 386.91C345.64 394.38 342.54 402.47 339.71 406.86" stroke="black" stroke-width="1.4173" stroke-miterlimit="10"/>
<path d="M245.84 108.32C246.54 108.08 247.14 107.84 247.63 107.65C248.87 107.15 247.85 107.46 245.84 108.32Z" stroke="black" stroke-width="1.4173" stroke-miterlimit="10"/>
<path d="M245.84 108.32C245.83 108.32 245.82 108.32 245.81 108.33" stroke="black" stroke-width="1.4173" stroke-miterlimit="10"/>
<path d="M366.37 137.789C369.41 139.829 375.58 144.569 376.16 149.729C376.92 156.619 331.02 151.259 323.37 141.319C315.72 131.369 317.25 106.119 317.25 106.119C317.25 106.119 315.95 106.459 313.83 107.079C308.87 108.509 299.37 111.409 291.37 114.769C285.16 117.379 279.84 120.259 278.23 122.949C276.09 126.519 278.44 127.919 282.8 127.549C287.79 127.129 295.41 124.389 301.95 119.889C307.74 115.909 312.16 111.079 313.83 107.079C315.7 102.639 314.15 99.2394 307.3 99.2394C294.3 99.2394 283.58 96.9394 278.23 90.0494C272.87 83.1694 269.05 73.2194 266.75 80.1094C264.46 86.9894 272.87 91.5794 266.75 92.3494C260.63 93.1094 233.85 93.8794 233.09 99.2394C232.32 104.589 239.21 101.529 243.8 99.9994C248.39 98.4694 229.26 105.359 230.79 109.179C232.12 112.519 241.01 110.039 245.81 108.329" stroke="black" stroke-width="1.4173" stroke-miterlimit="10"/>
<path d="M364.68 136.72C364.68 136.72 364.69 136.72 364.7 136.73C364.7 136.73 364.7 136.73 364.71 136.74C364.72 136.74 364.73 136.75 364.75 136.77C364.77 136.77 364.8 136.79 364.84 136.82C365.09 136.96 365.62 137.28 366.31 137.75" stroke="black" stroke-width="1.4173" stroke-miterlimit="10"/>
<path d="M366.31 137.75C365.58 137.3 365.08 136.98 364.84 136.82C364.8 136.8 364.77 136.78 364.75 136.77" stroke="black" stroke-width="1.4173" stroke-miterlimit="10"/>
<path d="M366.31 137.75C366.33 137.76 366.34 137.77 366.36 137.78C366.36 137.79 366.37 137.79 366.37 137.79" stroke="black" stroke-width="1.4173" stroke-miterlimit="10"/>
<path d="M416.72 67.4399C420.71 71.6899 424.37 74.4799 427.67 75.3499C430.08 75.9899 432.3 75.5999 434.31 73.9899C441.96 67.8699 444.25 60.9799 438.13 48.7399C432.01 36.4999 444.25 15.0799 465.67 8.95987C481.8 4.34987 487.52 11.0099 488.39 17.5299C488.67 19.6699 488.43 21.7899 487.86 23.4899C485.57 30.3799 480.21 27.3199 480.21 33.4399C480.21 39.5599 485.57 51.7999 485.57 54.0999C485.57 56.3899 474.86 62.5099 474.86 62.5099C474.86 62.5099 495.51 57.9199 489.39 61.7499C483.27 65.5699 461.85 70.9299 474.86 72.4599C478.56 72.8999 482.38 72.1499 485.95 70.6899C494.9 67.0199 502.18 58.7999 501.63 53.3299C501 46.9599 490.53 24.7299 489.22 17.4199C488.96 15.9399 489.07 15.0699 489.72 15.0699C493.54 15.0699 507.15 8.44987 495.51 7.41987C480.63 6.10987 471.94 -1.20013 486.95 1.23987C500.56 3.45987 509.28 12.0199 512.35 22.7299C515.41 33.4399 514.64 39.5599 516.94 45.6799C519.23 51.7999 514.64 68.6299 499.34 70.1599C495.02 70.5899 490.7 71.5799 486.65 72.8499C476.37 76.0799 467.87 81.1899 465.67 83.9299C464.51 85.3799 463.24 90.1299 461.62 96.0399C460.79 99.0499 459.86 102.37 458.82 105.71C458.48 106.79 458.13 107.88 457.76 108.96C455.61 115.26 452.97 121.33 449.61 125.25C442.8 133.2 433.87 147.04 421.91 152.72C417.75 154.69 413.22 155.68 408.29 155.09C392.17 153.15 372.22 141.42 366.37 137.79" stroke="black" stroke-width="1.4173" stroke-miterlimit="10"/>
<path d="M416.72 67.44C413.68 70.85 409.17 72.46 402.94 72.46C386.87 72.46 357.8 53.33 365.45 40.32C373.1 27.32 389.93 30.38 402.94 49.5C407.88 56.76 412.49 62.93 416.72 67.44Z" stroke="black" stroke-width="1.4173" stroke-miterlimit="10"/>
<path d="M275.93 18.14C275.93 18.14 275.91 18.14 275.87 18.13C274.53 17.7 251.81 10.56 263.69 12.78C275.93 15.08 288.17 17.37 292 27.32C295.83 37.26 284.35 45.68 314.19 61.75C334.99 72.94 369.16 88.23 394.95 97.75C406.17 101.91 415.8 104.96 422.06 106.12C431.31 107.84 446.4 109.24 457.76 108.96C458.74 108.94 459.69 108.91 460.61 108.85C472.82 108.2 479.05 105.17 464.91 97.71C463.81 97.13 462.71 96.57 461.62 96.04C441.95 86.38 424.05 83.87 418.51 81.36C416.66 80.52 416.19 79.68 417.47 78.58C420.39 76.08 426.7 76.07 427.05 77.45C427.26 78.3 425.16 79.69 418.51 81.36C416.2 81.93 413.33 82.54 409.82 83.17C379.99 88.52 363.92 78.58 357.03 60.22C350.15 41.85 355.5 14.31 379.22 12.02C402.94 9.72003 419 12.78 421.3 37.26C422.71 52.25 421.53 62.08 416.72 67.44" stroke="black" stroke-width="1.4173" stroke-miterlimit="10"/>
<path d="M262.15 23.3802C257.49 21.7302 251.59 19.0302 256.04 18.1402C263.37 16.6702 274.92 18.0202 275.87 18.1302" stroke="black" stroke-width="1.4173" stroke-miterlimit="10"/>
<path d="M262.15 23.38C263.11 23.32 264.45 23.6 265.99 24.26C268.23 25.22 265.51 24.57 262.15 23.38Z" stroke="black" stroke-width="1.4173" stroke-miterlimit="10"/>
<path d="M380.55 125.71C376.28 124.34 371.96 122.91 367.74 121.42C341.73 112.24 303.48 80.1099 288.17 64.0399C272.87 47.9699 272.87 34.9699 265.22 29.6099C259.76 25.7899 259.76 23.5299 262.15 23.3799" stroke="black" stroke-width="1.4173" stroke-miterlimit="10"/>
<path d="M380.55 125.71C380.18 129.89 381.44 133.66 385.34 136.72C396.05 145.14 420.53 149.73 422.06 143.61C423.35 138.48 402.61 132.81 380.55 125.71Z" stroke="black" stroke-width="1.4173" stroke-miterlimit="10"/>
<path d="M337.39 271C334.71 264.33 328.28 259.82 317.25 255.31C307.64 251.38 296.53 241.96 285.78 234.04C281.76 231.07 277.79 228.32 273.97 226.14C270.11 223.93 266.39 222.31 262.93 221.65C252.94 219.75 241.46 216.36 234.59 215.73C230.4 215.35 227.92 215.99 228.5 218.59C229.71 224.03 251.5 230.92 262.45 236.97C265.35 238.56 267.48 240.1 268.28 241.54C268.6 242.11 269.05 242.77 269.62 243.51C269.9 243.87 270.2 244.24 270.54 244.64C277.74 253.24 297.15 270.11 306.54 282.86C317.25 297.39 347.85 337.94 350.15 343.3C352.44 348.65 296.59 324.94 284.35 301.98C274.24 283.03 268.31 262.51 269.57 244.3C269.58 244.04 269.6 243.77 269.62 243.51C269.91 239.95 270.47 236.48 271.34 233.13C271.97 230.7 272.86 228.37 273.97 226.14C282.26 209.38 302.44 198.34 311.89 195.64C313.18 195.27 314.94 194.8 317.08 194.24C332.68 190.14 368.5 181.06 390.7 169.62C400.12 164.77 411.69 159.59 422.67 154.3C441.1 145.41 457.92 136.17 460.32 127.54C462.06 121.25 463.01 114.49 460.61 108.85C460.15 107.75 459.56 106.7 458.82 105.71C455.05 100.58 447.46 96.87 433.54 96.17C406.47 94.82 401.55 89.87 394.95 97.75C394.09 98.78 393.2 100.03 392.23 101.53C386.87 109.81 381.21 118.39 380.55 125.71" stroke="black" stroke-width="1.4173" stroke-miterlimit="10"/>
<path d="M337.39 271C330.98 276.3 329.51 285.49 331.02 292.04C333.31 301.98 337.14 298.16 338.67 283.62C339.2 278.61 338.82 274.5 337.39 271Z" stroke="black" stroke-width="1.4173" stroke-miterlimit="10"/>
<path d="M360.34 332.55C364.47 327.19 368.51 317.29 368.51 302.75C368.51 274.44 370.04 267.55 351.68 266.79C345.39 266.53 340.72 268.23 337.39 271" stroke="black" stroke-width="1.4173" stroke-miterlimit="10"/>
<path d="M360.34 332.55C358 319.25 357.03 295.7 357.03 292.04C357.03 287.45 350.15 329.53 351.68 335.65C352.42 338.63 356.42 337.62 360.34 332.55Z" stroke="black" stroke-width="1.4173" stroke-miterlimit="10"/>
<path d="M572.79 340.24C572.79 340.24 389.2 347.04 364.97 341.41C363.49 341.07 362.61 340.68 362.39 340.24C361.61 338.68 360.93 335.95 360.34 332.55" stroke="black" stroke-width="1.4173" stroke-miterlimit="10"/>
</svg>
