<svg width="712" height="366" viewBox="0 0 712 366" fill="none" xmlns="http://www.w3.org/2000/svg">
<path d="M0 345.281H125.421C125.421 345.281 137.087 344.294 144.48 341.827C151.873 339.36 343.203 270.816 346.155 267.865C349.107 264.913 353.133 260.384 350.631 256.234C348.129 252.083 344.181 251.59 344.181 251.59C344.181 251.59 144.965 321.12 137.572 322.601C130.179 324.081 122.284 321.12 111.437 314.221C100.591 307.322 59.1684 284.139 48.815 278.227C38.4616 272.314 28.1083 265.397 28.1083 263.917C28.1083 262.437 98.6257 296.951 107.992 301.885C117.359 306.82 125.747 307.313 125.747 308.785C125.747 310.265 77.4255 286.104 70.024 281.17C62.6312 276.235 28.6017 261.935 29.0952 259.97C29.5886 257.996 30.5755 254.542 32.5492 257.009C34.523 259.476 72.9846 278.209 79.3905 280.183C85.7963 282.157 116.019 296.457 119.156 298.431C122.293 300.405 136.1 304.846 141.026 304.846C145.96 304.846 204.882 285.373 210.803 283.892C216.725 282.412 312.381 251.837 314.848 250.859C317.315 249.881 336.542 244.444 339.996 242.972C343.45 241.492 346.772 241.986 346.833 242.972C346.895 243.959 345.423 252.339 343.943 252.339C342.463 252.339 345.917 242.479 348.384 240.012C350.851 237.545 352.984 232.971 351.424 230.575C349.864 228.178 342.956 229.658 326.69 234.593C310.416 239.527 198.978 264.181 186.651 266.649C174.324 269.116 152.631 278.976 138.823 277.002C125.016 275.028 71.7598 250.374 65.8474 246.92C59.9261 243.466 54.0137 241.492 47.1056 243.959C40.2063 246.426 35.2719 247.413 35.7654 248.894C36.2588 250.374 69.2926 267.142 76.2008 270.094C83.1089 273.046 121.077 288.836 125.509 292.774C129.95 296.722 139.317 297.215 138.33 290.801C137.343 284.386 100.855 273.539 90.995 268.614C81.1351 263.679 41.1932 251.845 36.7522 251.845C32.3113 251.845 30.3376 251.845 35.7654 255.3C41.1932 258.754 49.0793 260.234 51.5465 253.819C54.0137 247.405 53.5203 240.505 57.9612 236.558C62.4021 232.61 64.8605 230.636 66.8343 231.13C68.808 231.623 99.8681 247.898 108.75 251.837C117.623 255.784 136.858 261.697 141.29 263.177C145.731 264.657 146.225 271.557 138.823 271.557C131.43 271.557 84.0869 254.295 81.1263 252.815C78.1657 251.334 44.145 240.488 56.9655 235.06C69.7861 229.632 79.646 232.099 82.1132 235.06C84.5804 238.02 62.3933 228.161 56.9655 224.706C51.5377 221.252 38.7172 212.873 45.6253 209.419C52.5334 205.965 98.8812 210.406 124.522 204.978C150.163 199.55 213.773 180.817 224.62 175.883C235.466 170.948 250.754 164.049 250.754 164.049L254.208 168.983C254.208 168.983 207.86 186.738 193.559 190.183C179.259 193.638 246.815 169.477 251.256 168.49C255.697 167.503 262.103 164.542 266.051 167.996C269.998 171.451 276.897 175.883 279.858 177.363C282.819 178.843 273.937 169.477 273.937 169.477L267.037 171.944C267.037 171.944 278.871 178.359 294.652 182.297C310.433 186.245 338.048 191.17 344.454 194.624C350.869 198.078 357.768 204.978 357.275 212.873C356.781 220.759 353.821 227.174 350.86 227.667C347.899 228.16 174.333 267.609 166.438 270.076C158.543 272.543 140.797 273.037 139.317 281.416C137.836 289.796 138.823 300.158 137.836 303.11C136.849 306.062 131.422 311.49 130.937 318.398C130.444 325.297 130.444 343.052 126.003 343.052C121.562 343.052 126.496 331.218 125.016 330.231C123.535 329.245 46.6122 285.355 42.6647 282.897C38.7172 280.43 25.4032 276.975 25.8966 273.037C26.3901 269.098 27.3769 266.622 27.8704 268.102C28.3638 269.583 22.4426 272.05 27.8704 277.469C33.2982 282.897 54.4983 293.25 71.2664 307.551C88.0344 321.852 112.195 336.153 116.143 338.62C120.09 341.087 125.016 346.013 129.457 346.013C133.898 346.013 379.708 346.013 379.708 346.013C379.708 346.013 404.019 346.013 409.306 346.013C414.593 346.013 423.404 344.25 424.285 338.964C425.166 333.677 429.572 268.473 433.097 264.948C436.621 261.423 447.195 254.374 445.433 265.829C443.67 277.284 431.334 333.677 429.572 338.082C427.81 342.488 426.929 346.013 429.572 348.656C432.215 351.299 443.67 360.992 446.314 360.992C448.957 360.992 454.244 343.369 456.006 335.439C457.768 327.509 472.748 264.067 470.986 262.305C469.223 260.542 458.65 258.78 457.768 260.542C456.887 262.305 445.433 353.062 445.433 353.062C445.433 353.062 461.293 264.948 463.055 263.186C464.818 261.423 582.009 260.542 592.582 260.542C603.156 260.542 608.372 258.339 609.289 262.525C610.205 266.71 617.254 335.439 619.017 343.369C620.779 351.299 619.898 366.208 619.017 364.922C618.135 363.635 597.111 265.873 594.847 264.525C592.582 263.177 589.058 257.89 589.058 269.345C589.058 280.8 592.582 340.717 590.82 344.242C589.058 347.766 587.296 349.528 582.89 325.738C578.484 301.947 575.841 265.82 576.722 264.058C577.603 262.296 614.611 261.415 620.779 259.652C626.947 257.89 628.709 261.415 629.59 252.603C630.471 243.792 632.709 182.112 632.471 171.979C632.234 161.846 633.626 108.194 632.489 105.066C631.352 101.929 633.115 96.642 622.541 97.5231C611.967 98.4042 465.699 93.9986 461.293 93.9986C456.887 93.9986 450.719 93.9986 450.719 100.167C450.719 106.334 445.433 219.12 445.433 227.05C445.433 234.98 445.433 251.722 443.67 254.366C441.908 257.009 432.215 257.009 429.572 253.484C426.929 249.96 426.929 249.079 426.929 240.267C426.929 231.456 427.81 108.097 428.691 105.453C429.572 102.81 442.789 91.3551 448.957 90.474C455.125 89.5929 618.135 88.7117 622.541 89.5929C626.947 90.474 627.828 91.3551 626.947 93.1174C626.066 94.8797 609.324 92.2363 604.918 86.0683C600.513 79.9004 568.792 2.36027 568.792 1.47913C568.792 0.597995 596.107 78.1381 596.107 80.7815C596.107 83.4249 517.686 45.536 515.042 45.536C512.399 45.536 513.28 49.0605 519.448 52.5851C525.616 56.1096 589.939 85.1872 590.82 85.1872C591.701 85.1872 602.275 77.2569 604.918 79.0192C607.562 80.7815 608.443 87.8306 603.156 92.2363C597.869 96.642 595.226 94.8797 594.345 93.1174C593.464 91.3551 599.632 88.7117 611.086 100.167C622.541 111.621 618.135 108.978 607.562 109.859C596.988 110.74 467.461 108.097 463.936 108.978C460.412 109.859 457.768 108.097 457.768 121.314C457.768 134.531 456.887 200.616 456.887 204.141C456.887 207.665 455.125 213.833 463.055 213.833C470.986 213.833 523.854 217.358 544.12 216.477C564.386 215.595 611.967 215.595 615.492 214.714C619.017 213.833 620.779 212.952 620.779 205.022C620.779 197.092 622.541 154.797 622.541 146.867C622.541 138.937 621.66 117.789 619.898 116.027C618.135 114.265 611.967 116.908 610.205 123.957C608.443 131.006 609.324 186.518 609.324 191.805C609.324 197.092 614.611 205.022 598.75 207.665C582.89 210.309 522.091 210.309 507.993 209.428C493.895 208.546 470.986 209.428 468.342 204.141C465.699 198.854 465.699 152.154 465.699 143.342C465.699 134.531 460.412 122.195 479.797 121.314C499.182 120.433 530.903 121.314 540.595 121.314C550.288 121.314 597.869 122.195 600.513 123.957C603.156 125.719 608.443 128.363 608.443 133.65C608.443 138.937 608.443 141.58 597.869 141.58C587.296 141.58 577.603 145.105 574.079 145.986C570.554 146.867 548.526 145.986 541.476 149.51C534.427 153.035 526.497 156.559 526.497 160.084C526.497 163.608 524.735 174.182 526.497 174.182C528.259 174.182 549.407 169.776 551.169 168.014C552.931 166.252 552.931 164.49 538.833 159.203C524.735 153.916 526.497 153.916 514.161 165.371C501.825 176.825 503.588 183.875 504.469 185.637C505.35 187.399 558.218 185.637 564.386 185.637C570.554 185.637 575.841 186.518 575.841 180.35C575.841 174.182 575.524 150.391 574.801 148.188C574.079 145.986 571.435 145.105 562.624 145.105C553.812 145.105 510.637 145.986 507.993 145.986C505.35 145.986 503.588 146.867 503.588 150.391C503.588 153.916 500.944 183.875 501.825 186.518C502.706 189.161 503.588 190.042 511.518 190.042C519.448 190.042 568.792 190.042 572.316 189.161C575.841 188.28 578.484 188.28 578.484 182.112C578.484 175.944 577.603 149.51 577.603 147.748C577.603 145.986 576.722 142.461 569.673 142.461C562.624 142.461 508.874 142.461 505.35 142.461C501.825 142.461 500.944 143.342 500.944 147.748C500.944 152.154 500.944 184.756 500.063 187.399C499.182 190.042 465.699 189.161 465.699 189.161" stroke="white" stroke-miterlimit="10"/>
<path d="M138.18 262.173C132.153 256.516 134.62 240.25 140.542 237.289C146.463 234.329 250.014 202.282 260.861 198.334C271.708 194.387 264.315 185.514 258.887 183.54C253.459 181.566 230.285 190.439 226.831 192.413C223.377 194.387 218.945 197.841 228.312 197.841C237.678 197.841 242.119 199.814 235.704 202.282C229.29 204.749 223.871 204.749 221.897 205.736C219.923 206.723 214.011 204.255 210.557 199.814C207.103 195.374 207.103 193.4 205.622 195.374C204.142 197.347 207.596 194.88 209.076 194.88C210.557 194.88 216.222 205.974 214.751 206.467C213.279 206.961 203.411 205.48 203.904 203.506C204.398 201.533 207.358 202.026 205.384 207.454C203.411 212.882 198.97 209.921 193.057 206.467C187.136 203.013 190.097 200.563 189.85 203.022C189.603 205.48 175.796 206.467 170.861 208.441C165.927 210.415 170.368 211.895 172.835 214.362C175.302 216.829 183.189 212.388 181.215 211.895C179.241 211.401 174.316 212.882 174.8 217.323C175.294 221.764 188.114 217.323 190.581 215.842C193.048 214.362 165.927 223.235 163.46 221.764C160.993 220.283 153.6 213.384 154.093 211.41C154.587 209.436 161.98 219.296 160.508 221.27C159.028 223.244 145.22 216.829 142.753 215.842C140.286 214.856 140.286 216.336 142.753 221.764C145.22 227.191 145.22 227.685 146.701 227.191C148.181 226.698 146.207 226.205 143.247 227.685" stroke="white" stroke-miterlimit="10"/>
<path d="M604.02 124.856C606.663 124.856 610.188 121.331 611.069 119.569C611.95 117.807 619.88 109.877 622.523 111.639C625.167 113.401 626.929 123.094 626.929 128.38C626.929 133.667 630.454 179.486 629.573 196.228C628.691 212.97 629.573 223.543 622.523 222.662C615.474 221.781 557.319 220.9 546.746 220.9C536.172 220.9 476.255 220.9 468.324 220.9C460.394 220.9 455.107 220.019 455.107 224.424C455.107 228.83 452.464 242.928 453.345 247.334C454.226 251.74 453.345 252.621 463.919 252.621C474.492 252.621 510.011 252.621 516.919 252.621C523.836 252.621 550.27 253.502 552.032 252.621C553.795 251.74 553.795 247.334 553.795 243.809C553.795 240.285 553.795 229.711 555.557 227.949C557.319 226.187 555.557 227.068 563.487 226.187C571.418 225.306 593.446 225.306 596.97 225.306C600.495 225.306 612.831 224.424 614.593 226.187C616.356 227.949 618.118 230.592 618.999 234.117C619.88 237.641 622.523 248.215 620.761 249.977C618.999 251.74 616.356 251.74 601.376 251.74C586.397 251.74 559.082 250.859 559.082 249.977C559.082 249.096 558.2 242.047 559.963 239.404C561.725 236.76 568.774 231.473 571.418 233.236C574.061 234.998 575.823 240.285 573.18 243.809C570.536 247.334 566.131 249.096 566.131 243.809C566.131 238.523 569.655 232.355 577.585 232.355C585.516 232.355 599.614 229.711 603.138 231.473C606.663 233.236 609.306 235.879 608.425 238.523C607.544 241.166 605.782 247.334 598.733 244.691C591.684 242.047 592.565 239.404 594.327 236.76C596.089 234.117 601.376 234.117 602.257 237.641C603.138 241.166 605.782 257.908 606.663 264.957C607.544 272.006 615.474 334.567 616.356 339.853C617.237 345.14 618.118 349.546 622.523 349.546C626.929 349.546 711.88 349.546 711.88 349.546" stroke="white" stroke-miterlimit="10"/>
</svg>
