<svg width="639" height="457" viewBox="0 0 639 457" fill="none" xmlns="http://www.w3.org/2000/svg">
<path d="M217.209 61.2059L215.358 57.2629C215.358 57.2629 213.829 54.5269 213.185 56.0559C212.542 57.5848 210.128 57.9066 209.484 55.573C208.84 53.3199 207.633 50.5035 207.633 50.5035L203.046 54.2051L199.667 55.8949C199.667 55.8949 196.609 55.734 196.287 54.5269C195.965 53.3199 193.873 46.8823 193.873 46.8823C193.873 46.8823 191.459 49.9402 191.137 54.0441C190.815 58.1481 188.964 53.5613 188.401 51.4691C187.757 49.2964 186.872 49.6183 183.17 50.8253C179.469 52.0324 176.411 54.0441 176.411 54.0441V45.5948C176.411 45.5948 173.675 48.0089 172.709 48.9745C171.744 49.9402 167.962 49.8597 167.962 49.8597C166.594 48.9746 167.962 42.7784 167.962 42.7784H163.214L159.271 44.6292L157.742 42.7784L159.593 36.3408L157.742 32.9611L161.685 28.3744C161.685 28.3744 162.892 24.4313 162.329 23.4657C161.685 22.5805 159.271 18.879 159.271 18.879L165.065 22.2587L169.008 18.879L170.858 17.0282L171.744 12.4414L174.48 15.8211H178.423H182.366L184.78 16.7063C184.78 16.7063 187.194 19.4422 185.423 20.6493C183.573 21.8563 183.573 21.8563 183.573 21.8563C183.573 21.8563 189.366 20.6493 190.332 21.8563C191.217 23.0634 191.217 23.0634 191.217 23.0634L189.688 14.775L187.274 15.6602L193.39 17.1891L197.333 16.5453L200.391 18.9594L207.15 17.1086L208.357 22.9024L212.944 24.1095L215.117 27.4892L218.818 31.4322L223.727 36.5018V42.1346L221.313 43.9854L223.727 47.3652C223.727 47.3652 219.462 47.3652 219.462 48.2503C219.462 49.1355 220.991 51.63 220.991 51.63L219.14 55.573L219.784 60.8035C219.784 60.8035 214.312 62.0106 210.932 63.8614C207.553 65.7122 204.012 66.195 191.378 62.3325C178.744 58.47 166.513 54.6074 164.823 54.6879C163.133 54.7684 160.558 55.1707 159.432 57.5043C158.305 59.8379 162.651 61.4473 163.455 57.9067C164.26 54.2855 159.19 51.63 156.052 52.4347C152.914 53.2394 143.982 55.734 138.751 53.8832C133.521 52.0324 123.623 44.8706 117.507 43.0198C111.392 41.169 102.298 38.6744 86.446 49.9402C70.5935 61.2059 59.6497 82.9327 53.9363 99.107C48.223 115.281 48.5449 117.695 48.5449 117.695C48.5449 117.695 38.4862 122.765 30.0369 124.133C21.5071 125.501 5.33276 120.914 5.33276 120.914L10.9656 117.454C10.9656 117.454 33.8994 125.26 41.6245 123.328C49.3496 121.397 48.9472 121.719 48.9472 121.719C48.9472 121.719 43.8776 147.872 43.4753 154.39C43.0729 160.908 44.9237 159.62 44.9237 159.62L55.7067 149.722C55.7067 149.722 51.5222 142.641 51.3613 133.387C51.2004 124.133 52.8098 120.271 52.8098 120.271C52.8098 120.271 74.0537 107.476 88.5382 92.9913C103.023 78.5068 131.589 52.6761 131.589 52.6761C131.589 52.6761 96.4242 76.9779 79.1233 93.3132C61.8223 109.649 53.2926 115.442 53.2926 115.442C53.2926 115.442 58.1207 100.877 69.0646 83.9788C80.0084 67.0802 91.9179 53.4808 98.1945 49.6183C104.471 45.7558 114.691 40.5253 121.37 39.801C128.049 39.0768 131.911 44.9511 136.498 47.3652C141.085 49.7792 146.718 46.48 149.856 46.5605C152.994 46.6409 157.742 45.112 157.742 47.0433C157.742 48.9746 155.811 50.9863 153.236 57.2629C150.661 63.5395 155.73 70.0575 157.179 71.0232C158.627 71.9888 162.329 71.8279 162.329 71.8279C162.329 71.8279 160.639 84.4616 161.604 87.5194C162.57 90.5773 176.33 102.567 179.71 104.74C183.17 106.913 186.872 108.2 193.309 104.659C199.747 101.119 211.657 76.1732 211.817 73.9201C211.978 71.6669 213.91 66.8388 211.415 66.8388C209.001 66.7583 204.334 66.7583 202.322 68.931C200.31 71.1036 199.345 72.3107 200.954 72.9544C202.563 73.6787 205.621 74.1615 206.587 74.1615C207.553 74.1615 209.081 74.242 208.518 73.5177C207.874 72.7935 204.092 72.7935 203.529 71.8279C202.966 70.8622 202.322 69.3333 204.012 69.0919C205.702 68.8505 207.311 68.6896 207.311 68.6896C207.311 68.6896 202.805 66.5169 198.299 65.5513C193.792 64.5856 185.826 61.8497 183.653 61.1254C181.48 60.3207 186.791 63.7005 187.677 65.1489C188.562 66.5974 192.022 68.8505 188.481 69.1724C184.86 69.5747 183.492 70.138 181.722 69.4138C179.952 68.6091 178.986 65.8731 179.791 65.4708C180.595 64.988 181.4 63.9419 183.331 65.0684C185.263 66.195 186.148 66.7583 186.148 66.7583C186.148 66.7583 183.412 64.3442 183.09 66.8388C182.768 69.3333 188.24 70.3794 187.355 67.563C186.55 64.7466 181.802 57.9871 175.687 57.0215C169.571 55.9754 153.316 48.9746 152.672 55.8949C151.948 62.8153 155.328 64.1833 155.006 66.195C154.684 68.2067 145.913 77.4607 145.913 77.4607C145.913 77.4607 137.303 72.2302 137.303 70.299C137.303 68.3677 147.925 63.2176 151.063 64.5051C154.201 65.7927 154.523 68.6091 151.304 72.7935C148.086 76.8975 144.223 77.0584 147.844 79.8748C151.465 82.6108 168.123 93.8765 173.273 101.843C176.089 106.269 180.354 111.097 183.975 117.213C186.872 122.121 189.447 127.915 190.654 134.996C193.309 150.929 199.264 171.53 200.552 178.128C201.759 184.727 206.346 208.304 206.346 208.304C206.346 208.304 213.105 200.66 215.841 177.806C218.577 155.033 215.036 143.204 213.105 135.721C211.093 128.237 197.655 104.016 197.655 104.016C197.655 104.016 200.713 110.453 199.828 111.821C198.942 113.189 196.287 114.155 194.034 114.155C191.7 114.155 189.125 114.155 189.125 114.155L185.584 109.568L184.78 116.327" stroke="white" stroke-miterlimit="10"/>
<path d="M173.595 129.042C173.595 129.042 164.421 106.671 147.844 95.0837C131.348 83.4156 133.923 84.5422 133.923 84.5422" stroke="white" stroke-miterlimit="10"/>
<path d="M212.944 76.656C212.622 77.1388 213.588 79.5529 214.151 80.3576C214.795 81.1623 215.036 82.9326 215.036 82.9326C215.036 82.9326 213.99 83.8178 215.036 84.4616C216.083 85.1053 216.726 86.3123 217.209 87.3584C217.692 88.4045 217.853 89.0483 218.577 89.2093C219.382 89.3702 218.738 91.3819 218.577 92.428C218.416 93.4741 219.462 96.8539 219.784 97.3367C220.106 97.8195 220.589 98.7047 220.669 99.7508C220.75 100.797 221.715 102.084 221.715 102.809C221.715 103.533 220.83 104.016 220.669 104.981C220.508 105.947 221.313 106.832 221.715 108.2C222.198 109.568 220.83 108.039 221.715 110.373C222.601 112.706 223.083 112.224 222.922 114.235C222.762 116.247 223.727 117.293 223.808 118.339C223.888 119.385 225.015 116.488 223.808 120.19C222.601 123.892 222.44 122.524 221.635 124.133C220.83 125.823 220.267 127.191 220.267 127.191" stroke="white" stroke-miterlimit="10"/>
<path d="M196.85 72.6326V86.1514L190.171 84.4616" stroke="white" stroke-miterlimit="10"/>
<path d="M185.263 97.4974C185.263 97.4974 186.952 95.8076 190.171 95.3247C193.39 94.8419 193.551 96.3708 193.551 96.3708" stroke="white" stroke-miterlimit="10"/>
<path d="M196.85 94.1178C193.47 92.106 188.24 91.5427 185.182 91.5427C182.124 91.5427 180.434 91.5427 180.434 91.5427" stroke="white" stroke-miterlimit="10"/>
<path d="M175.284 79.392C172.548 75.8513 171.18 74.4834 170.858 72.6326" stroke="white" stroke-miterlimit="10"/>
<path d="M193.47 133.87C195.643 135.721 201.437 148.998 202.966 156.402C204.495 163.724 204.656 169.759 202.966 172.656C201.276 175.553 201.276 175.553 201.276 175.553" stroke="white" stroke-miterlimit="10"/>
<path d="M215.439 168.472C214.392 170.001 212.059 171.852 208.84 171.208C205.621 170.564 204.253 170.403 204.253 170.403" stroke="white" stroke-miterlimit="10"/>
<path d="M217.531 174.024C217.531 174.024 222.118 160.425 220.428 145.216C218.738 130.088 212.622 116.247 208.76 106.671C204.897 97.0955 204.173 91.4626 204.173 91.4626" stroke="white" stroke-miterlimit="10"/>
<path d="M215.439 106.752C215.439 106.752 219.864 132.421 223.244 144.814C226.624 157.206 219.543 198.889 216.485 208.224C213.427 217.558 203.449 234.135 203.449 234.135" stroke="white" stroke-miterlimit="10"/>
<path d="M198.862 231.56C198.862 231.56 196.609 237.354 191.378 240.733C186.148 244.113 184.619 244.113 184.619 244.113" stroke="white" stroke-miterlimit="10"/>
<path d="M213.749 223.191C213.749 223.191 233.303 232.204 238.614 233.169C244.005 234.054 257.122 231.962 267.261 223.191C277.4 214.5 275.388 211.281 274.02 209.109C272.652 206.936 273.779 206.051 271.848 199.613C269.916 193.176 271.123 190.44 266.215 189.796C261.306 189.152 250.121 191.003 248.27 191.647C246.419 192.291 232.82 199.935 231.854 201.464C230.889 202.993 229.118 215.224 229.118 218.765C229.118 222.306 242.476 221.501 245.373 221.099" stroke="white" stroke-miterlimit="10"/>
<path d="M244.488 211.442C244.488 205.327 239.901 198.487 239.901 198.487" stroke="white" stroke-miterlimit="10"/>
<path d="M252.294 206.615C251.972 204.442 249.96 198.568 247.224 196.073" stroke="white" stroke-miterlimit="10"/>
<path d="M263.479 204.201C262.594 196.556 260.743 193.337 258.57 191.808" stroke="white" stroke-miterlimit="10"/>
<path d="M265.008 188.67C265.008 188.67 263.962 178.289 261.065 178.45C258.168 178.611 243.603 182.313 237.809 189.635C232.015 196.958 235.234 196.314 230.647 196.797C226.06 197.28 216.887 205.81 217.209 209.672C217.531 213.535 215.036 221.904 228.957 223.111C242.879 224.318 256.478 220.536 263.559 215.466C270.641 210.396 270.721 209.35 271.928 207.339" stroke="white" stroke-miterlimit="10"/>
<path d="M251.248 182.313C248.351 184.646 244.327 187.704 246.339 189.716" stroke="white" stroke-miterlimit="10"/>
<path d="M237.165 187.141C234.993 185.451 230.245 184.646 225.497 186.095C220.75 187.543 220.75 187.543 220.75 187.543" stroke="white" stroke-miterlimit="10"/>
<path d="M227.509 183.359C226.463 181.347 223.969 176.921 223.969 176.921" stroke="white" stroke-miterlimit="10"/>
<path d="M79.767 141.112C78.8818 141.112 78.5599 138.94 78.4794 138.537C78.4794 138.135 78.5599 137.974 77.5943 137.411C76.6286 136.847 75.4216 135.962 75.9044 135.962C76.3872 135.962 77.1919 134.675 77.1919 134.675C77.1919 134.675 77.6747 132.422 77.7552 132.261C77.8357 132.1 78.4794 131.134 78.4794 131.134C78.4794 131.134 79.3646 129.122 78.4794 128.157C77.5943 127.191 76.4677 124.697 76.4677 124.697L81.2154 123.57L75.8239 116.73C75.8239 116.73 80.1693 117.857 80.6521 117.857C81.1349 117.857 81.9396 113.833 81.2154 112.868C80.4912 111.902 78.6404 110.614 80.4912 111.902C82.342 113.189 83.4685 113.592 83.4685 113.592C83.4685 113.592 85.1584 108.603 85.1584 108.2C85.1584 107.798 84.0318 105.947 85.1584 106.028C86.285 106.189 87.5725 105.706 88.4577 105.142C89.3428 104.579 91.3546 101.28 91.596 100.314C91.9178 99.3486 90.7108 94.9228 92.8835 98.4635C95.0562 102.004 94.5733 101.199 95.0562 102.004C95.4585 102.889 97.7921 97.4979 98.3554 96.3713C98.9187 95.3252 97.7921 90.8189 99.9648 94.1181C102.137 97.4174 102.701 97.7393 103.103 98.1416C103.505 98.544 105.115 95.9689 105.678 95.2447C106.241 94.5205 106.966 91.5431 107.931 94.1181C108.897 96.6932 110.104 97.4979 110.104 97.4979C110.104 97.4979 114.691 93.7158 116.139 94.1181C117.588 94.5205 119.68 98.7049 119.68 99.751C119.68 100.797 119.358 101.602 120.404 101.924C121.37 102.246 122.657 101.843 124.991 102.889C127.244 103.855 126.439 102.889 128.531 104.74C130.704 106.591 131.428 107.315 131.992 108.281C132.555 109.246 135.291 106.752 135.291 106.752C135.291 106.752 135.693 110.856 139.878 113.189C144.062 115.523 144.706 113.35 146.476 115.603C148.166 117.857 147.764 118.018 150.339 120.432C152.914 122.846 152.431 121.397 153.799 124.133C155.167 126.869 155.006 129.042 155.006 129.042C155.006 129.042 156.615 129.283 157.018 131.134C157.42 132.985 156.696 132.824 156.696 135.158C156.696 137.411 155.811 138.135 157.098 140.147C158.386 142.158 158.788 139.583 158.386 143.124C157.983 146.665 156.696 147.872 157.822 150.447C158.949 153.022 158.708 153.183 160.075 155.436C161.443 157.689 162.972 155.034 161.524 157.689C160.075 160.425 157.098 171.288 156.374 172.576C155.65 173.863 154.765 173.3 155.408 176.921C156.052 180.542 155.73 179.979 152.833 177.806C149.936 175.634 147.844 173.944 147.844 175.553C147.844 177.163 146.396 179.013 146.154 180.14C145.832 181.267 141.326 184.727 140.763 184.727C140.2 184.727 140.924 180.623 139.636 182.313C138.349 184.003 136.096 184.968 134.808 185.371C133.521 185.773 133.521 184.566 127.968 184.727C122.416 184.888 121.933 184.968 121.531 185.371" stroke="white" stroke-miterlimit="10"/>
<path d="M150.902 171.368C144.786 169.357 141.165 165.655 140.361 162.517" stroke="white" stroke-miterlimit="10"/>
<path d="M153.718 152.7C151.948 153.665 143.499 155.114 138.349 161.551C133.199 167.989 129.175 180.623 115.334 189.635C101.494 198.648 99.321 201.545 99.321 201.545C99.321 201.545 98.9186 213.696 85.1584 225.283C71.4785 236.871 66.8918 240.572 66.8918 240.572" stroke="white" stroke-miterlimit="10"/>
<path d="M62.3857 214.259C62.3857 214.259 61.9834 226.088 61.4201 230.111" stroke="white" stroke-miterlimit="10"/>
<path d="M61.3394 198.97C61.3394 198.97 60.7761 182.152 64.0754 175.553C67.3746 168.955 67.3746 168.955 67.3746 168.955" stroke="white" stroke-miterlimit="10"/>
<path d="M89.9062 144.411C89.021 145.86 87.4921 148.515 87.4921 157.125C87.4921 165.736 87.4921 164.85 87.4921 164.85" stroke="white" stroke-miterlimit="10"/>
<path d="M91.3545 177.565C91.3545 177.565 92.0787 186.416 91.3545 190.842C90.6303 195.268 90.4694 198.97 90.4694 198.97C90.4694 198.97 96.585 196.958 98.7577 196.636" stroke="white" stroke-miterlimit="10"/>
<path d="M102.379 184.002C104.23 183.6 109.943 183.278 119.921 172.978C129.9 162.678 133.36 159.379 133.36 159.379" stroke="white" stroke-miterlimit="10"/>
<path d="M129.819 148.435C127.566 148.757 120.806 148.837 117.909 144.411C115.013 139.985 116.059 139.825 110.345 139.181C104.632 138.537 102.781 135.56 100.528 135.399C98.2749 135.238 94.6537 135.399 94.6537 135.399" stroke="white" stroke-miterlimit="10"/>
<path d="M88.6992 134.272C88.6992 134.272 75.6632 143.687 72.5249 151.734C69.3866 159.781 68.8233 162.597 68.8233 162.597C68.8233 162.597 52.9708 165.333 45.809 178.611C38.6472 191.888 31.244 224.479 28.1057 228.502" stroke="white" stroke-miterlimit="10"/>
<path d="M66.9724 259.402C66.9724 259.402 73.8928 242.665 58.4427 232.284C42.9925 221.904 30.8416 218.685 23.5189 232.284C16.1962 245.884 13.7821 241.538 14.2649 246.447C14.6673 251.275 14.1844 252.884 14.1844 252.884" stroke="white" stroke-miterlimit="10"/>
<path d="M16.518 244.837C16.518 244.837 27.6228 234.537 40.6588 239.848C53.6949 245.159 59.8911 250.39 61.3395 253.689C62.788 256.988 66.9724 260.851 70.2716 266.001C73.5709 271.151 75.824 270.99 75.9045 277.427C75.985 283.865 72.1224 296.579 64.3973 300.844C56.6723 305.109 50.9589 307.845 50.9589 307.845L49.2691 303.982" stroke="white" stroke-miterlimit="10"/>
<path d="M44.9238 280.968C44.9238 280.968 47.4988 287.808 49.752 293.682C52.0051 299.556 58.3622 297.142 61.8224 295.855C65.2826 294.567 62.5466 277.025 61.8224 276.14C59.4888 273.243 54.7411 261.172 35.026 270.024C15.311 278.876 8.14924 288.291 3.56248 285.474C-1.02428 282.658 1.55074 273.323 3.56248 268.334C5.57421 263.345 11.4485 252.079 20.7025 249.182C29.9565 246.285 44.28 247.171 47.8207 247.573" stroke="white" stroke-miterlimit="10"/>
<path d="M52.4074 299.234C52.4074 299.234 45.9698 306.799 41.9463 304.626C37.9229 302.453 31.8072 286.681 31.8072 286.681" stroke="white" stroke-miterlimit="10"/>
<path d="M39.2103 305.028C38.0837 305.672 31.8876 309.052 28.1055 303.097C24.243 297.062 20.139 289.095 20.139 289.095" stroke="white" stroke-miterlimit="10"/>
<path d="M26.2545 305.029C25.1279 305.512 19.3341 308.811 14.1841 299.637C9.11452 290.464 8.06842 286.762 8.06842 286.762" stroke="white" stroke-miterlimit="10"/>
<path d="M62.9489 274.933C62.2247 269.059 63.2708 268.656 58.4426 262.782C53.534 256.908 56.2699 253.528 59.9715 256.344C63.6731 259.161 66.9724 262.621 66.9724 262.621" stroke="white" stroke-miterlimit="10"/>
<path d="M46.2114 260.207C43.7973 260.207 21.1854 265.599 14.1845 269.944C7.26416 274.209 2.19458 278.072 2.19458 278.072" stroke="white" stroke-miterlimit="10"/>
<path d="M117.91 230.111C116.703 229.79 110.104 229.79 104.954 224.398C99.8041 219.007 98.8384 213.535 98.8384 213.535" stroke="white" stroke-miterlimit="10"/>
<path d="M108.334 204.2C108.334 204.2 116.381 214.259 123.06 218.443C129.739 222.547 133.36 223.271 133.36 223.271" stroke="white" stroke-miterlimit="10"/>
<path d="M122.496 198.487C125.796 198.246 130.624 196.958 133.36 196.556C136.096 196.234 146.637 196.314 147.683 197.924C148.649 199.533 148.247 204.764 151.546 209.753C154.845 214.742 163.295 219.57 163.295 219.57" stroke="white" stroke-miterlimit="10"/>
<path d="M182.768 223.996C181.48 224.157 170.376 221.984 158.225 229.548C146.074 237.112 139.475 236.388 131.106 235.422C122.657 234.457 113.403 231.64 113.403 231.64" stroke="white" stroke-miterlimit="10"/>
<path d="M161.524 206.614C164.26 199.13 171.985 205.166 172.629 181.508C173.273 157.85 168.123 135.962 168.123 135.962" stroke="white" stroke-miterlimit="10"/>
<path d="M179.227 162.517C179.63 164.77 183.653 179.737 183.492 187.543C183.331 195.348 182.044 211.442 182.044 211.442" stroke="white" stroke-miterlimit="10"/>
<path d="M205.058 210.235C205.058 210.798 191.217 224.478 183.492 231.56C175.767 238.641 157.501 251.275 157.501 251.275" stroke="white" stroke-miterlimit="10"/>
<path d="M215.439 216.512C215.841 218.524 219.301 228.261 217.128 235.503C214.956 242.826 207.874 251.194 201.678 251.194C195.482 251.194 140.522 255.057 126.842 252.16C113.162 249.263 89.2625 245.722 85.5609 242.182C81.8593 238.641 80.9741 230.675 80.9741 230.675" stroke="white" stroke-miterlimit="10"/>
<path d="M96.6655 248.378C96.6655 248.378 94.6538 256.988 96.6655 258.115C98.6773 259.241 145.671 267.127 158.064 266.966C170.456 266.805 164.823 264.23 168.122 259.402C171.422 254.574 194.758 247.01 198.862 254.252C202.966 261.575 197.091 262.219 192.907 263.828C188.803 265.437 185.906 268.656 183.492 266.001C181.078 263.265 181.239 246.286 188.079 254.252C194.919 262.219 190.654 270.99 180.515 268.254C170.376 265.518 168.122 266.966 168.122 266.966C168.122 266.966 186.63 280.244 188.642 301.085C190.654 321.927 189.93 329.491 187.033 336.331C184.136 343.171 172.468 351.781 172.468 351.781L190.171 349.769C190.171 349.769 200.471 336.733 200.149 325.307C199.827 313.88 186.309 275.174 184.297 271.473C182.285 267.771 194.275 293.763 204.897 303.5C215.438 313.236 220.347 315.892 221.152 329.652C222.037 343.332 222.439 349.93 222.439 349.93L230.164 346.631C230.164 346.631 230.325 330.215 223.727 318.789C217.128 307.362 213.749 298.671 210.449 295.855C207.15 293.038 197.172 283.624 195.884 279.359C194.597 275.094 190.734 267.208 190.734 267.208" stroke="white" stroke-miterlimit="10"/>
<path d="M95.7805 258.517C95.7805 258.517 84.2733 276.381 82.1007 293.119C79.928 309.856 80.9741 318.386 80.9741 318.386L87.0093 320.8C87.0093 320.8 90.3086 285.072 93.2859 274.933C96.2633 264.793 98.6774 261.253 98.6774 261.253C98.6774 261.253 100.931 291.187 102.701 297.866C104.391 304.545 105.678 305.833 105.678 305.833C105.678 305.833 122.818 298.51 131.268 300.12C139.717 301.729 152.109 308.006 155.247 307.845C158.386 307.684 169.973 310.42 175.687 315.972C181.4 321.524 188.401 323.858 188.401 323.858C188.401 323.858 175.284 311.949 171.422 305.109C167.559 298.269 166.996 297.223 163.053 297.464C159.11 297.706 156.454 294.165 152.994 286.842C149.534 279.439 136.739 266.161 136.739 266.161" stroke="white" stroke-miterlimit="10"/>
<path d="M127.807 269.782C131.67 273.243 131.107 275.093 135.774 279.6C140.441 284.106 141.165 283.06 141.165 283.06" stroke="white" stroke-miterlimit="10"/>
<path d="M123.543 284.831C120.646 284.509 111.955 282.095 109.139 276.542C106.322 270.99 104.391 267.691 104.391 267.691" stroke="white" stroke-miterlimit="10"/>
<path d="M167.318 327.882C165.95 327.158 149.132 317.018 130.061 317.582C110.989 318.145 100.367 318.306 100.367 318.306" stroke="white" stroke-miterlimit="10"/>
<path d="M156.454 269.782C159.432 271.15 162.811 274.611 168.847 276.22C174.882 277.829 177.215 278.554 177.215 278.554" stroke="white" stroke-miterlimit="10"/>
<path d="M151.948 279.52C159.03 282.015 161.926 276.221 168.123 284.831C174.319 293.441 188.401 312.593 188.401 312.593" stroke="white" stroke-miterlimit="10"/>
<path d="M211.415 274.208C213.266 277.025 214.473 287.969 212.783 291.187C211.093 294.406 211.093 294.406 211.093 294.406" stroke="white" stroke-miterlimit="10"/>
<path d="M206.587 270.668C205.058 272.519 195.16 277.187 195.16 277.187" stroke="white" stroke-miterlimit="10"/>
<path d="M202.081 260.609C204.414 261.414 207.472 259.805 208.76 263.265C210.047 266.725 212.783 266.967 213.829 267.691C214.795 268.415 224.29 279.198 225.336 282.497C226.382 285.716 236.28 299.959 239.901 303.661C243.442 307.362 249.316 311.868 249.316 311.868C249.316 311.868 232.659 310.34 227.509 313.236C222.359 316.133 222.842 315.087 222.842 315.087" stroke="white" stroke-miterlimit="10"/>
<path d="M216.807 317.501L200.874 322.732" stroke="white" stroke-miterlimit="10"/>
<path d="M186.309 334.722C186.309 334.722 171.663 343.573 162.972 350.011C154.282 356.529 143.74 367.795 143.74 367.795" stroke="white" stroke-miterlimit="10"/>
<path d="M212.3 336.572L221.796 339.308" stroke="white" stroke-miterlimit="10"/>
<path d="M228.716 286.601C228.716 286.601 242.154 296.66 244.971 298.35C247.787 300.04 261.95 315.087 268.307 319.111C274.664 323.134 294.621 351.299 294.621 351.299C307.335 363.53 295.586 356.771 308.381 366.749C317.715 373.991 330.108 365.381 333.648 360.392C334.211 359.587 334.614 358.863 334.614 358.3C335.097 354.437 344.673 330.618 345.799 328.043C348.857 320.881 354.409 310.742 355.777 307.443C357.145 304.144 358.111 301.166 357.065 298.591C356.019 296.016 354.57 293.844 357.467 294.407C360.364 294.97 361.652 293.683 361.652 291.188C361.652 288.693 362.617 286.923 365.273 287.969C367.928 289.015 372.515 293.119 372.837 294.407C373.159 295.614 368.25 309.133 372.837 310.098C377.424 311.064 381.367 315.731 381.045 309.133C380.723 302.534 378.792 297.223 381.045 296.097C383.298 294.97 390.942 289.981 392.23 296.097C393.518 302.212 393.196 310.42 390.218 311.064C387.241 311.708 382.976 313.88 383.942 315.248C384.907 316.616 389.816 319.031 389.172 315.248C388.528 311.466 377.343 310.581 375.331 315.248C373.32 319.916 378.309 318.387 379.918 317.502C381.528 316.616 373.963 307.926 367.767 315.248C361.491 322.571 357.87 327.802 361.491 329.813C365.112 331.825 364.79 334.239 365.434 328.043C366.077 321.847 372.354 308.409 372.676 320.077C372.998 331.745 362.134 328.124 357.87 336.573C353.605 344.942 349.984 356.851 345.397 358.461C340.81 360.07 340.166 355.805 338.476 358.461C336.867 361.116 335.499 362.404 335.499 362.404" stroke="white" stroke-miterlimit="10"/>
<path d="M210.932 362.564C210.932 362.564 266.295 361.759 276.032 364.093C285.769 366.427 292.931 368.921 292.931 368.921" stroke="white" stroke-miterlimit="10"/>
<path d="M85.8024 322.732C85.8024 322.732 74.8586 342.447 75.9047 352.667C76.9508 362.806 76.2265 376.968 75.9047 380.911C75.5828 384.854 71.3179 404.65 71.3179 404.65C71.3179 404.65 65.2022 412.536 63.6733 420.824C62.1444 429.032 58.5233 431.688 58.5233 431.688C58.5233 431.688 77.9164 434.665 75.9047 430.4C73.9734 426.135 73.6515 439.252 83.8711 441.263C94.0908 443.275 113.806 442.229 119.117 439.654C124.347 436.999 123.382 435.067 125.072 431.124C126.761 427.181 128.693 422.916 129.336 421.87C129.98 420.905 132.314 420.261 129.336 430.722C126.359 441.183 125.715 448.184 125.715 448.184C125.715 448.184 134.326 442.551 133.923 431.044C133.601 419.537 131.911 412.938 131.911 412.938L141.246 401.109C141.246 401.109 148.73 384.291 152.029 380.67C155.328 377.049 162.731 363.852 165.065 358.299C167.479 352.667 155.409 366.829 156.455 369.646C157.501 372.462 150.983 363.53 172.709 374.393C194.436 385.257 217.29 403.04 221.796 411.248C226.302 419.456 230.326 427.423 234.59 427.745C238.855 428.066 241.511 424.445 238.533 425.089C235.556 425.733 235.476 429.676 239.821 442.873C244.166 456.07 251.167 457.518 263.479 454.943C275.791 452.368 292.207 455.346 295.506 448.425C298.805 441.505 308.381 411.892 308.381 411.892C308.381 411.892 314.336 441.183 316.911 448.103C319.566 455.024 320.934 450.759 320.934 450.759C320.934 450.759 314.255 399.741 314.255 396.442C314.255 393.143 297.759 405.294 284.643 411.57C271.446 417.847 288.103 389.361 288.103 389.361L260.984 402.96C260.984 402.96 314.899 399.339 315.221 392.419C315.543 385.498 310.956 368.117 307.013 362.484C303.07 356.851 296.15 362.403 288.103 362.645L230.245 342.688" stroke="white" stroke-miterlimit="10"/>
<path d="M374.688 293.843C374.688 293.843 385.149 297.384 387.08 295.694C389.011 294.004 393.518 279.52 393.839 277.508C394.242 275.416 393.035 272.197 393.035 272.197L373.803 267.852C373.803 267.852 369.779 268.576 368.733 272.68C367.606 276.784 367.526 279.6 366.399 281.451C365.273 283.302 362.859 284.831 362.376 285.555C361.893 286.279 364.066 288.21 366.158 283.945C368.25 279.681 372.676 267.208 374.285 264.15C375.895 261.092 387.885 231.962 387.885 231.962C387.885 231.962 405.99 239.768 409.209 241.458C412.508 243.147 404.703 255.298 399.714 261.012C394.725 266.725 387.241 273.967 390.46 272.76C393.759 271.553 415.325 246.688 417.015 244.998C418.705 243.308 426.993 237.193 427.556 236.388C428.2 235.503 424.498 234.054 423.533 233.733C422.567 233.33 393.035 220.375 391.747 218.282C390.379 216.19 388.609 218.443 387.402 221.099C386.195 223.754 386.275 239.768 388.046 234.537C389.816 229.307 384.022 227.536 393.598 215.949C403.174 204.442 405.508 204.522 403.415 199.694C401.323 194.866 403.174 196.073 405.025 194.463C406.876 192.854 408.083 180.301 410.577 176.277C413.152 172.254 413.715 170.001 413.474 167.506C413.233 165.092 410.819 148.596 416.612 141.997C422.406 135.479 426.832 128.076 431.177 125.742C435.523 123.409 440.914 119.949 444.535 116.891C448.156 113.833 451.456 113.27 450.249 117.776C449.042 122.282 447.915 126.306 446.467 128.72C445.018 131.134 441.156 136.364 440.19 136.606C439.224 136.847 435.603 136.767 435.201 135.399C434.798 134.031 435.684 127.352 439.466 123.65C443.248 119.868 435.12 125.34 432.062 139.342C429.005 153.263 428.522 155.597 429.487 161.39C430.453 167.184 432.304 174.266 433.35 176.68C434.477 179.094 439.305 194.383 439.788 198.648C440.27 202.913 439.948 207.66 439.063 208.465C438.178 209.35 427.154 224.881 425.705 228.261C424.257 231.64 420.797 236.147 423.05 235.261C425.303 234.376 438.983 212.408 436.005 203.798C433.028 195.188 431.419 178.048 433.913 169.679C436.488 161.31 431.58 150.849 436.247 148.193C440.914 145.538 465.618 138.215 467.71 139.342C469.803 140.468 470.768 145.618 470.607 147.952C470.446 150.286 464.653 147.308 460.549 151.976C456.445 156.562 455.318 158.413 455.318 158.413C455.318 158.413 450.329 154.631 446.064 156.079C441.799 157.528 438.178 159.379 438.178 159.379C438.178 159.379 435.523 146.906 435.764 143.929C436.006 141.032 447.674 126.789 451.536 123.811C455.399 120.753 460.388 114.799 459.905 113.753C459.422 112.626 452.26 111.338 451.777 113.753C451.295 116.167 461.997 113.592 465.618 113.028C469.239 112.385 470.125 109.246 470.607 112.385C471.09 115.603 470.607 118.339 469.4 113.35C468.193 108.361 472.217 100.475 471.573 98.5438C470.929 96.6125 468.435 91.6234 466.825 92.5086C465.216 93.3937 459.422 98.4633 457.008 99.0266C454.594 99.6703 452.663 98.3828 453.87 96.4516C455.077 94.5203 454.835 94.7617 457.491 93.3937C460.146 92.0257 461.514 88.8874 464.17 90.0945C466.825 91.3015 467.71 92.9914 471.653 90.8187C475.596 88.646 483.241 85.2663 486.54 83.8178C489.84 82.3694 492.978 78.024 494.346 76.8975C495.714 75.7709 499.094 73.1154 499.094 75.7709C499.094 78.4264 495.794 85.5882 493.3 86.2319C490.725 86.8757 487.104 87.1976 487.586 89.3702C488.069 91.5429 490.161 96.3711 491.69 95.6469C493.3 94.9226 496.519 92.8304 495.553 91.382C494.587 89.9335 494.346 84.1397 484.85 88.7265C475.355 93.3133 470.688 96.6125 467.228 97.8195C463.767 99.0266 458.376 100.958 455.721 100.395C453.065 99.7508 454.111 93.4742 455.238 90.8187C456.364 88.1632 453.87 88.1632 454.111 86.5538C454.353 84.9444 452.743 81.4842 452.743 81.4842C452.743 81.4842 455.801 79.553 458.215 79.8748C460.629 80.2772 465.216 79.392 464.25 81.0819C463.285 82.7717 452.019 88.8874 449.042 91.6234C446.145 94.4398 442.845 91.382 438.822 89.2093C434.798 87.0366 431.902 84.703 432.143 83.1741C432.384 81.6452 435.201 79.3116 438.661 78.185C442.202 77.0584 451.778 74.4029 452.824 75.1272C453.95 75.8514 454.674 81.0819 454.433 81.8866C454.192 82.7717 449.605 76.1733 454.674 75.2076C459.744 74.242 472.297 75.6904 475.999 75.61C479.7 75.5295 483.804 74.8857 484.368 73.1959C485.011 71.506 488.874 66.4364 489.196 61.7692C489.598 57.1825 490.644 51.3082 491.771 50.7449C492.897 50.1011 495.875 48.8941 496.599 50.9058C497.323 52.8371 500.22 55.8949 497.323 55.9754C494.426 56.0559 487.586 51.7105 491.851 48.9746C496.116 46.1581 501.186 52.3543 502.071 50.8254C502.956 49.216 504.646 46.5605 503.278 44.3073C501.91 41.9737 497.565 40.6862 497.323 42.1347C497.082 43.5831 497.484 45.5144 498.933 45.273C500.381 45.0316 500.864 40.2839 497.001 38.594C493.139 36.9042 476.482 34.3291 464.814 34.2486C453.145 34.1682 449.846 33.8463 448.398 34.8924C446.949 35.9385 443.167 38.6745 443.328 39.3987C443.489 40.1229 446.627 39.5596 450.973 39.2378C455.318 38.9964 459.503 38.8354 463.204 38.8354C466.986 38.8354 471.493 39.801 473.987 41.2495C476.562 42.6979 480.666 44.3073 481.229 44.6292C481.873 45.0316 479.137 64.4247 479.137 64.4247C479.137 64.4247 466.503 58.1481 458.296 57.6653C450.007 57.1824 434.477 59.5965 431.097 62.7349C427.717 65.8732 426.832 64.3442 426.752 67.0802C426.671 69.8162 431.741 70.4599 431.982 72.6326C432.223 74.8053 431.016 80.5186 431.258 81.9671C431.499 83.4155 432.626 71.7474 433.913 69.2529C435.281 66.6778 461.675 64.5052 467.389 63.9419C473.102 63.3786 473.343 55.4121 471.734 53.6418C470.125 51.8715 466.262 51.791 466.986 54.527C467.71 57.1825 473.021 53.8027 472.458 48.8136C471.814 43.8245 468.837 43.2612 468.837 45.6753C468.837 48.0894 472.7 50.2621 473.343 45.8363C473.987 41.33 461.112 42.4565 456.606 42.7784C452.099 43.1808 441.397 42.0542 439.627 43.0198C437.856 43.9855 428.361 49.055 428.361 51.3082C428.361 53.4809 427.878 56.1363 428.522 56.8606C429.166 57.5848 455.801 52.5957 457.652 53.0785C459.503 53.5613 461.273 46.8824 460.951 44.7097C460.549 42.4565 444.696 40.6058 441.156 41.4104C437.615 42.2151 431.097 46.9628 429.166 53.0785C427.234 59.1942 426.349 60.7231 426.752 63.2981C427.154 65.8732 426.752 67.8849 428.683 66.1146C430.614 64.2638 423.855 50.3425 435.684 42.2956C447.513 34.2486 453.87 29.9033 455.721 27.2478C457.571 24.5923 466.745 17.1891 477.93 18.2352C489.115 19.3618 502.071 21.5345 507.301 28.9377C512.532 36.3409 514.866 47.1238 514.866 50.423C514.866 53.7223 513.498 52.998 515.509 57.1824C517.441 61.4473 516.877 62.7349 518.165 62.252C519.533 61.7692 522.752 60.4012 522.43 57.6653C522.108 54.9293 521.223 52.3543 519.372 52.1129C517.521 51.8715 511.486 51.9519 510.279 55.2512C509.072 58.5504 510.279 61.045 511.244 62.6544C512.21 64.2638 517.521 64.3442 517.762 64.827C518.004 65.3099 511.003 70.8623 508.508 72.2302C506.094 73.5982 499.737 78.7483 492.736 73.6787C485.736 68.6091 484.448 59.0332 491.529 61.6887C498.53 64.3442 502.876 66.8388 508.669 65.4708C514.463 64.1028 509.635 71.2646 509.796 74.8053C509.957 78.3459 507.462 87.9218 511.164 91.5429C514.866 95.164 515.027 95.8078 516.234 100.797C517.441 105.786 520.257 110.131 520.579 111.58C520.981 113.028 520.579 113.672 518.487 112.304C516.395 110.936 511.084 106.349 509.957 105.062C508.83 103.694 504.968 101.521 503.037 102.245C501.105 102.97 497.726 106.993 497.967 107.798C498.208 108.602 499.657 111.902 499.094 114.316C498.53 116.73 497.645 119.144 498.852 119.627C500.059 120.11 505.129 118.5 503.68 115.281C502.232 111.982 498.128 103.613 501.83 99.5899C505.612 95.5664 514.785 91.3015 514.946 91.9453C515.107 92.589 521.303 108.12 522.349 108.361C523.395 108.602 524.763 105.786 525.488 104.499C526.212 103.131 527.419 95.4055 527.419 93.0718C527.419 90.7382 531.04 66.9997 530.074 63.7005C529.109 60.4012 531.201 56.7801 531.925 54.2051C532.649 51.6301 531.442 46.3191 532.086 43.905C532.73 41.4909 532.73 39.8011 534.5 37.387C536.27 34.9729 539.248 19.6837 540.213 18.0743C541.179 16.4649 542.306 18.5571 543.271 17.1087C544.237 15.6602 544.881 14.2117 544.398 12.5219C543.915 10.832 543.513 8.73984 543.915 5.60153C544.317 2.46322 544.8 0.853808 542.467 1.25616C540.133 1.6585 539.57 2.62415 539.57 2.62415L539.731 7.45232C539.731 7.45232 534.983 3.58979 532.971 3.58979C530.959 3.58979 529.189 2.70463 529.109 3.99214C528.948 5.19918 532.971 11.5562 534.822 13.3266C536.673 15.0969 543.432 17.4305 544.72 19.2813C546.007 21.1321 545.524 24.029 545.283 33.8463C545.042 43.6636 544.317 54.9293 542.949 57.6653C541.581 60.4012 539.167 61.3669 534.903 59.9989C530.638 58.5504 528.948 57.3434 536.029 58.7918C543.11 60.2403 545.605 60.4012 546.088 63.3786C546.571 66.4364 546.571 102.084 546.088 104.177C545.605 106.269 543.754 106.027 542.064 103.452C540.374 100.877 540.133 99.3485 540.133 96.0492C540.133 92.75 538.524 89.7726 538.041 89.0484C537.558 88.3241 534.42 87.1171 533.293 86.6343C532.167 86.1515 529.511 85.9905 529.511 86.6343C529.511 87.278 539.087 87.278 540.213 89.7726C541.34 92.3476 539.811 102.406 541.421 104.096C543.03 105.786 545.444 105.062 545.524 108.602C545.685 112.143 548.18 113.592 542.628 111.499C537.075 109.407 535.949 109.809 533.856 109.89C531.764 110.051 528.304 108.442 527.177 109.166C526.051 109.89 530.557 107.798 530.316 111.258C530.074 114.718 532.167 120.995 535.385 121.799C538.604 122.604 544.961 125.421 541.823 119.868C538.685 114.316 535.868 106.269 548.26 114.155C560.653 122.041 550.916 117.454 552.847 124.857C554.778 132.26 559.768 133.387 564.354 133.628C568.941 133.87 572.884 128.8 568.7 125.501C564.596 122.202 548.663 121.719 546.49 123.167C544.317 124.616 542.708 127.754 546.007 127.915C549.307 128.076 554.778 127.271 554.618 126.225C554.457 125.179 546.088 124.857 546.731 130.571C547.375 136.284 555.261 134.675 555.261 132.985C555.261 131.295 546.168 132.582 546.892 135.801C547.617 138.939 548.582 149.159 548.824 151.09C549.065 153.022 550.674 156.16 547.697 154.631C544.8 153.022 534.339 151.332 532.73 151.976C531.12 152.619 528.948 153.585 528.948 153.585C528.948 153.585 524.2 149.24 518.406 148.918C512.612 148.596 510.52 148.918 510.52 148.918C510.52 148.918 510.359 141.917 510.762 141.273C511.164 140.629 523.717 139.825 529.431 141.273C535.144 142.722 545.203 144.089 545.685 144.894C546.168 145.779 549.307 151.573 550.916 157.287C552.525 163 553.732 174.99 554.537 176.921C555.422 178.852 556.468 165.414 557.353 158.574C558.239 151.815 555.664 140.629 555.664 137.491C555.664 134.353 555.503 130.249 559.928 131.939C564.274 133.628 570.872 131.939 572.079 135.962C573.286 139.986 579.08 156.965 581.655 159.62C584.23 162.276 585.92 167.667 585.679 169.598C585.437 171.53 586.564 171.771 588.817 173.944C591.151 176.116 592.358 184.163 591.714 185.129C591.07 186.095 590.024 191.567 587.208 189.233C584.391 186.899 581.011 181.83 580.287 179.898C579.563 177.967 576.425 170.162 576.425 170.162C576.425 170.162 575.781 165.092 576.425 162.517C577.068 159.942 581.172 155.999 581.977 157.528C582.862 159.137 583.104 169.276 584.633 171.449C586.242 173.622 591.875 178.691 591.794 189.072C591.794 199.372 590.426 199.131 588.495 200.338C586.564 201.545 574.172 208.948 571.516 209.914C568.861 210.879 566.929 208.224 564.757 207.258C562.584 206.292 571.516 202.752 575.298 200.74C579.08 198.648 586.001 196.234 587.53 196.475C589.058 196.717 588.173 197.843 591.312 201.786C594.45 205.729 597.83 207.258 600.324 210.396C602.819 213.535 608.613 214.661 601.209 216.19C593.806 217.8 577.632 226.168 575.137 226.973C572.562 227.858 567.734 222.869 566.849 219.409C565.964 216.029 564.354 206.936 568.78 207.982C573.286 209.028 575.057 209.592 578.517 207.741C581.977 205.89 586.805 200.579 589.461 201.545C592.116 202.51 600.887 212.891 602.577 214.017C604.267 215.144 607.808 212.65 609.095 214.259C610.383 215.868 607.405 224.237 609.82 227.456C612.234 230.755 599.6 230.272 593.082 235.02C586.564 239.768 582.862 243.308 579.885 243.791C576.908 244.274 565.722 241.377 565.239 237.836C564.757 234.296 569.022 230.192 570.47 229.548C571.918 228.904 579.322 222.386 583.184 220.777C587.047 219.168 596.059 216.271 596.784 216.19C597.508 216.029 606.52 212.489 607.808 216.19C609.176 219.892 611.429 226.168 608.21 228.422C604.911 230.675 608.693 230.836 610.866 235.986C613.038 241.055 615.211 252.16 616.579 258.356C617.947 264.552 619.637 265.759 621.568 268.415C623.499 271.07 624.626 277.186 627.845 286.118C631.144 295.131 633.88 302.132 635.972 306.396C638.064 310.661 638.789 319.111 636.938 321.364C635.087 323.536 633.639 322.008 630.903 325.629C628.086 329.25 626.638 334.883 625.833 336.09C624.948 337.297 622.534 339.148 621.568 336.733C620.602 334.319 621.568 331.905 622.775 329.491C623.982 327.077 626.396 324.502 627.04 322.49C627.684 320.479 629.374 318.225 630.822 319.352C632.271 320.479 633.719 322.168 632.512 322.41C631.305 322.651 624.948 321.444 624.465 321.203C623.982 320.961 623.017 319.03 619.959 319.835C616.901 320.72 616.82 321.686 614.004 319.674C611.188 317.743 608.532 317.501 607.566 318.789C606.601 320.076 606.44 322.168 608.049 323.134C609.659 324.1 617.303 326.433 617.786 326.272C618.269 326.111 622.131 324.663 622.614 324.663C623.097 324.663 624.385 329.572 622.856 331.342C621.327 333.112 619.315 334.641 617.062 333.917C614.728 333.193 612.556 331.342 616.096 330.055C619.637 328.767 625.189 326.192 624.867 323.617C624.465 321.042 623.177 317.179 620.12 314.765C617.062 312.351 614.084 310.179 613.36 310.179C612.636 310.179 610.222 309.052 610.785 311.627C611.429 314.202 612.153 316.375 613.602 317.582C615.05 318.789 621.729 320.479 621.729 314.765C621.729 309.052 620.039 310.018 618.108 307.201C616.177 304.385 614.084 301.971 614.084 301.971C614.084 301.971 611.992 303.821 609.578 301.729C607.164 299.637 603.302 299.315 603.302 299.315C603.302 299.315 600.646 300.442 600.968 302.614C601.37 304.787 598.393 312.351 597.91 313.8C597.427 315.248 600.083 317.904 601.29 316.938C602.497 315.972 608.693 307.684 609.176 305.914C609.659 304.143 610.061 298.35 607.084 298.51C604.187 298.671 600.566 301.89 601.612 294.406C602.738 286.842 602.255 278.232 602.738 275.335C603.221 272.438 602.094 268.415 610.302 266.966C618.43 265.518 622.775 265.035 621.97 266.484C621.166 267.932 613.441 264.391 606.923 267.127C600.405 269.783 604.75 275.899 598.554 268.737C592.358 261.575 587.288 257.471 584.391 252.08C581.494 246.769 580.126 243.469 575.54 242.021C570.953 240.572 565.159 240.492 566.446 236.308C567.734 232.123 571.516 232.767 569.263 221.501C566.929 210.235 566.366 208.787 562.584 206.453C558.802 204.12 557.836 197.36 557.353 188.026C556.871 178.691 555.261 171.127 555.02 174.105C554.778 177.082 555.744 181.266 553.893 184.083C552.042 186.899 551.56 184.807 550.996 189.635C550.353 194.463 552.445 203.235 552.606 205.407C552.767 207.58 552.445 213.454 550.675 216.11C548.824 218.765 547.536 224.479 547.053 220.133C546.571 215.788 547.939 206.936 549.226 204.603C550.594 202.269 560.17 196.314 557.836 204.603C555.503 212.891 551.56 223.996 548.341 227.214C545.122 230.433 543.996 222.225 544.8 219.65C545.685 217.075 544.639 227.939 545.203 239.526C545.685 251.194 545.846 255.781 549.226 256.988C552.606 258.195 556.388 259.161 556.79 261.334C557.193 263.506 558.721 265.116 557.675 266.645C556.549 268.254 551.721 269.461 549.548 270.748C547.375 272.116 545.042 273.565 542.145 274.531C539.248 275.496 528.706 277.347 527.177 276.703C525.729 276.059 522.591 271.955 523.073 270.668C523.556 269.3 525.729 268.012 530.074 267.047C534.42 266.081 535.385 266.162 538.443 264.23C541.501 262.299 548.019 255.218 550.675 255.862C553.33 256.505 557.595 263.909 558.963 269.944C560.331 275.979 559.928 284.589 560.411 289.739C560.894 294.889 561.779 294.004 562.825 296.418C563.952 298.832 562.825 307.121 562.825 307.925C562.825 308.811 560.653 309.052 555.905 307.523C551.157 306.075 549.95 308.971 550.916 302.695C551.882 296.418 550.031 292.958 549.307 292.395C548.582 291.751 542.628 289.82 540.535 289.82C538.443 289.82 524.763 289.659 523.556 289.82C522.349 289.981 519.694 293.441 519.774 296.499C519.855 299.557 521.142 302.695 522.591 304.385C524.039 306.075 531.925 308.65 533.856 308.891C535.788 309.132 545.364 311.064 546.571 309.776C547.778 308.408 548.904 305.994 548.904 303.097C548.904 300.2 549.789 297.142 547.536 295.453C545.363 293.763 538.282 292.878 535.788 292.797C533.213 292.636 529.109 292.556 527.902 294.004C526.695 295.453 525.729 301.407 525.729 301.407C525.729 301.407 532.488 305.028 536.512 305.511C540.535 305.994 543.513 307.684 544.8 305.914C546.088 304.143 548.421 302.856 547.375 301.649C546.249 300.442 544.478 299.557 543.271 299.717" stroke="white" stroke-miterlimit="10"/>
<path d="M523.234 291.027C523.717 288.774 521.062 288.13 518.648 288.13C516.233 288.13 506.175 288.613 505.451 288.854C504.726 289.096 502.634 289.015 502.634 291.671C502.634 294.326 502.393 296.901 503.841 297.706C505.29 298.591 510.52 299.798 513.095 300.04C515.67 300.281 517.601 299.798 518.567 300.04C519.533 300.281 522.269 295.694 523.234 291.027Z" stroke="white" stroke-miterlimit="10"/>
<path d="M504.002 291.188C504.887 288.613 504.566 285.716 502.634 285.636C500.703 285.555 496.358 284.429 494.185 287.728C492.012 291.027 489.196 293.763 490.564 296.258C491.932 298.752 494.105 301.005 495.633 301.247C497.162 301.488 499.496 301.649 500.864 298.833C502.151 295.936 503.278 293.361 504.002 291.188Z" stroke="white" stroke-miterlimit="10"/>
<path d="M491.61 294.809C492.737 290.866 497.887 286.038 492.737 285.796C487.587 285.555 483.241 285.635 479.54 285.313C475.758 284.991 468.515 282.899 465.297 282.416C462.078 281.934 448.881 276.14 448.881 276.14C448.881 276.14 452.502 275.496 452.743 274.048C452.985 272.599 448.72 271.231 447.191 271.151C445.662 271.07 440.753 272.277 440.753 274.048C440.753 275.818 440.11 281.29 438.903 281.692C437.695 282.095 429.166 280.324 428.2 279.52C427.234 278.634 426.349 273.726 427.959 272.841C429.568 271.955 430.292 270.668 434.235 272.197C438.259 273.806 440.029 277.669 439.466 283.463C438.822 289.256 442.604 291.268 444.214 288.774C445.823 286.359 446.869 287.567 446.869 282.899C446.869 278.232 447.835 272.519 448.237 274.611C448.639 276.703 445.099 281.612 449.685 286.038C454.272 290.383 463.848 291.992 465.297 292.234C466.665 292.475 484.287 297.062 486.943 297.062C489.518 297.142 490.966 297.062 491.61 294.809Z" stroke="white" stroke-miterlimit="10"/>
<path d="M461.836 290.303C461.997 292.234 461.595 297.867 460.227 299.557C458.859 301.247 449.283 308.167 446.305 308.167C443.248 308.167 434.074 308.006 431.74 307.201C429.407 306.316 426.751 306.316 426.993 304.143C427.234 301.971 427.717 297.625 428.602 294.085C429.487 290.544 429.326 285.153 429.326 284.106C429.326 283.06 428.119 277.428 427.958 275.094C427.797 272.76 429.568 268.576 430.131 267.047C430.775 265.599 432.786 262.782 432.786 262.782C432.786 262.782 445.018 265.116 450.007 265.679C454.996 266.323 472.699 270.185 474.148 270.99C475.596 271.875 484.931 273.324 485.092 274.37C485.253 275.496 482.275 277.669 483.885 280.888C485.494 284.106 487.989 289.015 488.954 287.889C489.92 286.762 505.611 283.382 506.899 283.06C508.267 282.658 512.451 283.06 511.647 279.761C510.761 276.462 508.347 270.507 510.44 268.737C512.532 266.886 515.751 261.977 517.44 266.323C519.13 270.668 522.43 277.025 523.234 278.715C524.039 280.405 531.442 280.405 535.787 279.681C540.133 278.956 546.248 277.347 547.938 275.657C549.628 273.967 550.996 274.37 550.835 272.036C550.674 269.702 544.8 270.668 543.271 271.634C541.742 272.599 538.765 269.702 540.696 268.254C542.627 266.806 546.731 267.288 545.041 266.645C543.352 266.001 540.696 268.334 539.972 266.242C539.248 264.15 545.444 263.667 542.064 260.77C538.684 257.873 535.305 256.666 530.396 258.598C525.568 260.529 521.061 261.173 520.176 262.46C519.291 263.828 518.326 267.53 510.359 266.081C502.312 264.633 472.458 256.747 466.02 254.655C459.583 252.562 444.294 251.034 441.88 250.309C439.465 249.585 434.235 248.217 433.108 249.585C431.982 250.953 429.568 254.172 430.533 256.264C431.499 258.356 430.775 260.77 433.108 261.575" stroke="white" stroke-miterlimit="10"/>
<path d="M485.011 277.347C485.414 277.187 496.68 272.358 498.933 271.151C501.266 269.944 504.646 268.576 507.221 267.772C509.796 266.886 510.359 279.762 513.9 281.854C517.441 283.946 527.821 278.635 529.672 278.796" stroke="white" stroke-miterlimit="10"/>
<path d="M552.606 297.142C552.606 297.142 564.998 297.625 565.561 299.235C566.205 300.844 567.895 299.717 567.975 304.546C568.136 309.374 571.275 327.882 572.24 333.434C573.206 338.986 574.815 352.505 575.62 353.712C576.505 354.919 576.344 356.609 578.275 355.805C580.207 355 582.379 355.563 581.333 351.057C580.207 346.551 579.241 336.411 579.241 330.94C579.241 325.468 579.885 321.122 578.839 318.225C577.873 315.328 575.057 306.235 574.493 304.787C573.93 303.338 572.079 299.798 571.677 300.281C571.275 300.683 563.55 298.43 577.39 307.362C591.231 316.294 590.587 319.352 589.38 324.985C588.173 330.537 584.069 327.157 586.805 331.503C589.622 335.848 591.07 341.24 591.312 343.895C591.553 346.551 591.875 349.448 589.944 350.574C588.012 351.701 585.84 351.701 584.954 352.666C584.069 353.632 576.586 356.046 574.896 357.414C573.206 358.782 570.872 360.955 570.309 357.414C569.665 353.873 567.895 345.665 568.378 340.676C568.861 335.687 561.618 312.914 561.86 310.661C562.021 308.489 565.239 313.96 564.998 320.478C564.757 326.997 562.182 328.043 562.423 331.503C562.664 334.963 562.906 342.286 562.182 344.7C561.457 347.114 559.285 351.862 559.285 351.862C559.285 351.862 551.64 352.344 549.226 353.069C546.812 353.793 542.467 354.919 542.467 356.207C542.467 357.494 542.306 359.023 544.317 359.184C546.329 359.345 548.099 357.494 548.904 358.219C549.306 358.541 550.031 359.104 550.835 359.828C551.881 360.713 552.928 361.84 553.249 362.966C553.893 365.059 553.008 365.38 555.342 366.346C557.675 367.312 559.446 370.852 559.928 366.99C560.411 363.127 560.572 358.38 559.526 357.494C558.56 356.609 552.123 354.598 550.755 362.001C549.387 369.404 540.777 370.611 539.006 369.806C537.156 368.921 533.293 364.978 536.914 363.369C540.535 361.759 541.742 360.552 539.006 360.552C536.19 360.552 530.477 360.955 522.349 361.92C514.222 362.886 505.853 363.61 503.278 363.127C500.703 362.644 497.001 359.506 498.047 363.288C499.174 367.07 501.427 372.784 510.037 373.508C518.648 374.232 530.396 370.209 532.086 370.128C533.776 370.048 538.282 368.277 538.121 366.266C537.96 364.254 542.869 359.345 544.559 356.69C546.168 354.034 560.814 354.758 562.503 348.804C564.193 342.849 563.389 330.618 560.411 329.411C557.514 328.204 554.457 326.755 556.307 325.307C558.158 323.858 559.928 322.651 557.917 319.835C555.824 317.018 554.537 314.282 551.962 315.731C549.387 317.179 549.628 322.168 547.617 321.927C545.524 321.686 533.776 313.88 533.213 311.707C532.569 309.535 533.454 307.684 537.799 308.408C542.145 309.132 549.065 309.132 551.238 311.788C553.41 314.443 549.628 315.811 549.146 317.823C548.663 319.915 550.513 323.375 552.525 324.743C554.617 326.111 555.664 323.295 559.928 324.019C564.193 324.743 564.032 325.548 565.481 329.089" stroke="white" stroke-miterlimit="10"/>
<path d="M573.85 372.221C572.16 367.473 572.24 356.207 571.194 353.874C570.148 351.54 566.124 352.747 563.308 354.357C560.492 355.966 556.87 363.61 561.94 362.403C567.01 361.196 569.585 358.46 569.585 358.46" stroke="white" stroke-miterlimit="10"/>
<path d="M507.623 381.153C507.623 381.153 498.852 361.035 496.358 358.702C493.783 356.368 489.598 355.644 487.265 365.461C484.931 375.278 484.448 383.406 484.448 383.406" stroke="white" stroke-miterlimit="10"/>
<path d="M426.51 305.833C426.51 305.833 418.946 317.34 419.187 322.651C419.429 327.962 420.475 342.366 417.256 350.413C413.957 358.46 410.738 376.646 410.738 380.75C410.738 384.854 415.083 383.486 419.429 383.406C423.774 383.325 429.89 382.923 428.361 379.624C426.832 376.324 423.13 374.232 425.947 370.289C428.763 366.346 430.534 359.345 430.534 359.345C430.534 359.345 418.302 356.448 417.015 355.644" stroke="white" stroke-miterlimit="10"/>
<path d="M434.477 248.056C434.477 248.056 434.477 245.481 437.856 240.894C441.236 236.308 441.477 233.733 441.477 231.158C441.477 228.583 440.109 221.179 442.282 219.007C444.455 216.834 445.259 211.443 445.259 209.27C445.259 207.097 442.282 202.108 442.282 202.108" stroke="white" stroke-miterlimit="10"/>
<path d="M471.895 109.568C474.47 109.166 475.516 111.177 475.677 113.913C475.838 116.73 476.643 123.65 478.091 126.225C479.459 128.8 479.459 133.789 481.471 134.996C483.483 136.203 487.828 136.767 490.001 136.767C492.173 136.767 496.358 136.928 497.565 135.56C498.772 134.192 501.91 131.536 503.761 130.007C505.612 128.478 509.152 122.202 510.762 120.27C512.371 118.259 515.509 113.27 515.509 113.27C515.509 113.27 511.727 105.866 510.923 107.476C510.118 109.085 507.301 114.235 506.899 117.454C506.497 120.673 500.14 125.662 498.933 127.432C497.726 129.203 492.173 130.41 491.932 132.824C491.69 135.238 487.345 134.835 489.759 130.249C492.173 125.662 497.967 122.041 497.967 122.041C497.967 122.041 488.633 131.214 486.621 128.639C484.609 126.064 478.654 122.041 478.654 122.041C478.654 122.041 480.425 122.041 483.322 123.65C486.218 125.26 485.414 123.489 483.322 119.305C481.229 115.12 477.85 107.878 477.286 107.315C476.723 106.752 474.309 103.372 473.665 102.567C473.102 101.762 471.895 100.958 471.895 100.958" stroke="white" stroke-miterlimit="10"/>
<path d="M486.299 139.261C482.919 140.227 482.114 146.423 486.299 147.63C490.483 148.837 492.897 146.262 493.782 149.803C494.668 153.424 500.864 166.701 502.634 179.255C504.404 191.808 505.772 205.568 507.382 209.511C508.991 213.535 512.371 234.376 509.957 234.779C507.543 235.181 487.828 236.951 490.161 235.583C492.415 234.215 490.966 233.572 497.323 233.411C503.6 233.25 510.842 232.847 510.842 237.032C510.842 241.216 504.485 261.173 504.485 261.173C504.485 261.173 494.909 253.045 493.782 249.344C492.656 245.642 490.081 215.788 489.035 205.568C487.989 195.349 487.104 185.773 487.104 181.427C487.104 177.082 485.896 155.194 487.104 151.573C488.311 147.952 492.978 150.608 494.99 146.182C497.001 141.836 499.013 135.721 486.299 139.261Z" stroke="white" stroke-miterlimit="10"/>
</svg>
