<svg width="600" height="487" viewBox="0 0 600 487" fill="none" xmlns="http://www.w3.org/2000/svg">
<path d="M455.038 309.034C453.201 307.197 453.201 305.85 452.834 304.502C452.466 303.155 453.569 301.44 452.834 300.95C452.099 300.46 447.934 299.97 448.302 298.378C448.669 296.908 447.689 294.826 447.689 294.826C447.689 294.826 442.667 293.356 442.79 292.621C442.912 291.886 441.565 289.069 440.952 289.069C440.34 289.069 437.89 290.539 438.748 287.599C439.605 284.537 442.422 280.617 439.605 283.19C436.788 285.762 434.583 286.864 434.583 284.414C434.583 281.842 433.603 280.74 432.378 281.72C431.154 282.7 427.111 284.292 426.621 282.21C426.132 280.127 418.66 284.659 417.19 281.352C415.72 278.045 407.514 287.232 405.186 283.435C402.859 279.515 399.919 287.477 396.367 285.272C392.815 283.067 390.243 290.171 389.263 290.294C388.283 290.416 387.303 295.806 385.588 296.051" stroke="white" stroke-miterlimit="10"/>
<path d="M373.095 194.999C369.91 193.284 367.46 192.549 366.726 193.652C365.991 194.632 364.521 196.591 364.888 197.816C365.256 199.041 365.868 200.388 365.868 200.388C365.868 200.388 372.482 200.266 373.585 200.143C374.687 199.899 375.545 196.346 373.095 194.999Z" stroke="white" stroke-miterlimit="10"/>
<path d="M463.858 207.003C466.43 207.615 469.125 207.37 469.86 205.166C470.594 202.961 468.635 200.634 466.92 198.429C465.083 196.224 464.103 195.367 462.51 195.367C460.918 195.367 456.753 198.061 456.753 200.266C456.631 202.593 454.181 204.553 463.858 207.003Z" stroke="white" stroke-miterlimit="10"/>
<path d="M460.428 224.763C454.549 222.804 453.814 220.354 448.914 216.434C444.015 212.515 454.426 218.639 460.428 218.516C466.43 218.394 470.839 214.964 470.839 214.964" stroke="white" stroke-miterlimit="10"/>
<path d="M361.581 216.434C370.89 217.537 371.747 218.272 375.545 217.047C379.342 215.822 382.771 214.352 382.771 214.352C382.771 214.352 379.097 219.986 372.237 223.906C365.378 227.826 360.601 228.683 360.601 228.683" stroke="white" stroke-miterlimit="10"/>
<path d="M423.315 93.09C421.6 93.8249 420.375 94.3148 420.252 94.8048C420.007 95.2947 420.865 96.0297 422.58 96.7646C424.172 97.4995 426.254 98.3569 428.826 99.0918C431.031 99.8267 433.358 100.562 435.808 101.174C441.198 102.644 446.955 104.114 451.119 104.971C457.488 106.196 462.143 105.951 466.675 106.074C470.105 106.074 473.289 106.319 477.209 107.421C478.801 107.911 481.006 109.381 483.701 111.463C485.17 112.565 486.763 113.913 488.355 115.505C493.132 119.792 498.644 125.426 503.911 131.428C510.648 138.9 517.14 146.862 521.794 153.353C523.264 155.436 524.611 157.518 525.714 159.233C535.268 175.034 533.308 171.482 527.673 167.317C525.836 165.97 525.469 166.827 525.836 169.154C526.571 174.054 530.246 185.323 530.123 196.101C529.878 208.105 525.959 217.292 523.141 227.213C522.161 230.52 521.427 233.827 520.814 237.379C520.202 241.667 519.099 250.853 517.752 261.999C516.405 274.615 514.812 289.681 513.465 303.155C512.118 317.363 511.015 329.612 510.77 335.369C510.158 349.455 500.359 370.89 504.156 384.976C504.646 386.936 505.503 388.896 506.606 390.488C515.915 403.962 545.679 418.783 560.255 426.377C574.953 433.971 593.204 442.912 599.818 442.422" stroke="white" stroke-miterlimit="10"/>
<path d="M423.314 93.09C423.437 92.2326 423.314 91.2527 423.07 89.9053C421.845 84.2709 411.311 80.3513 416.455 79.6164C418.17 79.3714 421.722 79.8614 425.764 80.7188C429.684 81.5762 433.971 82.6786 437.89 83.781C439.238 84.1484 440.463 84.5159 441.688 84.8833C443.157 85.2508 444.505 85.7407 445.607 85.9857C446.464 86.2307 447.199 86.4757 447.689 86.5982C449.037 87.0881 450.262 88.6804 451.486 90.7627C452.711 92.9675 454.059 95.6622 455.529 97.9894C457.366 100.929 459.448 103.501 462.143 104.359C462.633 104.481 463.123 104.604 463.613 104.849C464.593 105.216 465.695 105.584 466.797 105.951C472.064 107.788 479.046 110.606 485.048 113.545C486.15 114.158 487.375 114.648 488.477 115.26C489.947 116.117 491.417 116.852 492.642 117.71C497.664 121.017 501.951 126.529 505.748 131.551C508.443 135.225 510.77 138.533 512.73 140.615C515.057 143.065 517.507 144.657 519.222 145.024C520.937 145.392 521.916 144.657 521.549 142.575C521.426 141.472 519.589 138.533 516.649 134.368C511.505 127.141 502.808 116.607 493.377 108.033C491.662 106.441 489.947 104.971 488.233 103.624C485.538 101.419 482.721 99.4593 480.026 97.9894C478.311 97.0095 476.719 96.1521 475.126 95.5397C472.554 94.4373 470.227 93.4574 468.145 92.6C465.45 91.4976 463.123 90.5177 461.04 89.6603C459.203 88.9254 457.611 88.1905 456.263 87.7005C451.119 85.4958 449.527 84.8833 449.527 84.8833C449.527 84.8833 448.057 85.2508 445.73 85.9857C443.77 86.4757 441.198 87.3331 438.38 88.068C437.155 88.4355 435.808 88.8029 434.461 89.2929C430.174 90.6402 426.009 91.9876 423.314 93.09Z" stroke="white" stroke-miterlimit="10"/>
<path d="M326.795 132.531C328.387 130.081 330.47 127.876 332.797 126.529C338.921 123.099 341.126 121.262 341.983 119.67C342.351 119.057 342.473 118.567 342.596 118.077C342.718 117.342 341.983 116.975 340.636 116.975C337.941 116.975 333.164 118.2 330.715 120.282C329.735 121.14 329.49 120.527 329.98 119.425C331.082 116.485 336.226 109.381 341.493 111.341C342.718 111.831 343.821 112.198 344.801 112.565C347.863 113.668 350.068 114.158 351.66 114.035C352.64 113.913 353.375 113.545 353.987 112.81C354.11 112.688 354.232 112.443 354.477 112.32C356.314 110.483 359.254 109.503 355.212 107.054C353.007 105.706 348.598 108.891 344.923 112.565C343.331 114.158 341.983 115.75 340.881 117.22C339.411 119.18 338.431 120.772 338.676 121.262C338.921 121.629 340.269 121.14 342.228 120.037C344.678 118.567 348.23 116.363 351.782 114.158C352.762 113.545 353.62 113.055 354.6 112.443C357.907 110.483 360.724 108.768 362.439 108.401C367.093 107.054 369.91 105.584 372.85 105.339C373.095 105.339 373.462 105.339 373.707 105.339C374.687 105.339 376.157 105.339 377.75 105.216C380.567 105.094 383.506 104.849 384.486 104.481C384.854 104.359 384.854 104.114 384.241 103.869C381.302 102.644 377.872 97.4995 366.726 99.4593C366.113 99.5818 365.378 99.7043 364.888 99.8268C355.212 101.542 352.885 102.766 348.965 104.359C346.515 105.339 345.535 104.114 347.128 102.399C348.23 101.174 350.802 99.7043 355.089 98.7244C361.214 97.2546 363.664 98.112 364.888 99.8268C365.746 100.929 365.991 102.399 366.481 103.624C366.971 104.849 369.543 105.339 372.973 105.339C374.442 105.339 376.157 105.339 377.872 105.216C380.199 105.094 382.527 104.849 384.609 104.481C385.221 104.359 385.956 104.236 386.569 104.114C388.038 103.869 389.263 103.624 390.243 103.256C390.366 103.256 390.611 103.134 390.733 103.134C391.101 102.889 391.346 102.644 391.346 102.399C391.346 102.277 391.223 102.032 391.101 101.787C390.488 100.929 388.651 99.7043 386.446 98.6019C381.914 96.3972 375.667 94.1924 374.687 94.1924C372.973 94.1924 367.583 94.6824 363.909 93.4575C360.234 92.2326 364.888 88.313 372.483 89.5379C377.75 90.3953 383.506 92.2326 387.304 94.4374C389.018 95.4173 390.366 96.5197 390.978 97.4995C391.591 98.4794 391.468 100.072 391.101 101.664C390.978 102.154 390.856 102.522 390.733 103.011C389.631 106.196 387.304 108.523 386.569 103.991C386.446 103.011 386.324 101.787 386.324 100.194C386.324 99.5818 386.324 99.0919 386.446 98.4794C386.569 97.0096 386.936 95.6622 387.304 94.4374C390.488 85.4958 400.777 83.4136 400.777 83.4136C400.777 83.4136 402.247 83.9035 403.717 84.7609C405.064 85.4958 406.534 86.4757 407.269 87.5781C407.881 88.4355 409.106 89.2929 410.576 90.2728C413.516 92.2326 417.313 94.0699 417.313 94.9273C417.313 95.5398 415.108 96.3972 412.413 97.3771C409.351 98.4794 405.677 99.7043 403.839 100.439C400.9 101.664 393.795 105.584 393.183 102.154C393.06 101.542 393.183 100.807 393.55 99.7043C395.388 94.3149 399.675 87.8231 403.594 84.7609C404.942 83.6585 406.289 83.0461 407.391 82.9236C409.351 82.8011 409.841 86.3532 410.454 90.2728C410.821 92.7226 411.311 95.2948 412.291 97.3771C413.271 99.5818 414.741 101.052 417.19 101.174C424.784 101.542 434.583 103.379 436.176 101.542C436.421 101.297 436.543 101.052 436.421 100.684C435.931 98.7244 432.501 99.2144 429.194 99.4593C427.112 99.5818 425.029 99.5818 423.927 98.7244C423.192 98.112 422.947 97.622 422.825 97.1321C422.825 96.2747 423.437 95.2948 423.56 93.4575" stroke="white" stroke-miterlimit="10"/>
<path d="M326.795 132.531C327.285 132.286 327.775 132.041 328.265 131.796C330.714 130.816 334.879 130.081 332.674 132.776C330.469 135.471 329.735 139.88 327.285 141.84C324.835 143.8 321.16 145.759 321.16 145.759C321.16 145.759 322.875 138.41 326.795 132.531Z" stroke="white" stroke-miterlimit="10"/>
<path d="M453.079 75.207C452.711 75.5745 447.077 80.7189 442.79 84.026C442.422 84.3935 442.055 84.6385 441.688 84.8835C439.605 86.4758 438.625 87.3332 438.258 88.1906C438.013 88.6805 437.89 89.1705 437.89 89.9054C437.89 91.8652 434.461 94.8049 432.991 94.8049C432.256 94.8049 432.991 92.2327 434.338 89.4155C435.318 87.4557 436.543 85.3734 437.89 83.9036C438.38 83.4136 438.87 82.9237 439.36 82.6787C443.035 80.4739 436.666 76.0644 432.011 78.0242C430.174 78.7591 428.336 78.8816 426.254 78.5141C422.947 77.9017 419.272 76.1869 415.23 73.8596C408.616 70.185 400.899 71.1649 397.47 75.8194C394.04 80.4739 390.856 81.6988 386.691 83.6586C382.526 85.6184 379.097 85.1284 371.625 84.6385C364.031 84.1485 356.437 85.8633 355.334 87.5782C354.109 89.293 352.885 94.1924 348.23 98.112C347.25 98.9694 345.78 100.072 344.066 101.419C338.064 106.196 329.367 113.3 328.02 116.363C327.652 117.097 327.285 117.955 326.917 118.69C325.203 122.242 322.753 126.651 321.16 129.959C320.181 132.041 318.343 134.001 316.628 136.205C314.914 138.41 313.199 140.86 312.586 144.045C311.362 150.414 311.117 156.293 311.851 159.11C312.586 162.05 313.321 165.48 313.321 165.48C313.321 165.48 317.486 158.621 317.241 154.946C316.996 151.271 315.281 154.211 316.751 148.332C317.976 143.555 318.588 139.268 319.691 137.308C319.936 136.818 320.181 136.573 320.426 136.328C321.65 135.593 324.468 133.633 326.795 132.408" stroke="white" stroke-miterlimit="10"/>
<path d="M519.589 269.716C518.977 267.266 518.364 264.572 517.752 261.754C517.384 260.162 517.139 258.692 516.894 257.1C516.404 254.283 515.915 251.343 515.547 248.403C515.057 244.484 514.69 240.442 514.445 236.645C513.465 214.229 528.653 222.559 528.163 197.204C527.918 186.18 526.938 176.749 525.591 169.154C524.366 162.295 523.019 157.028 521.794 153.354C521.304 151.761 520.692 150.414 520.324 149.434C519.712 148.209 519.344 146.739 518.977 145.269C518.119 141.717 517.752 137.798 516.405 134.736C515.915 133.511 515.302 132.408 514.445 131.428C510.525 127.019 508.565 119.792 506.116 117.832C503.666 115.873 505.626 109.013 512.975 113.423C520.324 117.832 520.814 113.423 513.465 109.013C506.116 104.604 497.419 100.194 497.419 102.644C497.419 104.114 494.112 105.584 493.254 108.401C492.765 110.116 493.132 112.32 495.949 115.383C503.298 123.222 507.708 128.979 509.178 131.428C509.79 132.408 508.198 132.531 505.626 131.918C505.136 131.796 504.523 131.673 504.033 131.428C500.114 130.204 494.847 127.386 491.662 123.099C488.967 119.547 486.763 116.362 485.048 113.79C484.558 112.933 484.068 112.198 483.7 111.586C482.598 109.626 482.108 108.033 482.353 107.053C482.721 105.216 485.538 105.339 488.11 103.991C488.967 103.501 489.825 102.889 490.56 101.909C493.499 98.2344 493.01 86.4757 493.01 86.4757C493.01 86.4757 491.54 78.1466 491.05 79.6164C490.56 81.0863 480.271 89.4154 479.781 92.2326C479.413 94.0699 480.761 96.3971 479.781 98.1119C479.291 99.0918 478.066 99.9492 475.371 100.562C469.737 101.664 465.205 101.664 463.49 101.542C463 101.542 462.633 101.542 462.633 101.542C462.633 101.542 462.143 94.6823 466.552 93.2125C467.042 93.09 467.41 92.845 467.777 92.7225C471.329 91.1302 473.289 88.8029 473.289 88.8029C473.289 88.8029 465.45 84.8834 461.04 89.2929C460.918 89.4154 460.795 89.6604 460.673 89.7828C458.468 92.2326 456.753 95.5397 455.161 98.1119C453.814 100.317 452.589 102.032 451.241 102.032C448.302 102.032 445.362 100.562 445.362 100.562C445.362 100.562 443.892 96.1522 448.302 92.7225C449.282 91.9876 450.139 91.3752 451.119 90.7627C453.079 89.5379 454.671 88.558 455.774 87.7006C456.631 87.0881 457.121 86.4757 457.121 85.8633C457.121 83.9035 458.101 79.1265 454.181 79.3715C450.384 79.494 452.589 75.4519 452.711 75.2069" stroke="white" stroke-miterlimit="10"/>
<path d="M519.589 269.716C519.344 267.144 519.222 264.694 521.794 260.04C525.224 253.67 527.183 252.201 526.693 249.261C526.203 246.321 523.754 243.871 527.183 240.932C530.613 237.992 534.533 234.072 536.002 236.522C537.472 238.972 535.512 251.098 531.593 254.038C527.673 256.978 526.203 259.917 526.203 262.857C526.203 265.797 530.123 268.246 531.103 272.656C532.083 277.065 528.653 285.272 526.203 286.252C524.979 286.864 522.161 279.76 519.589 269.716Z" stroke="white" stroke-miterlimit="10"/>
<path d="M362.684 442.178C366.236 443.402 368.931 444.995 370.033 446.955C374.32 455.039 381.179 459.203 385.589 462.388C389.998 465.573 401.879 468.512 405.554 468.512C409.351 468.512 402.492 460.918 421.6 468.39C440.708 475.861 440.095 477.821 448.302 476.964C456.386 476.106 468.635 471.574 472.064 469.492C475.494 467.41 484.068 462.388 487.865 459.081C491.54 455.896 502.931 438.258 502.809 420.987C502.686 403.717 503.299 393.795 503.789 388.161C503.911 387.059 504.034 385.956 504.156 384.609C505.013 378.607 506.728 370.4 508.566 365.501C510.893 359.499 511.75 353.62 512.118 346.76C512.485 341.493 513.098 315.771 513.465 302.788C513.587 298.868 513.587 296.173 513.587 295.438C513.587 294.826 513.71 292.131 514.077 288.089C514.567 280.495 515.67 268.491 516.895 256.977C517.14 255.018 517.262 253.18 517.507 251.343C518.977 238.727 520.692 228.071 522.284 227.213C522.529 227.091 522.774 226.968 523.141 226.846C527.673 224.886 538.575 222.314 541.759 229.663C545.189 237.502 543.229 269.104 541.759 276.453C540.29 283.802 535.88 292.009 529.021 297.398C522.162 302.788 517.262 297.888 517.262 293.968C517.262 290.049 519.712 276.453 519.712 272.533C519.712 271.431 519.589 270.451 519.467 269.471" stroke="white" stroke-miterlimit="10"/>
<path d="M342.473 200.511C344.311 199.776 353.864 195.856 358.274 190.712C363.173 185.078 367.828 182.383 371.135 182.383C374.442 182.383 376.157 181.525 379.219 184.71C382.281 187.772 386.568 191.569 388.038 193.162C389.018 194.142 391.958 195.734 394.898 195.856C396.49 195.979 398.082 195.611 399.185 194.632C402.247 191.692 402.982 186.547 403.472 185.323C403.962 184.22 405.309 193.162 404.452 198.184C403.594 203.206 393.918 219.129 393.428 223.906C392.938 228.56 390.488 230.765 389.876 230.888C389.631 231.01 388.161 231.745 386.568 232.97C386.446 233.092 386.201 233.215 386.079 233.337C384.241 234.807 382.281 236.767 381.547 238.727C380.199 242.524 377.994 251.465 376.647 254.038C375.3 256.61 366.603 274.37 366.358 277.555C366.236 280.74 365.746 285.517 365.378 286.987C365.011 288.456 363.418 295.806 363.418 296.296C363.418 296.786 362.561 302.665 362.561 302.665C362.561 302.665 368.685 297.765 369.175 294.336C369.665 290.906 371.748 287.722 372.36 284.904C372.972 282.087 373.217 278.78 374.32 276.575C375.422 274.493 377.627 269.961 380.812 267.511C384.119 265.061 385.834 261.142 388.773 260.162C391.713 259.182 397.837 255.14 400.165 254.773C402.492 254.405 406.656 253.425 408.249 254.16C409.841 254.773 412.291 255.14 412.658 256.61C413.026 258.08 412.291 260.652 414.495 261.632C415.598 262.122 415.965 262.612 416.455 262.734C416.7 262.857 416.945 262.857 417.435 262.857C417.803 262.857 418.293 262.734 418.905 262.612C419.64 262.489 420.375 262.244 420.865 262.122C422.457 261.632 423.315 261.142 424.417 261.142C425.887 261.142 426.622 261.142 427.969 259.06C429.316 256.977 431.031 254.16 431.031 254.16C431.031 254.16 433.113 253.67 433.848 254.16C434.583 254.65 437.4 256.487 438.258 258.08C439.115 259.672 443.647 264.449 444.872 265.551C446.22 266.654 446.954 266.531 448.669 269.104C450.262 271.676 451.487 272.166 452.221 274.003C453.079 275.84 453.324 276.575 454.181 278.168C455.039 279.76 455.529 279.76 456.141 281.72C456.753 283.679 458.468 286.742 459.693 288.334C460.918 289.926 461.775 290.294 462.633 291.764C463.49 293.233 463.98 294.703 463.98 295.561C463.98 296.051 463.98 296.786 463.735 297.398C463.613 297.888 463.368 298.255 463.123 298.378C462.51 298.5 460.306 294.948 459.326 292.376C458.346 289.804 452.834 280.005 450.384 276.943C447.934 273.881 438.87 265.551 435.563 264.082C432.379 262.612 428.092 262.122 425.274 261.877C424.294 261.754 422.702 261.877 420.742 262.122C419.272 262.244 417.803 262.612 416.333 262.734C414.128 263.102 412.291 263.469 411.311 263.592C408.861 263.959 403.717 265.429 397.96 267.756C392.325 270.206 381.546 279.515 380.077 282.822C378.607 286.252 372.605 295.561 371.748 299.48C370.89 303.4 369.91 307.074 368.685 307.687C367.338 308.299 363.173 317.976 361.704 318.588C360.234 319.201 350.435 313.689 349.7 310.504C348.843 307.319 345.29 303.767 340.881 299.48C336.471 295.193 330.469 290.661 328.877 286.497C327.285 282.332 326.06 271.676 325.203 270.083C324.223 268.491 323.243 263.959 321.895 261.509C320.548 259.06 317.976 255.875 317.363 256.977C317.118 257.345 316.628 258.325 316.139 259.55C315.894 260.162 315.649 260.774 315.404 261.387C314.914 262.979 314.546 264.694 314.914 265.796C315.404 267.389 316.506 267.389 317.118 266.286C317.486 265.674 317.853 264.694 317.853 263.469C317.853 261.999 316.996 260.529 316.139 259.427C315.036 258.08 313.934 257.467 314.424 258.815C314.546 259.182 314.914 260.162 315.404 261.387C315.894 262.734 316.506 264.449 317.118 266.409C319.446 273.023 322.385 281.72 322.875 283.312C323.488 285.762 327.775 322.263 330.225 336.104" stroke="white" stroke-miterlimit="10"/>
<path d="M342.228 200.511C342.228 200.633 342.228 200.633 342.228 200.511C342.228 200.633 342.228 200.633 342.228 200.511Z" stroke="white" stroke-miterlimit="10"/>
<path d="M342.228 200.511H342.351H342.473" stroke="white" stroke-miterlimit="10"/>
<path d="M492.52 179.811C492.887 178.341 492.887 177.238 492.52 176.871C491.05 175.524 485.048 171.849 481.618 171.849C478.189 171.849 473.044 164.255 465.328 165.235C457.733 166.215 445.975 167.807 441.565 170.747C437.156 173.686 431.521 173.809 429.806 177.238C428.214 180.668 403.472 177.728 397.96 175.156C392.448 172.584 387.916 168.542 384.976 167.317C382.036 166.215 379.587 165.725 375.055 165.112C370.523 164.5 355.089 166.215 345.045 174.666C335.002 183.118 340.513 182.995 344.066 181.036C347.618 179.076 353.987 174.054 358.519 173.931C363.051 173.809 366.113 172.584 370.4 173.074C374.687 173.564 378.484 175.646 380.934 179.321C383.384 182.873 387.426 186.18 388.773 186.425C390.121 186.792 391.835 188.017 392.815 188.752C393.428 189.12 394.285 193.039 394.775 195.979C395.143 197.939 395.388 199.409 395.388 199.409C395.388 199.409 382.159 198.551 374.565 200.021C366.971 201.491 361.826 199.654 354.722 199.041C348.598 198.429 343.576 200.143 342.351 200.511" stroke="white" stroke-miterlimit="10"/>
<path d="M492.52 179.811C494.357 180.546 495.704 181.036 495.704 181.036C495.704 181.036 487.865 194.142 481.863 199.654C475.862 205.166 469.737 208.473 462.51 206.758C455.284 205.166 449.282 198.429 445.975 199.041C442.668 199.531 447.077 196.836 452.099 191.815C456.999 186.793 463.613 184.098 468.635 185.813C473.534 187.405 473.534 188.017 477.944 190.835C482.353 193.652 482.598 195.612 486.273 191.937C488.968 189.12 491.662 183.363 492.52 179.811Z" stroke="white" stroke-miterlimit="10"/>
<path d="M335.124 353.129C339.289 360.356 343.943 367.583 347.373 373.83C355.09 387.671 374.442 415.23 387.671 423.437C400.9 431.644 411.433 435.563 424.662 433.358C437.891 431.154 460.428 417.435 470.962 408.004C481.496 398.695 492.52 371.625 496.317 357.784C500.114 343.943 504.034 329.979 507.341 316.873C508.811 311.239 509.913 299.725 510.77 287.844C511.873 272.288 512.363 256.242 512.363 251.833C512.363 250.241 512.363 249.261 512.24 248.771C511.75 246.566 510.035 252.078 504.646 261.754C498.032 273.88 493.01 284.904 484.803 294.213C476.474 303.645 467.777 310.749 464.96 319.568C462.143 328.387 464.96 350.925 463.858 360.356C462.755 369.788 466.675 375.79 451.732 384.609C436.911 393.428 415.843 402.247 402.124 393.428C388.283 384.609 370.155 368.563 365.746 342.106C361.336 315.648 378.484 313.934 378.974 320.058C379.587 326.06 395.02 364.643 418.66 362.438C442.423 360.234 455.039 333.777 458.346 321.038C459.693 315.648 458.591 308.299 455.651 301.073C451.609 291.274 444.137 281.842 435.196 278.412C419.763 272.533 406.534 273.88 398.205 278.412C389.876 282.944 382.772 296.663 381.669 301.685C380.567 306.584 372.36 315.526 373.34 308.299C374.442 301.073 377.75 293.356 382.159 285.149C386.569 276.943 388.773 277.188 398.695 272.288C408.616 267.511 408.126 264.694 416.333 263.592C416.823 263.592 417.313 263.469 417.803 263.347C425.152 262.367 428.949 262.122 435.686 266.286C442.913 270.696 450.017 279.515 450.507 281.72C450.997 283.924 453.814 287.232 456.019 291.641C456.999 293.478 457.733 297.153 458.836 299.848C460.183 303.645 462.021 305.36 464.96 297.643C465.083 297.52 465.083 297.275 465.083 297.153C469.737 284.292 464.348 278.29 464.348 278.29C464.348 278.29 460.551 262.979 458.836 255.875C457.121 248.648 450.017 236.032 448.914 233.215C447.812 230.398 442.913 221.089 439.605 218.884C436.298 216.679 432.991 222.803 434.094 224.396C435.196 226.111 443.403 232.112 443.403 234.317C443.403 236.522 441.688 242.034 439.605 242.646C437.523 243.259 430.296 250.363 424.784 250.975C419.273 251.465 413.761 252.078 410.454 250.485C407.146 248.771 406.534 247.668 402.124 247.178C397.715 246.688 391.101 245.586 388.896 242.769C387.059 240.442 386.324 234.807 386.201 232.847C386.201 232.48 386.201 232.235 386.201 232.235C386.201 232.235 386.446 232.357 386.691 232.48C388.283 233.215 392.57 235.175 394.408 236.032C396.613 237.134 399.92 233.827 404.574 235.542C409.229 237.257 412.536 239.952 415.353 241.544C418.17 243.259 423.192 245.953 424.784 242.156C426.377 238.237 429.684 236.644 432.991 236.644C436.298 236.644 433.481 233.337 429.194 226.723C424.785 220.109 419.885 212.392 424.784 208.472C429.684 204.675 435.196 193.652 436.298 190.834C437.401 188.017 438.013 183.608 442.913 180.301C447.812 176.993 451.732 176.503 456.141 174.789C460.551 173.074 466.308 174.054 470.227 174.054C474.147 174.054 480.026 172.094 483.946 174.789C486.273 176.381 490.07 178.096 492.765 179.198" stroke="white" stroke-miterlimit="10"/>
<path d="M305.85 248.526C306.584 241.912 307.074 236.645 307.074 235.91C307.074 234.317 312.586 240.932 315.404 243.626C318.221 246.444 314.791 224.886 310.627 224.273C307.932 223.906 303.522 224.273 300.583 230.643" stroke="white" stroke-miterlimit="10"/>
<path d="M317.118 272.778C318.221 276.208 318.833 292.254 317.118 292.254" stroke="white" stroke-miterlimit="10"/>
<path d="M314.546 159.478C313.689 156.293 309.402 180.056 312.831 185.078C316.261 190.1 316.629 194.142 316.506 200.388C316.384 206.635 314.546 215.087 314.669 217.782C314.791 220.476 310.259 226.111 312.219 228.805C314.301 231.378 313.811 236.522 315.894 236.522C317.976 236.4 312.709 216.312 311.362 206.023C310.014 195.734 313.566 181.403 313.934 178.341C314.301 175.279 315.649 163.642 314.546 159.478Z" stroke="white" stroke-miterlimit="10"/>
<path d="M257.468 72.6348C257.468 72.6348 329 340.269 362.929 443.035" stroke="white" stroke-miterlimit="10"/>
<path d="M307.932 255.753C292.009 243.014 274.738 240.319 263.959 242.034C253.181 243.626 249.873 243.259 249.016 248.036C248.281 252.813 247.546 253.18 253.916 254.65C260.285 256.12 271.799 259.672 278.78 257.957C285.762 256.243 293.111 253.425 288.947 249.016C284.66 244.606 266.164 239.829 263.592 243.504C261.02 247.178 262.735 252.935 268.614 254.895C274.493 256.855 278.903 252.69 279.025 249.016C279.148 245.341 275.473 239.829 255.385 246.199C235.298 252.568 234.318 270.084 234.44 274.738C234.563 279.393 233.95 287.354 235.787 291.519C237.625 295.683 245.586 304.625 238.482 313.199C231.378 321.773 221.212 318.588 215.822 324.223C210.433 329.857 211.413 333.287 213.127 339.656C214.72 346.025 215.577 350.19 222.926 349.577C230.153 348.965 235.91 347.74 244.239 352.027C252.446 356.437 257.59 359.499 261.387 359.744C265.184 359.989 265.674 361.581 262 362.071C258.325 362.561 251.588 362.316 246.321 358.886C241.054 355.457 235.053 357.539 228.316 358.886C221.579 360.234 213.495 357.784 208.35 357.172C203.084 356.559 197.817 358.886 192.182 360.601C186.548 362.194 182.383 360.601 181.158 360.111C179.933 359.621 198.552 352.395 204.676 351.047C210.8 349.822 212.882 350.557 218.762 351.66C224.641 352.762 226.846 352.517 232.113 352.272C237.38 352.027 255.018 353.865 257.59 357.049C260.162 360.234 260.162 366.236 254.528 368.563C248.894 370.89 239.462 380.934 219.374 378.117C199.286 375.3 191.57 371.748 189.855 368.44C188.14 365.133 188.63 362.316 192.305 366.726C196.102 371.135 203.818 389.876 222.681 387.916C241.544 385.956 246.321 378.484 259.06 380.812C271.799 383.016 275.473 387.671 266.899 406.289C258.448 424.907 243.259 434.583 207.126 429.684C170.992 424.784 165.725 402.247 157.518 395.02C149.312 387.793 132.776 373.462 127.509 356.559C122.242 339.656 124.447 316.139 126.774 315.036C128.979 313.934 132.531 319.691 133.633 345.29C134.736 370.89 132.654 392.08 136.083 399.92C139.513 407.759 165.48 425.519 178.219 442.79C190.957 460.061 210.555 474.147 219.987 473.657C229.541 473.167 234.318 465.083 229.663 455.651C224.886 446.22 217.169 438.748 214.597 449.894C212.025 461.04 209.698 473.167 219.619 480.883C229.541 488.6 243.749 487.498 260.04 478.189C276.331 468.757 297.398 460.061 307.32 451.242C317.241 442.545 319.569 428.214 318.344 414.373C317.119 400.532 313.567 373.095 316.261 357.907C318.834 342.718 323.488 324.713 323.856 318.221C324.223 311.729 324.223 313.076 324.223 313.076" stroke="white" stroke-miterlimit="10"/>
<path d="M275.473 138.288C272.166 140.002 260.039 144.412 251.343 145.147C242.646 145.882 225.866 152.129 199.776 146.127C173.686 140.125 171.849 134.613 156.416 136.695C140.86 138.778 128.856 159.723 127.019 165.48C125.181 171.237 126.161 185.445 125.181 192.304C124.202 199.041 121.507 204.553 117.342 205.41C113.178 206.268 111.585 202.961 114.035 201.613C116.485 200.388 117.342 203.206 116.852 210.922C116.485 218.516 119.302 244.606 121.017 254.405C122.609 264.327 126.406 289.804 128.244 295.683C130.081 301.563 132.408 311.361 136.94 316.996C141.595 322.63 152.741 333.287 154.333 339.534C155.926 345.78 158.498 356.559 160.948 368.44C163.397 380.322 172.461 401.022 175.646 405.431C178.831 409.963 187.772 420.987 208.472 425.519C229.173 430.174 246.566 426.499 263.347 419.15C280.25 411.801 289.926 393.795 296.051 378.362C302.175 362.928 303.767 338.799 308.422 328.51C311.484 321.773 317.118 312.341 320.915 301.93" stroke="white" stroke-miterlimit="10"/>
<path d="M327.285 220.966C326.55 214.229 322.508 209.453 323.488 204.798C324.468 200.144 326.795 195.489 329 196.101C331.204 196.714 329.979 200.021 327.407 200.388C324.713 200.756 321.773 201.858 320.793 194.877" stroke="white" stroke-miterlimit="10"/>
<path d="M296.663 217.659C295.438 217.414 294.213 217.292 292.988 217.537C287.844 218.272 289.069 221.334 276.82 223.538C264.571 225.743 257.59 224.763 247.913 228.56C238.237 232.358 236.4 237.257 236.155 238.849C235.91 240.319 250.241 236.645 257.222 236.032C264.082 235.42 268.246 237.992 278.78 233.705C289.314 229.295 290.416 223.906 299.48 229.663" stroke="white" stroke-miterlimit="10"/>
<path d="M273.881 131.918C271.798 139.023 268.001 144.534 264.449 145.269C259.917 146.127 254.405 143.677 250.241 134.246C246.076 124.814 238.237 105.951 233.337 100.439C228.438 94.9273 219.374 89.4153 207.615 84.0259C195.856 78.6365 190.344 76.0643 190.344 76.0643C190.344 76.0643 215.209 69.695 232.235 70.0624C241.299 70.3074 249.628 70.4299 257.712 72.5122" stroke="white" stroke-miterlimit="10"/>
<path d="M246.566 301.808C246.934 301.93 252.568 310.137 248.894 317.486C245.219 324.713 232.97 325.08 229.296 323.978C225.499 322.875 232.97 317.364 238.727 317.853C244.484 318.343 244.606 320.058 240.442 322.753C236.277 325.325 223.294 328.02 221.089 330.347C218.884 332.674 201.859 322.385 200.511 320.916C199.286 319.568 201.246 315.404 206.636 318.466C212.025 321.528 209.82 323.365 198.184 322.141C186.548 320.916 195.489 298.378 198.184 292.866C200.879 287.354 205.656 278.413 205.901 262.489C206.146 246.566 201.369 245.586 193.284 242.524C185.2 239.339 167.93 238.972 160.703 241.912C153.599 244.729 148.087 249.383 152.864 252.201C157.641 254.895 170.502 257.835 181.893 255.753C193.284 253.67 197.204 254.773 195.734 251.588C194.387 248.403 183.363 243.136 178.464 241.544C173.564 239.952 162.05 239.584 162.295 244.361C162.54 249.261 163.888 257.59 172.707 254.038C181.403 250.363 186.915 237.747 170.257 238.36C153.476 238.972 147.719 241.422 143.31 245.341C138.9 249.383 130.326 256.365 126.652 250.976C122.977 245.586 123.344 237.502 126.652 232.48C129.959 227.458 137.553 216.924 143.31 217.047C149.067 217.169 171.727 220.476 177.606 222.926C183.486 225.376 198.674 235.052 200.879 238.727C203.083 242.402 197.572 241.422 189.12 238.115C180.668 234.685 154.946 226.111 148.454 225.866C141.962 225.621 127.509 227.091 122.487 230.398C117.343 233.705 117.22 248.158 116.24 256.488C115.26 264.817 115.26 267.389 116.975 273.881C118.69 280.495 123.712 300.46 122.12 303.645C120.527 306.83 114.525 305.605 110.728 299.358C106.931 293.111 115.75 295.193 116.363 298.991C116.975 302.788 117.71 306.707 112.811 306.217C107.911 305.727 108.401 298.746 104.849 289.559C101.174 280.372 100.929 274.248 98.2347 262.857C95.54 251.466 92.2328 243.014 93.8251 237.012C95.4175 231.01 100.807 226.846 103.747 230.03C106.564 233.215 114.035 246.076 114.035 248.526C114.035 250.976 110.973 254.283 110.606 248.281C110.238 242.279 110.973 239.217 109.136 231.5C107.299 223.784 103.747 220.966 104.482 210.31C105.216 199.654 103.992 176.994 105.216 173.441C106.441 169.889 110.361 153.109 113.056 147.719C115.75 142.33 130.204 126.529 132.531 122.732C134.858 118.812 141.718 104.849 143.31 100.929C144.902 97.0097 165.48 89.538 173.687 91.1303C181.893 92.7226 188.875 96.1523 189.977 98.4795C191.08 100.807 190.467 103.869 185.935 97.3771C181.403 90.8853 175.279 82.9237 171.727 79.1266C168.052 75.3295 168.42 74.5946 176.749 73.6147C184.955 72.6348 212.515 69.6951 224.764 71.1649C237.012 72.5123 247.669 72.2673 258.692 89.293C260.53 92.1102 262.245 94.8049 263.837 97.3771" stroke="white" stroke-miterlimit="10"/>
</svg>
