<svg width="666" height="294" viewBox="0 0 666 294" fill="none" xmlns="http://www.w3.org/2000/svg">
<path d="M1 201.287C18.1654 203.529 44.2868 212.499 63.6912 202.034C83.0956 191.569 87.5735 183.346 94.2904 180.356C101.007 177.366 115.934 170.639 140.562 174.376C165.191 178.114 181.61 185.589 197.283 184.841C212.956 184.094 215.941 184.094 215.941 180.356C215.941 176.619 212.956 169.144 214.449 163.164C215.941 157.184 221.912 140.739 218.926 134.758C215.941 128.778 216.687 133.263 213.702 147.466C210.717 161.669 209.971 182.599 214.449 191.569C218.926 200.539 218.18 205.024 220.419 208.014C222.658 211.004 237.51 230.671 236.092 234.924C234.599 239.409 229.375 243.894 224.151 226.702C218.926 209.509 215.195 205.772 215.941 210.257C216.687 214.742 230.868 238.662 236.092 243.894C241.316 249.127 259.974 276.037 294.305 285.755C328.636 295.472 356.996 296.967 389.835 280.522C422.673 264.077 447.301 237.914 454.765 205.024C462.228 172.134 462.974 171.386 460.735 169.891C458.496 168.396 454.765 165.406 457.004 163.911C459.243 162.416 462.974 163.164 461.482 160.921C459.989 158.679 454.018 155.689 455.511 154.194C457.004 152.699 459.989 154.194 459.243 149.709C458.496 145.224 449.54 148.214 448.794 145.971C448.048 143.729 451.779 140.739 451.033 143.729C450.287 146.719 446.555 141.486 444.316 142.234C442.077 142.981 439.092 157.931 439.838 161.669C440.585 165.406 445.062 172.881 445.809 176.619C446.555 180.356 447.301 183.346 440.585 179.609C433.868 175.871 428.643 164.659 423.419 163.911C418.195 163.164 413.717 163.911 410.732 164.659C407.746 165.406 401.776 169.144 400.283 169.144C398.79 169.144 396.551 170.639 392.82 172.134C389.088 173.629 383.118 170.639 385.357 169.891C387.596 169.144 401.776 169.144 405.507 172.134C409.239 175.124 403.268 184.094 401.776 187.084C400.283 190.074 390.581 205.772 386.849 204.277C383.118 202.782 379.386 196.801 373.415 193.064C367.445 189.326 363.713 185.589 361.474 184.094C359.235 182.599 355.504 187.831 359.982 191.569C364.46 195.306 375.654 206.519 380.879 208.014C386.103 209.509 392.82 205.024 397.298 204.277C401.776 203.529 401.029 204.277 398.044 212.499C395.059 220.722 385.357 231.934 384.61 236.419C383.864 240.904 385.357 252.117 386.849 253.612C388.342 255.107 394.312 253.612 393.566 258.097C392.82 262.582 389.835 270.057 395.059 266.32C400.283 262.582 404.761 252.864 403.268 250.622C401.776 248.379 398.044 251.369 393.566 252.864C389.088 254.359 386.849 253.612 383.864 258.097C380.879 262.582 377.147 266.32 376.401 269.31C375.654 272.3 365.206 284.26 358.489 285.007C351.772 285.755 341.324 287.997 334.607 282.017C327.89 276.037 325.651 272.3 325.651 268.562C325.651 264.825 328.636 260.34 324.158 254.359C319.68 248.379 313.71 246.137 313.71 241.652C313.71 237.167 309.978 233.429 308.485 234.924C306.993 236.419 304.007 235.672 301.022 233.429C298.037 231.187 278.632 234.924 275.647 231.934C272.662 228.944 259.228 210.257 259.974 205.024C260.721 199.792 267.437 184.841 271.915 181.104C276.393 177.366 276.393 177.366 277.14 173.629C277.886 169.891 282.364 166.154 286.096 166.901C289.827 167.649 293.559 162.416 295.798 160.174C298.037 157.931 298.037 155.689 300.276 154.194C302.515 152.699 306.993 150.456 307.739 152.699C308.485 154.941 309.232 163.164 309.978 159.426C310.724 155.689 312.217 151.951 314.456 154.194C316.695 156.436 318.187 158.679 318.187 162.416C318.187 166.154 324.904 168.396 324.904 163.164C324.904 157.931 324.904 156.436 321.173 152.699C317.441 148.961 315.949 149.709 320.426 154.941C324.904 160.174 328.636 164.659 331.621 165.406C334.607 166.154 339.085 167.649 336.846 163.911C334.607 160.174 336.099 154.194 337.592 158.679C339.085 163.164 339.085 166.154 341.324 166.154C343.562 166.154 346.548 163.164 347.294 164.659C348.04 166.154 351.026 169.891 352.518 166.901C354.011 163.911 357.743 159.426 356.996 162.416C356.25 165.406 358.489 173.629 351.026 173.629C343.562 173.629 334.607 172.134 333.114 173.629C331.621 175.124 330.129 179.609 321.919 177.366C313.71 175.124 314.456 174.376 313.71 170.639C312.963 166.901 308.485 163.164 306.246 164.659C304.007 166.154 295.798 166.901 292.066 167.649C288.335 168.396 280.871 166.901 280.125 163.164C279.379 159.426 280.125 151.951 283.11 151.204C286.096 150.456 289.827 152.699 292.066 150.456C294.305 148.214 295.051 145.224 293.559 143.729C292.066 142.234 288.335 139.991 292.066 139.243C295.798 138.496 298.037 135.506 294.305 135.506C290.574 135.506 287.588 134.758 289.827 132.516C292.066 130.273 295.798 127.283 293.559 130.273C291.32 133.263 286.842 134.011 285.349 131.768C283.857 129.526 288.335 127.283 291.32 124.293C294.305 121.303 292.812 117.566 295.798 118.313C298.783 119.061 302.515 120.556 301.022 123.546C299.529 126.536 301.022 132.516 302.515 133.263C304.007 134.011 312.217 128.031 312.217 125.788C312.217 123.546 310.724 119.061 312.963 120.556C315.202 122.051 308.485 124.293 307.739 120.556C306.993 116.818 311.471 111.586 314.456 107.101C317.441 102.616 318.934 98.8781 321.173 97.3831C323.412 95.8881 329.382 93.6456 333.86 95.1406C338.338 96.6356 344.309 99.6257 345.055 94.3931C345.801 89.1606 341.324 88.4131 340.577 84.6755C339.831 80.938 339.831 74.9579 343.562 79.443C347.294 83.928 348.787 87.6656 349.533 82.433C350.279 77.2005 348.787 72.7154 347.294 71.2204C345.801 69.7254 339.085 70.4729 341.324 68.2304C343.562 65.9879 347.294 68.2304 351.026 65.2404C354.757 62.2503 359.235 60.0078 354.757 58.5128C350.279 57.0178 345.801 57.7653 347.294 56.2703C348.787 54.7753 351.026 51.7852 344.309 49.5427C337.592 47.3002 324.904 46.5527 327.89 44.3102C330.875 42.0677 335.353 42.8152 320.426 47.3002C305.5 51.7852 295.798 52.5328 295.798 54.7753C295.798 57.0178 299.529 57.0178 299.529 59.2603C299.529 61.5028 297.29 62.9978 300.276 63.7454C303.261 64.4929 304.007 68.9779 306.993 72.7154C309.978 76.453 313.71 76.453 306.993 81.6855C300.276 86.9181 292.066 93.6456 291.32 97.3831C290.574 101.121 298.037 103.363 293.559 104.858C289.081 106.353 281.618 109.343 283.857 103.363C286.096 97.3831 285.349 95.8881 279.379 98.8781C273.408 101.868 262.96 104.858 265.199 100.373C267.437 95.8881 280.125 79.443 284.603 77.948C289.081 76.453 295.798 70.4729 289.827 70.4729C283.857 70.4729 282.364 70.4729 280.871 73.4629C279.379 76.453 270.423 87.6656 268.184 86.1705C265.945 84.6755 265.199 83.1805 268.184 80.938C271.169 78.6955 276.393 74.2104 273.408 74.2104C270.423 74.2104 265.945 74.9579 265.199 73.4629C264.452 71.9679 260.721 72.7154 258.482 75.7055C256.243 78.6955 251.765 80.938 253.257 82.433C254.75 83.928 256.989 83.928 259.974 85.423C262.96 86.9181 260.721 92.8981 258.482 95.1406C256.243 97.3831 245.794 115.323 242.809 116.071C239.824 116.818 239.824 115.323 240.57 111.586C241.316 107.848 242.062 104.858 238.331 109.343C234.599 113.828 233.107 115.323 231.614 113.081C230.121 110.838 223.404 121.303 221.165 122.798C218.926 124.293 222.658 112.333 231.614 100.373C240.57 88.4131 254.75 67.4829 280.125 55.5228C305.5 43.5627 333.114 39.8251 359.235 45.8052C385.357 51.7852 396.551 57.7653 410.732 69.7254C424.912 81.6855 418.941 80.938 421.18 83.1805C423.419 85.423 428.643 87.6656 428.643 85.423C428.643 83.1805 431.629 87.6656 436.107 92.8981C440.585 98.1306 443.57 105.606 445.062 109.343C446.555 113.081 445.809 122.798 448.048 125.041C450.287 127.283 454.018 126.536 452.526 121.303C451.033 116.071 446.555 114.576 449.54 119.808C452.526 125.041 454.765 129.526 455.511 132.516C456.257 135.506 458.496 142.981 457.004 145.971C455.511 148.961 452.526 151.951 453.272 156.436C454.018 160.921 451.779 170.639 456.257 175.124C460.735 179.609 467.452 181.851 475.662 181.104C483.871 180.356 520.441 165.406 528.651 160.921C536.86 156.436 558.504 154.941 570.445 159.426C582.386 163.911 601.79 172.134 610 175.871" stroke="white" stroke-miterlimit="10"/>
<path d="M249 102H208V128H249V102Z" fill="#2400FF"/>
<path d="M208.5 103C209.328 103 210 102.552 210 102C210 101.448 209.328 101 208.5 101C207.672 101 207 101.448 207 102C207 102.552 207.672 103 208.5 103Z" fill="#2400FF"/>
<path d="M249.5 103C250.328 103 251 102.552 251 102C251 101.448 250.328 101 249.5 101C248.672 101 248 101.448 248 102C248 102.552 248.672 103 249.5 103Z" fill="#2400FF"/>
<path d="M208.5 130C209.328 130 210 129.328 210 128.5C210 127.672 209.328 127 208.5 127C207.672 127 207 127.672 207 128.5C207 129.328 207.672 130 208.5 130Z" fill="#2400FF"/>
<path d="M249.5 130C250.328 130 251 129.328 251 128.5C251 127.672 250.328 127 249.5 127C248.672 127 248 127.672 248 128.5C248 129.328 248.672 130 249.5 130Z" fill="#2400FF"/>
<path d="M208 102L180.556 34H87" stroke="#2400FF" stroke-width="0.8504" stroke-miterlimit="10"/>
<path d="M643.384 274.355L643.089 274.048L642.737 274.387L643.121 274.689L643.384 274.355ZM649.092 278.835L648.83 279.169L649.059 279.35L649.31 279.2L649.092 278.835ZM665.531 246.148H665.956V245.723H665.531V246.148ZM639.478 246.148V245.723H639.052V246.148H639.478ZM639.478 262.444H639.052V262.869H639.478V262.444ZM650.703 262.444L651.125 262.49L651.177 262.019H650.703V262.444ZM643.121 274.689L648.83 279.169L649.355 278.501L643.647 274.02L643.121 274.689ZM649.31 279.2C660.325 272.627 665.956 264.939 665.956 256.146H665.106C665.106 264.509 659.767 271.969 648.874 278.47L649.31 279.2ZM665.956 256.146V246.148H665.106V256.146H665.956ZM665.531 245.723H639.478V246.574H665.531V245.723ZM639.052 246.148V262.444H639.903V246.148H639.052ZM639.478 262.869H650.703V262.019H639.478V262.869ZM650.28 262.397C649.898 265.869 647.544 269.752 643.089 274.048L643.679 274.661C648.185 270.315 650.71 266.258 651.125 262.49L650.28 262.397Z" fill="#FF53D9"/>
<path d="M82.2646 29.2061L81.9694 28.9001L81.6179 29.2391L82.0021 29.5406L82.2646 29.2061ZM87.9728 33.6866L87.7103 34.021L87.94 34.2013L88.1907 34.0517L87.9728 33.6866ZM104.412 1H104.837V0.5748H104.412V1ZM78.3582 1V0.5748H77.933V1H78.3582ZM78.3582 17.2954H77.933V17.7206H78.3582V17.2954ZM89.5832 17.2954L90.0058 17.342L90.0578 16.8702H89.5832V17.2954ZM82.0021 29.5406L87.7103 34.021L88.2353 33.3521L82.5271 28.8716L82.0021 29.5406ZM88.1907 34.0517C99.2054 27.4781 104.837 19.7902 104.837 10.9973H103.987C103.987 19.3609 98.6481 26.8204 87.7549 33.3214L88.1907 34.0517ZM104.837 10.9973V1H103.987V10.9973H104.837ZM104.412 0.5748H78.3582V1.4252H104.412V0.5748ZM77.933 1V17.2954H78.7834V1H77.933ZM78.3582 17.7206H89.5832V16.8702H78.3582V17.7206ZM89.1606 17.2489C88.7782 20.7205 86.4246 24.6034 81.9694 28.9001L82.5598 29.5122C87.0655 25.1668 89.5909 21.1093 90.0058 17.342L89.1606 17.2489Z" fill="#2400FF"/>
<path d="M471 206H428V233H471V206Z" fill="#FF53D9"/>
<path d="M428.5 208C429.328 208 430 207.328 430 206.5C430 205.672 429.328 205 428.5 205C427.672 205 427 205.672 427 206.5C427 207.328 427.672 208 428.5 208Z" fill="#FF53D9"/>
<path d="M470.5 208C471.328 208 472 207.328 472 206.5C472 205.672 471.328 205 470.5 205C469.672 205 469 205.672 469 206.5C469 207.328 469.672 208 470.5 208Z" fill="#FF53D9"/>
<path d="M428.5 234C429.328 234 430 233.328 430 232.5C430 231.672 429.328 231 428.5 231C427.672 231 427 231.672 427 232.5C427 233.328 427.672 234 428.5 234Z" fill="#FF53D9"/>
<path d="M470.5 234C471.328 234 472 233.328 472 232.5C472 231.672 471.328 231 470.5 231C469.672 231 469 231.672 469 232.5C469 233.328 469.672 234 470.5 234Z" fill="#FF53D9"/>
<path d="M470 233L505.631 279H650" stroke="#FF53D9" stroke-width="0.8504" stroke-miterlimit="10"/>
</svg>
