<svg width="610" height="308" viewBox="0 0 610 308" fill="none" xmlns="http://www.w3.org/2000/svg">
<path d="M193.796 306.605C193.796 306.605 248.19 272.76 251.816 272.76C255.442 272.76 350.933 278.805 400.491 272.76C450.049 266.714 475.433 261.882 516.53 246.166C557.627 230.453 584.221 209.904 584.221 209.904L609 216.551V209.3L583.616 203.254C583.616 203.254 577.571 222.593 484.499 250.397C391.428 278.2 251.211 266.11 251.211 266.11L182.311 306" stroke="black" stroke-miterlimit="10"/>
<path d="M240.333 283.035C240.333 283.035 338.241 290.287 384.173 284.245C430.106 278.2 473.622 272.158 517.135 254.026C560.648 235.893 579.99 214.138 579.99 214.138" stroke="black" stroke-miterlimit="10"/>
<path d="M538.893 238.309V243.303" stroke="black" stroke-miterlimit="10"/>
<path d="M438.567 268.529V274.574" stroke="black" stroke-miterlimit="10"/>
<path d="M406.409 272.028V279.407" stroke="black" stroke-miterlimit="10"/>
<path d="M338.241 276.991V285.452" stroke="black" stroke-miterlimit="10"/>
<path d="M320.108 276.991V284.242" stroke="black" stroke-miterlimit="10"/>
<path d="M69.8971 306.001C69.8971 306.001 81.9843 296.33 94.0715 286.662C106.159 276.991 166.598 251.607 166.598 251.607C166.598 251.607 89.2391 229.849 61.4358 208.09C33.6325 186.332 19.1323 170.622 25.1743 146.445C31.2163 122.267 50.5583 111.39 50.5583 111.39" stroke="black" stroke-miterlimit="10"/>
<path d="M25.1743 171.829C25.1743 171.829 27.5905 189.961 67.481 220.177C107.371 250.394 152.094 252.813 152.094 252.813L140.007 261.274C140.007 261.274 97.7005 249.187 65.0648 222.594C32.4292 196 25.1743 171.829 25.1743 171.829Z" stroke="black" stroke-miterlimit="10"/>
<path d="M135.172 258.858V251.607" stroke="black" stroke-miterlimit="10"/>
<path d="M114.623 250.397V245.565" stroke="black" stroke-miterlimit="10"/>
<path d="M96.4908 238.309V241.935" stroke="black" stroke-miterlimit="10"/>
<path d="M217.366 1.39551L66.2713 36.4505L25.1743 34.0312" stroke="black" stroke-miterlimit="10"/>
<path d="M1 25.5699C1 25.5699 68.6907 52.1636 132.752 64.2508C196.814 76.3379 306.815 101.722 341.866 107.767C376.921 113.812 459.115 131.941 502.628 124.69C546.142 117.438 549.771 129.525 569.11 112.603C588.448 95.6799 564.274 75.1314 552.187 65.4604C540.1 55.7894 540.1 55.7894 540.1 55.7894" stroke="black" stroke-miterlimit="10"/>
<path d="M494.17 37.6572L460.325 41.2862" stroke="black" stroke-miterlimit="10"/>
<path d="M517.135 48.5376H474.828" stroke="black" stroke-miterlimit="10"/>
<path d="M542.753 57.9112L491.751 58.2089" stroke="black" stroke-miterlimit="10"/>
<path d="M505.048 71.5026L561.994 73.8998" stroke="black" stroke-miterlimit="10"/>
<path d="M507.464 81.1736L574.537 90.3854" stroke="black" stroke-miterlimit="10"/>
<path d="M502.632 88.425L574.537 105.905" stroke="black" stroke-miterlimit="10"/>
<path d="M489.335 92.0507L550.98 119.854V140.402" stroke="black" stroke-miterlimit="10"/>
<path d="M447.028 88.425L500.212 123.48" stroke="black" stroke-miterlimit="10"/>
<path d="M513.509 125.896L507.464 152.49" stroke="black" stroke-miterlimit="10"/>
<path d="M404.722 76.3378L438.567 119.854L436.151 153.699" stroke="black" stroke-miterlimit="10"/>
<path d="M362.415 58.2086L349.457 109.119L347.912 145.238" stroke="black" stroke-miterlimit="10"/>
<path d="M322.528 40.076L252.421 86.0086L251.211 130.731" stroke="black" stroke-miterlimit="10"/>
<path d="M287.473 20.7374L178.685 63.0409L144.431 66.4989L150.885 108.973" stroke="black" stroke-miterlimit="10"/>
<path d="M251.211 8.64691L113.414 46.1181L73.4153 49.8104L78.3585 92.0506" stroke="black" stroke-miterlimit="10"/>
<path d="M25.1743 34.0315L32.426 73.922" stroke="black" stroke-miterlimit="10"/>
<path d="M16.713 67.8762C16.713 67.8762 75.9423 98.0957 127.917 108.973C179.891 119.851 338.237 144.028 369.666 147.654C401.092 151.28 447.025 159.741 480.87 156.115C514.716 152.49 548.561 142.819 559.439 135.567C570.316 128.315 570.316 128.315 570.316 128.315" stroke="black" stroke-miterlimit="10"/>
<path d="M570.319 121.061C570.319 121.061 583.616 129.522 588.451 140.4C593.287 151.277 593.287 154.906 593.287 154.906" stroke="black" stroke-miterlimit="10"/>
<path d="M609 160.951L600.539 158.535C600.539 158.535 595.703 140.403 589.661 133.151C583.616 125.899 570.322 118.645 570.322 118.645" stroke="black" stroke-miterlimit="10"/>
<path d="M541.309 145.238L514.719 179.08" stroke="black" stroke-miterlimit="10"/>
<path d="M502.632 157.325L477.248 197.213" stroke="black" stroke-miterlimit="10"/>
<path d="M500.212 156.116L471.203 202.048L466.367 198.422L485.709 157.325" stroke="black" stroke-miterlimit="10"/>
<path d="M492.923 172.579L513.509 163.367L517.135 168.203L488.23 179.951" stroke="black" stroke-miterlimit="10"/>
<path d="M471.202 185.125C471.202 185.125 463.951 188.751 448.238 192.377C432.525 196.003 426.48 196.003 426.48 196.003" stroke="black" stroke-miterlimit="10"/>
<path d="M474.828 177.874C474.828 177.874 462.741 182.709 451.864 185.126C440.986 187.542 430.105 187.542 430.105 187.542" stroke="black" stroke-miterlimit="10"/>
<path d="M439.776 157.325L420.435 214.135L413.183 208.093L414.393 198.422H420.435L426.48 156.116L439.776 157.325Z" stroke="black" stroke-miterlimit="10"/>
<path d="M436.151 170.622C437.36 170.622 445.822 169.412 445.822 169.412L440.986 185.125" stroke="black" stroke-miterlimit="10"/>
<path d="M461.532 180.29L467.577 169.413L479.664 168.203" stroke="black" stroke-miterlimit="10"/>
<path d="M421.644 170.622H404.722L399.886 193.587H373.296L376.921 168.203H351.537" stroke="black" stroke-miterlimit="10"/>
<path d="M353.953 157.325L424.06 160.951" stroke="black" stroke-miterlimit="10"/>
<path d="M350.328 148.864L352.747 221.387H345.492L343.076 146.445" stroke="black" stroke-miterlimit="10"/>
<path d="M322.527 144.028L323.737 198.422H297.143L289.892 137.983" stroke="black" stroke-miterlimit="10"/>
<path d="M262.088 133.151L276.595 196.003V203.258L281.43 204.464L282.637 214.135L274.176 221.387L239.684 128.372" stroke="black" stroke-miterlimit="10"/>
<path d="M234.288 128.315L248.792 193.587L224.617 191.17L202.862 123.48" stroke="black" stroke-miterlimit="10"/>
<path d="M184.73 121.061L212.53 208.094L206.488 209.3L153.301 115.019" stroke="black" stroke-miterlimit="10"/>
<path d="M118.249 107.767L133.962 139.193V168.203L85.6133 98.0959" stroke="black" stroke-miterlimit="10"/>
<path d="M75.9423 94.4703L91.6553 124.69V153.7L37.2615 78.7573" stroke="black" stroke-miterlimit="10"/>
<path d="M101.326 124.69V173.039C101.326 173.039 137.588 186.335 156.93 192.377C176.269 198.423 189.566 200.839 191.985 200.839C194.401 200.839 193.195 187.542 193.195 187.542" stroke="black" stroke-miterlimit="10"/>
<path d="M194.401 199.632L198.027 198.422V215.345L214.95 210.509V197.213C214.95 197.213 233.082 200.838 246.375 202.048C259.672 203.258 265.714 202.048 265.714 202.048" stroke="black" stroke-miterlimit="10"/>
<path d="M263.298 194.796L206.387 188.859" stroke="black" stroke-miterlimit="10"/>
<path d="M277.805 197.213C277.805 197.213 340.66 198.422 343.076 198.422" stroke="black" stroke-miterlimit="10"/>
<path d="M282.637 204.465H344.286" stroke="black" stroke-miterlimit="10"/>
<path d="M352.747 197.213L420.435 189.961" stroke="black" stroke-miterlimit="10"/>
<path d="M353.953 204.464L413.183 199.632" stroke="black" stroke-miterlimit="10"/>
<path d="M296.539 21.3389C296.539 21.3389 369.065 62.4359 393.239 72.1069C417.413 81.7779 463.346 93.865 486.314 92.6553C509.278 91.4457 510.488 76.9423 502.027 67.2713C493.565 57.6004 462.139 41.8874 430.71 33.426C399.281 24.9647 296.539 21.3389 296.539 21.3389Z" stroke="black" stroke-miterlimit="10"/>
<path d="M321.318 32.8249C321.318 32.8249 392.634 31.6153 427.686 41.2863C462.741 50.9573 482.08 60.6251 489.332 69.0864C496.583 77.5478 500.209 87.2188 500.209 87.2188" stroke="black" stroke-miterlimit="10"/>
<path d="M332.195 40.0763C332.195 40.0763 402.302 36.2573 413.183 38.1668" stroke="black" stroke-miterlimit="10"/>
<path d="M343.076 46.118L346.702 40.076" stroke="black" stroke-miterlimit="10"/>
<path d="M355.163 52.1635L362.415 38.8666" stroke="black" stroke-miterlimit="10"/>
<path d="M375.712 38.8666L363.625 55.7893" stroke="black" stroke-miterlimit="10"/>
<path d="M391.425 38.8666L373.296 61.8345" stroke="black" stroke-miterlimit="10"/>
<path d="M404.722 40.076L384.173 65.46" stroke="black" stroke-miterlimit="10"/>
<path d="M420.435 41.2862L396.26 70.296" stroke="black" stroke-miterlimit="10"/>
<path d="M432.522 43.7025L408.347 70.2961" stroke="black" stroke-miterlimit="10"/>
<path d="M444.609 47.3281L420.435 73.9218" stroke="black" stroke-miterlimit="10"/>
<path d="M456.699 50.9539L433.731 76.3378" stroke="black" stroke-miterlimit="10"/>
<path d="M467.577 56.9991L445.818 79.9638" stroke="black" stroke-miterlimit="10"/>
<path d="M479.664 64.2504C479.664 63.0408 456.699 82.3828 456.699 82.3828" stroke="black" stroke-miterlimit="10"/>
<path d="M489.335 71.5026L468.786 87.2188" stroke="black" stroke-miterlimit="10"/>
<path d="M494.17 78.7573L478.454 90.8445" stroke="black" stroke-miterlimit="10"/>
<path d="M471.202 90.8444C471.202 90.8444 448.238 81.1734 425.27 75.1314C402.305 69.0863 382.963 66.6701 382.963 66.6701" stroke="black" stroke-miterlimit="10"/>
</svg>
