<svg width="793" height="483" viewBox="0 0 793 483" fill="none" xmlns="http://www.w3.org/2000/svg">
<path d="M696.459 328.704C699.036 335.255 701.141 339.287 703.415 341.787C696.503 341.938 689.478 342.088 682.446 342.239C684.267 333.012 682.667 313.636 684.4 302.129C686.958 285.259 688.583 308.605 696.459 328.704Z" fill="#129219"/>
<path d="M680.461 37.7988C682.705 37.7988 684.028 39.1178 683.933 40.7383C683.826 42.3588 683.108 45.1035 680.669 44.9967C678.231 44.8899 676.152 41.4857 676.152 41.4857V41.4417V41.4292C676.397 41.4041 676.549 41.3852 676.593 41.3475C677.406 40.7383 678.231 37.7988 680.461 37.7988Z" fill="#129219"/>
<path d="M678.13 19.9293C678.325 21.8512 678.54 22.7682 675.27 23.5784C672.119 24.3761 671.067 20.9593 670.626 20.1993L670.998 20.1428V20.1302C670.998 20.1302 671.206 20.1302 671.206 19.2258C671.206 18.3088 672.938 17.084 674.772 16.7825C676.593 16.4811 677.922 17.9947 678.13 19.9293Z" fill="#2F69CC"/>
<path d="M678.13 62.4636C678.237 63.7826 677.317 65.6103 675.484 65.7171C674.054 65.7862 671.766 63.657 670.828 62.7211C671.048 62.0491 672.188 59.2227 674.778 59.2227C677.406 59.2227 678.023 61.1446 678.13 62.4636Z" fill="#2F69CC"/>
<path d="M663.77 73.4304C665.396 73.6252 665.906 76.3699 665.295 77.6889C664.69 79.0079 662.554 80.3269 660.103 79.5166C657.841 78.7629 659.083 75.5471 659.102 74.1213C660.078 73.8575 662.479 73.2671 663.77 73.4304Z" fill="#129219"/>
<path d="M664.476 5.21337C666.102 6.62657 664.684 9.17661 662.851 10.1816C661.269 11.0609 660.154 9.98685 659.41 9.6728C659.341 9.4781 659.152 9.22058 658.774 8.86257C657.552 7.75085 658.068 5.72213 658.982 4.30265C659.896 2.88317 662.851 3.78761 664.476 5.21337Z" fill="#129219"/>
<path d="M638.971 331.022C640.237 337.127 641.919 340.833 643.816 343.1C637.345 343.238 631.095 343.377 625.159 343.509C625.229 336.493 624.498 326.293 624.825 315.314C625.525 291.968 627.843 285.266 634.34 288.972C640.817 292.658 635.02 312.066 638.971 331.022Z" fill="#2F69CC"/>
<path d="M534.692 432.062C535.411 443.349 539.153 465.087 538.435 468.818C537.704 472.549 534.907 474.515 524.309 473.68C513.717 472.857 432.285 473.485 428.347 473.485C424.397 473.485 311.512 473.485 303.51 473.278C295.52 473.07 246.5 472.235 243.173 470.891C239.846 469.547 235.694 471.726 236.62 464.88C237.559 458.047 246.078 395.112 247.004 389.415C247.943 383.718 248.573 377.72 251.27 375.126C252.662 373.782 255.101 373.148 257.659 372.947C260.028 372.765 262.517 372.972 264.363 373.361C266.348 373.788 271.773 374.253 276.675 374.511C269.403 374.825 259.064 374.128 257.407 373.989C254.912 373.782 252.618 375.647 251.169 377.72C249.72 379.78 245.769 405.256 244.944 413.955C244.106 422.654 259.688 440.253 269.662 443.971C277.815 447.017 316.244 446.471 329.973 446.169C333.016 446.678 334.377 446.264 334.762 446.1V446.113L338.454 446.521H338.467H455.592C459.543 447.225 461.32 446.521 461.32 446.521L463.04 446.465C463.04 446.465 472.567 446.722 477.607 446.477C488.64 445.956 497.272 447.042 501.525 435.975C504.757 427.59 502.294 396.802 501.79 382.28C508.135 382.318 517.983 381.363 520.049 383.417C522.185 385.546 531.561 413.546 534.094 427.603C534.403 429.318 534.61 430.831 534.692 432.062Z" fill="#07CFA0"/>
<path d="M464.728 392.021C464.287 392.128 461.37 392.775 446.569 395.413C430.049 398.365 420.547 389.829 420.547 389.829C420.547 389.829 420.547 389.829 430.679 391.532C440.659 393.221 463.399 389.308 464.004 389.201C463.411 388.567 444.477 368.462 440.647 363.425C436.753 358.293 427.094 339.978 427.094 339.978L432.393 293.38C432.393 293.38 437.376 296.018 442.833 295.717C448.283 295.403 447.968 296.181 451.093 289.499C454.206 282.828 446.412 278.94 446.412 278.94H446.424C446.702 278.94 450.898 278.978 454.042 284.38C457.318 289.963 452.335 295.239 447.666 297.733C442.984 300.22 435.039 296.816 435.039 296.816C435.014 297.475 433.949 324.238 433.483 332.516C433.016 340.901 433.949 338.42 437.074 336.247C439.141 334.803 455.239 323.755 470.298 331.141C472.421 332.183 474.526 333.584 476.561 335.437C481.822 340.21 486.655 347.955 490.347 360.008C492.508 367.049 493.857 373.612 494.563 379.705C498.954 416.768 479.938 436.515 476.013 440.962C471.445 446.138 463.04 446.452 463.04 446.452L461.319 446.508H455.592C452.353 445.918 447.659 444.391 441.283 440.755C427.283 432.791 421.341 406.216 421.19 405.519L421.164 402.228C424.926 402.228 428.644 402.033 431.781 401.939C441.289 401.644 463.361 392.587 464.728 392.021Z" fill="#DA3812"/>
<path d="M479.182 163.931C478.729 218.411 477.418 335.412 477.418 335.412L476.561 335.449C474.526 333.597 472.428 332.196 470.298 331.153L473.052 330.978H473.064C473.064 330.978 474.305 202.716 473.99 182.516C473.713 164.245 472.529 158.687 471.502 158.731L472.655 155.86L472.667 155.848C472.926 155.81 473.675 154.403 473.675 139.034C473.675 120.555 470.714 118.225 466.045 115.122C461.376 112.02 450.154 112.943 439.248 113.106C428.354 113.257 399.37 114.18 397.499 115.122C395.627 116.046 399.219 125.523 392.679 127.232C391.381 127.565 390.309 127.496 389.446 127.15C391.922 126.013 395.3 123.595 394.235 120.863C393.145 118.074 389.087 116.981 387.216 118.533C385.716 119.77 385.918 125.699 389.434 127.15C389.364 127.175 389.308 127.207 389.251 127.232C386.756 128.318 384.569 126.296 383.013 122.414C381.457 118.533 381.608 115.895 379.901 114.972C379.264 114.626 373.997 114.381 367.286 114.193C367.425 111.184 367.469 108.031 367.469 104.903C380.991 105.18 432.903 106.813 443.614 106.109C455.302 105.33 465.894 104.709 471.653 111.85C477.412 118.991 478.968 131.88 479.283 136.697C479.352 137.784 479.296 148.273 479.182 163.931Z" fill="#F8F9FE"/>
<path d="M473.675 139.034C473.675 154.397 472.919 155.81 472.667 155.847L472.655 155.86C472.611 155.86 472.585 155.816 472.585 155.816C472.585 155.816 466.984 139.04 464.174 138.424C461.376 137.796 444.389 167.455 435.518 171.644C426.634 175.846 423.521 171.807 413.389 158.291C403.258 144.781 402.955 146.803 402.955 141.521C402.955 136.239 402.64 135.152 398.904 142.3C395.167 149.447 396.566 150.835 392.981 150.056C389.402 149.278 388.627 147.268 383.328 153.473C378.029 159.691 373.316 164.195 367.494 160.929C363.815 158.856 358.144 153.806 353.727 149.466C358.213 142.683 361.231 136.936 363.38 133.902C365.793 130.51 366.889 122.867 367.28 114.193C373.997 114.375 379.258 114.62 379.894 114.971C381.602 115.895 381.451 118.539 383.007 122.414C384.563 126.296 386.75 128.318 389.245 127.232C389.301 127.207 389.358 127.175 389.427 127.15C389.427 127.15 389.427 127.15 389.44 127.15C390.297 127.496 391.368 127.565 392.672 127.232C399.213 125.517 395.621 116.045 397.492 115.122C399.364 114.186 428.347 113.257 439.242 113.106C450.148 112.943 461.37 112.019 466.039 115.122C470.714 118.225 473.675 120.555 473.675 139.034Z" fill="#9F0EED"/>
<path d="M472.655 155.86L471.502 158.73C471.388 158.73 471.294 158.787 471.187 158.912C470.097 160.15 450.148 171.801 444.856 173.666C439.557 175.532 412.608 180.336 408.254 180.808C403.888 181.272 379.119 181.272 372.579 180.179C369.618 179.696 363.342 179.507 357.035 179.658C349.38 179.834 341.667 180.456 339.701 181.555C337.855 182.585 329.015 182.353 320.824 181.888C336.633 172.611 346.878 159.817 353.721 149.453C358.138 153.793 363.802 158.843 367.488 160.916C373.31 164.182 378.023 159.679 383.322 153.461C388.621 147.255 389.396 149.271 392.975 150.044C396.566 150.823 395.161 149.428 398.898 142.287C402.634 135.145 402.949 136.232 402.949 141.508C402.949 146.784 403.251 144.762 413.383 158.278C423.515 171.788 426.627 175.833 435.511 171.631C444.383 167.442 461.37 137.783 464.167 138.412C466.978 139.027 472.579 155.803 472.579 155.803C472.579 155.803 472.604 155.86 472.655 155.86Z" fill="white"/>
<path d="M394.235 120.869C395.306 123.601 391.923 126.02 389.446 127.156C389.434 127.156 389.434 127.156 389.434 127.156C385.912 125.712 385.716 119.783 387.216 118.539C389.087 116.988 393.139 118.074 394.235 120.869Z" fill="#F8F9FE"/>
<path d="M367.469 104.909C367.469 108.037 367.425 111.184 367.286 114.199C365.837 114.161 364.312 114.117 362.756 114.086C363.09 110.612 363.613 107.566 364.136 104.878C364.382 104.878 364.602 104.878 364.785 104.878C365.32 104.878 366.24 104.89 367.469 104.909Z" fill="#F8F9FE"/>
<path d="M361.754 358.381C363.613 365.133 367.664 386.946 364.319 398.528C360.96 410.098 353.494 431.139 341.113 431.283C328.719 431.446 313.452 424.682 307.775 411.184C302.086 397.674 299.515 379.039 306.37 359.851C313.225 340.675 320.156 334.934 328.568 332.987C332.38 332.108 336.954 332.918 340.836 334.061L327.642 384.151L349.153 337.334L350.526 337.635C347.25 353.431 343.52 382.518 343.52 382.518L355.056 344.644C355.296 344.996 359.933 351.805 361.754 358.381Z" fill="#F99A02"/>
<path d="M367.286 114.199C366.889 122.873 365.799 130.517 363.386 133.908C361.238 136.942 358.219 142.683 353.733 149.472C353.103 148.857 352.505 148.254 351.931 147.676C354.798 142.639 357.3 137.558 358.818 134.235C362.082 127.081 361.754 137.476 362.41 119.287C362.479 117.459 362.592 115.719 362.756 114.086C364.312 114.117 365.831 114.161 367.286 114.199Z" fill="#9F0EED"/>
<path d="M364.136 104.879C363.613 107.567 363.09 110.613 362.756 114.087C352.208 113.829 340.035 113.672 336.28 113.415C329.425 112.95 314 114.193 311.512 115.129C309.017 116.053 304.493 120.248 303.566 125.066C303.428 125.769 303.321 127.427 303.232 129.757C300.737 129.211 298.992 128.621 297.795 127.974C298.141 123.282 298.715 119.312 299.666 117.145C302.943 109.703 316.962 105.658 319.759 104.885C322.494 104.125 356.285 104.829 364.136 104.879Z" fill="#F8F9FE"/>
<path d="M362.756 114.08C362.592 115.713 362.479 117.446 362.41 119.28C361.761 137.47 362.082 127.075 358.818 134.229C357.293 137.551 354.798 142.633 351.931 147.67C350.199 145.899 348.781 144.372 347.968 143.386C345.007 139.806 346.097 135.617 344.225 133.601C342.852 132.106 340.124 134.826 337.975 138.594C337.345 137.087 336.488 135.629 335.341 134.229C329.803 127.395 327.85 133.255 308.613 130.649C306.509 130.372 304.732 130.058 303.232 129.744C303.327 127.414 303.428 125.762 303.566 125.052C304.493 120.235 309.017 116.046 311.512 115.116C314 114.18 329.425 112.937 336.28 113.401C340.035 113.665 352.209 113.829 362.756 114.08Z" fill="#9F0EED"/>
<path d="M357.514 76.0557C361.288 76.4953 360.519 79.3469 361.301 82.7574C360.129 84.202 358.163 84.6919 354.899 83.8565C347.325 81.9283 351.975 75.4088 357.514 76.0557Z" fill="#2F69CC"/>
<path d="M322.62 264.476C322.759 264.488 322.935 264.488 323.143 264.501C322.935 264.488 322.759 264.476 322.62 264.476ZM316.174 265.537C315.884 265.355 310.264 261.857 306.219 263.37C306.011 263.452 305.809 263.521 305.614 263.603C305.009 262.34 303.314 261.995 301.418 262.077V262.064V261.832C302.987 261.725 304.348 261.241 304.348 260.462C304.348 259.212 304.033 209.499 303.661 189.62C310.012 187.548 315.721 184.91 320.831 181.895C329.022 182.36 337.862 182.592 339.708 181.562C341.674 180.463 349.386 179.835 357.041 179.665L357.079 181.587C344.547 181.782 333.048 184.495 328.656 191.209C321.952 201.46 320.862 214.505 325.38 220.56C329.897 226.615 330.679 228.166 334.106 228.166C336.186 228.166 338.114 227.4 339.298 226.797L340.388 226.891C339.96 227.306 339.563 227.795 339.229 228.361C339.065 228.637 338.914 228.939 338.775 229.253C336.601 234.372 333.325 239.811 335.196 244.779C336.337 247.8 337.011 249.954 337.893 251.079C336.998 252.015 336.293 253.177 336.129 254.401C335.663 258.132 335.663 262.171 335.663 262.171C335.663 262.171 349.997 262.95 351.868 263.571L351.604 266.36C339.998 265.292 327.434 264.683 323.54 264.507C326.445 264.715 333.753 265.713 335.934 270.399C336.872 272.415 337.131 274.601 336.564 276.654C335.474 280.567 331.347 283.959 323.263 284.631C318.102 285.058 317.258 283.878 318.071 282.351C319.337 282.201 320.673 281.886 321.813 281.428C324.869 280.191 325.241 277.176 324.195 277.339C323.893 277.383 322.626 278.118 321.303 279.098L318.537 276.862C323.622 274.381 322.381 272.622 319.526 273.816H319.514L316.237 272.691C320.875 270.826 320.011 268.847 317.806 268.954C316.25 269.011 313.73 271.215 311.953 273.633C310.233 273.608 309.168 272.949 308.827 272.164C308.664 271.755 308.676 271.316 308.884 270.914C309.729 269.268 315.834 265.738 316.174 265.537Z" fill="#F8F9FE"/>
<path d="M351.925 147.676C352.492 148.254 353.097 148.857 353.727 149.473C346.884 159.836 336.639 172.63 320.83 181.907C313.068 181.468 305.904 180.821 305.904 180.821C305.904 180.821 311.663 173.365 316.962 168.862C322.261 164.359 333.942 148.518 335.965 142.922C336.501 141.44 337.206 139.957 337.975 138.601C340.413 144.392 339.367 150.779 337.301 156.978C334.686 164.786 335.335 167.7 341.541 162.179C344.855 159.221 348.63 153.474 351.925 147.676Z" fill="white"/>
<path d="M351.925 147.676C348.623 153.48 344.849 159.221 341.541 162.173C335.341 167.694 334.686 164.779 337.301 156.972C339.367 150.779 340.413 144.385 337.975 138.594C340.124 134.832 342.852 132.112 344.225 133.601C346.097 135.617 345.007 139.806 347.968 143.387C348.781 144.373 350.198 145.905 351.925 147.676Z" fill="white"/>
<path d="M340.483 226.125C340.067 226.231 332.758 228.034 329.74 223.355C326.615 218.537 327.868 218.387 327.868 218.387C327.868 218.387 337.521 217.758 343.129 213.883C347.401 210.931 348.334 211.754 348.869 213.418C349.045 213.927 349.172 214.53 349.354 215.12C350.136 217.608 351.698 221.339 349.518 222.89C347.741 224.152 343.198 224.177 340.376 226.897L339.286 226.803C339.953 226.483 340.382 226.194 340.483 226.125Z" fill="black"/>
<path d="M337.975 138.594C337.206 139.951 336.501 141.433 335.965 142.916C333.943 148.506 322.261 164.346 316.962 168.856C311.663 173.359 305.904 180.815 305.904 180.815L303.34 180.896C302.98 175.639 302.76 142.558 303.232 129.751C304.732 130.065 306.509 130.379 308.613 130.655C327.85 133.262 329.803 127.402 335.341 134.236C336.488 135.63 337.351 137.093 337.975 138.594Z" fill="#9F0EED"/>
<path d="M323.142 264.495C322.935 264.482 322.758 264.482 322.62 264.47C322.758 264.476 322.935 264.489 323.142 264.495Z" fill="#F8F9FE"/>
<path d="M304.965 38.2383C309.275 39.5824 312.482 39.6515 312.003 41.341C311.896 41.6739 311.657 42.0947 311.222 42.5909C308.38 45.9386 303.673 43.3446 304.965 38.2383Z" fill="#2F69CC"/>
<path d="M305.904 180.814C305.904 180.814 313.068 181.461 320.831 181.901C315.721 184.91 310.018 187.554 303.661 189.627C303.579 184.928 303.497 181.888 303.403 181.568C303.377 181.474 303.358 181.254 303.333 180.896L305.904 180.814Z" fill="#F8F9FE"/>
<path d="M304.373 48.1182C306.868 51.6041 304.209 52.5399 304.581 55.2281C302.168 57.684 300.088 60.1586 299.156 56.2331C297.852 50.7059 301.122 43.5645 304.373 48.1182Z" fill="#2F69CC"/>
<path d="M303.661 189.627C304.033 209.506 304.348 259.219 304.348 260.469C304.348 261.248 302.987 261.731 301.418 261.838C299.849 261.951 298.072 261.675 297.341 260.946C296.415 260.011 296.856 221.006 297.247 191.448C299.458 190.915 301.594 190.299 303.661 189.627Z" fill="#F8F9FE"/>
<path d="M303.409 181.568C303.503 181.895 303.585 184.929 303.667 189.627C301.6 190.299 299.465 190.914 297.253 191.442C297.486 174.64 297.707 160.885 297.65 158.913C297.543 155.057 296.963 139.392 297.801 127.961C298.998 128.608 300.737 129.198 303.239 129.745C302.76 142.551 302.98 175.633 303.346 180.89C303.358 181.254 303.384 181.474 303.409 181.568Z" fill="#F8F9FE"/>
<path d="M277.645 19.1886C277.821 22.9383 277.09 27.1339 277.065 30.3183C276.17 30.6324 275.169 31.1286 274.06 31.8571C264.602 38.0375 259.713 45.8321 259.064 39.6643C258.843 37.5539 257.911 34.1748 256.726 30.4942C255.296 26.0222 253.507 21.0917 252.139 17.3609C260.356 17.7566 277.374 13.3097 277.645 19.1886Z" fill="#2F69CC"/>
<path d="M265.913 157.299C272.106 164.452 257.111 172.574 250.35 179.728C243.576 186.869 232.985 184.281 224.516 182.322C224.504 182.322 224.491 182.322 224.479 182.309C222.878 181.304 221.309 180.249 219.766 179.137C217.05 175.004 217.642 167.85 214.076 161.199C209.187 152.098 200.069 147.544 197.776 136.503C195.501 125.454 194.846 125.134 194.846 114.733C194.846 112.466 194.72 110.575 194.474 108.955L197.492 108.584C198.664 115.876 216.439 121.284 221.895 125.128C227.434 129.028 238.517 136.496 238.845 141.376C239.172 146.25 259.706 150.151 265.913 157.299Z" fill="#129219"/>
<path d="M246.676 55.2599C249.606 62.7404 243.74 60.7808 232.978 58.1868C227.358 56.8175 226.186 58.7521 226.999 61.2204C222.922 62.7404 217.541 67.8091 211.146 74.4354C209.836 75.7921 208.821 77.0169 208.065 78.1035C205.047 76.4956 200.328 75.164 196.472 74.1088C189.308 72.1492 190.606 84.8303 191.903 92.3673C192.332 94.8546 194.147 97.078 196.585 98.8743C196.679 101.826 197.19 105.275 197.442 108.233C197.454 108.346 197.467 108.465 197.486 108.578L194.468 108.949C193.611 103.158 191.229 100.771 187.663 96.1987C183.095 90.3512 181.469 78.6562 184.733 71.1756C187.984 63.7077 198.419 45.5057 203.636 37.3845C208.853 29.257 217.006 26.3239 225.808 17.562C231.712 11.6768 240.073 9.44712 245.378 9.88678C244.358 10.8854 243.022 11.8527 241.453 12.6881C238.038 14.4969 239.223 18.2718 241.963 22.0214C238.687 22.0654 235.366 22.7877 233.621 24.0565C232.052 25.1933 232.241 26.8954 233.155 28.1076C231.624 28.9869 229.96 30.1426 228.404 31.5244C222.866 36.3984 223.187 43.8789 228.076 47.1199C232.966 50.3734 237.534 38.0314 240.142 41.9193C241.144 43.4267 242.839 44.0611 244.339 44.1176C244.314 47.0256 245.139 51.372 246.676 55.2599Z" fill="#129219"/>
<path d="M201.361 92.3731C208.204 94.584 218.31 101.732 212.765 103.365C209.048 104.451 201.531 102.529 196.585 98.8864C196.421 94.3767 197.228 91.0416 201.361 92.3731Z" fill="#2F69CC"/>
<path d="M89.0681 326.751C89.4777 332.253 91.1852 436.892 96.5157 458.989C93.2393 459.07 89.6478 459.183 85.861 459.321C85.3129 442.482 78.6718 324.377 78.6718 322.247C78.6718 319.999 88.6145 320.671 89.0681 326.751Z" fill="#DA3812"/>
<path d="M42.7572 370.886C48.1696 371.118 44.7924 411.655 44.7924 434.851C44.7924 447.331 43.3495 456.633 43.3621 461.701C41.8499 461.814 40.3629 461.946 38.9263 462.085C38.7436 445.271 32.5814 402.95 31.4599 392.065C30.0989 379.001 26.9422 374.95 25.5812 371.571C24.2266 368.192 37.3322 370.666 42.7572 370.886Z" fill="#F99A02"/>
<path d="M367.469 104.91C367.431 90.3321 366.108 76.0557 366.108 76.0557" stroke="black" stroke-miterlimit="10"/>
<path d="M233.167 28.1203C232.248 26.9018 232.065 25.1997 233.634 24.0691C235.379 22.7941 238.7 22.0781 241.976 22.0341C245.448 21.9964 248.875 22.7187 250.35 24.3957C252.07 26.3616 254.3 29.6277 254.578 31.1916C254.754 32.2091 254.092 32.498 251.893 31.2167C249.109 29.5837 244.736 25.8215 241.976 22.0341C239.235 18.2844 238.051 14.5096 241.466 12.7007C243.035 11.8653 244.37 10.8918 245.391 9.89943C248.863 6.57684 248.875 3.14748 243.091 4.89984C235.6 7.1798 213.748 15.9479 206.257 26.0225C198.753 36.097 184.746 44.8714 179.529 69.8944C174.312 94.9175 170.727 127.408 194.191 154.711C202.205 164.032 210.466 172.449 219.772 179.144C221.316 180.256 222.885 181.311 224.485 182.316C241.535 193.05 262.309 198.006 291.349 192.723C293.372 192.353 295.344 191.938 297.259 191.448" stroke="black" stroke-miterlimit="10"/>
<path d="M233.167 28.12C237.068 25.8714 240.079 25.4946 238.195 28.2958C236.734 30.4816 234.339 29.6902 233.167 28.12Z" stroke="black" stroke-miterlimit="10"/>
<path d="M244.351 44.1301C242.852 44.0736 241.157 43.4329 240.155 41.9318C237.54 38.0439 232.978 50.3859 228.089 47.1324C223.2 43.8914 222.872 36.4109 228.417 31.5369C229.973 30.1614 231.636 28.9994 233.168 28.1201" stroke="black" stroke-miterlimit="10"/>
<path d="M244.351 44.1298C244.377 41.4793 245.12 40.041 246.676 41.2783C248.674 42.8799 246.746 44.2366 244.351 44.1298Z" stroke="black" stroke-miterlimit="10"/>
<path d="M226.999 61.2202C226.186 58.7518 227.358 56.8173 232.979 58.1865C243.734 60.7805 249.6 62.7401 246.676 55.2596C245.145 51.3717 244.32 47.0254 244.351 44.1299" stroke="black" stroke-miterlimit="10"/>
<path d="M226.999 61.2204C228.53 60.6425 229.878 60.5734 231.032 61.1073C235.272 63.0669 236.898 69.5614 232.329 67.2814C230.156 66.2011 227.742 63.4815 226.999 61.2204Z" stroke="black" stroke-miterlimit="10"/>
<path d="M208.065 78.1027C208.821 77.0161 209.829 75.7851 211.146 74.4347C217.548 67.8084 222.922 62.7397 226.999 61.2197" stroke="black" stroke-miterlimit="10"/>
<path d="M208.065 78.1035C210.655 79.4916 211.99 81.0932 210.491 82.8833C207.712 86.1996 203.762 84.3467 208.065 78.1035Z" stroke="black" stroke-miterlimit="10"/>
<path d="M196.585 98.8807C194.147 97.0844 192.332 94.861 191.904 92.3737C190.606 84.8367 189.301 72.1556 196.472 74.1152C200.328 75.1704 205.047 76.5019 208.065 78.1098" stroke="black" stroke-miterlimit="10"/>
<path d="M196.585 98.8802C196.421 94.3768 197.221 91.0416 201.361 92.3732C208.204 94.584 218.31 101.732 212.765 103.365C209.048 104.451 201.537 102.529 196.585 98.8802Z" stroke="black" stroke-miterlimit="10"/>
<path d="M277.059 30.3184C276.164 30.6324 275.162 31.1286 274.053 31.8572C264.596 38.0376 259.706 45.8322 259.057 39.6643C258.837 37.554 257.904 34.1748 256.72 30.4942C255.29 26.0223 253.5 21.0918 252.133 17.3609C251.345 15.1752 250.69 13.3977 250.343 12.3676C250.028 11.4192 249.052 10.7095 247.647 10.2949C246.985 10.0877 246.216 9.96204 245.385 9.88667C240.073 9.447 231.712 11.683 225.814 17.5619C217.012 26.33 208.853 29.2569 203.642 37.3844C198.425 45.4993 187.997 63.7013 184.74 71.1755C181.476 78.6561 183.101 90.3511 187.669 96.1986C191.236 100.771 193.617 103.158 194.474 108.949C194.72 110.569 194.846 112.46 194.846 114.727C194.846 125.128 195.495 125.449 197.776 136.497C200.063 147.545 209.18 152.092 214.076 161.193C217.642 167.838 217.05 174.999 219.766 179.131C220.767 180.658 222.204 181.782 224.479 182.303C224.491 182.316 224.504 182.316 224.516 182.316C232.985 184.275 243.576 186.869 250.35 179.722C257.11 172.568 272.106 164.447 265.913 157.293C259.713 150.151 239.172 146.245 238.844 141.371C238.517 136.497 227.44 129.029 221.895 125.122C216.439 121.278 198.664 115.87 197.492 108.578C197.467 108.465 197.455 108.346 197.448 108.233C197.19 105.281 196.68 101.833 196.591 98.8742" stroke="black" stroke-miterlimit="10"/>
<path d="M277.059 30.3181C277.034 33.2136 277.594 35.2863 279.919 35.4371C284.229 35.726 283.731 27.9188 277.059 30.3181Z" stroke="black" stroke-miterlimit="10"/>
<path d="M362.983 62.2878C364.867 61.5027 366.316 59.2542 363.701 55.2595C358.163 46.8055 335.669 20.4885 323.603 15.288C311.543 10.0874 292.634 0.666074 281.879 0.339468C271.124 0.0128621 251.074 2.94604 250.343 5.54004C249.984 6.81506 248.541 8.47949 247.647 10.301C246.683 12.1978 246.298 14.2705 248.296 16.2615C248.995 16.9587 250.35 17.2665 252.127 17.3607C260.349 17.7564 277.368 13.3095 277.632 19.1884C277.809 22.9381 277.078 27.1337 277.053 30.3181" stroke="black" stroke-miterlimit="10"/>
<path d="M362.983 62.2876C362.737 59.0341 362.032 57.376 360.116 59.8067C358.226 62.206 360.872 63.1669 362.983 62.2876Z" stroke="black" stroke-miterlimit="10"/>
<path d="M361.301 82.7638C362.87 80.8544 363.052 77.2492 363.052 72.8149C363.052 69.1782 363.191 65.127 362.983 62.2881" stroke="black" stroke-miterlimit="10"/>
<path d="M361.301 82.7633C360.519 79.3465 361.288 76.5012 357.514 76.0615C351.975 75.4146 347.325 81.9342 354.899 83.8687C358.163 84.6915 360.129 84.2079 361.301 82.7633Z" stroke="black" stroke-miterlimit="10"/>
<path d="M364.136 104.879C365.818 96.2613 367.608 91.3308 364.029 87.7632C362.365 86.0988 361.66 84.3716 361.301 82.7637" stroke="black" stroke-miterlimit="10"/>
<path d="M337.509 62.332C338.952 62.9664 340.716 63.6196 342.19 64.3608C346.103 66.3078 346.758 67.9409 342.19 72.4757C337.622 77.0293 336.324 76.3761 325.229 77.6888C314.145 78.9827 312.52 75.0822 307.63 85.4834C302.741 95.8845 296.875 89.0635 296.875 98.1645C296.875 107.253 299.477 105.959 298.828 110.186C298.179 114.413 293.29 111.48 295.249 117.654C296.629 122.044 293.101 125.449 297.795 127.974" stroke="black" stroke-miterlimit="10"/>
<path d="M337.509 62.3319C338.719 59.7944 338.114 57.1188 335.675 58.8334C333.647 60.2529 335.14 61.283 337.509 62.3319Z" stroke="black" stroke-miterlimit="10"/>
<path d="M327.787 66.0185C330.527 65.3841 333.514 66.4016 335.675 64.687C336.488 64.0275 337.106 63.1921 337.509 62.3379" stroke="black" stroke-miterlimit="10"/>
<path d="M327.787 66.0312C327.812 66.226 327.831 66.4269 327.843 66.6342C328.171 71.5082 320.616 74.2089 323.931 68.9142C325.046 67.1178 326.381 66.3516 327.787 66.0312Z" stroke="black" stroke-miterlimit="10"/>
<path d="M327.787 66.0321V66.0186" stroke="black" stroke-miterlimit="10"/>
<path d="M327.257 63.6064C327.478 64.335 327.685 65.1453 327.792 66.012" stroke="black" stroke-miterlimit="10"/>
<path d="M327.257 63.6067C330.698 62.3003 330.194 59.6435 327.522 59.1599C324.743 58.6637 326.268 60.4914 327.257 63.6067Z" stroke="black" stroke-miterlimit="10"/>
<path d="M304.581 55.2217C304.694 56.0445 305.091 57.018 306.011 58.293C309.911 63.7134 311.549 62.7399 306.339 66.6278C301.122 70.5282 296.232 76.0554 303.724 75.0818C311.228 74.1083 313.83 64.3604 322.311 64.3604C324.46 64.3604 326.098 64.0714 327.257 63.6067" stroke="black" stroke-miterlimit="10"/>
<path d="M304.581 55.2216C302.168 57.6774 300.088 60.1521 299.156 56.2265C297.858 50.7056 301.122 43.558 304.373 48.1116C306.868 51.5975 304.209 52.5396 304.581 55.2216Z" stroke="black" stroke-miterlimit="10"/>
<path d="M263.298 5.54038C268.836 5.54038 279.919 5.21377 285.47 8.46727C291.009 11.7082 300.466 11.7082 304.694 16.2619C308.935 20.8155 309.911 26.0098 303.069 25.6895C296.226 25.3691 289.698 28.943 297.851 34.7905C300.277 36.5303 302.766 37.5478 304.959 38.2387C309.269 39.5828 312.476 39.6519 311.997 41.3414C311.89 41.6743 311.65 42.0951 311.215 42.5913C308.368 45.939 303.667 43.345 304.952 38.2387C305.286 36.9197 306.024 35.4248 307.296 33.8169C313.49 26.0098 315.116 29.9165 315.45 37.397C315.506 38.7725 315.406 40.1041 315.16 41.3603C314.114 46.8937 310.548 51.0768 307.624 52.6721C306.591 53.2374 305.545 54.2361 304.568 55.2285" stroke="black" stroke-miterlimit="10"/>
<path d="M444.32 278.878L446.412 278.947" stroke="black" stroke-miterlimit="10"/>
<path d="M408.765 370.528L412.123 371.615" stroke="black" stroke-miterlimit="10"/>
<path d="M396.125 316.908L399.578 316.72" stroke="black" stroke-miterlimit="10"/>
<path d="M355.05 344.651C355.296 344.997 359.927 351.805 361.754 358.382C363.613 365.133 367.664 386.947 364.319 398.529C360.96 410.098 353.494 431.139 341.113 431.284C328.719 431.447 313.452 424.683 307.775 411.185C302.086 397.675 299.515 379.039 306.37 359.851C313.225 340.676 320.156 334.935 328.568 332.988C332.38 332.109 336.954 332.919 340.836 334.062C345.504 335.45 349.153 337.341 349.153 337.341L327.642 384.158L340.836 334.068L344.54 320.024C344.54 320.024 324.907 312.035 311.203 323.755C308.947 325.69 306.767 328.051 304.675 330.752C296.415 341.429 289.774 357.289 287.31 371.879C286.605 376.05 286.239 380.126 286.277 383.932C286.485 404.427 292.307 428.244 311.203 438.601C320.522 443.707 326.394 445.585 329.973 446.176C333.016 446.684 334.377 446.27 334.762 446.107C334.844 446.069 334.875 446.05 334.875 446.05C334.875 446.05 333.042 446.107 329.973 446.176C316.244 446.477 277.815 447.024 269.662 443.977C259.681 440.259 244.106 422.66 244.944 413.961C245.769 405.262 249.72 379.793 251.169 377.727C252.618 375.654 254.912 373.789 257.407 373.996C259.07 374.134 269.403 374.831 276.674 374.517C280.253 374.379 283.089 373.983 283.769 373.16C284.626 372.118 285.256 370.61 285.767 368.908C286.472 366.534 286.995 363.764 287.72 361.359C288.961 357.213 298.311 341.687 298.311 334.853C298.311 328.02 297.681 285.988 297.681 285.988C297.681 285.988 300.177 284.412 301.953 284.631C302.754 284.726 303.415 285.184 303.623 286.321C304.329 289.97 304.253 330.425 304.253 330.425" stroke="black" stroke-miterlimit="10"/>
<path d="M295.835 280.7C295.722 281.548 296.787 282.427 298.633 283.099C299.855 283.539 301.015 283.934 302.073 284.104C304.014 284.418 305.627 283.991 306.629 281.755C306.723 281.535 306.811 281.315 306.893 281.095C308.122 277.735 307.674 273.74 307 272.434C306.547 271.58 305.293 270.43 304.663 271.102C304.266 271.53 304.115 272.691 304.606 275.122C305.06 277.39 305.791 279.362 306.893 281.095C308.834 284.129 311.934 286.459 316.754 288.532C324.34 291.798 342.039 295.34 343.759 296.578C345.467 297.828 349.669 300.309 348.812 306.985C347.962 313.668 346.639 315.829 346.475 316.771C346.324 317.694 348.661 315.917 350.608 317.468C352.549 319.019 356.14 320.106 352.631 329.427C351.982 331.154 351.257 334.056 350.514 337.648C347.237 353.445 343.507 382.532 343.507 382.532L355.044 344.658V344.645" stroke="black" stroke-miterlimit="10"/>
<path d="M295.835 280.699C297.681 281.647 299.414 281.81 300.819 281.333C303.094 280.554 303.529 277.722 298.998 278.796C296.913 279.286 295.936 279.976 295.835 280.699Z" stroke="black" stroke-miterlimit="10"/>
<path d="M316.187 265.538C316.187 265.538 316.187 265.538 316.174 265.538C315.884 265.355 310.264 261.857 306.219 263.371C306.011 263.452 305.809 263.521 305.614 263.603C301.897 265.004 300.447 265.852 301.43 267.773C301.916 268.709 302.697 269.476 303.484 269.463C304.404 269.45 305.318 268.408 305.797 265.387C305.91 264.646 305.835 264.068 305.614 263.603C305.009 262.341 303.314 261.995 301.418 262.077C298.677 262.19 295.508 263.201 294.632 263.628C293.038 264.407 290.127 266.856 292.004 268.979C292.156 269.155 292.338 269.312 292.553 269.476C294.166 270.7 295.993 271.479 297.398 271.655C298.526 271.781 299.383 271.548 299.66 270.876C300.227 269.52 294.991 266.166 292.004 268.979C291.67 269.281 291.368 269.677 291.097 270.148C289.761 272.553 290.366 274.224 291.664 275.311C292.943 276.378 294.871 276.875 296.289 276.975C299.149 277.182 302.571 274.601 298.475 273.929C298.091 273.872 297.707 273.822 297.316 273.803C294.959 273.652 292.521 274.199 291.67 275.311C291.122 276.008 291.204 276.918 292.3 278.018C293.498 279.236 294.695 280.115 295.829 280.693" stroke="black" stroke-miterlimit="10"/>
<path d="M323.527 264.52C326.432 264.727 333.741 265.725 335.921 270.411C336.86 272.427 337.118 274.613 336.551 276.667C335.461 280.58 331.334 283.971 323.25 284.643C318.09 285.071 317.245 283.89 318.058 282.363C318.625 281.308 319.986 280.096 321.291 279.11C322.614 278.124 323.88 277.395 324.183 277.351C325.229 277.188 324.857 280.203 321.801 281.44C320.66 281.905 319.325 282.219 318.058 282.363C315.91 282.627 313.982 282.433 313.585 281.748C313.32 281.271 313.874 279.908 314.839 278.425C316.048 276.547 317.894 274.5 319.495 273.828H319.507C322.368 272.634 323.609 274.393 318.518 276.874C317.22 277.508 315.96 278.042 314.839 278.425C311.55 279.537 309.332 279.411 310.113 276.981C310.441 275.938 311.102 274.77 311.934 273.646C313.711 271.228 316.231 269.023 317.787 268.966C319.993 268.86 320.856 270.844 316.218 272.704C316.055 272.76 315.891 272.829 315.721 272.886C314.234 273.432 312.967 273.652 311.934 273.639C310.214 273.614 309.149 272.955 308.809 272.17C308.645 271.761 308.657 271.322 308.865 270.92C309.722 269.262 315.834 265.732 316.174 265.537" stroke="black" stroke-miterlimit="10"/>
<path d="M322.62 264.476C322.758 264.476 322.935 264.488 323.142 264.501" stroke="black" stroke-miterlimit="10"/>
<path d="M323.143 264.495C322.935 264.482 322.759 264.482 322.62 264.47C322.412 264.457 322.305 264.457 322.305 264.457" stroke="black" stroke-miterlimit="10"/>
<path d="M323.143 264.494C323.256 264.494 323.389 264.507 323.527 264.519" stroke="black" stroke-miterlimit="10"/>
<path d="M370.481 269.117C368.925 268.69 367.053 268.282 364.791 267.924C361.004 267.321 356.38 266.812 351.597 266.372C339.991 265.305 327.427 264.695 323.534 264.52" stroke="black" stroke-miterlimit="10"/>
<path d="M370.481 269.117C371.722 271.63 373.329 273.332 374.457 273.671C377.481 274.594 379.063 271.504 370.481 269.117Z" stroke="black" stroke-miterlimit="10"/>
<path d="M380.209 243.762C379.201 244.49 378.061 245.338 376.782 246.343C373.726 248.73 371.703 251.274 370.43 253.811C367.564 259.564 368.584 265.299 370.475 269.118" stroke="black" stroke-miterlimit="10"/>
<path d="M380.209 243.761C381.696 245.325 383.253 245.451 384.727 244.477C387.285 242.775 390.618 236.299 380.209 243.761Z" stroke="black" stroke-miterlimit="10"/>
<path d="M351.541 211.408C351.541 211.408 351.553 211.446 351.566 211.521C351.893 212.621 354.678 221.502 362.139 219.165C370.084 216.684 371.489 209.543 371.489 209.543C371.489 209.543 379.901 212.332 379.586 218.079C379.321 223.022 375.465 226.369 375.906 232.562C375.975 233.561 376.152 234.623 376.473 235.784C377.576 239.767 378.867 242.348 380.216 243.761" stroke="black" stroke-miterlimit="10"/>
<path d="M342.039 228.637C342.039 228.637 342.039 228.637 342.039 228.649C342.304 229.058 348.264 238.027 354.968 234.692C361.824 231.275 364.47 222.431 364.47 222.431C364.47 222.431 358.396 223.819 355.283 219.793C353.437 217.394 352.461 214.882 351.982 213.249C351.717 212.382 351.597 211.754 351.566 211.521" stroke="black" stroke-miterlimit="10"/>
<path d="M356.235 249.364C360.217 251.11 365.68 252.505 368.213 253.026C368.666 253.12 368.899 253.12 368.956 253.026C369.385 252.379 360.513 247.317 358.862 244.17C356.991 240.602 360.897 242.782 366.341 240.916C371.508 239.158 374.854 236.978 374.4 232.789C374.375 232.557 374.331 232.312 374.287 232.06C373.36 227.406 367.494 221.659 367.494 221.659C367.494 221.659 366.807 228.951 363.077 231.91C359.335 234.862 354.351 241.695 348.113 235.948C342.178 230.459 342.039 228.794 342.039 228.656" stroke="black" stroke-miterlimit="10"/>
<path d="M356.235 249.364C356.096 247.361 355.668 245.476 354.653 244.478C352.631 242.462 349.669 243.699 352.007 246.657C352.763 247.618 354.332 248.529 356.235 249.364Z" stroke="black" stroke-miterlimit="10"/>
<path d="M337.881 251.091C336.986 252.027 336.28 253.189 336.116 254.414C335.65 258.145 335.65 262.183 335.65 262.183C335.65 262.183 349.984 262.962 351.856 263.584C353.727 264.2 355.75 257.994 356.058 255.036C356.222 253.554 356.373 251.387 356.235 249.364" stroke="black" stroke-miterlimit="10"/>
<path d="M337.881 251.091C338.448 251.82 339.103 252.121 340.016 251.939C342.354 251.474 342.19 251.311 342.19 249.452C342.19 248.196 339.683 249.176 337.881 251.091Z" stroke="black" stroke-miterlimit="10"/>
<path d="M340.508 226.112C340.508 226.112 340.495 226.112 340.483 226.125C340.067 226.231 332.758 228.034 329.74 223.355C326.615 218.537 327.869 218.387 327.869 218.387C327.869 218.387 337.521 217.758 343.129 213.883C347.401 210.931 348.334 211.754 348.869 213.418C349.046 213.927 349.172 214.53 349.354 215.12C350.136 217.608 351.698 221.339 349.518 222.89C347.741 224.152 343.198 224.177 340.376 226.897C339.947 227.312 339.55 227.802 339.216 228.367C339.052 228.643 338.901 228.945 338.763 229.259C336.589 234.378 333.312 239.817 335.184 244.785C336.324 247.806 336.998 249.961 337.88 251.085" stroke="black" stroke-miterlimit="10"/>
<path d="M415.758 216.747C415.721 214.247 414.164 212.049 409.035 208.921C401.903 204.568 384.21 204.474 376.164 205.969C374.721 206.233 373.6 206.56 372.888 206.905C372.258 207.219 372.031 207.382 372.106 207.414C372.283 207.483 373.94 206.936 376.158 205.969C380.493 204.091 386.97 200.599 388.936 196.962C392.364 190.606 395.01 186.253 376.788 183.151C370.512 182.083 363.651 181.493 357.073 181.599C344.54 181.794 333.041 184.507 328.65 191.222C321.946 201.472 320.856 214.517 325.373 220.572C329.891 226.627 330.672 228.178 334.1 228.178C336.179 228.178 338.107 227.412 339.292 226.809C339.953 226.483 340.382 226.194 340.489 226.124" stroke="black" stroke-miterlimit="10"/>
<path d="M415.758 216.747C411.927 217.532 411.531 220.509 411.203 222.745C410.737 225.999 412.69 227.889 414.479 222.268C415.179 220.082 415.777 218.342 415.758 216.747Z" stroke="black" stroke-miterlimit="10"/>
<path d="M419.961 253.773C420.717 253.227 432.903 244.616 438.939 244.013C445.164 243.385 449.058 242.926 449.058 242.926C449.058 242.926 434.724 219.938 423.515 217.3C419.986 216.465 417.51 216.377 415.752 216.748" stroke="black" stroke-miterlimit="10"/>
<path d="M419.937 253.798C419.923 253.798 419.923 253.798 419.923 253.798" stroke="black" stroke-miterlimit="10"/>
<path d="M419.936 253.8C419.949 253.786 419.949 253.787 419.962 253.773" stroke="black" stroke-miterlimit="10"/>
<path d="M413.9 295.578C421.517 294.071 433.495 290.127 437.849 286.258C439.601 284.694 441.938 282.068 444.32 278.884C449.745 271.598 455.422 261.385 454.981 254.269C454.351 244.019 442.518 244.948 435.196 247.436C428.133 249.822 420.503 253.528 419.955 253.779" stroke="black" stroke-miterlimit="10"/>
<path d="M413.9 295.579C412.028 292.382 410.68 291.295 408.09 292.149C403.421 293.701 403.573 295.729 408.254 296.188C409.401 296.307 411.424 296.075 413.9 295.579Z" stroke="black" stroke-miterlimit="10"/>
<path d="M426.842 381.068C427.327 381.426 427.982 381.59 428.814 381.439C433.168 380.66 436.293 378.958 433.016 371.502C429.74 364.047 424.756 356.598 424.756 352.873C424.756 351.473 425.128 346.391 425.222 339.954C425.386 329.257 424.769 314.836 420.402 307.368C417.277 302.042 415.418 298.142 413.9 295.579" stroke="black" stroke-miterlimit="10"/>
<path d="M426.842 381.068C428.946 378.53 430.446 376.005 428.354 375.384C425.827 374.63 424.832 379.548 426.842 381.068Z" stroke="black" stroke-miterlimit="10"/>
<path d="M404.07 380.013C402.64 380.276 401.443 380.647 400.769 381.137C398.633 382.676 396.762 385.477 398.841 387.55V387.562C399.49 388.197 400.504 388.768 402.01 389.208C408.399 391.073 420.711 387.657 423.66 384.554C424.636 383.536 425.796 382.299 426.829 381.068" stroke="black" stroke-miterlimit="10"/>
<path d="M404.07 380.013C404.196 380.936 404.883 381.759 406.383 382.211C409.962 383.298 414.164 381.91 414.794 380.509C415.267 379.448 408.557 379.19 404.07 380.013Z" stroke="black" stroke-miterlimit="10"/>
<path d="M395.067 215.912C397.404 216.572 404.764 219.894 402.791 234.855C400.454 252.549 397.184 255.35 398.123 257.831C399.049 260.318 400.618 265.449 408.09 264.677C408.569 264.633 409.042 264.57 409.521 264.514C416.433 263.59 422.532 261.398 424.145 259.081C425.607 256.939 426.734 253.195 420.976 256.242C420.049 256.738 418.921 257.41 417.598 258.302C415.286 259.853 412.476 262.02 409.527 264.507C400.359 272.22 389.957 283.023 389.724 287.954C389.409 294.473 391.595 300.528 394.544 305.032C396.402 307.845 398.123 312.43 399.584 316.714C400.454 319.283 401.235 321.751 401.872 323.673C403.579 328.792 416.823 356.12 416.357 363.262C416.137 366.622 414.265 369.423 412.142 371.609H412.129C409.722 374.077 406.994 375.717 405.917 376.458C404.745 377.268 403.875 378.725 404.083 380" stroke="black" stroke-miterlimit="10"/>
<path d="M395.066 215.912C393.964 214.907 394.38 215.749 394.38 215.749C394.38 215.749 394.638 215.787 395.066 215.912Z" stroke="black" stroke-miterlimit="10"/>
<path d="M335.121 285.133C335.826 284.75 340.93 282.005 342.404 279.945C342.669 279.587 342.82 279.248 342.82 278.947C342.82 276.874 339.67 275.637 339.405 276.912C339.405 276.956 339.393 277.018 339.393 277.088C339.393 277.816 340.577 278.871 342.398 279.945C344.408 281.164 347.193 282.401 349.984 283.306C355.283 285.008 373.19 289.511 376.782 288.424C380.361 287.338 383.946 281.754 385.029 279.116C386.119 276.478 398.582 251.625 399.528 240.753C400.454 229.88 402.476 224.133 397.971 219.021C396.497 217.344 395.615 216.414 395.067 215.918" stroke="black" stroke-miterlimit="10"/>
<path d="M335.121 285.133C334.503 284.97 335.039 285.171 335.039 285.171C335.039 285.171 335.058 285.152 335.121 285.133Z" stroke="black" stroke-miterlimit="10"/>
<path d="M398.274 369.171C398.274 369.171 398.274 369.159 398.261 369.146C398.249 369.134 398.249 369.134 398.249 369.121C397.077 367.363 359.045 309.836 360.576 308.919C361.401 308.423 369.347 307.763 377.166 307.474C384.16 307.211 391.059 307.255 392.672 307.983C396.1 309.534 387.991 301.928 387.216 295.874C386.434 289.819 378.955 299.29 355.132 291.533C340.287 286.691 336.141 285.41 335.121 285.127" stroke="black" stroke-miterlimit="10"/>
<path d="M395.268 325.162C396.73 323.705 396.906 321.651 396.717 319.641C396.636 318.787 396.415 317.845 396.125 316.909H396.113C395.243 314.108 393.756 311.407 393.756 311.407L377.248 309.855C377.248 309.855 372.1 315.91 372.73 319.013C373.36 322.116 375.225 326.782 377.399 328.02C379.535 329.238 397.555 367.633 398.249 369.128" stroke="black" stroke-miterlimit="10"/>
<path d="M395.268 325.162C393.825 323.403 392.71 322.857 391.273 323.365C388.627 324.289 383.725 327.624 390.032 327.096C392.609 326.876 394.241 326.16 395.268 325.162Z" stroke="black" stroke-miterlimit="10"/>
<path d="M359.026 327.096L359.051 327.121L395.476 382.839C395.476 382.839 397.814 378.185 400.145 378.185C402.483 378.185 402.18 373.681 405.293 372.13C406.591 371.483 407.838 371.125 408.765 370.535C410.044 369.681 410.68 368.324 409.962 364.989C408.72 359.248 404.511 339.363 399.994 332.221C397.94 328.968 396.484 326.638 395.268 325.168" stroke="black" stroke-miterlimit="10"/>
<path d="M421.158 402.234L421.183 405.525C421.335 406.223 427.283 432.797 441.277 440.761C447.653 444.398 452.347 445.924 455.586 446.514C459.536 447.218 461.313 446.514 461.313 446.514H455.586H338.467C338.467 446.514 368.364 445.886 375.849 413.898C383.328 381.915 377.254 363.714 374.142 356.811C371.073 350.046 359.473 327.944 359.051 327.121" stroke="black" stroke-miterlimit="10"/>
<path d="M464.728 392.021C463.355 392.587 441.289 401.644 431.775 401.945C428.637 402.039 424.92 402.234 421.158 402.234C413.169 402.234 404.94 401.355 401.55 396.814C396.566 390.131 396.566 390.131 396.566 390.131C396.566 390.131 393.139 403.49 398.438 410.161C403.737 416.843 410.737 419.481 416.199 414.048C421.448 408.804 421.209 405.72 421.183 405.513" stroke="black" stroke-miterlimit="10"/>
<path d="M464.023 389.208C464.023 389.208 464.023 389.208 464.01 389.208C463.405 389.315 440.659 393.228 430.685 391.538C420.553 389.836 420.553 389.836 420.553 389.836C420.553 389.836 430.055 398.372 446.576 395.42C461.376 392.782 464.287 392.129 464.735 392.028C464.779 392.016 464.804 392.003 464.804 392.003" stroke="black" stroke-miterlimit="10"/>
<path d="M435.039 296.829C435.039 296.829 442.984 300.233 447.666 297.746C452.335 295.258 457.319 289.976 454.042 284.392C450.892 278.985 446.702 278.953 446.424 278.953H446.412C446.412 278.953 454.206 282.841 451.093 289.511C447.968 296.194 448.283 295.415 442.833 295.729C437.377 296.031 432.393 293.393 432.393 293.393L427.094 339.991C427.094 339.991 436.759 358.312 440.647 363.437C444.478 368.475 463.411 388.573 464.004 389.214" stroke="black" stroke-miterlimit="10"/>
<path d="M182.704 442.068C193.913 442.068 186.819 482.687 201.374 482.687C249.606 482.687 363.159 482.687 445.87 482.687C498.526 482.687 538.681 482.687 541.478 482.687C550.041 482.687 558.056 480.312 556.6 471.199C555.636 465.163 549.991 431.447 545.649 407.454C543.431 395.213 541.56 385.509 540.817 383.298C538.643 376.822 539.355 375.654 533.653 373.713C533.615 373.701 533.583 373.688 533.545 373.676C531.649 373.041 528.933 372.357 525.808 371.766C519.375 370.548 511.209 369.706 504.99 370.259C495.747 371.081 498.753 368.814 497.927 371.703C497.392 373.544 495.684 377.073 495.986 379.529C496.163 380.917 496.988 381.96 499.068 382.155C499.849 382.224 500.775 382.261 501.783 382.261C508.128 382.299 517.976 381.344 520.043 383.398C522.179 385.528 531.554 413.528 534.087 427.584C534.402 429.312 534.61 430.825 534.692 432.056C535.411 443.343 539.153 465.081 538.435 468.812C537.704 472.543 534.907 474.509 524.309 473.674C513.717 472.851 432.285 473.479 428.347 473.479C424.397 473.479 311.512 473.479 303.51 473.272C295.52 473.064 246.5 472.229 243.173 470.885C239.846 469.541 235.694 471.72 236.62 464.874C237.559 458.04 246.078 395.106 247.004 389.409C247.943 383.712 248.573 377.714 251.27 375.12C252.662 373.776 255.101 373.142 257.659 372.941C260.028 372.759 262.517 372.966 264.363 373.355C266.347 373.782 271.772 374.247 276.674 374.505C281.217 374.762 285.294 374.85 285.748 374.599C286.201 374.354 286.712 373.079 286.888 371.798C287.065 370.428 286.863 369.065 285.855 368.915C285.83 368.915 285.811 368.902 285.773 368.902C283.889 368.695 267.708 368.72 257.476 369.235C253.456 369.43 250.356 369.712 249.405 370.083C245.977 371.389 239.122 372.118 237.257 381.533C235.385 390.961 222.714 440.24 221.681 450.698C220.648 461.156 216.174 473.673 224.901 477.605C233.627 481.543 286.8 479.885 292.401 479.885C298.009 479.885 405.091 479.678 416.508 480.199C421.095 480.407 432.897 480.513 445.876 480.513C465.226 480.513 487.203 480.268 491.809 479.785C499.496 478.949 542.278 481.858 546.128 479.578C549.972 477.298 551.005 470.257 551.528 467.468C551.969 465.138 547.407 425.311 544.068 407.743C543.406 404.257 542.801 401.651 542.278 400.388C539.166 392.725 540.407 381.847 536.469 387.965C535.612 389.296 535.089 391.934 534.831 395.332C534.194 403.993 535.31 417.623 536.979 427.094C537.641 430.894 538.397 434.016 539.166 435.894C542.593 444.279 545.813 439.933 540.93 418.917C539.002 410.639 536.885 402.379 534.831 395.332C531.674 384.491 528.65 376.483 526.697 375.541C526.363 375.378 525.846 375.239 525.21 375.126C519.671 374.109 504.045 374.605 502.186 374.605C501.689 374.605 501.638 377.595 501.789 382.268C502.287 396.789 504.751 427.578 501.525 435.963C497.272 447.03 488.64 445.943 477.607 446.465C472.566 446.71 463.04 446.452 463.04 446.452C463.04 446.452 471.451 446.138 476.013 440.963C479.938 436.516 498.954 416.775 494.562 379.705C493.857 373.613 492.508 367.049 490.347 360.008C486.655 347.955 481.822 340.205 476.561 335.437C474.526 333.585 472.428 332.184 470.298 331.141C455.245 323.755 439.147 334.803 437.074 336.248C433.949 338.427 433.023 340.902 433.482 332.517C433.949 324.239 435.014 297.476 435.039 296.816C435.039 296.804 435.039 296.804 435.039 296.804" stroke="black" stroke-miterlimit="10"/>
<path d="M389.446 127.157C390.303 127.502 391.374 127.571 392.679 127.239C399.219 125.524 395.627 116.052 397.499 115.129C399.37 114.193 428.354 113.264 439.248 113.113C450.155 112.95 461.376 112.026 466.045 115.129C470.714 118.232 473.675 120.562 473.675 139.04C473.675 154.403 472.919 155.817 472.667 155.854L472.655 155.867C472.611 155.867 472.585 155.823 472.585 155.823C472.585 155.823 466.984 139.047 464.174 138.431C461.376 137.803 444.389 167.461 435.518 171.651C426.634 175.853 423.521 171.814 413.389 158.298C403.258 144.787 402.955 146.81 402.955 141.528C402.955 136.245 402.64 135.159 398.904 142.306C395.167 149.454 396.566 150.842 392.981 150.063C389.402 149.284 388.627 147.275 383.328 153.48C378.029 159.698 373.316 164.202 367.494 160.936C363.815 158.863 358.144 153.813 353.727 149.473C353.097 148.857 352.498 148.254 351.925 147.677C350.192 145.905 348.775 144.379 347.962 143.393C345 139.813 346.09 135.624 344.219 133.607C342.846 132.113 340.117 134.832 337.969 138.601C337.2 139.957 336.494 141.44 335.959 142.922C333.936 148.512 322.255 164.352 316.956 168.862C311.657 173.365 305.898 180.821 305.898 180.821C305.898 180.821 313.062 181.468 320.824 181.907C329.015 182.372 337.855 182.605 339.701 181.575C341.667 180.475 349.38 179.847 357.035 179.678C363.342 179.527 369.618 179.715 372.579 180.199C379.119 181.286 403.881 181.286 408.254 180.827C412.608 180.35 439.557 175.545 444.856 173.686C450.155 171.82 470.097 160.176 471.187 158.932C471.294 158.806 471.382 158.75 471.502 158.75C472.522 158.706 473.707 164.264 473.991 182.535C474.306 202.729 473.064 330.997 473.064 330.997" stroke="black" stroke-miterlimit="10"/>
<path d="M477.418 335.412C477.418 335.412 478.729 218.411 479.182 163.931C479.296 148.273 479.359 137.784 479.289 136.71C478.974 131.892 477.418 119.004 471.659 111.863C465.9 104.721 455.302 105.343 443.621 106.122C432.909 106.825 380.997 105.198 367.475 104.916C366.247 104.891 365.327 104.878 364.791 104.878C364.609 104.878 364.382 104.878 364.142 104.878C356.291 104.834 322.5 104.124 319.772 104.878C316.974 105.657 302.949 109.696 299.679 117.138C298.727 119.305 298.154 123.275 297.807 127.967C296.969 139.398 297.549 155.062 297.656 158.919C297.713 160.885 297.492 174.646 297.259 191.448C296.862 221.012 296.421 260.01 297.354 260.946C298.085 261.674 299.861 261.951 301.43 261.837C302.999 261.731 304.36 261.247 304.36 260.468C304.36 259.218 304.045 209.505 303.673 189.626C303.592 184.928 303.51 181.888 303.415 181.568C303.39 181.474 303.371 181.254 303.346 180.896C302.987 175.639 302.766 142.557 303.239 129.75C303.333 127.42 303.434 125.768 303.573 125.059C304.499 120.241 309.023 116.052 311.518 115.122C314.007 114.186 329.431 112.943 336.286 113.408C340.035 113.665 352.215 113.822 362.762 114.08C364.319 114.117 365.843 114.161 367.293 114.193C374.009 114.375 379.271 114.62 379.907 114.972C381.614 115.895 381.463 118.539 383.019 122.414C384.576 126.296 386.762 128.318 389.257 127.232C389.314 127.207 389.371 127.175 389.44 127.15C389.44 127.15 389.44 127.15 389.453 127.15C391.929 126.013 395.306 123.595 394.241 120.863C393.151 118.074 389.093 116.981 387.222 118.533C385.723 119.77 385.924 125.699 389.44 127.15" stroke="black" stroke-miterlimit="10"/>
<path d="M626.067 71.2628C627.472 70.6724 628.562 69.8371 628.946 68.8573C629.759 66.728 631.284 63.5876 627.516 69.1713C626.936 70.0318 626.451 70.7164 626.067 71.2628Z" stroke="black" stroke-miterlimit="10"/>
<path d="M610.617 54.6123C609.999 56.371 607.366 58.5944 610.409 62.7649C613.673 67.2369 615.494 65.1014 615.494 65.1014C615.494 65.1014 617.025 72.0041 620.49 72.2113C622.362 72.3181 624.428 71.9538 626.067 71.2629" stroke="black" stroke-miterlimit="10"/>
<path d="M610.617 54.613C612.035 54.4497 613.383 53.7902 614.889 53.1307C616.514 52.4147 611.02 52.4147 610.705 54.2424C610.686 54.3555 610.661 54.4874 610.617 54.613Z" stroke="black" stroke-miterlimit="10"/>
<path d="M608.758 42.8486C607.309 43.483 606.049 44.6575 606.131 46.7302C606.326 51.8115 608.777 54.7572 610.302 54.6504C610.409 54.6378 610.51 54.6378 610.617 54.6127" stroke="black" stroke-miterlimit="10"/>
<path d="M608.758 42.8481C610.012 43.7525 612.217 42.7225 612.955 42.3644C613.427 42.1195 610.882 41.9185 608.758 42.8481Z" stroke="black" stroke-miterlimit="10"/>
<path d="M622.752 33.2138C621.902 31.7692 620.742 30.5381 619.268 30.3874C615.292 29.9791 609.697 29.8787 608.569 33.8356C607.454 37.7988 607.246 40.9456 608.374 42.4593C608.487 42.61 608.62 42.7356 608.758 42.8424" stroke="black" stroke-miterlimit="10"/>
<path d="M622.752 33.2139C623.332 35.4122 623.553 37.6042 624.252 38.3077C624.706 38.7473 624.183 35.6697 622.752 33.2139Z" stroke="black" stroke-miterlimit="10"/>
<path d="M619.514 24.5526C619.514 24.5526 619.514 24.5526 619.514 24.5401C619.514 24.427 618.865 21.7514 616.924 22.3606C616.527 22.4862 616.124 22.6056 615.714 22.7186C613.774 23.2965 611.858 23.9936 611.94 26.4243C612.035 29.3638 610 29.1691 615.191 29.2633C620.383 29.3701 622.116 30.8963 622.727 33.1323C622.74 33.1575 622.74 33.1889 622.752 33.214" stroke="black" stroke-miterlimit="10"/>
<path d="M628.631 15.891C627.711 14.572 626.495 13.253 625.273 13.3347C624.939 13.3598 624.586 13.3786 624.239 13.4289C621.637 13.6487 618.802 14.1575 617.642 16.4877C616.319 19.1256 614.996 21.4558 615.494 22.4733C615.538 22.5801 615.62 22.6555 615.714 22.7309C616.609 23.5097 619.293 23.5851 619.463 24.4079C619.476 24.4769 619.489 24.5209 619.507 24.546" stroke="black" stroke-miterlimit="10"/>
<path d="M628.631 15.8906C629.223 16.3743 629.708 16.9647 629.954 17.6995C630.54 19.3765 629.853 17.6493 628.631 15.8906Z" stroke="black" stroke-miterlimit="10"/>
<path d="M626.067 71.2627C623.943 74.2524 624.592 73.1533 626.394 74.9433C628.543 77.0725 628.738 77.1793 631.132 77.3301C632.317 77.4117 634.673 77.217 636.545 75.4898C638.07 74.1017 639.273 71.6898 639.273 67.5947C639.273 65.6288 639.298 61.9796 639.317 57.4511C639.361 51.4277 639.424 43.8467 639.468 36.586C639.506 30.3428 639.538 24.3445 639.538 19.7846C639.538 15.1053 639.513 11.946 639.431 11.6069C639.116 10.2879 635.354 2.27348 629.141 5.72169C622.929 9.16989 622.425 10.7904 623.332 12.5176C623.508 12.8505 623.83 13.1457 624.239 13.4221C625.411 14.1883 627.295 14.7976 628.631 15.8904" stroke="black" stroke-miterlimit="10"/>
<path d="M622.431 64.3978C622.431 63.8891 621.606 60.1268 624.057 58.8078C626.451 57.5203 638.87 57.4512 639.317 57.4512C639.33 57.4512 639.33 57.4512 639.33 57.4512" stroke="black" stroke-miterlimit="10"/>
<path d="M618.455 40.0342C618.455 40.0342 617.642 46.0199 622.834 47.2384C628.026 48.4568 639.33 47.7471 639.33 47.7471" stroke="black" stroke-miterlimit="10"/>
<path d="M629.853 36.5801H639.468" stroke="black" stroke-miterlimit="10"/>
<path d="M624.662 22.0586C624.662 22.0586 623.653 24.1878 625.38 25.5068C627.113 26.8258 639.33 27.4413 639.33 27.4413" stroke="black" stroke-miterlimit="10"/>
<path d="M659.416 9.67285C659.567 10.0874 659.184 10.1816 659.184 10.1816" stroke="black" stroke-miterlimit="10"/>
<path d="M659.417 9.6724C660.16 9.98644 661.276 11.0605 662.857 10.1811C664.691 9.17621 666.108 6.62617 664.483 5.21297C662.857 3.78721 659.908 2.87648 658.988 4.29596C658.068 5.71544 657.558 7.74417 658.78 8.85588C659.158 9.22018 659.347 9.47769 659.417 9.6724Z" stroke="black" stroke-miterlimit="10"/>
<path d="M639.538 19.7787C639.538 19.7787 647.37 20.5324 648.793 19.8227C650.224 19.1192 658.364 9.57227 659.076 9.57227C659.184 9.57227 659.284 9.60995 659.41 9.66648" stroke="black" stroke-miterlimit="10"/>
<path d="M639.538 32.9558C639.538 32.9558 647.88 33.7346 649.921 32.3089C651.957 30.8957 660.501 20.036 661.931 20.1302C663.361 20.237 670.179 19.5273 670.582 20.1302C670.594 20.1554 670.607 20.1742 670.62 20.1993C671.061 20.9656 672.119 24.3824 675.263 23.5784C678.527 22.7682 678.319 21.8512 678.124 19.9293C677.916 17.9947 676.593 16.4811 674.766 16.7825C672.932 17.084 671.199 18.3088 671.199 19.2258C671.199 20.1302 670.991 20.1302 670.991 20.1302" stroke="black" stroke-miterlimit="10"/>
<path d="M639.935 41.3538C639.935 41.3538 671.936 41.8877 676.152 41.4355C676.397 41.4103 676.549 41.3915 676.593 41.3538C677.405 40.7383 678.231 37.7988 680.461 37.7988C682.704 37.7988 684.028 39.1178 683.933 40.7383C683.826 42.3588 683.108 45.1035 680.669 44.9967C678.231 44.8899 676.152 41.4857 676.152 41.4857" stroke="black" stroke-miterlimit="10"/>
<path d="M670.821 62.7149C670.556 62.4386 670.393 62.2627 670.393 62.2627" stroke="black" stroke-miterlimit="10"/>
<path d="M670.821 62.7153C671.042 62.0432 672.182 59.2168 674.772 59.2168C677.405 59.2168 678.023 61.1388 678.13 62.4577C678.237 63.7767 677.317 65.6045 675.484 65.7112C674.054 65.7866 671.76 63.6574 670.821 62.7153Z" stroke="black" stroke-miterlimit="10"/>
<path d="M639.935 50.2784L648.8 49.8701L662.447 62.7585C662.447 62.7585 670.588 63.374 670.802 62.7585C670.802 62.7459 670.815 62.7334 670.828 62.7145" stroke="black" stroke-miterlimit="10"/>
<path d="M659.101 74.1211C658.837 74.1902 658.673 74.2342 658.673 74.2342" stroke="black" stroke-miterlimit="10"/>
<path d="M659.102 74.1213C659.077 75.5471 657.835 78.7629 660.104 79.5166C662.555 80.3268 664.691 79.0079 665.296 77.6889C665.913 76.3699 665.403 73.6252 663.771 73.4304C662.479 73.2671 660.078 73.8575 659.102 74.1213Z" stroke="black" stroke-miterlimit="10"/>
<path d="M639.935 62.464C639.935 62.464 646.658 61.8485 647.47 62.464C648.283 63.0795 658.875 72.6202 659.077 73.8324C659.089 73.914 659.102 74.0145 659.102 74.1213" stroke="black" stroke-miterlimit="10"/>
<path d="M778.848 340.217C772.132 339.3 764.432 336.907 759.284 331.255C747.691 318.542 742.127 319.233 742.593 328.246C742.814 332.636 742.827 337.404 740.76 340.996C738.599 344.771 734.125 347.227 725.203 346.511C713.484 345.575 708.09 346.95 703.409 341.8C701.134 339.3 699.03 335.268 696.453 328.717C688.577 308.618 686.951 285.272 684.393 302.143C682.66 313.655 684.267 333.026 682.44 342.252C681.589 346.548 680.001 348.653 676.983 346.743C672.535 343.929 671.13 343.546 670.487 342.516C669.769 341.335 670.033 339.319 667.929 331.958C663.991 318.084 662.132 306.527 660.986 319.013C660.242 326.946 661.382 336.926 660.696 342.736C660.311 346.071 659.322 348.031 657.035 347.434C652.794 346.335 647.811 347.886 643.803 343.107C641.907 340.839 640.224 337.133 638.958 331.028C635.007 312.073 640.804 292.665 634.321 288.972C627.824 285.266 625.506 291.968 624.806 315.314C624.479 326.293 625.216 336.493 625.14 343.509C625.084 351.429 624 355.273 619.236 351.592C614.032 347.56 609.061 345.223 604.423 343.973C594.399 341.273 585.905 343.578 579.882 344.52" stroke="black" stroke-miterlimit="10"/>
<path d="M778.849 340.217C787.014 340.079 791.986 339.997 792.427 340.035C794.115 340.154 787.26 341.36 778.849 340.217Z" stroke="black" stroke-miterlimit="10"/>
<path d="M579.901 344.513C585.137 344.407 593.699 344.212 604.442 343.967C610.68 343.829 617.661 343.678 625.153 343.502C631.088 343.377 637.339 343.238 643.81 343.094C649.304 342.968 654.962 342.836 660.702 342.723C663.941 342.642 667.205 342.573 670.494 342.503C674.469 342.422 678.451 342.328 682.446 342.24C689.472 342.089 696.503 341.938 703.415 341.787C716.527 341.499 729.236 341.235 740.76 340.99C756.254 340.663 769.605 340.387 778.848 340.211" stroke="black" stroke-miterlimit="10"/>
<path d="M579.901 344.513C577.613 344.871 575.685 345.034 574.161 344.651C574.167 344.651 576.208 344.601 579.901 344.513Z" stroke="black" stroke-miterlimit="10"/>
<path d="M50.4883 462.481C49.896 463.511 49.1966 464.296 48.3964 464.811C44.723 467.128 43.5322 466.224 43.381 462.612C43.3684 462.336 43.3558 462.035 43.3558 461.708C43.3432 456.639 44.786 447.337 44.786 434.857C44.786 411.662 48.1633 371.125 42.7509 370.893C37.3259 370.673 24.2202 368.192 25.5686 371.577C26.9296 374.956 30.0863 379.014 31.4472 392.072C32.5751 402.957 38.731 445.277 38.9137 462.091C38.9263 462.286 38.9263 462.499 38.9263 462.694C38.9263 465.728 38.731 467.838 38.2269 468.648C35.0576 473.824 7.94526 475.4 0.0440521 476.757" stroke="black" stroke-miterlimit="10"/>
<path d="M110.346 458.844C110.346 458.818 110.333 458.8 110.333 458.774C110.226 458.222 110.151 457.606 110.075 456.922C108.935 445.666 110.075 412.327 106.685 410.977C103.295 409.633 99.225 405.582 101.26 430.799C102.375 444.605 103.421 453.831 103.024 458.856C102.999 459.101 102.98 459.34 102.955 459.56C102.539 463.159 101.21 464.251 98.3177 463.001C97.7821 462.769 97.2844 461.777 96.8055 460.131C96.6984 459.786 96.5976 459.403 96.5031 458.982C91.1726 436.886 89.4651 332.246 89.0555 326.744C88.6019 320.664 78.6592 319.992 78.6592 322.241C78.6592 324.37 85.3065 442.482 85.8484 459.315C85.8862 460.1 85.8925 460.671 85.8862 460.992C85.8862 461.073 85.8862 461.142 85.8862 461.199C85.6657 465.47 80.9275 470.658 78.2055 462.323C78.1236 462.059 78.0417 461.777 77.9724 461.475C77.8338 460.91 77.7267 460.294 77.6448 459.635C76.4224 450.057 80.3856 432.074 75.2631 431.465C70.6509 430.919 66.7948 429.323 66.5175 434.386C66.4608 435.535 66.5743 437.005 66.9145 438.902C68.3574 447.18 70.2224 455.596 69.6553 460.024C69.5608 460.778 69.397 461.412 69.1324 461.915C69.019 462.172 68.874 462.38 68.7165 462.549C67.1161 464.295 65.6039 464.54 64.6273 462.072C64.432 461.588 64.2556 461.004 64.1043 460.313C63.8271 459.051 63.6255 457.405 63.5247 455.345C63.3419 451.734 63.594 443.336 63.9342 434.292C64.4194 420.769 65.0621 405.795 64.6525 403.094C63.9783 398.591 52.0005 392.731 52.4542 406.913C52.8511 419.255 55.9763 449.805 51.1436 461.117C50.9483 461.601 50.7277 462.041 50.482 462.461" stroke="black" stroke-miterlimit="10"/>
<path d="M110.346 458.844C112.948 458.881 114.542 458.995 114.82 459.177C116.729 460.445 111.896 467.241 110.346 458.844Z" stroke="black" stroke-miterlimit="10"/>
<path d="M109.804 458.831C109.987 458.831 110.175 458.844 110.352 458.844" stroke="black" stroke-miterlimit="10"/>
<path d="M31.1385 462.839C33.5455 462.575 36.154 462.318 38.92 462.085C40.3629 461.947 41.8499 461.821 43.3558 461.702C45.8761 461.507 48.4784 461.306 51.1499 461.124C55.3777 460.835 59.7316 460.559 64.1107 460.314C65.9568 460.22 67.8155 460.119 69.6617 460.025C72.3584 459.887 75.0299 459.761 77.6511 459.642C80.4612 459.529 83.2021 459.41 85.8547 459.315C89.6415 459.177 93.233 459.058 96.5094 458.982C98.8533 458.926 101.04 458.876 103.024 458.857C105.658 458.819 107.939 458.819 109.773 458.832" stroke="black" stroke-miterlimit="10"/>
<path d="M31.1386 462.839C30.9306 462.839 30.729 462.851 30.5211 462.851C-1.36727 463.486 0.504073 468.642 19.2553 464.579C22.0906 463.963 26.1924 463.385 31.1386 462.839Z" stroke="black" stroke-miterlimit="10"/>
<path d="M109.779 458.831C107.466 459.095 105.192 459.34 102.961 459.56C100.882 459.767 98.8407 459.955 96.8181 460.125C93.0755 460.458 89.4399 460.753 85.8988 460.992C83.2147 461.174 80.581 461.337 77.9913 461.475C74.9858 461.639 72.0434 461.777 69.1513 461.902C67.6265 461.959 66.1332 462.015 64.6462 462.066C59.8009 462.248 55.1005 462.367 50.5009 462.461C50.5009 462.461 50.5009 462.461 50.5009 462.474C48.1066 462.518 45.7375 462.568 43.3936 462.6C41.9066 462.637 40.4197 462.656 38.9453 462.681C36.3304 462.725 33.7282 462.775 31.1512 462.832" stroke="black" stroke-miterlimit="10"/>
<path d="M109.779 458.831C109.792 458.831 109.792 458.831 109.805 458.831" stroke="black" stroke-miterlimit="10"/>
<path d="M182.704 442.067C166.442 444.385 165.283 450.176 150.898 452.776C136.009 455.464 122.614 457.386 110.333 458.775C110.157 458.8 109.974 458.818 109.798 458.831" stroke="black" stroke-miterlimit="10"/>
<path d="M478.911 164.164C479.006 164.082 479.088 164.001 479.176 163.932C500.422 144.649 576.448 160.27 636.538 75.4905C636.652 75.3272 636.772 75.1639 636.885 75.0068" stroke="black" stroke-miterlimit="10"/>
<path d="M533.508 373.75C533.552 373.738 533.602 373.725 533.646 373.713C545.183 371.225 552.183 344.802 574.161 344.802" stroke="black" stroke-miterlimit="10"/>
</svg>
