<svg width="183" height="87" viewBox="0 0 183 87" fill="none" xmlns="http://www.w3.org/2000/svg">
<path fill-rule="evenodd" clip-rule="evenodd" d="M85.418 0V32.1136H91.1261C86.845 41.5909 78.2149 50.1818 65.1677 58.0227L55.0426 50.0455C62.9252 42.4091 67.2743 35.3182 67.9538 28.9091H48.1113V0H85.418ZM105.804 58.0227L95.6793 50.0455C103.63 42.4091 107.911 35.3182 108.659 28.9091H88.816V0H134.889V17.7273C134.889 33 125.171 46.4318 105.804 58.0227Z" fill="black"/>
<path d="M3.94133 83.114H11.5522V79.9094C9.17378 79.4322 7.20312 79.0913 5.70813 78.6822C4.21314 78.3413 3.05793 77.9322 2.17453 77.4549C1.35908 76.9776 0.747494 76.4322 0.475678 75.8185C0.203862 75.1367 0 74.3185 0 73.2958C0 72.3413 0.135908 71.5231 0.407724 70.8413C0.67954 70.1594 1.08726 69.5458 1.69885 69.0685C2.31043 68.5913 3.12588 68.2504 4.07724 67.9776C5.09655 67.7731 6.31972 67.6367 7.74675 67.6367C9.17378 67.6367 10.397 67.7731 11.4163 68.0458C12.4356 68.3185 13.1831 68.6594 13.7947 69.1367C14.4062 69.614 14.814 70.2276 15.0858 70.9776C15.3576 71.7276 15.4935 72.5458 15.4935 73.4322H11.5522V71.5231H3.94133V74.6594C6.31972 75.1367 8.22243 75.5458 9.71742 75.8185C11.2124 76.1594 12.3676 76.5004 13.251 76.9095C14.1344 77.3185 14.6781 77.864 15.0178 78.5458C15.3576 79.1594 15.4935 80.0458 15.4935 81.2049C15.4935 82.1594 15.3576 82.9776 15.0858 83.6594C14.814 84.4094 14.4062 84.9549 13.7947 85.5004C13.1831 85.9776 12.3676 86.3867 11.4163 86.5913C10.397 86.864 9.24174 87.0004 7.74675 87.0004C6.31972 87.0004 5.09655 86.864 4.07724 86.5913C3.05793 86.3185 2.31043 85.9776 1.69885 85.5004C1.08726 85.0231 0.67954 84.4094 0.407724 83.6594C0.135908 82.9094 0 82.0913 0 81.2049H3.94133V83.114Z" fill="black"/>
<path d="M32.1422 73.4322C32.1422 74.3867 32.0063 75.2049 31.7345 75.8867C31.4627 76.6367 31.055 77.1822 30.4434 77.7276C29.8318 78.2049 29.0164 78.614 28.065 78.8185C27.0457 79.0913 25.8905 79.2276 24.3955 79.2276H20.5901V86.9322H16.6487V67.6367H24.3955C25.8225 67.6367 27.0457 67.7731 28.065 68.0458C29.0843 68.3185 29.8318 68.6594 30.4434 69.1367C31.055 69.614 31.4627 70.2276 31.7345 70.9776C32.0063 71.6594 32.1422 72.5458 32.1422 73.4322ZM28.2009 71.5231H20.5901V75.3413H28.2009V71.5231Z" fill="black"/>
<path d="M48.791 81.2051C48.791 82.1596 48.6551 82.9778 48.3833 83.6596C48.1114 84.4096 47.7037 84.9551 47.0921 85.5005C46.4806 85.9778 45.6651 86.3869 44.7137 86.5915C43.6944 86.8642 42.5392 87.0005 41.0442 87.0005C39.6172 87.0005 38.394 86.8642 37.3747 86.5915C36.3554 86.3187 35.6079 85.9778 34.9963 85.5005C34.3847 85.0233 33.977 84.4096 33.7052 83.6596C33.4334 82.9096 33.2975 82.0914 33.2975 81.2051V73.5005C33.2975 72.546 33.4334 71.7278 33.7052 71.046C33.977 70.3642 34.3847 69.7505 34.9963 69.2051C35.6079 68.7278 36.4234 68.3187 37.3747 68.1142C38.394 67.8414 39.6172 67.7051 41.0442 67.7051C42.4713 67.7051 43.6944 67.8414 44.7137 68.1142C45.7331 68.3869 46.4806 68.7278 47.0921 69.2051C47.7037 69.6824 48.1114 70.296 48.3833 71.046C48.6551 71.796 48.791 72.6142 48.791 73.5005V81.2051ZM37.2388 71.5233V83.1142H44.8497V71.5233H37.2388Z" fill="black"/>
<path d="M61.4983 71.5231H53.8874V87.0004H49.9461V73.4322C49.9461 72.4776 50.082 71.6594 50.3538 70.9776C50.6256 70.2958 51.0334 69.6822 51.645 69.1367C52.2565 68.6594 53.072 68.2504 54.0233 68.0458C55.0427 67.7731 56.2658 67.6367 57.6929 67.6367C59.1199 67.6367 60.3431 67.7731 61.3624 68.0458C62.3817 68.3185 63.1292 68.6594 63.7408 69.1367C64.3524 69.614 64.7601 70.2276 65.0319 70.9776C65.3037 71.7276 65.4396 72.5458 65.4396 73.4322V87.0004H61.4983V71.5231Z" fill="black"/>
<path d="M70.5362 83.114H78.1471V79.9094C75.7687 79.4322 73.798 79.0913 72.303 78.6822C70.8081 78.3413 69.6528 77.9322 68.7694 77.4549C67.954 76.9776 67.3424 76.4322 67.0706 75.8185C66.7988 75.1367 66.5949 74.3185 66.5949 73.2958C66.5949 72.3413 66.7308 71.5231 67.0026 70.8413C67.2744 70.1594 67.6822 69.5458 68.2938 69.0685C68.9053 68.5913 69.7208 68.2504 70.6721 67.9776C71.6915 67.7731 72.9146 67.6367 74.3417 67.6367C75.7687 67.6367 76.9919 67.7731 78.0112 68.0458C79.0305 68.3185 79.778 68.6594 80.3896 69.1367C81.0012 69.614 81.4089 70.2276 81.6807 70.9776C81.9525 71.7276 82.0884 72.5458 82.0884 73.4322H78.1471V71.5231H70.5362V74.6594C72.9146 75.1367 74.8173 75.5458 76.3123 75.8185C77.8073 76.1594 78.9625 76.5004 79.8459 76.9095C80.6614 77.3185 81.273 77.864 81.6127 78.5458C81.9525 79.1594 82.0884 80.0458 82.0884 81.2049C82.0884 82.1594 81.9525 82.9776 81.6807 83.6594C81.4089 84.4094 81.0012 84.9549 80.3896 85.5004C79.778 85.9776 78.9625 86.3867 78.0112 86.5913C76.9919 86.864 75.8367 87.0004 74.3417 87.0004C72.9146 87.0004 71.6915 86.864 70.6721 86.5913C69.6528 86.3185 68.9053 85.9776 68.2938 85.5004C67.6822 85.0231 67.2744 84.4094 67.0026 83.6594C66.7308 82.9094 66.5949 82.0913 66.5949 81.2049H70.5362V83.114Z" fill="black"/>
<path d="M98.7371 81.2051C98.7371 82.1596 98.6012 82.9778 98.3294 83.6596C98.0576 84.4096 97.6498 84.9551 97.0382 85.5005C96.4267 85.9778 95.6112 86.3869 94.6599 86.5915C93.6406 86.8642 92.4853 87.0005 90.9903 87.0005C89.5633 87.0005 88.3401 86.8642 87.3208 86.5915C86.3015 86.3187 85.554 85.9778 84.9424 85.5005C84.3309 85.0233 83.9231 84.4096 83.6513 83.6596C83.3795 82.9096 83.2436 82.0914 83.2436 81.2051V73.5005C83.2436 72.546 83.3795 71.7278 83.6513 71.046C83.9231 70.3642 84.3309 69.7505 84.9424 69.2051C85.554 68.7278 86.3695 68.3187 87.3208 68.1142C88.3401 67.8414 89.5633 67.7051 90.9903 67.7051C92.4174 67.7051 93.6406 67.8414 94.6599 68.1142C95.6792 68.3869 96.4267 68.7278 97.0382 69.2051C97.6498 69.6824 98.0576 70.296 98.3294 71.046C98.6012 71.796 98.7371 72.6142 98.7371 73.5005V81.2051ZM87.1849 71.5233V83.1142H94.7958V71.5233H87.1849Z" fill="black"/>
<path d="M115.386 73.4322C115.386 74.5913 115.182 75.5458 114.774 76.364C114.366 77.1822 113.687 77.7958 112.804 78.2731C113.075 78.6822 113.211 79.0913 113.415 79.6367C113.551 80.114 113.755 80.6594 113.823 81.2049L115.182 87.0004H111.173L109.814 81.2049L109.338 79.2958H103.698V87.0004H99.8923V67.6367H107.639C109.066 67.6367 110.289 67.7731 111.309 68.0458C112.328 68.3185 113.075 68.6594 113.687 69.1367C114.299 69.614 114.706 70.2276 114.978 70.9776C115.25 71.6594 115.386 72.5458 115.386 73.4322ZM111.444 71.5231H103.834V75.3413H111.444V71.5231Z" fill="black"/>
<path d="M120.482 67.6367V83.114H127.753V86.9322H124.355C122.928 86.9322 121.705 86.7958 120.686 86.5231C119.667 86.2504 118.919 85.9095 118.308 85.4322C117.696 84.9549 117.288 84.3413 117.016 83.5913C116.745 82.8413 116.609 82.0231 116.609 81.1367V67.6367H120.482Z" fill="black"/>
<path d="M143.043 77.5231C142.839 78.4776 142.567 79.2958 142.363 79.9094C142.092 80.5231 141.82 81.0685 141.48 81.4776C141.14 81.8867 140.732 82.2276 140.257 82.5004C139.781 82.7731 139.305 82.9776 138.694 83.114V87.0004H134.685V83.114C134.073 82.9776 133.529 82.7731 133.054 82.5685C132.578 82.364 132.102 82.0231 131.763 81.614C131.423 81.2049 131.083 80.6595 130.879 80.0458C130.607 79.4322 130.471 78.5458 130.336 77.5231L128.841 67.6367H132.782L134.413 79.4322H138.762L140.461 67.6367H144.47L143.043 77.5231Z" fill="black"/>
<path d="M145.625 71.5231C145.625 70.5685 145.761 69.8185 146.033 69.3413C146.305 68.7958 146.712 68.4549 147.324 68.1822C147.936 67.9094 148.751 67.7731 149.702 67.7049C150.722 67.6367 151.945 67.6367 153.372 67.6367C154.799 67.6367 156.022 67.6367 157.041 67.7049C158.061 67.7731 158.808 67.9094 159.42 68.1822C160.031 68.4549 160.439 68.7958 160.711 69.3413C160.983 69.8867 161.119 70.5685 161.119 71.5231H155.343V87.0004H151.333V71.5231H145.625Z" fill="black"/>
<path d="M162.274 67.6367H166.215V87.0004H162.274V67.6367Z" fill="black"/>
<path d="M181.505 81.2051L183 87.0005H178.991L177.088 79.296H173.282L171.312 87.0005H167.37L168.865 81.2051C169.069 80.3869 169.273 79.6369 169.545 79.0233C169.817 78.4096 170.157 77.796 170.564 77.3869C170.157 76.9096 169.817 76.296 169.545 75.6824C169.273 75.0687 169.069 74.3187 168.865 73.5005L167.37 67.7051H171.312L173.282 75.4096H177.088L178.991 67.7051H183L181.505 73.5005C181.301 74.3187 181.029 75.0687 180.757 75.6824C180.486 76.296 180.146 76.9096 179.806 77.3869C180.146 77.8642 180.486 78.4096 180.757 79.0233C181.029 79.6369 181.301 80.3869 181.505 81.2051Z" fill="black"/>
</svg>
